<svg width="6" height="6" viewBox="0 0 6 6" fill="none" xmlns="http://www.w3.org/2000/svg">
<path d="M2.2518 0.621695C2.46662 -0.13103 3.53338 -0.13103 3.7482 0.621695C3.86343 1.02548 4.27827 1.26499 4.68557 1.16289C5.44486 0.972565 5.97824 1.8964 5.43377 2.45881C5.1417 2.76049 5.1417 3.23951 5.43377 3.54119C5.97824 4.10359 5.44486 5.02743 4.68557 4.83711C4.27827 4.73501 3.86343 4.97452 3.7482 5.3783C3.53338 6.13103 2.46662 6.13103 2.2518 5.3783C2.13657 4.97452 1.72173 4.73501 1.31443 4.83711C0.555138 5.02743 0.021759 4.10359 0.566229 3.54119C0.858299 3.23951 0.858299 2.76049 0.566229 2.45881C0.0217588 1.8964 0.555138 0.972565 1.31443 1.16289C1.72173 1.26499 2.13657 1.02548 2.2518 0.621695Z" fill="#5280E2"/>
</svg>
