<svg width="225" height="186" viewBox="0 0 225 186" fill="none" xmlns="http://www.w3.org/2000/svg">
<g clip-path="url(#clip0_88_4597)">
<path d="M273.794 185.747C273.794 185.815 201.591 185.874 112.544 185.874C23.4968 185.874 -48.7207 185.815 -48.7207 185.747C-48.7207 185.678 23.4674 185.62 112.544 185.62C201.62 185.62 273.794 185.678 273.794 185.747Z" fill="#B9B9B9"/>
<path d="M186.716 59.4691H35.0498C30.9098 59.4691 27.5537 62.8252 27.5537 66.9652V178.251C27.5537 182.391 30.9098 185.747 35.0498 185.747H186.716C190.856 185.747 194.213 182.391 194.213 178.251V66.9652C194.213 62.8252 190.856 59.4691 186.716 59.4691Z" fill="white"/>
<path d="M105.552 87.6553H39.2764V174.241H105.552V87.6553Z" fill="white"/>
<path d="M54.2427 112.107C58.9665 112.107 62.7959 108.277 62.7959 103.553C62.7959 98.8295 58.9665 95.0001 54.2427 95.0001C49.5189 95.0001 45.6895 98.8295 45.6895 103.553C45.6895 108.277 49.5189 112.107 54.2427 112.107Z" fill="#E5ECFB"/>
<path d="M105.493 173.964C105.493 173.964 105.49 173.44 105.487 172.434C105.487 171.427 105.484 169.938 105.481 167.986C105.478 164.073 105.471 158.321 105.468 150.895C105.462 136.063 105.45 114.566 105.437 87.9018L105.493 88.0867C88.8261 88.1072 65.3473 88.138 39.3573 88.1688H39.3542L39.4351 87.9018C39.4351 118.007 39.4351 147.084 39.432 173.964L39.3542 173.707C58.5044 173.759 75.0282 173.8 86.7692 173.831C92.6443 173.861 97.3214 173.882 100.533 173.903C102.139 173.913 103.377 173.923 104.217 173.933C104.634 173.933 104.955 173.944 105.169 173.954C105.384 173.954 105.496 173.974 105.496 173.974C105.496 173.974 105.39 173.985 105.179 173.995C104.964 173.995 104.65 173.995 104.236 174.016C103.399 174.016 102.167 174.036 100.57 174.046C97.3619 174.067 92.691 174.087 86.8252 174.118C75.0718 174.149 58.5293 174.19 39.3573 174.241H39.2795V173.985C39.2795 147.115 39.2795 118.027 39.2764 87.9223V87.6553H39.3604C65.3504 87.6861 88.8292 87.7169 105.496 87.7374H105.552V87.9223C105.54 114.638 105.527 136.166 105.521 151.029C105.515 158.434 105.512 164.176 105.509 168.079C105.509 170.01 105.506 171.489 105.502 172.495C105.502 173.492 105.496 173.985 105.496 173.985L105.493 173.964Z" fill="#B9B9B9"/>
<path d="M88.9247 131.813C88.9247 131.896 79.2153 131.968 67.2408 131.968C55.2664 131.968 45.5527 131.896 45.5527 131.813C45.5527 131.729 55.2621 131.657 67.2408 131.657C79.2196 131.657 88.9247 131.729 88.9247 131.813Z" fill="#333333"/>
<path d="M95.5527 166.914C95.5527 166.998 84.3596 167.07 70.5552 167.07C56.7508 167.07 45.5527 166.998 45.5527 166.914C45.5527 166.83 56.7459 166.759 70.5552 166.759C84.3645 166.759 95.5527 166.83 95.5527 166.914Z" fill="#333333"/>
<path d="M95.5527 143.397C95.5527 143.481 84.3596 143.553 70.5552 143.553C56.7508 143.553 45.5527 143.481 45.5527 143.397C45.5527 143.313 56.7459 143.241 70.5552 143.241C84.3645 143.241 95.5527 143.313 95.5527 143.397Z" fill="#333333"/>
<path d="M88.9247 154.981C88.9247 155.065 79.2153 155.137 67.2408 155.137C55.2664 155.137 45.5527 155.065 45.5527 154.981C45.5527 154.898 55.2621 154.826 67.2408 154.826C79.2196 154.826 88.9247 154.898 88.9247 154.981Z" fill="#333333"/>
<path d="M48.0163 118.504L48.895 120.264L50.8655 120.547L49.4409 121.915L49.7777 123.847L48.0163 122.934L46.2587 123.847L46.5916 121.915L45.1709 120.547L47.1375 120.264L48.0163 118.504Z" fill="#5280E2"/>
<path d="M54.5279 118.504L55.4067 120.264L57.3733 120.547L55.9487 121.915L56.2855 123.847L54.5279 122.934L52.7665 123.847L53.1033 121.915L51.6787 120.547L53.6453 120.264L54.5279 118.504Z" fill="#5280E2"/>
<path d="M61.0348 118.504L61.9136 120.264L63.884 120.547L62.4594 121.915L62.7962 123.847L61.0348 122.934L59.2773 123.847L59.6102 121.915L58.1895 120.547L60.156 120.264L61.0348 118.504Z" fill="#5280E2"/>
<path d="M67.5465 118.504L68.4253 120.264L70.3919 120.547L68.9672 121.915L69.304 123.847L67.5465 122.934L65.7851 123.847L66.1219 121.915L64.6973 120.547L66.6639 120.264L67.5465 118.504Z" fill="#E8E8E8"/>
<path d="M74.0543 118.504L74.9331 120.264L76.9036 120.547L75.479 121.915L75.8158 123.847L74.0543 122.934L72.2968 123.847L72.6297 121.915L71.209 120.547L73.1756 120.264L74.0543 118.504Z" fill="#E8E8E8"/>
<path d="M67.6344 137.599C67.6344 137.683 62.8696 137.755 56.9881 137.755C51.1065 137.755 46.3418 137.683 46.3418 137.599C46.3418 137.516 51.1065 137.444 56.9881 137.444C62.8696 137.444 67.6344 137.516 67.6344 137.599Z" fill="#B9B9B9"/>
<path d="M78.4108 149.184C78.4108 149.268 71.2346 149.339 62.3763 149.339C53.518 149.339 46.3418 149.268 46.3418 149.184C46.3418 149.1 53.518 149.028 62.3763 149.028C71.2346 149.028 78.4108 149.1 78.4108 149.184Z" fill="#B9B9B9"/>
<path d="M84.8246 160.768C84.8246 160.852 76.2131 160.924 65.5832 160.924C54.9532 160.924 46.3418 160.852 46.3418 160.768C46.3418 160.684 54.9532 160.613 65.5832 160.613C76.2131 160.613 84.8246 160.684 84.8246 160.768Z" fill="#B9B9B9"/>
<path d="M182.517 87.6553H116.241V174.241H182.517V87.6553Z" fill="white"/>
<path d="M131.208 112.107C135.931 112.107 139.761 108.277 139.761 103.553C139.761 98.8295 135.931 95.0001 131.208 95.0001C126.484 95.0001 122.654 98.8295 122.654 103.553C122.654 108.277 126.484 112.107 131.208 112.107Z" fill="#E5ECFB"/>
<path d="M182.458 173.964C182.458 173.964 182.455 173.44 182.452 172.434C182.452 171.427 182.449 169.938 182.445 167.986C182.442 164.073 182.436 158.321 182.433 150.895C182.427 136.063 182.414 114.566 182.402 87.9018L182.458 88.0867C165.791 88.1072 142.312 88.138 116.322 88.1688H116.319L116.4 87.9018C116.4 118.007 116.4 147.084 116.397 173.964L116.319 173.707C135.469 173.759 151.993 173.8 163.734 173.831C169.609 173.861 174.286 173.882 177.498 173.903C179.103 173.913 180.342 173.923 181.182 173.933C181.599 173.933 181.92 173.944 182.134 173.954C182.349 173.954 182.461 173.974 182.461 173.974C182.461 173.974 182.355 173.985 182.144 173.995C181.929 173.995 181.615 173.995 181.201 174.016C180.364 174.016 179.131 174.036 177.535 174.046C174.327 174.067 169.656 174.087 163.79 174.118C152.037 174.149 135.494 174.19 116.322 174.241H116.244V173.985C116.244 147.115 116.244 118.027 116.241 87.9223V87.6553H116.325C142.315 87.6861 165.794 87.7169 182.461 87.7374H182.517V87.9223C182.505 114.638 182.492 136.166 182.486 151.029C182.48 158.434 182.477 164.176 182.474 168.079C182.474 170.01 182.47 171.489 182.467 172.495C182.467 173.492 182.461 173.985 182.461 173.985L182.458 173.964Z" fill="#B9B9B9"/>
<path d="M165.89 131.813C165.89 131.896 156.18 131.968 144.206 131.968C132.231 131.968 122.518 131.896 122.518 131.813C122.518 131.729 132.227 131.657 144.206 131.657C156.184 131.657 165.89 131.729 165.89 131.813Z" fill="#333333"/>
<path d="M172.518 166.914C172.518 166.998 161.324 167.07 147.52 167.07C133.716 167.07 122.518 166.998 122.518 166.914C122.518 166.83 133.711 166.759 147.52 166.759C161.329 166.759 172.518 166.83 172.518 166.914Z" fill="#333333"/>
<path d="M172.518 143.397C172.518 143.481 161.324 143.553 147.52 143.553C133.716 143.553 122.518 143.481 122.518 143.397C122.518 143.313 133.711 143.241 147.52 143.241C161.329 143.241 172.518 143.313 172.518 143.397Z" fill="#333333"/>
<path d="M165.89 154.981C165.89 155.065 156.18 155.137 144.206 155.137C132.231 155.137 122.518 155.065 122.518 154.981C122.518 154.898 132.227 154.826 144.206 154.826C156.184 154.826 165.89 154.898 165.89 154.981Z" fill="#333333"/>
<path d="M124.981 118.504L125.86 120.264L127.83 120.547L126.406 121.915L126.743 123.847L124.981 122.934L123.224 123.847L123.556 121.915L122.136 120.547L124.102 120.264L124.981 118.504Z" fill="#5280E2"/>
<path d="M131.493 118.504L132.372 120.264L134.338 120.547L132.914 121.915L133.25 123.847L131.493 122.934L129.731 123.847L130.068 121.915L128.644 120.547L130.61 120.264L131.493 118.504Z" fill="#5280E2"/>
<path d="M138 118.504L138.878 120.264L140.849 120.547L139.424 121.915L139.761 123.847L138 122.934L136.242 123.847L136.575 121.915L135.154 120.547L137.121 120.264L138 118.504Z" fill="#5280E2"/>
<path d="M144.511 118.504L145.39 120.264L147.357 120.547L145.932 121.915L146.269 123.847L144.511 122.934L142.75 123.847L143.087 121.915L141.662 120.547L143.629 120.264L144.511 118.504Z" fill="#E8E8E8"/>
<path d="M151.019 118.504L151.898 120.264L153.868 120.547L152.444 121.915L152.781 123.847L151.019 122.934L149.262 123.847L149.595 121.915L148.174 120.547L150.14 120.264L151.019 118.504Z" fill="#E8E8E8"/>
<path d="M144.599 137.599C144.599 137.683 139.834 137.755 133.953 137.755C128.071 137.755 123.307 137.683 123.307 137.599C123.307 137.516 128.071 137.444 133.953 137.444C139.834 137.444 144.599 137.516 144.599 137.599Z" fill="#B9B9B9"/>
<path d="M155.376 149.184C155.376 149.268 148.199 149.339 139.341 149.339C130.483 149.339 123.307 149.268 123.307 149.184C123.307 149.1 130.483 149.028 139.341 149.028C148.199 149.028 155.376 149.1 155.376 149.184Z" fill="#B9B9B9"/>
<path d="M161.789 160.768C161.789 160.852 153.178 160.924 142.548 160.924C131.918 160.924 123.307 160.852 123.307 160.768C123.307 160.684 131.918 160.613 142.548 160.613C153.178 160.613 161.789 160.684 161.789 160.768Z" fill="#B9B9B9"/>
<path d="M34.942 59.4691H186.555C190.817 59.4691 194.276 62.9281 194.276 67.1906V76.5142H27.5537V66.8525C27.5537 62.7762 30.8608 59.4691 34.9371 59.4691H34.942Z" fill="#333333"/>
<path d="M186.722 185.747C186.722 185.747 186.849 185.737 187.094 185.722C187.217 185.713 187.373 185.713 187.555 185.688C187.736 185.659 187.947 185.624 188.192 185.59C188.427 185.536 188.696 185.463 188.985 185.384C189.264 185.272 189.588 185.184 189.906 185.012C190.558 184.708 191.278 184.253 191.954 183.581C192.63 182.915 193.267 182.033 193.679 180.931C193.728 180.794 193.782 180.652 193.831 180.514C193.875 180.372 193.909 180.22 193.948 180.073C194.037 179.779 194.071 179.466 194.12 179.147C194.188 178.51 194.179 177.839 194.174 177.144C194.174 174.351 194.169 171.132 194.164 167.511C194.154 153.009 194.139 132.035 194.125 106.112C194.125 99.6298 194.12 92.8391 194.115 85.7644C194.115 82.227 194.115 78.6161 194.115 74.9416C194.115 73.1043 194.115 71.2474 194.115 69.3758C194.105 68.4449 194.135 67.4944 194.095 66.5635C194.046 65.6326 193.816 64.7115 193.424 63.859C192.64 62.154 191.161 60.7577 189.377 60.0767C188.485 59.7288 187.53 59.577 186.56 59.5819C185.585 59.5819 184.605 59.5819 183.62 59.5819C179.681 59.5819 175.683 59.5819 171.622 59.5819C163.503 59.5819 155.15 59.5818 146.581 59.5867C112.309 59.5867 74.6277 59.5916 35.0747 59.5965C33.8596 59.6014 32.6495 59.9052 31.5765 60.4735C30.5133 61.0566 29.5922 61.8895 28.921 62.8939C28.2645 63.9031 27.8382 65.0692 27.7255 66.2696C27.6814 66.8673 27.6912 67.4797 27.6912 68.0921V69.9245C27.6912 74.8093 27.6912 79.6597 27.6912 84.4758C27.6912 94.1081 27.6912 103.598 27.6912 112.927C27.6912 131.579 27.6863 149.57 27.6814 166.713C27.6814 168.854 27.6814 170.985 27.6814 173.102C27.6814 174.16 27.6814 175.213 27.6814 176.267C27.701 177.315 27.6276 178.373 27.7745 179.388C28.0783 181.421 29.2787 183.287 30.9739 184.405C31.8166 184.963 32.7768 185.345 33.7665 185.522C34.7562 185.703 35.7802 185.624 36.7944 185.644C44.9127 185.644 52.7959 185.644 60.4194 185.649C75.6615 185.654 89.86 185.659 102.819 185.664C128.742 185.678 149.716 185.693 164.214 185.703C171.46 185.713 177.089 185.722 180.906 185.727C182.812 185.732 184.267 185.737 185.247 185.742C186.227 185.742 186.727 185.757 186.727 185.757C186.727 185.757 186.227 185.767 185.247 185.771C184.267 185.771 182.812 185.776 180.906 185.786C177.089 185.791 171.46 185.801 164.214 185.811C149.716 185.82 128.737 185.835 102.819 185.85C89.86 185.85 75.6615 185.86 60.4194 185.865C52.7959 185.865 44.9176 185.865 36.7944 185.869C35.7851 185.855 34.7562 185.933 33.7273 185.747C32.7034 185.571 31.7186 185.174 30.8465 184.596C29.0974 183.444 27.8627 181.524 27.5443 179.427C27.3875 178.368 27.4659 177.32 27.4463 176.271C27.4463 175.223 27.4463 174.165 27.4463 173.106C27.4463 170.99 27.4463 168.864 27.4463 166.718C27.4463 149.579 27.4463 131.589 27.4365 112.932C27.4365 103.603 27.4365 94.113 27.4365 84.4807C27.4365 79.6646 27.4365 74.8142 27.4365 69.9294V68.0971C27.4365 67.4846 27.4267 66.8771 27.4708 66.25C27.5835 65.0104 28.0244 63.8003 28.7054 62.7567C29.4011 61.718 30.3516 60.8557 31.454 60.2531C32.5613 59.67 33.8155 59.3516 35.0698 59.3467C74.6228 59.3467 112.299 59.3516 146.576 59.3565C155.145 59.3565 163.498 59.3565 171.617 59.3614C175.678 59.3614 179.676 59.3614 183.615 59.3614C184.6 59.3614 185.58 59.3614 186.555 59.3614C187.54 59.3614 188.534 59.5182 189.451 59.8758C191.288 60.5764 192.807 62.012 193.615 63.7709C194.022 64.6479 194.257 65.5983 194.306 66.5537C194.345 67.5091 194.316 68.44 194.326 69.3807C194.326 71.2523 194.326 73.1092 194.326 74.9464C194.326 78.621 194.326 82.2319 194.326 85.7693C194.326 92.844 194.321 99.6346 194.316 106.117C194.301 132.039 194.286 153.014 194.277 167.516C194.277 171.142 194.267 174.361 194.267 177.148C194.267 177.844 194.277 178.52 194.203 179.162C194.154 179.481 194.115 179.799 194.027 180.093C193.988 180.24 193.953 180.392 193.909 180.534C193.855 180.676 193.806 180.818 193.752 180.955C193.331 182.063 192.689 182.954 192.003 183.616C191.322 184.292 190.592 184.743 189.936 185.046C189.612 185.218 189.289 185.306 189.005 185.414C188.711 185.492 188.446 185.561 188.206 185.615C187.966 185.649 187.751 185.683 187.569 185.708C187.388 185.727 187.231 185.727 187.109 185.737C186.859 185.747 186.736 185.747 186.736 185.747H186.722Z" fill="#A3A3A3"/>
<path d="M38.4849 69.0132C38.4849 70.0911 37.6128 70.9681 36.5301 70.9681C35.4473 70.9681 34.5752 70.096 34.5752 69.0132C34.5752 67.9304 35.4473 67.0583 36.5301 67.0583C37.6128 67.0583 38.4849 67.9304 38.4849 69.0132Z" fill="white"/>
<path d="M44.3394 69.0132C44.3394 70.0911 43.4673 70.9681 42.3846 70.9681C41.3018 70.9681 40.4297 70.096 40.4297 69.0132C40.4297 67.9304 41.3018 67.0583 42.3846 67.0583C43.4673 67.0583 44.3394 67.9304 44.3394 69.0132Z" fill="white"/>
<path d="M50.1998 69.0132C50.1998 70.0911 49.3277 70.9681 48.2449 70.9681C47.1621 70.9681 46.29 70.096 46.29 69.0132C46.29 67.9304 47.1621 67.0583 48.2449 67.0583C49.3277 67.0583 50.1998 67.9304 50.1998 69.0132Z" fill="white"/>
<path d="M126.229 44.9424L118.218 15.5948C116.464 8.23098 110.712 3.11108 103.398 5.07085L102.731 5.29132C96.0338 7.51076 92.1632 14.4973 93.8388 21.3516C95.3968 27.7258 97.1998 34.7516 98.3414 38.0685C100.713 44.9375 107.964 43.7224 107.964 43.7224C107.979 43.7224 109.223 47.9555 109.806 50.0084L109.537 55.2655L114.877 52.2229L126.224 44.9424H126.229Z" fill="#FFBF9D"/>
<path d="M107.964 43.7225C107.964 43.7225 112.393 42.5368 116.063 38.093C116.063 38.093 115.622 43.9919 108.532 45.6528L107.964 43.7225Z" fill="#FF9A6C"/>
<path d="M98.4644 27.3142C98.6162 27.8385 99.1895 28.1422 99.7431 27.9953C100.297 27.8434 100.62 27.2995 100.463 26.7704C100.311 26.2462 99.7382 25.9424 99.1846 26.0894C98.6309 26.2413 98.3076 26.79 98.4644 27.3142Z" fill="#333333"/>
<path d="M96.313 23.9092C96.4796 23.9974 97.043 23.1988 98.1013 22.8509C99.1547 22.4884 100.115 22.7774 100.188 22.6059C100.228 22.5276 100.027 22.3414 99.6054 22.2042C99.189 22.067 98.5423 22.018 97.8857 22.2385C97.2292 22.459 96.754 22.8901 96.5139 23.2429C96.2689 23.6005 96.2395 23.87 96.3179 23.9092H96.313Z" fill="#333333"/>
<path d="M107.351 24.4431C107.503 24.9674 108.076 25.2711 108.63 25.1242C109.183 24.9723 109.507 24.4284 109.35 23.8993C109.198 23.3751 108.625 23.0713 108.071 23.2183C107.518 23.3702 107.194 23.9189 107.351 24.4431Z" fill="#333333"/>
<path d="M106.783 20.7147C106.949 20.8029 107.513 20.0043 108.571 19.6565C109.624 19.2939 110.585 19.583 110.658 19.4115C110.697 19.3331 110.497 19.1469 110.075 19.0097C109.659 18.8725 109.012 18.8236 108.355 19.044C107.699 19.2645 107.224 19.6956 106.984 20.0484C106.744 20.4061 106.709 20.6755 106.788 20.7147H106.783Z" fill="#333333"/>
<path d="M105.681 30.1167C105.666 30.053 104.97 30.1608 103.858 30.3764C103.579 30.44 103.304 30.4694 103.197 30.298C103.069 30.1216 103.084 29.7933 103.113 29.4357C103.153 28.6958 103.192 27.9217 103.231 27.1084C103.368 23.8062 103.373 21.1262 103.241 21.1213C103.108 21.1213 102.888 23.7915 102.746 27.0937C102.717 27.907 102.692 28.6812 102.668 29.421C102.668 29.7639 102.609 30.1706 102.878 30.5282C103.02 30.7046 103.265 30.7879 103.456 30.7781C103.647 30.7781 103.799 30.7242 103.936 30.6899C105.029 30.391 105.695 30.1755 105.681 30.1118V30.1167Z" fill="#333333"/>
<path d="M105.338 17.5104C105.573 17.7309 106.504 17.1087 107.749 16.6677C108.983 16.2023 110.1 16.0749 110.135 15.7515C110.145 15.5997 109.855 15.4282 109.341 15.3547C108.831 15.2812 108.101 15.3302 107.362 15.6046C106.622 15.8789 106.029 16.3101 105.691 16.6971C105.348 17.0842 105.235 17.4075 105.343 17.5153L105.338 17.5104Z" fill="#333333"/>
<path d="M95.23 20.8078C95.5288 20.9793 96.3176 20.4551 97.3563 20.117C98.3852 19.7446 99.3308 19.6712 99.4582 19.3576C99.5072 19.2057 99.2916 19.0097 98.8359 18.9019C98.3852 18.7942 97.6895 18.8088 96.9791 19.0489C96.2686 19.2939 95.715 19.7103 95.4308 20.068C95.1418 20.4306 95.0977 20.7196 95.2349 20.8078H95.23Z" fill="#333333"/>
<path d="M119.346 20.891C119.449 20.8029 123.618 17.9171 125.034 22.6842C126.445 27.4514 121.369 27.8825 121.32 27.7502C121.271 27.618 119.346 20.891 119.346 20.891Z" fill="#FFBF9D"/>
<path d="M122.236 25.5112C122.236 25.5112 122.334 25.5455 122.495 25.5651C122.652 25.5896 122.897 25.5651 123.118 25.3936C123.568 25.0605 123.755 24.1345 123.524 23.2673C123.407 22.8312 123.196 22.4442 122.941 22.1502C122.691 21.8465 122.393 21.6701 122.128 21.6995C121.858 21.7142 121.726 21.92 121.707 22.0718C121.682 22.2237 121.741 22.3119 121.716 22.3266C121.707 22.3413 121.589 22.2776 121.569 22.0669C121.56 21.9641 121.584 21.8367 121.667 21.7142C121.756 21.5868 121.907 21.4888 122.089 21.4545C122.466 21.3712 122.892 21.6113 123.176 21.9347C123.475 22.258 123.725 22.6843 123.857 23.1791C124.112 24.1492 123.887 25.1928 123.255 25.5945C122.946 25.7807 122.637 25.7611 122.456 25.6925C122.275 25.619 122.216 25.521 122.231 25.5063L122.236 25.5112Z" fill="#FF9A6C"/>
<path d="M109.238 29.8178C109.071 29.857 109.375 30.9545 108.655 31.9981C107.934 33.0466 106.729 33.2523 106.763 33.4042C106.763 33.4777 107.082 33.5463 107.582 33.4189C108.072 33.3013 108.733 32.9437 109.179 32.3068C109.62 31.6649 109.683 30.9594 109.595 30.4989C109.507 30.0285 109.311 29.7884 109.238 29.8178Z" fill="#333333"/>
<path d="M82.3936 17.824C82.3838 17.5203 82.521 17.2312 82.7267 17.0058C83.1775 16.5208 83.8193 16.3738 84.4219 16.1827C85.9261 15.7075 87.3077 14.8746 88.4542 13.7869C87.9152 13.6889 87.3861 13.5322 86.9059 13.2725C85.9065 12.7335 85.1127 11.69 85.1568 10.5582C85.1666 10.3475 85.2156 10.1075 85.392 9.98987C85.6713 9.80369 86.0338 10.0242 86.3229 10.2005C87.2685 10.7836 88.023 10.9257 89.0519 10.5043C89.6888 10.2397 90.2816 9.90658 90.703 9.42644C90.7177 9.39704 90.7275 9.36764 90.7422 9.34314C90.9137 9.01488 91.0802 8.69642 91.2517 8.39266C92.5109 6.08503 93.6867 4.38983 95.0831 3.27766C97.1261 1.64615 100.904 0.107729 103.515 0.0195398C106.131 -0.0686499 108.895 1.24929 109.972 3.63042C110.987 2.0773 113.035 1.47467 114.887 1.64615L114.921 1.61675C116.959 1.72454 118.591 3.36095 119.698 5.07575C119.757 5.16884 119.815 5.26682 119.874 5.35991C120.79 6.16342 121.893 6.75625 123.078 7.04041C123.289 7.08941 123.529 7.158 123.612 7.35398C123.696 7.54995 123.573 7.77043 123.441 7.93701C123.093 8.38776 122.642 8.74541 122.133 9.00018C122.437 9.39704 122.76 9.77429 123.132 10.1124C123.446 10.4014 123.818 10.7493 123.745 11.1706C123.691 11.494 123.363 11.7194 123.034 11.7684C122.706 11.8174 122.378 11.7243 122.059 11.6361C122.412 12.0672 122.765 12.4984 123.118 12.9295C122.486 13.2431 121.78 13.3999 121.075 13.395C121.207 15.2714 121.888 18.6129 121.79 19.9406C120.531 20.3424 120.183 20.2934 119.61 20.6951C118.865 21.2145 119.619 22.5814 118.419 22.4883C117.812 22.4393 116.351 20.6216 116.004 20.117C113.686 16.7854 112.104 12.9491 111.388 8.96099C110.384 8.37306 109.262 7.986 108.106 7.81942L108.209 7.86842C106.058 7.77533 103.657 7.76553 102.084 9.23046C100.864 10.3671 100.463 12.1064 99.7473 13.6105C98.3902 16.4669 96.45 18.3532 93.4614 19.387C93.8141 21.5721 94.7597 25.0311 95.2448 27.0252L92.3982 23.6005V23.6152C92.1973 23.4241 92.016 23.2281 91.8397 23.0272L91.7809 22.9684V22.9586C91.4967 22.6353 91.2223 22.3119 90.8941 22.0082C90.8941 22.018 90.8843 22.0229 90.8794 22.0327C90.0955 23.2869 88.1014 22.3217 88.6011 20.9303C88.6991 20.6559 88.8363 20.3913 89.0176 20.1562C88.6697 20.7588 88.0083 21.19 87.3126 21.1851C86.6169 21.1802 85.931 20.6804 85.7889 19.9994C85.6909 19.5339 85.8967 19.0342 86.2494 18.7304C85.4116 19.0538 84.4758 19.1273 83.5988 18.9264C83.0256 18.7941 82.4034 18.4757 82.3887 17.8093L82.3936 17.824Z" fill="#333333"/>
<path d="M108.018 5.08557C108.018 5.08557 108.365 5.18356 108.909 5.51672C109.448 5.84988 110.134 6.50151 110.668 7.51079C110.938 8.01053 111.183 8.58866 111.374 9.23048C111.57 9.87231 111.722 10.5729 111.888 11.3127C112.06 12.0526 112.236 12.8316 112.52 13.6155C112.662 14.0074 112.829 14.3945 113.039 14.7717C113.245 15.1441 113.48 15.5409 113.882 15.7957C114.206 16.0015 114.642 16.0064 114.965 15.8349C115.293 15.6683 115.548 15.3891 115.7 15.0706C115.994 14.4141 115.906 13.7184 115.842 13.0961L115.7 13.1598C116.097 13.6155 116.498 14.0613 116.984 14.3651C117.464 14.6737 118.042 14.806 118.561 14.6982C118.821 14.6443 119.061 14.5317 119.242 14.3602C119.428 14.1887 119.536 13.9584 119.585 13.7331C119.629 13.5077 119.619 13.2774 119.551 13.0716C119.477 12.8659 119.34 12.6944 119.164 12.5964L119.11 12.6846C119.83 13.1353 120.496 13.297 120.942 13.3607C121.168 13.395 121.344 13.3999 121.462 13.4048C121.579 13.4048 121.638 13.4048 121.638 13.395C121.638 13.3901 121.579 13.3852 121.462 13.3754C121.344 13.3656 121.173 13.346 120.952 13.3068C120.511 13.2235 119.864 13.052 119.169 12.5964L119.115 12.6846C119.423 12.861 119.566 13.297 119.472 13.7086C119.423 13.9143 119.325 14.1201 119.159 14.2671C118.997 14.419 118.777 14.5219 118.542 14.566C118.066 14.659 117.527 14.5366 117.072 14.2377C116.611 13.9437 116.224 13.5077 115.827 13.052L115.661 12.861L115.685 13.1157C115.749 13.7331 115.817 14.4043 115.553 15.002C115.416 15.2911 115.185 15.5409 114.896 15.683C114.607 15.8349 114.255 15.83 113.975 15.6536C113.627 15.4381 113.397 15.0608 113.196 14.6933C112.995 14.3259 112.829 13.9437 112.687 13.5567C112.407 12.7875 112.226 12.0134 112.055 11.2784C111.883 10.5386 111.726 9.83801 111.521 9.19129C111.32 8.54456 111.065 7.96153 110.786 7.45689C110.232 6.43781 109.512 5.78619 108.953 5.46283C108.39 5.13947 108.027 5.09047 108.027 5.09047L108.018 5.08557Z" fill="#455A64"/>
<path d="M88.4834 18.3041C88.4834 18.3041 88.5079 18.3188 88.552 18.3335C88.6108 18.3531 88.6794 18.3776 88.7627 18.407C88.8558 18.4413 88.9734 18.4805 89.1154 18.5099C89.2575 18.5442 89.4192 18.5883 89.6054 18.6079C90.3452 18.7206 91.4721 18.7157 92.7508 18.2552C94.0149 17.7995 95.421 16.8833 96.494 15.4478C97.5865 14.0318 98.3705 12.1897 98.8653 10.2054C99.1201 9.21081 99.2769 8.22113 99.4924 7.28534C99.708 6.34955 99.9873 5.46275 100.418 4.69844C100.84 3.93413 101.408 3.29231 102.065 2.88076C102.388 2.67008 102.741 2.5378 103.089 2.44471C103.436 2.36142 103.784 2.33202 104.113 2.34182C104.774 2.36632 105.357 2.55249 105.827 2.78277C106.298 3.01794 106.655 3.30701 106.92 3.56667C107.429 4.11051 107.567 4.51716 107.591 4.50247C107.591 4.50247 107.586 4.47797 107.562 4.42897C107.537 4.37508 107.503 4.30649 107.464 4.2232C107.376 4.04682 107.214 3.80185 106.964 3.51278C106.704 3.23841 106.347 2.93465 105.867 2.68968C105.391 2.44471 104.794 2.24383 104.113 2.21443C103.775 2.19974 103.417 2.22423 103.049 2.31242C102.692 2.40551 102.319 2.5427 101.981 2.75827C101.295 3.17962 100.712 3.84104 100.276 4.62005C99.8305 5.39906 99.5463 6.30545 99.3258 7.24614C99.1054 8.18683 98.9486 9.17652 98.6938 10.1613C98.2039 12.1358 97.4347 13.9535 96.3617 15.3498C95.3132 16.7706 93.9414 17.677 92.7018 18.1425C91.4525 18.6128 90.3403 18.6373 89.6103 18.5442C88.8705 18.4462 88.4834 18.2845 88.4785 18.3041H88.4834Z" fill="#455A64"/>
<path d="M86.9355 15.4331C86.9355 15.4331 87.0384 15.4772 87.2393 15.5311C87.4353 15.5899 87.7292 15.6437 88.0918 15.6878C88.4544 15.7319 88.8953 15.7466 89.3804 15.7221C89.8654 15.6878 90.3945 15.6144 90.9384 15.4723C91.4822 15.3253 91.9771 15.1293 92.418 14.9186C92.8492 14.6982 93.2264 14.4728 93.5204 14.2523C93.8143 14.0367 94.0397 13.8457 94.1867 13.6987C94.3337 13.5566 94.4072 13.4733 94.4023 13.4635C94.3827 13.439 94.0544 13.7526 93.4567 14.1543C93.1578 14.3601 92.7855 14.5708 92.3543 14.7765C91.9232 14.9774 91.4332 15.1636 90.8992 15.3057C90.3651 15.4429 89.8507 15.5213 89.3755 15.5605C88.9002 15.5948 88.4691 15.5899 88.1114 15.5605C87.3912 15.5066 86.9551 15.3939 86.9453 15.4233L86.9355 15.4331Z" fill="#455A64"/>
<path d="M89.5218 59.4936C89.5218 59.4936 88.8114 57.4898 91.217 54.7902C93.6226 52.0906 108.757 46.3975 108.757 46.3975C108.757 46.3975 114.372 51.8652 120.721 48.4062C125.665 45.7165 125.283 41.498 125.283 41.498L144.513 44.717L145.169 59.2487L138.281 59.2879L89.5218 59.4936Z" fill="#5280E2"/>
<path d="M123 84.1622L146.718 76.7249L138.972 57.9552L153.93 58.2394C153.93 58.2394 164.724 79.2971 160.642 85.4459C156.924 91.0459 126.312 92.1728 126.312 92.1728L123.005 84.1622H123Z" fill="#FFBF9D"/>
<path d="M129.702 96.3667L129.604 97.6454C129.516 98.787 128.13 99.5758 126.826 99.2622L102.535 96.8027L102.981 92.9567L127.508 93.8043C129.139 93.7896 129.82 94.8968 129.707 96.3667H129.702Z" fill="#455A64"/>
<path d="M93.4949 107.376C90.6925 108.478 87.5275 108.748 84.3918 107.954C80.5262 106.974 77.273 104.554 75.2348 101.129C73.1917 97.7043 72.6087 93.6916 73.5837 89.826C75.6023 81.8497 83.7353 76.9993 91.7116 79.0178C95.5772 79.9977 98.8304 82.418 100.869 85.8427C102.912 89.2674 103.495 93.2801 102.52 97.1457C101.295 101.986 97.8211 105.676 93.4949 107.376ZM82.9759 80.522C78.9388 82.1094 75.6953 85.5488 74.5538 90.066C73.6425 93.672 74.1863 97.4152 76.0922 100.615C77.9981 103.809 81.0308 106.072 84.6368 106.984C88.2428 107.895 91.9859 107.351 95.1853 105.445C98.3797 103.539 100.643 100.507 101.555 96.9007C102.466 93.2948 101.922 89.5516 100.016 86.3572C98.1102 83.1628 95.0775 80.8992 91.4715 79.9879C88.5465 79.2481 85.5922 79.498 82.9759 80.5269V80.522Z" fill="#333333"/>
<path d="M93.4071 106.489C90.6046 107.591 87.4396 107.861 84.3039 107.067C80.4383 106.087 77.1851 103.667 75.1469 100.242C73.1038 96.8174 72.5208 92.8048 73.4958 88.9391C75.5144 80.9629 83.6474 76.1124 91.6237 78.131C95.4893 79.1109 98.7425 81.5312 100.781 84.9559C102.824 88.3806 103.407 92.3932 102.432 96.2589C101.207 101.1 97.7333 104.789 93.4071 106.489ZM82.888 79.6351C78.8509 81.2225 75.6074 84.6619 74.4659 89.1792C73.5546 92.7852 74.0984 96.5283 76.0043 99.7277C77.9102 102.922 80.9429 105.186 84.5489 106.097C88.1549 107.008 91.898 106.464 95.0974 104.559C98.2918 102.653 100.555 99.6199 101.467 96.0139C102.378 92.4079 101.834 88.6648 99.9282 85.4703C98.0223 82.2759 94.9896 80.0124 91.3836 79.1011C88.4586 78.3613 85.5043 78.6111 82.888 79.64V79.6351Z" fill="#455A64"/>
<path d="M95.9548 83.0941C95.9548 83.0941 95.8813 83.05 95.7539 82.9521C95.6216 82.859 95.4502 82.6973 95.1905 82.5307C94.7006 82.173 93.9313 81.7272 92.9221 81.3255C92.4174 81.1197 91.8491 80.9482 91.2318 80.7914C90.6095 80.6591 89.9383 80.5219 89.223 80.4729C88.5077 80.4093 87.7532 80.3946 86.9742 80.4534C86.1951 80.5072 85.3916 80.615 84.593 80.8257C83.7895 81.0315 83.0301 81.3107 82.3295 81.6488C81.6289 81.9918 80.992 82.3935 80.4089 82.8149C79.2576 83.6723 78.361 84.6228 77.7289 85.5047C77.092 86.3866 76.6756 87.1656 76.4355 87.7241C76.2983 87.9985 76.2297 88.2238 76.1611 88.3708C76.1023 88.5178 76.0631 88.5962 76.0582 88.5962C76.0533 88.5962 76.0778 88.5129 76.1268 88.361C76.1856 88.2091 76.2444 87.9789 76.3718 87.6996C76.5972 87.1313 76.9989 86.3376 77.6309 85.441C78.2581 84.5444 79.1547 83.5743 80.3158 82.6973C80.9038 82.271 81.5456 81.8595 82.256 81.5116C82.9664 81.1687 83.7405 80.8796 84.5489 80.6738C85.3622 80.4632 86.1755 80.3554 86.9595 80.3015C87.7483 80.2427 88.5126 80.2672 89.2328 80.3309C89.9579 80.3848 90.634 80.5268 91.2611 80.6689C91.8834 80.8355 92.4566 81.0119 92.9662 81.2275C93.9803 81.6488 94.7446 82.1143 95.2248 82.4866C95.4796 82.6581 95.6461 82.8296 95.7686 82.9325C95.8911 83.0402 95.9499 83.0941 95.9499 83.099L95.9548 83.0941Z" fill="white"/>
<path d="M95.563 102.844C95.5434 102.814 96.1656 102.442 97.0132 101.648C97.1161 101.545 97.2288 101.443 97.3414 101.33C97.4541 101.217 97.557 101.09 97.6746 100.967C97.9098 100.722 98.1254 100.428 98.3605 100.125C98.8064 99.5024 99.2424 98.7821 99.6099 97.9786C99.9626 97.1702 100.208 96.3618 100.374 95.6122C100.443 95.2349 100.516 94.8773 100.541 94.5392C100.555 94.3678 100.58 94.2061 100.59 94.0493C100.595 93.8925 100.6 93.7406 100.604 93.5936C100.629 92.4325 100.482 91.7221 100.521 91.7172C100.531 91.7172 100.565 91.8935 100.619 92.2169C100.649 92.3786 100.678 92.5746 100.688 92.8097C100.702 93.04 100.732 93.3046 100.717 93.5985C100.717 93.7455 100.717 93.8974 100.712 94.0591C100.712 94.2208 100.688 94.3825 100.673 94.5539C100.653 94.8969 100.585 95.2595 100.521 95.6416C100.364 96.401 100.119 97.2241 99.7618 98.0423C99.3943 98.8605 98.9436 99.5905 98.4879 100.213C98.2478 100.517 98.0225 100.81 97.7824 101.055C97.6648 101.178 97.557 101.305 97.4394 101.418C97.3219 101.526 97.2092 101.629 97.1014 101.732C96.8907 101.937 96.6751 102.089 96.4938 102.236C96.3126 102.383 96.146 102.496 96.0088 102.579C95.7344 102.756 95.5777 102.849 95.5728 102.839L95.563 102.844Z" fill="white"/>
<path d="M94.6226 88.846C94.6226 88.8901 91.8887 89.1743 88.5081 89.4781C85.1275 89.7818 82.3838 89.9925 82.3789 89.9484C82.3789 89.9043 85.1128 89.6202 88.4934 89.3164C91.874 89.0126 94.6177 88.8019 94.6226 88.846Z" fill="white"/>
<path d="M96.2044 93.0938C96.2044 93.0938 96.1358 93.1085 96.0084 93.1183C95.8614 93.1281 95.6752 93.1379 95.445 93.1526C94.9354 93.1771 94.2299 93.2114 93.3676 93.2555C91.6136 93.3388 89.1884 93.4662 86.5133 93.6327C83.8382 93.7993 81.4179 93.9806 79.6639 94.1129C78.8016 94.1766 78.101 94.2305 77.5866 94.2697C77.3563 94.2844 77.1701 94.2991 77.0231 94.304C76.8957 94.3089 76.8271 94.3138 76.8271 94.304C76.8271 94.2991 76.8957 94.2893 77.0231 94.2697C77.1701 94.255 77.3563 94.2305 77.5866 94.2011C78.0765 94.1472 78.782 94.0737 79.659 93.9953C81.4081 93.8336 83.8284 93.6376 86.5084 93.4662C89.1835 93.2996 91.6136 93.1918 93.3676 93.133C94.2446 93.1036 94.955 93.0889 95.4499 93.0791C95.6801 93.0791 95.8712 93.0791 96.0182 93.0791C96.1456 93.0791 96.2142 93.0791 96.2142 93.0889L96.2044 93.0938Z" fill="white"/>
<g opacity="0.3">
<path d="M74.3432 91.0116L101.349 89.3409C101.349 89.3409 102.025 91.8004 101.868 93.4222L74.2599 95.1027C74.2599 95.1027 73.8484 93.0302 74.3481 91.0116H74.3432Z" fill="white"/>
</g>
<g opacity="0.3">
<path d="M75.0488 97.7728L101.467 96.0139C101.467 96.0139 101.643 95.9404 101.104 97.1015L75.4947 98.7869C75.4947 98.7869 75.186 98.4195 75.0537 97.7728H75.0488Z" fill="white"/>
</g>
<path d="M122.999 84.1622C122.999 84.1622 109.394 88.1112 109.006 88.3317C108.619 88.5521 103.259 92.3688 103.161 93.7455C103.059 95.1223 104.866 101.291 104.866 101.291C104.866 101.291 106.704 101.555 106.836 98.2579L106.973 94.9655L109.232 92.942C109.232 92.942 108.399 96.7538 108.61 97.8316C108.82 98.9095 110.609 101.629 111.613 101.413C112.617 101.198 113.161 100.517 113.161 100.517C113.161 100.517 114.038 102.947 116.591 101.516C116.591 101.516 118.266 102.217 119.579 101.55C120.892 100.884 122.083 98.7576 122.083 98.7576C122.083 98.7576 122.181 97.4544 120.804 97.5083C119.423 97.5622 118.178 98.5323 118.178 98.5323L118.051 97.1506C118.051 97.1506 119.697 95.1468 121.402 94.1228C122.475 93.481 126.929 93.3732 128.315 91.967C129.486 90.7765 127.272 88.1455 125.802 87.3469C125.581 87.2293 125.341 87.1411 125.096 87.0921L122.999 84.1573V84.1622Z" fill="#FFBF9D"/>
<path d="M115.278 95.137C115.278 95.137 115.214 95.2154 115.131 95.377C115.048 95.5387 114.94 95.7837 114.842 96.0973C114.646 96.7195 114.519 97.6504 114.739 98.6352C114.955 99.6199 115.459 100.414 115.9 100.894C116.121 101.139 116.317 101.315 116.464 101.423C116.611 101.536 116.694 101.585 116.699 101.58C116.714 101.56 116.385 101.32 115.974 100.825C115.562 100.335 115.087 99.5611 114.876 98.6009C114.666 97.6455 114.768 96.7391 114.94 96.1218C115.107 95.4995 115.307 95.1468 115.283 95.137H115.278Z" fill="#FF9A6C"/>
<path d="M112.72 93.187C112.72 93.187 112.656 93.2752 112.563 93.4467C112.514 93.53 112.46 93.6378 112.411 93.7652C112.357 93.8925 112.289 94.0346 112.235 94.2061C112.112 94.5344 112.01 94.941 111.931 95.3967C111.863 95.8572 111.823 96.3668 111.843 96.9008C111.872 97.4348 111.956 97.9395 112.068 98.3902C112.186 98.8361 112.328 99.2329 112.48 99.5465C112.548 99.7082 112.627 99.8453 112.695 99.9678C112.759 100.09 112.823 100.193 112.877 100.272C112.984 100.433 113.048 100.521 113.058 100.517C113.082 100.502 112.842 100.139 112.573 99.5073C112.436 99.1888 112.308 98.7969 112.196 98.3559C112.093 97.9101 112.014 97.4152 111.985 96.891C111.965 96.3668 111.946 95.7641 112.01 95.3134C112.078 94.8626 112.225 94.5589 112.333 94.2355C112.544 93.579 112.749 93.1968 112.725 93.1821L112.72 93.187Z" fill="#FF9A6C"/>
<path d="M110.006 90.6344C110.006 90.6344 109.864 90.7128 109.702 90.9088C109.54 91.1047 109.369 91.4232 109.285 91.8103C109.178 92.3345 109.246 92.5893 109.3 92.8048C109.364 93.0547 109.452 93.187 109.467 93.1821C109.511 93.1723 109.261 92.5795 109.423 91.8397C109.57 91.0998 110.04 90.6589 110.006 90.6344Z" fill="#FF9A6C"/>
<path d="M154.836 80.3994C154.797 80.419 154.557 79.8605 153.954 79.1109C153.366 78.3613 152.357 77.4402 151.005 76.8914C149.653 76.328 148.276 76.4162 147.345 76.6122C146.404 76.8081 145.846 77.0482 145.831 77.0041C145.826 76.9894 145.959 76.9159 146.208 76.8032C146.458 76.6954 146.831 76.5583 147.306 76.4358C148.242 76.1957 149.682 76.0634 151.098 76.6563C152.504 77.2295 153.528 78.2045 154.097 79.0031C154.386 79.3999 154.577 79.7527 154.689 80.0026C154.802 80.2524 154.846 80.3945 154.831 80.4043L154.836 80.3994Z" fill="#FF9A6C"/>
<path d="M135.606 53.0656C135.37 45.1433 145.698 41.6157 150.333 48.0486C150.358 48.0829 150.387 48.1221 150.412 48.1613C154.777 54.3787 160.054 69.0819 160.054 69.0819L141.367 71.9823L136.703 59.2242C136.071 57.1665 135.669 55.0597 135.61 53.0656H135.606Z" fill="#5280E2"/>
<path d="M77.3513 58.6215C77.3807 58.6901 77.4101 58.7538 77.4346 58.8224C77.5473 59.136 77.611 59.4642 77.6306 59.7974C77.6404 59.9493 77.6208 60.1159 77.6502 60.2677C77.6747 60.3706 77.7384 60.449 77.7776 60.5421C78.0274 61.1398 77.9686 61.8503 77.9491 62.4823C77.9246 63.1976 77.9343 63.9521 78.3067 64.5596C78.6791 65.1672 79.5463 65.5297 80.1342 65.1231C80.046 65.5689 80.3939 66.0295 80.8348 66.1422C81.2758 66.2548 81.7559 66.0736 82.0793 65.7551C82.4026 65.4366 82.5888 65.0055 82.7015 64.5645C82.6721 65.0986 83.1963 65.5542 83.7304 65.5591C84.2644 65.564 84.7543 65.2113 85.0336 64.7605C85.3178 64.3098 85.4207 63.7659 85.4844 63.2368C85.548 62.7077 85.6705 61.7131 85.8077 61.1986C85.8077 61.1986 86.4789 61.3064 86.7827 61.3358L86.8709 61.3456C86.8709 61.3456 87.2629 60.743 87.5127 60.2335C87.939 59.3565 88.2672 58.7979 88.5906 57.9993C88.8356 57.4016 88.9923 56.8039 88.6249 56.4168C87.7381 55.481 85.9988 57.382 85.9988 57.382C85.7538 56.7206 83.7353 56.6128 83.3384 57.4947C83.1767 57.0096 83.2404 56.7255 82.8436 56.4021C82.4516 56.0738 81.9078 55.9073 81.4129 56.0395C80.9181 56.1767 80.5163 56.652 80.5457 57.1615C80.1293 56.4903 79.267 56.1326 78.5027 56.309C78.0421 56.4168 77.6306 56.7108 77.3611 57.0978C77.2239 57.2938 77.1308 57.5094 77.0671 57.7396C77.0475 57.8229 77.0083 57.916 77.0181 58.0042C77.0181 58.0483 77.0378 58.0826 77.0574 58.1218C77.1455 58.2933 77.2631 58.4403 77.3464 58.6166L77.3513 58.6215Z" fill="#FFBF9D"/>
<path d="M75.2203 57.3329C74.7793 57.3183 74.2992 57.4064 74.0101 57.7347C73.6623 58.1218 73.5937 58.8959 73.6329 59.4152C74.2404 59.5279 74.5589 59.5524 75.1664 59.67C75.2938 59.6945 75.4016 59.6602 75.5094 59.7386C75.7886 59.9394 75.7445 60.6107 75.8572 60.9389C76.0532 61.5024 76.7783 61.7816 77.3368 61.5709C77.8954 61.3652 78.2579 60.7674 78.2873 60.1697C78.3167 59.572 78.0522 58.989 77.67 58.5284C77.0674 57.8131 76.1561 57.3672 75.2203 57.3329Z" fill="#FFBF9D"/>
<path d="M80.5556 56.9949C80.6683 56.9998 80.6683 58.8273 80.5556 61.0712C80.443 63.3151 80.2568 65.1328 80.1392 65.1279C80.0265 65.123 80.0265 63.2955 80.1392 61.0516C80.2519 58.8077 80.4381 56.99 80.5556 56.9998V56.9949Z" fill="#FF9A6C"/>
<path d="M83.3581 57.382C83.4659 57.3771 83.6178 59.038 83.4365 61.081C83.265 63.1241 82.8339 64.736 82.7261 64.7115C82.6085 64.687 82.8535 63.0604 83.025 61.0467C83.2014 59.0331 83.2405 57.3869 83.3581 57.382Z" fill="#FF9A6C"/>
<path d="M86.0971 57.7593C86.2147 57.7593 86.2637 59.1409 86.0482 60.8165C85.8326 62.4872 85.5778 63.8199 85.47 63.8101C85.3524 63.8003 85.4259 62.4284 85.6366 60.7675C85.8473 59.1066 85.9845 57.7593 86.0971 57.7642V57.7593Z" fill="#FF9A6C"/>
<path d="M76.0977 57.6172C76.0977 57.5682 76.3916 57.5045 76.813 57.6956C77.2294 57.8769 77.7047 58.3619 77.9349 59.0086C78.1603 59.6603 78.2338 60.2188 78.2142 60.6891C78.1652 61.1938 77.7977 61.3408 77.7879 61.2771C77.7537 61.233 77.9545 61.0566 77.9202 60.6793C77.8712 60.3168 77.7439 59.7142 77.5479 59.1556C77.3421 58.5824 76.9893 58.1708 76.6709 57.9504C76.3524 57.725 76.0976 57.6809 76.1025 57.6172H76.0977Z" fill="#FF9A6C"/>
<path d="M144.685 45.2658C144.699 45.3148 143.871 45.4862 142.676 46.1036C141.49 46.7111 139.957 47.8429 138.84 49.5626C137.722 51.2774 137.306 53.144 137.233 54.4718C137.149 55.8142 137.331 56.6422 137.277 56.6471C137.262 56.6471 137.203 56.4463 137.144 56.0739C137.081 55.6966 137.032 55.1479 137.051 54.4669C137.081 53.1098 137.478 51.1892 138.624 49.4254C139.77 47.6616 141.368 46.52 142.597 45.9468C143.215 45.6528 143.739 45.4765 144.106 45.3785C144.474 45.2805 144.685 45.2511 144.685 45.2658Z" fill="#333333"/>
</g>
<defs>
<clipPath id="clip0_88_4597">
<rect width="223.414" height="186" fill="white" transform="translate(0.792969)"/>
</clipPath>
</defs>
</svg>
