<svg width="440" height="438" viewBox="0 0 440 438" fill="none" xmlns="http://www.w3.org/2000/svg">
<g clip-path="url(#clip0_68_4983)">
<path d="M20.7887 151.122L22.1959 152.729C34.0725 166.259 52.3064 172.466 69.6421 168.255C71.8677 167.716 74.0634 167.018 76.1892 166.15C91.5289 159.923 103.276 145.424 106.3 128.98C108.076 119.301 107.178 108.684 112.328 100.352C119.024 89.5058 133.147 86.7018 145.682 84.8958C158.217 83.0897 172.339 80.2558 178.996 69.3694C183.158 62.5542 183.337 53.883 181.521 46.06C176.72 25.3549 158.856 9.22988 138.686 3.20295C118.516 -2.82397 96.5489 0.189489 76.9876 7.85287C49.5918 18.5896 25.3497 39.0851 13.3934 66.2362C1.437 93.3873 3.17356 127.204 20.7887 151.122Z" fill="#E5ECFB"/>
<path d="M283.19 79.1482C298.998 79.1482 311.813 66.3355 311.813 50.5303C311.813 34.725 298.998 21.9124 283.19 21.9124C267.382 21.9124 254.566 34.725 254.566 50.5303C254.566 66.3355 267.382 79.1482 283.19 79.1482Z" fill="#E5ECFB"/>
<path d="M191.621 10.6567H294.029V64.7694H218.708C216.482 68.2019 211.781 75.9751 211.781 75.9751L206.362 64.7694H191.621V10.6567Z" fill="#FAFAFA"/>
<path d="M191.621 10.6568C191.621 10.6568 191.631 10.9961 191.641 11.6347C191.641 12.2833 191.651 13.2312 191.661 14.4586C191.671 16.9432 191.691 20.5853 191.711 25.2651C191.731 34.6248 191.771 48.1255 191.811 64.7694L191.621 64.5799C196.282 64.5799 201.212 64.5699 206.362 64.5599H206.492L206.552 64.6796C208.248 68.192 210.085 71.9738 211.981 75.8853L211.592 75.8654C213.767 72.343 216.113 68.5413 218.518 64.6497L218.588 64.5399H218.717C239.417 64.5399 262.77 64.52 287.392 64.52C289.617 64.52 291.843 64.52 294.039 64.52L293.779 64.7794C293.779 45.6709 293.789 27.4304 293.799 10.6668L294.039 10.9063C264.018 10.8664 238.438 10.8364 220.344 10.8065C211.312 10.7766 204.156 10.7466 199.236 10.7267C196.781 10.7167 194.895 10.6967 193.597 10.6967C192.968 10.6967 192.479 10.6867 192.14 10.6867C191.811 10.6867 191.631 10.6768 191.631 10.6768C191.631 10.6768 191.791 10.6768 192.11 10.6668C192.449 10.6668 192.918 10.6668 193.547 10.6568C194.835 10.6568 196.711 10.6369 199.146 10.6269C204.066 10.6069 211.242 10.577 220.274 10.547C238.389 10.5271 263.998 10.4872 294.049 10.4473H294.288V10.6867C294.288 27.4504 294.298 45.6908 294.308 64.7994V65.0588H294.049C291.853 65.0588 289.627 65.0588 287.402 65.0588C262.78 65.0588 239.427 65.0389 218.727 65.0389L218.927 64.9291C216.522 68.8207 214.166 72.6124 211.991 76.1248L211.771 76.4741L211.592 76.1049C209.705 72.1933 207.879 68.4115 206.182 64.8892L206.372 65.0089C201.222 65.0089 196.302 64.9989 191.631 64.989H191.441V64.7994C191.481 48.1056 191.521 34.565 191.541 25.1753C191.561 20.5154 191.581 16.8933 191.591 14.4187C191.591 13.2013 191.611 12.2733 191.611 11.6247C191.611 10.9961 191.631 10.6867 191.631 10.6867L191.621 10.6568Z" fill="#B9B9B9"/>
<path opacity="0.4" d="M215.853 37.289C217.52 36.6005 218.717 34.9042 218.747 32.8786C218.777 30.2343 216.791 28.059 214.306 28.0191C211.821 27.9892 209.785 30.1046 209.745 32.7588C209.715 34.8044 210.893 36.5506 212.57 37.2591C205.643 38.2469 205.893 45.7706 205.893 45.7706L222.26 45.9802C222.26 45.9802 222.699 38.3766 215.843 37.289H215.853Z" fill="#5280E2"/>
<path d="M280.036 29.6457C280.036 29.7455 269.597 29.8353 256.722 29.8353C243.848 29.8353 233.408 29.7555 233.408 29.6457C233.408 29.5359 243.848 29.4561 256.722 29.4561C269.597 29.4561 280.036 29.5359 280.036 29.6457Z" fill="#B9B9B9"/>
<path d="M280.036 35.2236C280.036 35.3234 269.597 35.4132 256.722 35.4132C243.848 35.4132 233.408 35.3333 233.408 35.2236C233.408 35.1138 243.848 35.0339 256.722 35.0339C269.597 35.0339 280.036 35.1138 280.036 35.2236Z" fill="#B9B9B9"/>
<path d="M280.036 40.8115C280.036 40.9113 269.597 41.0011 256.722 41.0011C243.848 41.0011 233.408 40.9212 233.408 40.8115C233.408 40.7017 243.848 40.6218 256.722 40.6218C269.597 40.6218 280.036 40.7017 280.036 40.8115Z" fill="#B9B9B9"/>
<path d="M261.293 47.8661C261.293 47.9759 255.055 48.0657 247.351 48.0657C239.646 48.0657 233.408 47.9759 233.408 47.8661C233.408 47.7563 239.646 47.6665 247.351 47.6665C255.055 47.6665 261.293 47.7563 261.293 47.8661Z" fill="#B9B9B9"/>
<path opacity="0.2" d="M233.618 357.824L238.758 362.653C239.077 362.963 239.536 363.082 239.965 362.993L246.862 361.496C247.959 361.256 248.848 362.374 248.369 363.392L245.365 369.778C245.175 370.177 245.195 370.646 245.424 371.035L248.977 377.132C249.546 378.1 248.748 379.297 247.64 379.158L240.644 378.27C240.205 378.21 239.766 378.379 239.466 378.709L234.766 383.977C234.017 384.815 232.64 384.426 232.43 383.329L231.113 376.394C231.033 375.955 230.734 375.585 230.324 375.406L223.867 372.562C222.839 372.113 222.779 370.676 223.757 370.137L229.945 366.745C230.334 366.535 230.594 366.136 230.644 365.697L231.352 358.682C231.462 357.564 232.809 357.065 233.628 357.834L233.618 357.824Z" fill="#5280E2"/>
<path opacity="0.2" d="M370.268 36.2512L376.635 43.8846C377.034 44.3636 377.653 44.623 378.272 44.5632L388.172 43.6452C389.749 43.4955 390.797 45.2217 389.959 46.5588L384.659 54.9706C384.33 55.4994 384.27 56.158 384.519 56.7368L388.452 65.867C389.08 67.3138 387.763 68.8505 386.236 68.4613L376.595 66.0266C375.986 65.8769 375.347 66.0266 374.868 66.4457L367.393 73.0015C366.206 74.0392 364.339 73.2709 364.239 71.6943L363.581 61.7758C363.541 61.1472 363.191 60.5884 362.653 60.2691L354.099 55.1901C352.742 54.3819 352.902 52.3762 354.369 51.7875L363.601 48.0955C364.18 47.866 364.609 47.3571 364.748 46.7484L366.934 37.0495C367.283 35.5128 369.24 35.0338 370.258 36.2512H370.268Z" fill="#5280E2"/>
<path opacity="0.2" d="M430.808 261.483L431.646 264.676C431.696 264.876 431.845 265.045 432.045 265.115L435.159 266.233C435.658 266.412 435.728 267.081 435.289 267.36L432.504 269.146C432.325 269.256 432.225 269.456 432.215 269.655L432.115 272.958C432.095 273.487 431.486 273.756 431.077 273.427L428.512 271.332C428.352 271.202 428.133 271.152 427.933 271.212L424.76 272.13C424.251 272.279 423.801 271.781 423.991 271.292L425.189 268.208C425.268 268.019 425.239 267.799 425.119 267.62L423.262 264.885C422.963 264.446 423.302 263.868 423.821 263.898L427.125 264.087C427.334 264.097 427.534 264.007 427.664 263.848L429.69 261.233C430.009 260.814 430.668 260.954 430.808 261.463V261.483Z" fill="#5280E2"/>
<path d="M428.213 194.727L427.385 204.636C427.335 205.265 427.594 205.873 428.073 206.272L435.768 212.569C436.986 213.567 436.536 215.532 434.999 215.892L425.319 218.167C424.71 218.306 424.211 218.745 423.981 219.324L420.368 228.584C419.8 230.051 417.783 230.23 416.965 228.883L411.805 220.382C411.476 219.843 410.917 219.504 410.288 219.464L400.358 218.895C398.781 218.805 397.993 216.949 399.021 215.752L405.518 208.218C405.927 207.739 406.077 207.101 405.917 206.492L403.392 196.873C402.993 195.346 404.52 194.019 405.967 194.638L415.139 198.489C415.718 198.729 416.376 198.679 416.905 198.34L425.269 192.971C426.596 192.123 428.323 193.161 428.193 194.727H428.213Z" fill="#E5ECFB"/>
<path opacity="0.2" d="M32.3758 189.17L38.0047 194.758C38.364 195.107 38.863 195.266 39.352 195.177L47.1466 193.71C48.3842 193.48 49.3522 194.768 48.7834 195.885L45.2104 202.96C44.9809 203.409 44.9909 203.938 45.2304 204.377L49.0329 211.332C49.6417 212.439 48.7135 213.756 47.466 213.557L39.6315 212.339C39.1325 212.26 38.6334 212.439 38.2941 212.798L32.8549 218.566C31.9866 219.484 30.4496 219.005 30.25 217.768L28.9825 209.945C28.9027 209.456 28.5833 209.027 28.1342 208.817L20.9684 205.424C19.8306 204.886 19.8007 203.279 20.9284 202.7L27.9845 199.078C28.4336 198.849 28.733 198.42 28.7929 197.921L29.8009 190.058C29.9606 188.81 31.4876 188.292 32.3758 189.17Z" fill="#5280E2"/>
<path d="M96.4668 79.2179L80.0146 109.754L91.3757 115.873L107.828 85.3365L96.4668 79.2179Z" fill="#E8E8E8"/>
<path d="M99.5429 80.8697L83.0908 111.406L94.4519 117.525L110.904 86.9884L99.5429 80.8697Z" fill="#5280E2"/>
<path d="M98.9633 90.0967C98.2048 91.5136 98.7338 93.2798 100.151 94.0382C101.568 94.7965 103.335 94.2677 104.093 92.8507C104.852 91.4338 104.323 89.6676 102.906 88.9093C101.488 88.1509 99.7218 88.6798 98.9633 90.0967Z" fill="white"/>
<path d="M94.013 83.8203C94.1528 83.8003 94.4222 85.1474 94.6119 86.8138C94.8015 88.4802 94.8414 89.8572 94.7017 89.8672C94.5619 89.8871 94.2925 88.5401 94.1029 86.8737C93.9132 85.2073 93.8733 83.8303 94.013 83.8203Z" fill="#B9B9B9"/>
<path d="M92.1869 87.1931C92.3266 87.1731 92.5961 88.5202 92.7857 90.1866C92.9753 91.863 93.0152 93.23 92.8755 93.24C92.7358 93.2599 92.4663 91.9129 92.2767 90.2465C92.0871 88.5801 92.0472 87.2031 92.1869 87.1931Z" fill="#B9B9B9"/>
<path d="M90.3705 90.5757C90.5102 90.5557 90.7797 91.9028 90.9693 93.5692C91.1589 95.2455 91.1988 96.6126 91.0591 96.6225C90.9194 96.6425 90.6499 95.2954 90.4603 93.629C90.2707 91.9626 90.2307 90.5856 90.3705 90.5757Z" fill="#B9B9B9"/>
<path d="M88.5541 93.9482C88.6938 93.9283 88.9632 95.2753 89.1529 96.9417C89.3425 98.6181 89.3824 99.9851 89.2427 99.9951C89.103 100.015 88.8335 98.668 88.6439 97.0016C88.4543 95.3352 88.4143 93.9582 88.5541 93.9482Z" fill="#B9B9B9"/>
<path d="M86.7279 97.331C86.8676 97.3111 87.1371 98.6582 87.3267 100.325C87.5163 101.991 87.5562 103.368 87.4165 103.378C87.2768 103.398 87.0073 102.051 86.8177 100.384C86.6281 98.718 86.5882 97.341 86.7279 97.331Z" fill="#B9B9B9"/>
<path d="M84.9115 100.704C85.0512 100.684 85.3207 102.031 85.5103 103.697C85.6999 105.373 85.7398 106.74 85.6001 106.75C85.4604 106.77 85.1909 105.423 85.0013 103.757C84.8117 102.091 84.7718 100.714 84.9115 100.704Z" fill="#B9B9B9"/>
<path d="M83.0951 104.086C83.2348 104.066 83.5043 105.414 83.6939 107.08C83.8835 108.756 83.9234 110.123 83.7837 110.133C83.644 110.143 83.3745 108.806 83.1849 107.14C82.9953 105.473 82.9554 104.096 83.0951 104.086Z" fill="#B9B9B9"/>
<path d="M95.6498 80.8567C95.7895 80.8367 96.0589 82.1838 96.2486 83.8502C96.4382 85.5166 96.4781 86.8936 96.3384 86.9036C96.1987 86.9135 95.9292 85.5764 95.7396 83.91C95.55 82.2437 95.51 80.8666 95.6498 80.8567Z" fill="#B9B9B9"/>
<path d="M97.676 79.859C97.8157 79.8391 98.0253 80.6275 98.1351 81.6255C98.2449 82.6136 98.2249 83.432 98.0852 83.4419C97.9455 83.4619 97.7359 82.6735 97.6261 81.6754C97.5163 80.6874 97.5363 79.869 97.676 79.859Z" fill="#B9B9B9"/>
<path d="M75.5698 104.256L89.4923 76.9452C89.4923 76.9452 84.1129 72.5448 83.1548 61.4888C82.526 54.1746 86.9174 49.1555 87.5062 46.4115C87.8755 44.7351 84.2925 43.1885 82.7057 42.5499C81.1987 41.9512 78.4242 41.4722 76.2285 43.1885C72.1565 46.3716 69.3521 57.707 69.3521 57.707C69.3521 57.707 69.3721 60.3413 66.5377 58.8046L56.4077 53.3464C55.0903 52.638 53.5633 52.3785 52.1062 52.6978C50.8287 52.9772 49.4714 53.7256 48.6929 55.4818C46.9165 59.5031 48.0243 62.317 47.5851 63.1252C47.146 63.9335 45.2697 64.7517 44.8206 67.5257C44.3715 70.2997 44.9903 70.3695 44.3914 71.4871C43.7926 72.6047 42.4652 75.5483 42.2457 77.6637C42.0261 79.7691 42.4054 81.0164 42.4054 81.0164C42.4054 81.0164 39.9802 84.4989 40.0001 87.183C40.0301 90.6954 45.7488 96.1037 49.192 96.3232C50.7988 96.423 57.6053 98.2391 60.8289 99.0573C64.0526 99.8755 73.5538 101.452 75.5798 104.246L75.5698 104.256Z" fill="#E8E8E8"/>
<path d="M79.0329 106.521L93.7338 79.2303C93.7338 79.2303 88.3544 74.8299 87.3963 63.7739C86.7676 56.4597 87.5161 51.241 88.1149 48.497C88.4842 46.8206 87.6159 45.0944 86.029 44.4657C84.522 43.867 82.516 43.5078 80.3203 45.2141C76.2484 48.3972 73.5936 60.002 73.5936 60.002C73.5936 60.002 73.6136 62.6363 70.7792 61.0997L60.6492 55.6415C59.3318 54.933 57.8048 54.6736 56.3477 54.9929C55.0702 55.2723 53.7129 56.0207 52.9345 57.7769C51.158 61.7981 52.2658 64.612 51.8267 65.4203C51.3875 66.2285 49.5112 67.0467 49.0621 69.8207C48.613 72.5947 49.2318 72.6646 48.633 73.7821C48.0342 74.8997 46.7068 77.8433 46.4872 79.9587C46.2676 82.0642 46.6469 83.3115 46.6469 83.3115C46.6469 83.3115 44.3714 86.8039 44.2416 89.4781C44.1119 92.1523 47.7647 95.5649 49.1919 96.3332C50.6091 97.1016 61.8568 100.534 65.0805 101.352C68.3041 102.171 77.0268 103.727 79.0528 106.521H79.0329Z" fill="#5280E2"/>
<path d="M71.3382 51.7699C71.4779 51.74 71.9969 53.4563 72.6257 55.5617C73.2544 57.6771 73.7734 59.3934 73.6337 59.4433C73.5039 59.4932 72.7654 57.8467 72.1267 55.7114C71.4879 53.586 71.1985 51.7999 71.3282 51.7699H71.3382Z" fill="#B9B9B9"/>
<path d="M72.7558 47.8183C72.8955 47.7884 73.3646 49.335 74.0932 51.201C74.8217 53.0669 75.3008 54.6535 75.1611 54.6934C75.0313 54.7333 74.3427 53.2665 73.6041 51.3806C72.8656 49.4847 72.6161 47.8383 72.7558 47.8083V47.8183Z" fill="#B9B9B9"/>
<path d="M74.8013 44.6853C74.961 44.6554 75.3103 45.9227 75.9989 47.3795C76.7275 48.8463 77.0768 50.1734 76.937 50.2133C76.7973 50.2533 76.2484 49.0658 75.5199 47.599C74.8013 46.0823 74.6615 44.7053 74.7913 44.6853H74.8013Z" fill="#B9B9B9"/>
<path d="M77.3965 42.5399C77.5262 42.49 77.9953 43.3583 78.4245 44.4761C78.8636 45.6038 79.1031 46.552 78.9734 46.6019C78.8436 46.6518 78.3746 45.7835 77.9454 44.6657C77.5063 43.5479 77.2668 42.5898 77.3965 42.5399Z" fill="#B9B9B9"/>
<path d="M80.3304 42.0311C80.4502 41.9612 80.8294 42.4103 81.1687 43.0391C81.5081 43.6679 81.6777 44.2267 81.548 44.2966C81.4182 44.3665 81.049 43.9074 80.7096 43.2886C80.3803 42.6698 80.2106 42.1109 80.3304 42.0311Z" fill="#B9B9B9"/>
<path d="M69.5314 56.9985C69.6612 56.9486 70.1502 57.8668 70.5993 59.0545C71.0584 60.2421 71.3179 61.2501 71.1881 61.3C71.0584 61.3499 70.5694 60.4317 70.1203 59.2441C69.6612 58.0564 69.4017 57.0484 69.5314 56.9985Z" fill="#B9B9B9"/>
<path d="M47.9145 57.6372C48.0443 57.5673 49.0223 59.2137 50.1002 61.3192C51.1781 63.4146 51.9565 65.1708 51.8268 65.2407C51.697 65.3105 50.719 63.6641 49.6411 61.5586C48.5632 59.4632 47.7848 57.707 47.9145 57.6471V57.6372Z" fill="#B9B9B9"/>
<path d="M50.5695 53.0971C50.6992 53.0272 51.318 53.9953 51.9667 55.2428C52.6054 56.5003 53.0246 57.5682 52.8949 57.6281C52.7651 57.698 52.1464 56.7299 51.4976 55.4823C50.8589 54.2348 50.4397 53.1569 50.5695 53.0971Z" fill="#B9B9B9"/>
<path d="M45.8986 65.0909C46.0184 65.0111 46.8966 66.1386 47.705 67.7052C48.5134 69.2619 48.9326 70.6389 48.8029 70.6888C48.6631 70.7387 48.0443 69.4814 47.2459 67.9447C46.4575 66.408 45.7788 65.1707 45.9086 65.0909H45.8986Z" fill="#B9B9B9"/>
<path d="M44.5407 71.1479C44.6705 71.088 45.3591 72.3054 46.0877 73.872C46.8162 75.4386 47.2953 76.7557 47.1655 76.8156C47.0358 76.8754 46.3472 75.6581 45.6186 74.0915C44.89 72.5249 44.411 71.2077 44.5407 71.1479Z" fill="#B9B9B9"/>
<path d="M42.3758 78.0029C42.5155 77.953 43.1942 79.4298 44.0725 81.2259C44.9507 83.022 45.6992 84.4689 45.5695 84.5388C45.4497 84.6086 44.4916 83.2715 43.6034 81.4555C42.7151 79.6394 42.2461 78.0528 42.3758 78.0029Z" fill="#B9B9B9"/>
<path d="M40.8582 83.94C40.988 83.8901 41.7864 85.6064 42.8144 87.7019C43.8324 89.8073 44.7006 91.4837 44.5809 91.5635C44.4611 91.6433 43.3733 90.0568 42.3453 87.9314C41.3074 85.816 40.7185 83.9899 40.8582 83.94Z" fill="#B9B9B9"/>
<path d="M440 413.393C440 413.533 341.844 413.653 220.793 413.653C99.7425 413.653 1.55664 413.533 1.55664 413.393C1.55664 413.254 99.6926 413.134 220.793 413.134C341.894 413.134 440 413.254 440 413.393Z" fill="#E8E8E8"/>
<path d="M140.383 133.75L143.586 138.42C143.786 138.719 144.125 138.889 144.484 138.889H150.153C151.051 138.899 151.56 139.937 151.011 140.645L147.558 145.135C147.339 145.415 147.279 145.794 147.389 146.133L149.135 151.521C149.415 152.38 148.586 153.178 147.738 152.878L142.399 150.983C142.059 150.863 141.69 150.913 141.4 151.122L136.81 154.445C136.081 154.974 135.063 154.445 135.083 153.537L135.233 147.869C135.233 147.51 135.073 147.171 134.784 146.961L130.203 143.619C129.474 143.09 129.674 141.952 130.532 141.703L135.971 140.096C136.311 139.996 136.58 139.727 136.7 139.388L138.456 133.999C138.736 133.141 139.874 132.982 140.383 133.72V133.75Z" fill="#5280E2"/>
<path opacity="0.6" d="M391.137 247.813L395.149 249.898C395.399 250.028 395.708 250.028 395.957 249.898L399.95 247.773C400.578 247.433 401.327 247.972 401.207 248.681L400.469 253.141C400.419 253.42 400.518 253.71 400.718 253.909L403.972 257.042C404.491 257.541 404.211 258.419 403.503 258.519L399.031 259.198C398.752 259.238 398.502 259.417 398.383 259.677L396.407 263.738C396.097 264.387 395.179 264.387 394.85 263.738L392.824 259.697C392.694 259.437 392.454 259.268 392.165 259.228L387.684 258.599C386.975 258.499 386.686 257.631 387.195 257.122L390.418 253.949C390.618 253.75 390.718 253.46 390.668 253.181L389.879 248.731C389.75 248.022 390.498 247.483 391.127 247.813H391.137Z" fill="#5280E2"/>
<path opacity="0.6" d="M167.16 114.652L168.008 117.226C168.058 117.386 168.188 117.515 168.358 117.565L170.963 118.334C171.372 118.453 171.472 119.002 171.122 119.252L168.937 120.858C168.797 120.958 168.717 121.118 168.727 121.297L168.807 124.011C168.817 124.44 168.328 124.7 167.978 124.45L165.783 122.864C165.643 122.764 165.463 122.734 165.304 122.794L162.749 123.702C162.34 123.852 161.95 123.462 162.08 123.053L162.908 120.469C162.958 120.309 162.928 120.13 162.829 119.99L161.172 117.845C160.912 117.505 161.152 117.006 161.581 117.006H164.296C164.465 117.006 164.625 116.917 164.725 116.767L166.252 114.532C166.491 114.173 167.04 114.252 167.17 114.662L167.16 114.652Z" fill="#5280E2"/>
<path d="M241.822 99.664L275.895 168.684C278.04 173.035 282.192 176.048 287.003 176.747L363.192 187.813C375.288 189.569 380.119 204.437 371.366 212.968L316.235 266.692C312.762 270.074 311.175 274.964 311.993 279.743L334.01 360.299C334.589 370.756 318.171 377.88 303.61 371.145L235.465 335.323C231.173 333.068 226.033 333.068 221.742 335.323L153.597 371.145C142.778 376.833 130.133 367.643 132.199 355.599L145.213 279.733C146.031 274.954 144.445 270.074 140.971 266.682L85.8405 212.958C77.0878 204.427 81.9183 189.569 94.0143 187.803L170.204 176.737C175.004 176.038 179.156 173.025 181.312 168.674L214.426 101.58C218.558 93.2279 223.558 89.9351 239.337 89.9351C244.597 89.9351 239.127 94.1659 241.832 99.644L241.822 99.664Z" fill="#5280E2"/>
<path opacity="0.3" d="M241.822 99.664L275.895 168.684C278.04 173.035 282.192 176.048 287.003 176.747L363.192 187.813C375.288 189.569 380.119 204.437 371.366 212.968L316.235 266.692C312.762 270.074 311.175 274.964 311.993 279.743L334.01 360.299C334.589 370.756 318.171 377.88 303.61 371.145L235.465 335.323C231.173 333.068 226.033 333.068 221.742 335.323L153.597 371.145C142.778 376.833 130.133 367.643 132.199 355.599L145.213 279.733C146.031 274.954 144.445 270.074 140.971 266.682L85.8405 212.958C77.0878 204.427 81.9183 189.569 94.0143 187.803L170.204 176.737C175.004 176.038 179.156 173.025 181.312 168.674L214.426 101.58C218.558 93.2279 223.558 89.9351 239.337 89.9351C244.597 89.9351 239.127 94.1659 241.832 99.644L241.822 99.664Z" fill="#333333"/>
<path d="M149.685 265.514C149.705 265.654 147.499 266.023 144.764 266.333C142.03 266.642 139.804 266.772 139.784 266.632C139.764 266.492 141.97 266.123 144.705 265.814C147.439 265.504 149.665 265.375 149.685 265.514Z" fill="#5280E2"/>
<path d="M151.231 271.97C151.251 272.11 150.043 272.369 148.556 272.529C147.059 272.699 145.832 272.719 145.822 272.579C145.802 272.439 147.009 272.18 148.496 272.02C149.993 271.85 151.221 271.831 151.231 271.97Z" fill="#5280E2"/>
<path d="M144.924 259.966C144.944 260.106 142.518 260.495 139.514 260.835C136.51 261.174 134.055 261.334 134.045 261.184C134.025 261.044 136.45 260.655 139.464 260.316C142.468 259.976 144.924 259.817 144.934 259.966H144.924Z" fill="#5280E2"/>
<path d="M139.585 254.648C139.605 254.788 137.179 255.177 134.175 255.516C131.171 255.855 128.716 256.015 128.706 255.865C128.686 255.726 131.111 255.337 134.125 254.997C137.13 254.658 139.585 254.498 139.595 254.648H139.585Z" fill="#5280E2"/>
<path d="M134.245 249.329C134.265 249.469 131.84 249.858 128.836 250.198C125.831 250.537 123.376 250.697 123.366 250.547C123.346 250.407 125.772 250.018 128.786 249.679C131.79 249.339 134.245 249.18 134.255 249.329H134.245Z" fill="#5280E2"/>
<path d="M128.905 244.011C128.925 244.151 126.5 244.54 123.496 244.879C120.492 245.219 118.036 245.378 118.026 245.229C118.007 245.089 120.432 244.7 123.446 244.36C126.45 244.021 128.905 243.861 128.915 244.011H128.905Z" fill="#5280E2"/>
<path d="M123.566 238.693C123.586 238.832 121.161 239.222 118.157 239.561C115.153 239.9 112.698 240.06 112.688 239.91C112.668 239.77 115.093 239.381 118.107 239.042C121.111 238.703 123.566 238.543 123.576 238.693H123.566Z" fill="#5280E2"/>
<path d="M118.226 233.374C118.246 233.514 115.821 233.903 112.817 234.242C109.813 234.582 107.358 234.741 107.348 234.592C107.328 234.452 109.753 234.063 112.767 233.723C115.771 233.384 118.226 233.224 118.236 233.374H118.226Z" fill="#5280E2"/>
<path d="M112.887 228.056C112.907 228.195 110.482 228.585 107.478 228.924C104.474 229.263 102.019 229.423 102.009 229.273C101.989 229.133 104.414 228.744 107.428 228.405C110.432 228.066 112.887 227.906 112.897 228.056H112.887Z" fill="#5280E2"/>
<path d="M107.548 222.737C107.568 222.877 105.142 223.266 102.138 223.605C99.1342 223.945 96.679 224.104 96.6691 223.955C96.6491 223.815 99.0743 223.426 102.088 223.086C105.092 222.747 107.548 222.587 107.558 222.737H107.548Z" fill="#5280E2"/>
<path d="M91.8489 199.627C91.8489 199.767 89.5934 199.987 86.7889 200.096C83.9845 200.216 81.719 200.196 81.709 200.046C81.709 199.907 83.9645 199.687 86.769 199.577C89.5635 199.458 91.839 199.478 91.8489 199.627Z" fill="#5280E2"/>
<path d="M93.5058 193.959C93.5058 194.099 91.37 194.169 88.7352 194.099C86.1004 194.029 83.9746 193.86 83.9746 193.72C83.9746 193.58 86.1104 193.51 88.7452 193.58C91.38 193.65 93.5058 193.82 93.5058 193.959Z" fill="#5280E2"/>
<path d="M98.6852 188.611C98.6852 188.751 96.9985 188.9 94.9027 188.95C92.8168 188.99 91.1102 188.91 91.1202 188.761C91.1102 188.621 92.8068 188.471 94.8927 188.431C96.9786 188.391 98.6752 188.471 98.6852 188.611Z" fill="#5280E2"/>
<path d="M102.208 217.429C102.228 217.568 99.8025 217.958 96.7984 218.297C93.7943 218.636 91.3392 218.796 91.3292 218.646C91.3093 218.507 93.7345 218.117 96.7485 217.778C99.7526 217.439 102.208 217.279 102.218 217.429H102.208Z" fill="#5280E2"/>
<path d="M97.4577 211.701C97.4777 211.841 95.0525 212.23 92.0484 212.569C89.0444 212.908 86.5892 213.068 86.5792 212.918C86.5593 212.779 88.9845 212.389 91.9985 212.05C95.0026 211.711 97.4577 211.551 97.4677 211.701H97.4577Z" fill="#5280E2"/>
<path d="M92.9862 206.033C93.0061 206.173 90.5909 206.562 87.5968 206.902C84.6027 207.241 82.1675 207.391 82.1476 207.251C82.1276 207.111 84.5428 206.722 87.5369 206.383C90.531 206.043 92.9662 205.894 92.9762 206.033H92.9862Z" fill="#5280E2"/>
<path d="M309.578 364.16C309.638 364.29 307.672 365.338 305.177 366.506C302.682 367.673 300.616 368.512 300.556 368.382C300.496 368.252 302.462 367.204 304.957 366.036C307.452 364.869 309.518 364.03 309.578 364.16Z" fill="#5280E2"/>
<path d="M313.111 369.778C313.171 369.908 312.113 370.526 310.756 371.165C309.389 371.804 308.241 372.213 308.181 372.083C308.121 371.954 309.179 371.335 310.536 370.696C311.894 370.057 313.052 369.648 313.111 369.778Z" fill="#5280E2"/>
<path d="M303.291 360.428C303.351 360.558 301.185 361.706 298.44 362.983C295.696 364.271 293.43 365.199 293.37 365.069C293.31 364.939 295.476 363.792 298.221 362.514C300.955 361.227 303.231 360.299 303.291 360.428Z" fill="#5280E2"/>
<path d="M296.524 357.105C296.584 357.235 294.418 358.383 291.674 359.66C288.929 360.948 286.664 361.876 286.604 361.746C286.544 361.616 288.71 360.469 291.454 359.191C294.189 357.904 296.464 356.976 296.524 357.105Z" fill="#5280E2"/>
<path d="M289.758 353.783C289.817 353.912 287.652 355.06 284.907 356.338C282.163 357.625 279.897 358.553 279.837 358.423C279.777 358.294 281.943 357.146 284.688 355.869C287.422 354.581 289.698 353.653 289.758 353.783Z" fill="#5280E2"/>
<path d="M283.001 350.45C283.061 350.58 280.895 351.727 278.15 353.005C275.406 354.292 273.14 355.22 273.08 355.091C273.02 354.961 275.186 353.813 277.931 352.536C280.665 351.248 282.941 350.32 283.001 350.45Z" fill="#5280E2"/>
<path d="M276.234 347.127C276.294 347.257 274.128 348.405 271.384 349.682C268.639 350.969 266.374 351.898 266.314 351.768C266.254 351.638 268.42 350.49 271.164 349.213C273.899 347.926 276.174 346.997 276.234 347.127Z" fill="#5280E2"/>
<path d="M269.477 343.804C269.537 343.934 267.371 345.082 264.627 346.359C261.882 347.647 259.617 348.575 259.557 348.445C259.497 348.315 261.663 347.168 264.407 345.89C267.142 344.603 269.417 343.675 269.477 343.804Z" fill="#5280E2"/>
<path d="M262.711 340.472C262.771 340.601 260.605 341.749 257.86 343.027C255.116 344.314 252.85 345.242 252.79 345.112C252.73 344.983 254.896 343.835 257.641 342.557C260.375 341.27 262.651 340.342 262.711 340.472Z" fill="#5280E2"/>
<path d="M255.954 337.149C256.014 337.279 253.848 338.426 251.103 339.704C248.359 340.991 246.093 341.919 246.033 341.79C245.974 341.66 248.139 340.512 250.884 339.235C253.618 337.947 255.894 337.019 255.954 337.149Z" fill="#5280E2"/>
<path d="M249.187 333.816C249.247 333.946 247.081 335.094 244.337 336.371C241.592 337.658 239.327 338.587 239.267 338.457C239.207 338.327 241.373 337.179 244.117 335.902C246.852 334.614 249.127 333.686 249.187 333.816Z" fill="#5280E2"/>
<path d="M242.86 329.924C242.92 330.054 240.754 331.202 238.01 332.479C235.265 333.767 233 334.695 232.94 334.565C232.88 334.436 235.046 333.288 237.79 332.01C240.525 330.723 242.8 329.795 242.86 329.924Z" fill="#5280E2"/>
<path d="M234.556 327.041C234.616 327.17 233.558 327.799 232.191 328.438C230.824 329.077 229.666 329.496 229.596 329.366C229.536 329.236 230.594 328.608 231.961 327.969C233.329 327.33 234.487 326.911 234.556 327.041Z" fill="#5280E2"/>
<path d="M252.551 98.1671L286.623 167.187C288.769 171.538 292.921 174.551 297.731 175.25L373.921 186.316C386.017 188.072 390.847 202.94 382.094 211.471L326.963 265.195C323.49 268.577 321.903 273.467 322.722 278.247L335.736 354.112C337.802 366.156 325.157 375.346 314.338 369.658L246.193 333.836C241.902 331.581 236.762 331.581 232.47 333.836L164.325 369.658C153.506 375.346 140.861 366.156 142.927 354.112L155.942 278.247C156.76 273.467 155.173 268.587 151.7 265.195L96.569 211.471C87.8163 202.94 92.6468 188.082 104.743 186.316L180.932 175.25C185.733 174.551 189.885 171.538 192.04 167.187L226.113 98.1671C231.522 87.2109 247.151 87.2109 252.561 98.1671H252.551Z" fill="#5280E2"/>
<g opacity="0.3">
<path d="M327.183 223.765C325.796 212.439 324.059 200.755 317.981 191.096C311.903 181.447 300.266 174.342 289.178 177.046C287.142 188.85 284.997 201.383 291.723 211.302C293.28 213.587 295.276 215.692 295.965 218.366C296.703 221.26 295.775 224.284 295.067 227.187C289.767 248.92 297.073 271.521 304.288 292.695C312.173 315.815 320.357 339.484 335.846 358.363C335.726 352.645 334.738 348.335 334.03 344.024C332.902 337.179 331.734 330.763 330.207 321.812C328.451 311.554 324.209 289.233 322.662 277.658C322.243 274.565 322.872 271.601 323.97 269.306C325.177 266.762 327.024 265.145 328.361 263.838C329.519 262.71 330.317 261.932 330.317 261.932C329.049 244.49 329.309 241.117 327.183 223.755V223.765Z" fill="#333333"/>
</g>
<path d="M188.578 171.359C188.448 171.418 187.42 169.433 186.282 166.928C185.145 164.424 184.326 162.348 184.456 162.288C184.586 162.228 185.614 164.214 186.751 166.719C187.889 169.223 188.707 171.299 188.578 171.359Z" fill="#5280E2"/>
<path d="M182.909 174.832C182.779 174.892 182.17 173.824 181.551 172.457C180.933 171.089 180.533 169.932 180.663 169.872C180.793 169.812 181.402 170.88 182.02 172.247C182.639 173.614 183.038 174.772 182.909 174.832Z" fill="#5280E2"/>
<path d="M192.38 165.122C192.25 165.182 191.133 162.997 189.885 160.242C188.637 157.488 187.729 155.203 187.859 155.144C187.989 155.084 189.107 157.269 190.354 160.023C191.602 162.777 192.51 165.062 192.38 165.122Z" fill="#5280E2"/>
<path d="M195.793 158.397C195.663 158.456 194.546 156.271 193.298 153.517C192.051 150.763 191.142 148.478 191.272 148.418C191.402 148.358 192.52 150.544 193.767 153.298C195.015 156.052 195.923 158.337 195.793 158.397Z" fill="#5280E2"/>
<path d="M199.206 151.681C199.077 151.741 197.959 149.556 196.711 146.802C195.464 144.048 194.555 141.763 194.685 141.703C194.815 141.643 195.933 143.828 197.18 146.582C198.428 149.336 199.336 151.621 199.206 151.681Z" fill="#5280E2"/>
<path d="M202.61 144.956C202.48 145.016 201.362 142.83 200.115 140.076C198.867 137.322 197.959 135.037 198.089 134.977C198.218 134.917 199.336 137.103 200.584 139.857C201.831 142.611 202.739 144.896 202.61 144.956Z" fill="#5280E2"/>
<path d="M206.023 138.24C205.893 138.3 204.775 136.115 203.528 133.361C202.28 130.607 201.372 128.322 201.502 128.262C201.631 128.202 202.749 130.387 203.997 133.141C205.244 135.895 206.152 138.18 206.023 138.24Z" fill="#5280E2"/>
<path d="M209.426 131.515C209.296 131.575 208.178 129.39 206.931 126.636C205.683 123.882 204.775 121.596 204.905 121.537C205.035 121.477 206.152 123.662 207.4 126.416C208.648 129.17 209.556 131.455 209.426 131.515Z" fill="#5280E2"/>
<path d="M212.839 124.799C212.709 124.859 211.592 122.674 210.344 119.92C209.096 117.166 208.188 114.881 208.318 114.821C208.448 114.761 209.566 116.946 210.813 119.7C212.061 122.454 212.969 124.74 212.839 124.799Z" fill="#5280E2"/>
<path d="M216.252 118.084C216.122 118.144 215.005 115.959 213.757 113.205C212.51 110.451 211.601 108.166 211.731 108.106C211.861 108.046 212.979 110.231 214.226 112.985C215.474 115.739 216.382 118.024 216.252 118.084Z" fill="#5280E2"/>
<path d="M219.655 111.358C219.526 111.418 218.408 109.233 217.16 106.479C215.913 103.725 215.005 101.44 215.134 101.38C215.264 101.32 216.382 103.505 217.629 106.26C218.877 109.014 219.785 111.299 219.655 111.358Z" fill="#5280E2"/>
<path d="M223.638 105.082C223.508 105.142 222.39 102.957 221.143 100.203C219.895 97.4487 218.987 95.1636 219.117 95.1037C219.247 95.0439 220.364 97.2291 221.612 99.9832C222.859 102.737 223.768 105.022 223.638 105.082Z" fill="#5280E2"/>
<path d="M226.622 96.8111C226.492 96.871 225.883 95.8031 225.255 94.4259C224.626 93.0486 224.227 91.8809 224.356 91.821C224.486 91.7611 225.095 92.829 225.724 94.2063C226.353 95.5836 226.752 96.7513 226.622 96.8111Z" fill="#5280E2"/>
<path d="M229.526 102.707C229.656 102.777 221.861 118.353 212.12 137.492C202.38 156.64 194.375 172.117 194.246 172.047C194.116 171.977 201.911 156.411 211.651 137.252C221.392 118.104 229.396 102.638 229.516 102.697L229.526 102.707Z" fill="white"/>
<path d="M177.889 182.175C177.889 182.175 177.599 182.245 177.05 182.325C176.452 182.405 175.643 182.504 174.625 182.644C172.47 182.903 169.426 183.263 165.693 183.712C158.098 184.56 147.689 185.737 136.191 187.025C130.433 187.653 124.944 188.242 119.943 188.791C117.448 189.06 115.073 189.29 112.887 189.709C110.702 190.118 108.716 190.707 107.009 191.515C103.596 193.141 101.54 195.606 100.632 197.482C99.7034 199.388 99.7134 200.615 99.6436 200.595C99.6436 200.595 99.6436 200.525 99.6436 200.376C99.6535 200.236 99.6635 200.016 99.7134 199.737C99.8132 199.188 100.003 198.37 100.452 197.392C101.32 195.446 103.386 192.882 106.859 191.176C108.586 190.327 110.602 189.699 112.808 189.27C115.013 188.831 117.398 188.581 119.894 188.302C124.894 187.743 130.383 187.134 136.141 186.496C147.649 185.258 158.058 184.151 165.663 183.333C169.406 182.953 172.45 182.654 174.615 182.434C175.633 182.345 176.452 182.275 177.05 182.215C177.609 182.175 177.899 182.155 177.909 182.175H177.889Z" fill="white"/>
<path d="M306.944 361.755C306.874 361.885 297.153 356.527 285.227 349.791C273.3 343.056 263.699 337.498 263.769 337.378C263.839 337.249 273.56 342.607 285.486 349.342C297.402 356.068 307.013 361.626 306.944 361.755Z" fill="white"/>
<path d="M249.976 329.755C249.926 329.865 248.159 328.777 244.966 328.148C241.792 327.48 237.181 327.53 232.42 328.957C227.65 330.384 223.668 332.579 220.813 334.155C219.456 334.924 218.318 335.562 217.44 336.061C216.642 336.51 216.193 336.74 216.173 336.71C216.153 336.68 216.572 336.391 217.34 335.882C218.109 335.383 219.227 334.674 220.634 333.826C223.448 332.16 227.44 329.895 232.281 328.448C237.121 327.001 241.832 327.011 245.045 327.779C246.662 328.148 247.91 328.627 248.738 329.037C249.157 329.226 249.467 329.416 249.676 329.535C249.886 329.655 249.986 329.725 249.986 329.745L249.976 329.755Z" fill="white"/>
<path d="M382.893 155.493L393.801 152.07C398.143 154.934 403.302 156.66 408.881 156.83C424.92 157.319 438.323 144.706 438.812 128.671C439.301 112.636 426.686 99.2349 410.648 98.7459C394.61 98.257 381.206 110.87 380.727 126.905C380.527 133.6 382.613 139.837 386.266 144.856H386.256L382.903 155.483L382.893 155.493Z" fill="white"/>
<path d="M382.893 155.493C382.893 155.493 382.953 155.273 383.083 154.824C383.222 154.345 383.432 153.677 383.691 152.799C384.25 150.973 385.069 148.288 386.127 144.816C386.147 144.756 386.216 144.716 386.276 144.736C386.286 144.736 386.306 144.746 386.316 144.756C386.316 144.756 386.316 144.756 386.326 144.766L386.157 144.926C383.831 141.753 381.426 137.123 380.727 131.225C379.999 125.398 381.097 118.283 385.159 111.957C387.175 108.814 389.909 105.91 393.262 103.615C396.606 101.32 400.568 99.6139 404.86 98.9055C409.141 98.207 413.712 98.4365 418.093 99.7237C420.299 100.322 422.405 101.32 424.451 102.428C426.427 103.665 428.383 105.002 430.06 106.699C431.806 108.295 433.213 110.191 434.521 112.107C435.709 114.103 436.776 116.148 437.465 118.323C438.932 122.624 439.351 127.164 438.822 131.445C438.313 135.746 436.776 139.757 434.651 143.189C432.505 146.622 429.74 149.476 426.696 151.631C423.652 153.786 420.349 155.253 417.095 156.101C413.842 156.999 410.628 157.079 407.694 156.95C401.776 156.521 397.025 154.375 393.722 152.17H393.821C390.258 153.268 387.514 154.096 385.638 154.675C384.739 154.944 384.051 155.153 383.562 155.303C383.103 155.443 382.873 155.503 382.873 155.503C383.671 155.243 386.895 154.196 393.742 151.96C393.781 151.95 393.811 151.96 393.841 151.97C397.135 154.116 401.855 156.201 407.704 156.6C410.608 156.71 413.782 156.62 416.986 155.712C420.189 154.864 423.443 153.407 426.427 151.272C429.411 149.147 432.136 146.333 434.231 142.95C436.317 139.567 437.824 135.616 438.313 131.395C438.822 127.184 438.413 122.724 436.966 118.493C436.287 116.358 435.229 114.352 434.072 112.386C432.784 110.51 431.407 108.644 429.69 107.068C428.044 105.411 426.127 104.084 424.181 102.877C422.165 101.789 420.109 100.801 417.934 100.213C413.632 98.9354 409.141 98.7059 404.929 99.3944C400.718 100.093 396.815 101.759 393.522 104.004C390.218 106.26 387.514 109.103 385.518 112.197C381.486 118.413 380.378 125.418 381.067 131.185C381.725 137.023 384.061 141.613 386.336 144.786C386.376 144.836 386.366 144.916 386.306 144.956C386.266 144.986 386.196 144.986 386.157 144.956L386.147 144.946L386.336 144.886C384.15 151.561 383.123 154.704 382.873 155.483L382.893 155.493Z" fill="#333333"/>
<path d="M415.578 136.015L415.837 124.231C415.837 124.231 413.253 123.672 411.017 120.09C409.54 117.725 408.891 115.819 408.622 114.791C408.452 114.162 407.863 113.723 407.214 113.783C406.596 113.843 405.857 114.063 405.408 115.021C404.58 116.797 405.688 121.187 405.688 121.187C405.688 121.187 406.147 122.075 404.919 122.045L400.548 121.946C399.979 121.936 399.42 122.105 398.981 122.464C398.592 122.784 398.262 123.263 398.302 124.001C398.392 125.668 399.26 126.436 399.25 126.785C399.25 127.134 398.751 127.733 399.071 128.751C399.4 129.769 399.62 129.679 399.61 130.168C399.6 130.647 399.659 131.874 399.949 132.632C400.238 133.391 400.578 133.74 400.578 133.74C400.578 133.74 400.408 135.317 400.827 136.245C401.246 137.173 403.073 137.701 403.691 137.711C404.3 137.721 408.702 136.943 409.939 136.664C411.177 136.384 414.39 135.406 415.568 136.005L415.578 136.015Z" fill="#5280E2"/>
<path d="M417.806 124.02L417.535 136.121L422.035 136.221L422.306 124.121L417.806 124.02Z" fill="#5280E2"/>
<path d="M85.1419 251.405H0.259766V296.257H62.6963C64.5427 299.101 68.4449 305.547 68.4449 305.547L72.9361 296.257H85.1519V251.405H85.1419Z" fill="#FAFAFA"/>
<path d="M85.1419 251.405C85.1419 251.405 85.1519 251.664 85.1618 252.183C85.1618 252.722 85.1718 253.49 85.1818 254.488C85.1918 256.544 85.2117 259.547 85.2317 263.409C85.2517 271.192 85.2916 282.427 85.3315 296.257V296.447H85.1419C81.2795 296.447 77.1976 296.457 72.926 296.467L73.1157 296.347C71.7084 299.261 70.2014 302.404 68.6345 305.637L68.4549 306.006L68.2353 305.657C66.4289 302.743 64.4827 299.6 62.4867 296.377L62.6863 296.487C45.5302 296.487 26.1785 296.507 5.75883 296.507C3.91248 296.507 2.07611 296.507 0.249721 296.507H-0.00976562V296.247C-0.00976562 280.412 0.000214642 265.295 0.0101949 251.395V251.155H0.249721C25.1505 251.195 46.3785 251.225 61.3988 251.255C68.894 251.285 74.8323 251.315 78.9142 251.335C80.9302 251.345 82.4771 251.365 83.545 251.365C84.054 251.365 84.4433 251.375 84.7327 251.375C84.9922 251.375 85.1219 251.385 85.1219 251.385C85.1219 251.385 84.9722 251.385 84.7027 251.395C84.4133 251.395 84.0141 251.395 83.4951 251.405C82.4173 251.405 80.8504 251.425 78.8244 251.435C74.7424 251.455 68.8142 251.485 61.329 251.514C46.3286 251.534 25.1205 251.574 0.249721 251.614L0.489248 251.375C0.489248 265.265 0.499228 280.392 0.509208 296.228L0.249721 295.968C2.07611 295.968 3.91248 295.968 5.75883 295.968C26.1685 295.968 45.5302 295.988 62.6863 295.988H62.816L62.8859 296.098C64.8819 299.331 66.8281 302.484 68.6245 305.398L68.2353 305.418C69.8022 302.185 71.3292 299.041 72.7364 296.138L72.7963 296.018H72.926C77.1976 296.018 81.2695 296.028 85.1419 296.038L84.9522 296.228C84.9922 282.437 85.0321 271.252 85.052 263.499C85.072 259.627 85.092 256.603 85.1019 254.538C85.1019 253.52 85.1219 252.742 85.1219 252.193C85.1219 251.664 85.1419 251.385 85.1419 251.385V251.405Z" fill="#B9B9B9"/>
<path d="M20.1006 273.477C21.4878 272.908 22.4759 271.491 22.4958 269.825C22.5258 267.63 20.879 265.824 18.8131 265.804C16.7572 265.774 15.0605 267.53 15.0306 269.725C15.0106 271.421 15.9887 272.868 17.376 273.457C11.6273 274.275 11.8369 280.512 11.8369 280.512L25.4001 280.691C25.4001 280.691 25.7594 274.395 20.0806 273.487L20.1006 273.477Z" fill="#5280E2"/>
<path d="M73.3057 267.151C73.3057 267.241 64.6528 267.311 53.9839 267.311C43.315 267.311 34.6621 267.241 34.6621 267.151C34.6621 267.061 43.315 266.991 53.9839 266.991C64.6528 266.991 73.3057 267.061 73.3057 267.151Z" fill="#333333"/>
<path d="M73.3057 271.771C73.3057 271.861 64.6528 271.93 53.9839 271.93C43.315 271.93 34.6621 271.861 34.6621 271.771C34.6621 271.681 43.315 271.611 53.9839 271.611C64.6528 271.611 73.3057 271.681 73.3057 271.771Z" fill="#333333"/>
<path d="M73.3057 276.391C73.3057 276.48 64.6528 276.55 53.9839 276.55C43.315 276.55 34.6621 276.48 34.6621 276.391C34.6621 276.301 43.315 276.231 53.9839 276.231C64.6528 276.231 73.3057 276.301 73.3057 276.391Z" fill="#333333"/>
<path d="M57.7764 282.248C57.7764 282.338 52.6066 282.408 46.2193 282.408C39.8319 282.408 34.6621 282.338 34.6621 282.248C34.6621 282.158 39.8319 282.088 46.2193 282.088C52.6066 282.088 57.7764 282.158 57.7764 282.248Z" fill="#333333"/>
<path d="M368.153 390.293L356.665 407.516C356.665 407.516 370.318 424.978 368.502 428.361L334.31 407.287L351.106 379.716L368.153 390.283V390.293Z" fill="#5280E2"/>
<g opacity="0.3">
<path d="M368.153 390.293L356.665 407.516C356.665 407.516 370.318 424.978 368.502 428.361L334.31 407.287L351.106 379.716L368.153 390.283V390.293Z" fill="#333333"/>
</g>
<path d="M347.004 399.513C346.236 399.284 345.318 399.753 345.058 400.511C344.799 401.27 345.258 402.208 346.026 402.448C346.795 402.687 347.913 402.168 348.082 401.38C348.252 400.591 347.653 399.523 346.845 399.473" fill="#E8E8E8"/>
<g opacity="0.6">
<path d="M334.3 407.287L336.106 404.573L368.223 425.786C368.223 425.786 369.341 427.383 368.502 428.351L334.31 407.277L334.3 407.287Z" fill="white"/>
</g>
<path d="M357.325 407.676C357.215 407.835 356.337 407.396 355.179 407.426C354.021 407.426 353.153 407.885 353.043 407.726C352.913 407.596 353.772 406.758 355.169 406.738C356.566 406.718 357.454 407.536 357.325 407.666V407.676Z" fill="#333333"/>
<path d="M359.999 411.368C359.94 411.557 359.041 411.388 358.033 411.747C357.025 412.076 356.407 412.745 356.247 412.635C356.077 412.565 356.556 411.517 357.814 411.098C359.061 410.669 360.089 411.198 359.999 411.368Z" fill="#333333"/>
<path d="M359.39 416.916C359.221 416.856 359.5 415.878 360.488 415.229C361.476 414.571 362.484 414.7 362.474 414.88C362.474 415.08 361.676 415.249 360.867 415.798C360.049 416.327 359.57 416.996 359.39 416.916Z" fill="#333333"/>
<path d="M359.51 403.465C359.35 403.575 358.721 402.876 357.743 402.357C356.775 401.819 355.837 401.689 355.847 401.489C355.827 401.31 356.925 401.13 358.073 401.759C359.23 402.377 359.679 403.385 359.52 403.475L359.51 403.465Z" fill="#333333"/>
<path d="M361.766 399.942C361.726 400.012 360.997 399.713 360.059 398.875C359.59 398.456 359.081 397.907 358.602 397.218C358.362 396.879 358.143 396.5 357.943 396.091C357.843 395.891 357.724 395.672 357.674 395.372C357.594 395.083 357.763 394.574 358.143 394.434C358.482 394.275 358.861 394.354 359.111 394.504C359.37 394.654 359.54 394.823 359.7 394.993C360.019 395.322 360.298 395.662 360.538 396.011C361.007 396.709 361.306 397.418 361.476 398.017C361.815 399.244 361.706 400.032 361.626 400.032C361.516 400.032 361.456 399.284 361.017 398.176C360.797 397.627 360.478 396.999 360.019 396.37C359.789 396.061 359.52 395.751 359.221 395.462C358.921 395.143 358.612 394.953 358.422 395.053C358.352 395.093 358.332 395.113 358.342 395.272C358.362 395.422 358.452 395.602 358.542 395.801C358.722 396.18 358.921 396.54 359.131 396.879C359.54 397.548 359.989 398.096 360.398 398.535C361.207 399.413 361.825 399.853 361.766 399.942Z" fill="#333333"/>
<path d="M361.397 400.053C361.327 400.043 361.357 399.245 361.966 398.117C362.265 397.558 362.724 396.949 363.353 396.39C363.672 396.111 364.031 395.851 364.431 395.622C364.84 395.412 365.359 395.103 366.057 395.432C366.407 395.632 366.527 396.061 366.477 396.35C366.447 396.65 366.347 396.859 366.267 397.089C366.087 397.528 365.838 397.917 365.558 398.247C365 398.905 364.331 399.335 363.732 399.564C362.514 400.043 361.696 399.804 361.716 399.744C361.716 399.624 362.495 399.664 363.532 399.125C364.041 398.865 364.61 398.446 365.069 397.847C365.299 397.548 365.499 397.209 365.648 396.839C365.818 396.44 365.868 396.061 365.708 396.021C365.538 395.911 365.079 396.011 364.76 396.211C364.391 396.41 364.061 396.64 363.762 396.879C363.163 397.368 362.704 397.897 362.375 398.386C361.706 399.364 361.506 400.093 361.397 400.063V400.053Z" fill="#333333"/>
<path d="M364.988 393.916L368.721 414.271C368.721 414.271 390.677 417.315 391.735 421.007L352.513 429.668L345.387 398.186L364.988 393.916Z" fill="#5280E2"/>
<path d="M356.225 415.259C355.516 415.639 355.177 416.607 355.516 417.335C355.866 418.064 356.844 418.413 357.562 418.054C358.281 417.695 358.72 416.537 358.301 415.858C357.882 415.179 356.704 414.82 356.085 415.349" fill="#E8E8E8"/>
<g opacity="0.6">
<path d="M352.513 429.678L351.924 426.475L389.759 419.37C389.759 419.37 391.675 419.75 391.745 421.017L352.523 429.678H352.513Z" fill="white"/>
</g>
<path d="M369.32 413.942C369.36 414.132 368.422 414.431 367.613 415.26C366.785 416.058 366.485 416.996 366.286 416.966C366.096 416.966 366.136 415.759 367.124 414.781C368.112 413.792 369.32 413.763 369.31 413.952L369.32 413.942Z" fill="#333333"/>
<path d="M373.81 414.73C373.89 414.91 373.141 415.419 372.662 416.367C372.163 417.305 372.193 418.223 372.004 418.253C371.834 418.323 371.455 417.235 372.064 416.058C372.662 414.88 373.77 414.551 373.82 414.73H373.81Z" fill="#333333"/>
<path d="M377.234 419.142C377.065 419.221 376.595 418.323 376.855 417.165C377.104 416.008 377.923 415.389 378.033 415.539C378.172 415.668 377.723 416.367 377.524 417.315C377.304 418.263 377.424 419.082 377.244 419.142H377.234Z" fill="#333333"/>
<path d="M367.952 409.392C367.912 409.582 366.974 409.512 365.906 409.831C364.838 410.121 364.07 410.67 363.94 410.53C363.8 410.42 364.469 409.522 365.727 409.173C366.984 408.813 368.022 409.222 367.952 409.392Z" fill="#333333"/>
<path d="M367.124 405.301C367.144 405.381 366.415 405.661 365.158 405.72C364.529 405.75 363.781 405.71 362.962 405.541C362.553 405.461 362.134 405.341 361.705 405.191C361.495 405.112 361.256 405.042 361.006 404.862C360.747 404.712 360.517 404.223 360.697 403.864C360.826 403.515 361.156 403.305 361.435 403.245C361.725 403.175 361.974 403.175 362.194 403.185C362.653 403.185 363.092 403.245 363.511 403.335C364.34 403.515 365.038 403.804 365.587 404.124C366.685 404.762 367.154 405.411 367.094 405.461C367.024 405.541 366.445 405.042 365.368 404.553C364.829 404.313 364.16 404.084 363.401 403.954C363.022 403.894 362.613 403.854 362.194 403.854C361.755 403.834 361.395 403.914 361.335 404.124C361.316 404.203 361.316 404.233 361.425 404.333C361.535 404.423 361.735 404.503 361.934 404.573C362.334 404.722 362.723 404.842 363.102 404.932C363.861 405.122 364.569 405.211 365.158 405.241C366.356 405.311 367.104 405.191 367.124 405.301Z" fill="#333333"/>
<path d="M366.934 405.63C366.874 405.67 366.345 405.071 365.996 403.844C365.826 403.235 365.726 402.477 365.786 401.639C365.816 401.22 365.896 400.781 366.026 400.332C366.165 399.893 366.335 399.314 367.064 399.064C367.453 398.965 367.842 399.194 368.002 399.434C368.191 399.673 368.261 399.893 368.361 400.112C368.531 400.551 368.62 401.01 368.65 401.439C368.71 402.297 368.521 403.076 368.261 403.655C367.722 404.842 366.974 405.241 366.944 405.181C366.854 405.101 367.443 404.583 367.812 403.475C367.992 402.926 368.111 402.238 368.022 401.489C367.982 401.12 367.892 400.731 367.732 400.362C367.582 399.963 367.353 399.653 367.203 399.733C367.004 399.773 366.744 400.162 366.654 400.531C366.535 400.93 366.455 401.32 366.405 401.699C366.315 402.457 366.355 403.166 366.455 403.744C366.654 404.912 367.014 405.58 366.924 405.63H366.934Z" fill="#333333"/>
<path d="M357.194 224.244L404.929 297.884C409.47 304.55 412.065 311.405 411.387 319.318C410.948 324.407 409.081 329.256 406.277 333.527L367.324 401.569L347.912 381.702L376.595 321.104L349.23 284.254L334.698 224.244H357.184H357.194Z" fill="#333333"/>
<path d="M370.957 408.274L346.924 242.135L345.587 225.281L304.468 223.056C304.468 223.056 297.831 244.35 297.273 255.376C296.724 266.402 321.744 325.005 321.744 325.005L327.513 354.321L344.2 413.792L370.957 408.274Z" fill="#333333"/>
<path d="M301.304 219.634C300.576 218.426 306.215 213.677 315.297 206.283C317.572 204.427 320.057 202.391 322.722 200.206C325.476 198.011 328.73 195.396 333.241 193.68C337.712 192.004 342.862 191.555 347.972 192.702C350.517 193.271 353.042 194.239 355.427 195.686C357.803 197.132 360.088 199.128 361.805 201.772C362.214 202.411 362.653 203.139 363.052 204.117C363.441 205.075 363.771 206.333 363.721 207.789C363.641 209.426 363.142 210.893 362.084 212.26C361.545 212.938 360.827 213.597 359.908 214.086C359.459 214.335 358.95 214.525 358.441 214.664C357.952 214.784 357.473 214.874 356.984 214.884C354.928 214.964 353.531 214.195 352.763 213.776C351.954 213.307 351.515 212.978 351.275 212.838C351.176 212.769 351.116 212.739 351.186 212.769C351.246 212.788 351.365 212.828 351.445 212.828C351.615 212.848 351.625 212.818 351.455 212.828C351.116 212.848 350.267 213.108 349.06 213.457C348.451 213.637 347.703 213.776 347.024 213.906C346.345 213.996 345.657 214.096 345.008 214.116C342.383 214.265 340.138 213.946 338.171 213.687C336.205 213.407 334.509 213.168 333.042 213.118C331.564 213.058 330.407 213.218 329.079 213.567C326.475 214.305 323.85 215.842 321.315 217.309C318.81 218.785 316.195 220.252 313.74 221.11C311.295 221.999 308.969 222.388 307.063 222.338C305.157 222.298 303.7 221.819 302.831 221.31C301.963 220.801 301.634 220.312 301.733 219.993C301.973 219.274 303.819 219.444 306.554 218.466C307.921 217.987 309.528 217.219 311.305 216.061C313.111 214.924 314.947 213.387 317.273 211.481C319.608 209.635 322.333 207.38 326.285 205.734C328.231 204.936 330.636 204.387 332.872 204.307C335.107 204.187 337.213 204.367 339.129 204.496C341.046 204.636 342.812 204.736 344.269 204.566C344.649 204.536 344.978 204.467 345.317 204.407C345.647 204.317 345.926 204.267 346.305 204.137C347.104 203.898 348.232 203.409 350.008 203.109C350.896 202.97 351.984 202.89 353.212 203.109C353.81 203.219 354.459 203.399 355.008 203.628C355.577 203.858 355.996 204.097 356.355 204.307C357.044 204.716 357.493 205.025 357.633 205.085C357.653 205.095 357.673 205.105 357.663 205.105C357.663 205.105 357.673 205.075 357.613 205.205L357.373 205.714C357.144 206.143 356.954 206.702 356.864 206.941C356.755 207.32 356.705 207.45 356.675 207.68C356.645 207.789 356.645 207.949 356.645 207.949C356.645 207.979 356.645 207.999 356.645 207.949V207.919L356.635 207.909C356.575 207.68 356.715 208.208 356.695 208.149C356.695 208.139 356.695 208.119 356.655 208.059C356.605 207.959 356.475 207.799 356.316 207.68C356.166 207.56 356.016 207.49 355.976 207.48C355.956 207.48 355.966 207.48 355.996 207.48H356.066L356.116 207.5H356.146H356.156L355.527 207.47C355.377 207.47 355.098 207.47 354.689 207.56C354.489 207.6 354.24 207.66 353.97 207.749L353.751 207.819C353.701 207.839 353.741 207.819 353.721 207.819V207.799C353.691 207.739 353.561 207.49 353.361 207.181C351.904 204.866 348.83 203.02 345.667 202.221C342.493 201.393 339.139 201.513 336.235 202.381C333.331 203.229 330.457 205.025 327.612 206.881C324.718 208.787 321.904 210.553 319.329 212.06C308.979 218.127 301.983 220.751 301.284 219.584L301.304 219.634Z" fill="#F5F5F5"/>
<path d="M342.264 139.657C343.112 139.807 351.306 143.249 355.018 144.826C356.196 145.325 357.154 146.223 357.723 147.37L375.987 184.22L361.855 193.999C361.855 193.999 363.512 222.787 359.879 224.244C358.521 224.783 309.149 224.703 309.149 224.703C309.149 224.703 303.81 226.589 301.903 224.703C300.426 223.246 300.995 220.402 300.995 220.402V160.322L298.311 143.778C298.311 143.778 323.78 136.404 342.254 139.667L342.264 139.657Z" fill="#455A64"/>
<path d="M308.031 156.571L308.82 186.456L283.35 188.89C283.35 188.721 280.596 150.154 298.321 143.768L308.031 156.571Z" fill="#455A64"/>
<path d="M360.807 188.88C360.657 187.913 360.497 186.785 360.218 184.969C359.829 182.265 359.33 178.772 358.771 174.911C358.222 171.049 357.733 167.547 357.354 164.843C357.194 163.645 357.054 162.627 356.934 161.789C356.845 161.071 356.805 160.662 356.845 160.662C356.884 160.662 356.984 161.041 357.144 161.759C357.304 162.468 357.503 163.505 357.723 164.783C358.182 167.347 358.741 170.899 359.3 174.831C359.859 178.762 360.308 182.325 360.587 184.919C360.727 186.216 360.827 187.264 360.867 187.992C360.887 188.362 360.897 188.641 360.897 188.831V188.96C360.897 188.96 360.927 189.05 360.797 189V188.95C360.787 188.9 360.787 188.87 360.797 188.87L360.807 188.88Z" fill="#333333"/>
<g opacity="0.3">
<path d="M359.19 205.943C358.082 202.581 355.278 199.956 352.054 198.489C348.83 197.023 345.218 196.614 341.675 196.663C335.507 196.753 329.279 198.22 324.059 201.513C316.245 206.452 311.015 215.213 302.422 218.626L301.364 220.142C308.011 220.492 314.748 218.875 320.516 215.562C324.289 213.397 327.702 210.503 331.824 209.096C335.467 207.859 339.399 207.879 343.241 207.909C346.874 207.939 350.747 208.039 353.761 210.074C354.649 210.673 355.517 211.461 356.595 211.521C357.803 211.591 358.91 210.643 359.32 209.506C359.729 208.358 359.559 207.091 359.18 205.933L359.19 205.943Z" fill="#333333"/>
</g>
<path d="M348.142 185.228L351.196 177.515C351.505 176.737 352.254 176.228 353.092 176.228H367.584C368.602 176.228 369.31 177.236 368.951 178.194L359.659 203.399C359.549 203.698 359.27 203.898 358.951 203.898H341.795C341.256 203.898 340.896 203.359 341.096 202.86L348.142 185.238V185.228Z" fill="#333333"/>
<path d="M366.336 201.244L368.042 191.864L366.635 184.48L364.369 190.627V193.111C363.531 192.892 355.757 186.306 353.671 187.723C351.585 189.14 346.235 196.923 346.235 196.923C346.235 196.923 355.637 206.103 357.144 206.792C357.144 206.792 357.643 212.589 357.713 215.583C357.773 218.127 358.252 219.095 361.555 220.202C364.859 221.31 369.05 215.553 369.05 210.424C369.05 207.221 366.346 201.254 366.346 201.254L366.336 201.244Z" fill="#FFBE9D"/>
<path d="M305.816 187.024L306.634 196.883L330.377 188.202L340.946 183.312L345.567 184.47C345.567 184.47 360.098 185.418 360.238 186.346C360.368 187.274 361.027 188.062 360.238 188.192C359.45 188.322 347.952 188.85 347.952 188.85C347.952 188.85 360.348 189.639 360.627 190.567C360.907 191.495 360.508 192.942 359.849 192.942H346.376C346.376 192.942 359.06 193.73 359.19 194.259C359.32 194.788 360.248 195.716 359.06 196.105C357.873 196.504 346.246 196.893 346.246 196.893L357.214 198.879C357.214 198.879 357.613 200.595 356.685 200.595C355.757 200.595 331.844 202.182 331.844 202.182C331.844 202.182 303.83 220.043 298.54 221.34C293.161 222.657 288.63 216.52 287.981 212.2C287.003 205.684 286.095 188.721 286.095 188.721L305.836 186.995L305.816 187.024Z" fill="#FFBE9D"/>
<path d="M331.834 202.211C331.834 202.211 331.994 202.181 332.323 202.152C332.672 202.122 333.142 202.082 333.75 202.032C335.028 201.942 336.874 201.802 339.229 201.633C341.615 201.463 344.519 201.263 347.892 201.034C349.579 200.924 351.385 200.794 353.292 200.665C354.25 200.605 355.228 200.535 356.236 200.465C356.735 200.445 357.284 200.385 357.563 200.126C357.793 199.886 357.433 199.368 357.084 199.058L357.174 199.108C353.831 198.509 350.128 197.851 346.206 197.152C346.086 197.132 346.006 197.013 346.026 196.893C346.046 196.783 346.136 196.713 346.246 196.703C348.341 196.614 350.507 196.514 352.743 196.414C353.861 196.344 354.988 196.284 356.136 196.214C356.705 196.175 357.284 196.135 357.853 196.075C358.412 195.995 359.05 196.005 359.36 195.686C359.679 195.416 359.509 194.748 359.16 194.548C358.99 194.488 358.651 194.448 358.372 194.408L357.483 194.299C356.286 194.179 355.078 194.049 353.851 193.919C351.405 193.69 348.9 193.46 346.365 193.221C346.226 193.211 346.116 193.081 346.126 192.932C346.136 192.792 346.256 192.692 346.385 192.692C349.07 192.692 351.795 192.692 354.559 192.692C355.946 192.692 357.334 192.692 358.741 192.692H359.799C359.978 192.722 360.188 192.473 360.318 192.203C360.587 191.644 360.557 190.926 360.048 190.656C359.709 190.497 359.1 190.427 358.621 190.347L357.084 190.128C356.056 190.008 355.028 189.878 354.01 189.758C351.964 189.549 349.948 189.339 347.952 189.13C347.803 189.12 347.703 188.99 347.713 188.84C347.723 188.711 347.832 188.611 347.962 188.601C350.617 188.471 353.222 188.351 355.787 188.222C357.064 188.152 358.332 188.072 359.589 188.002C359.889 187.972 360.258 187.972 360.388 187.882C360.547 187.783 360.617 187.553 360.587 187.304C360.557 187.054 360.428 186.825 360.248 186.655C360.058 186.486 359.819 186.446 359.509 186.366C357.134 185.877 354.719 185.647 352.393 185.368C350.058 185.118 347.783 184.889 345.577 184.689H345.537C343.96 184.28 342.413 183.891 340.916 183.512H341.066C337.263 185.238 333.73 186.865 330.487 188.361H330.477C323.151 191.006 317.213 193.151 313.081 194.638C311.045 195.356 309.448 195.925 308.341 196.314C307.812 196.494 307.402 196.634 307.103 196.733C306.824 196.823 306.674 196.873 306.674 196.863C306.674 196.863 306.814 196.793 307.083 196.683C307.382 196.564 307.782 196.414 308.301 196.204C309.398 195.785 310.985 195.197 313.001 194.428C317.123 192.902 323.041 190.706 330.337 188.002H330.327C333.571 186.496 337.094 184.859 340.886 183.093C340.936 183.073 340.986 183.063 341.036 183.083C342.543 183.462 344.08 183.841 345.667 184.24H345.627C347.842 184.43 350.118 184.64 352.463 184.889C354.799 185.158 357.194 185.368 359.649 185.877C359.929 185.947 360.328 186.027 360.607 186.276C360.887 186.525 361.066 186.865 361.116 187.234C361.166 187.593 361.066 188.062 360.677 188.312C360.248 188.531 359.958 188.451 359.639 188.501C358.382 188.571 357.114 188.651 355.827 188.721C353.262 188.85 350.657 188.98 348.002 189.11V188.581C350.018 188.791 352.044 188.99 354.09 189.21C355.108 189.329 356.136 189.459 357.174 189.579L358.731 189.798C359.27 189.908 359.729 189.908 360.348 190.178C360.727 190.387 360.986 190.816 361.036 191.235C361.086 191.654 360.996 192.053 360.827 192.413C360.737 192.592 360.637 192.772 360.477 192.922C360.398 193.001 360.318 193.071 360.198 193.131C360.118 193.191 359.879 193.221 359.829 193.211H358.771C357.364 193.211 355.976 193.211 354.589 193.211C351.825 193.211 349.09 193.211 346.415 193.211L346.435 192.692C348.98 192.932 351.475 193.171 353.93 193.401C355.158 193.53 356.366 193.66 357.563 193.79L358.461 193.899C358.771 193.959 359.03 193.949 359.42 194.089C359.779 194.309 359.948 194.628 360.028 194.977C360.108 195.316 360.018 195.755 359.739 196.015C359.469 196.284 359.13 196.374 358.811 196.434C358.511 196.474 358.212 196.514 357.923 196.544C357.334 196.604 356.765 196.643 356.186 196.683C355.038 196.753 353.9 196.813 352.783 196.873C350.547 196.963 348.381 197.053 346.276 197.132L346.305 196.683C350.228 197.402 353.93 198.08 357.264 198.689C357.264 198.689 357.334 198.709 357.354 198.739C357.573 198.939 357.743 199.148 357.893 199.407C358.032 199.647 358.122 200.076 357.863 200.355C357.354 200.804 356.775 200.775 356.286 200.814C355.278 200.874 354.29 200.934 353.332 200.994C351.415 201.104 349.619 201.214 347.922 201.313C344.549 201.513 341.645 201.683 339.249 201.822C336.894 201.952 335.048 202.052 333.76 202.122C333.151 202.152 332.682 202.171 332.333 202.181C332.014 202.191 331.844 202.191 331.844 202.181L331.834 202.211Z" fill="#EB996E"/>
<path d="M299.099 208.099C299.039 208.099 299.039 207.29 299.278 206.023C299.528 204.766 300.067 203.02 301.175 201.353C302.282 199.687 303.69 198.519 304.767 197.821C305.855 197.122 306.604 196.833 306.634 196.893C306.764 197.063 303.769 198.45 301.624 201.653C300.566 203.249 299.987 204.906 299.648 206.113C299.318 207.33 299.189 208.109 299.099 208.099Z" fill="#EB996E"/>
<path d="M360.118 182.614C360.358 183.203 360.029 183.892 359.39 184.151C358.751 184.411 358.033 184.151 357.793 183.572C357.554 182.983 357.883 182.295 358.522 182.035C359.16 181.776 359.879 182.035 360.118 182.614Z" fill="#FAFAFA"/>
<path d="M362.923 192.183C362.923 192.183 363.053 191.654 363.372 190.727C363.732 189.719 364.211 188.412 364.78 186.825C365.398 185.159 366.127 183.213 366.925 181.057C367.125 180.519 367.334 179.96 367.554 179.391C367.724 178.852 368.123 178.164 367.963 177.805C367.893 177.655 367.664 177.575 367.364 177.595C367.045 177.595 366.716 177.595 366.396 177.595C365.748 177.595 365.089 177.595 364.42 177.595C361.746 177.595 359.201 177.585 356.875 177.575C355.717 177.575 354.62 177.565 353.582 177.555C353.073 177.505 352.683 177.675 352.454 178.024C352.264 178.383 352.095 178.872 351.925 179.251C351.276 180.808 350.737 182.095 350.318 183.083C349.929 183.981 349.699 184.47 349.669 184.46C349.639 184.45 349.809 183.931 350.138 183.013C350.518 182.015 351.007 180.698 351.596 179.122C351.765 178.703 351.875 178.303 352.125 177.815C352.274 177.585 352.494 177.385 352.753 177.266C353.013 177.136 353.342 177.136 353.582 177.136C354.62 177.136 355.717 177.116 356.865 177.116C359.191 177.116 361.736 177.106 364.4 177.096C365.069 177.096 365.728 177.096 366.376 177.096C366.706 177.096 367.025 177.096 367.344 177.096C367.654 177.076 368.183 177.136 368.402 177.585C368.592 178.014 368.432 178.393 368.333 178.673C368.223 178.962 368.113 179.251 368.003 179.531C367.784 180.1 367.574 180.648 367.364 181.187C366.526 183.323 365.768 185.268 365.119 186.925C364.49 188.491 363.961 189.789 363.562 190.776C363.183 191.684 362.963 192.173 362.933 192.163L362.923 192.183Z" fill="#455A64"/>
<path d="M321.216 82.7206C318.791 81.1839 318.202 77.6116 319.52 75.0572C320.837 72.5027 323.621 70.9461 326.466 70.4971C330.578 69.8385 334.969 71.2854 337.863 74.2689C339.43 75.8854 340.698 77.9808 342.823 78.7192C344.69 79.3678 346.756 78.7791 348.712 79.0386C351.337 79.3778 353.592 81.2438 354.94 83.5288C356.287 85.8139 356.846 88.4681 357.155 91.1024C357.445 93.5172 357.634 96.1614 359.301 97.9276C360.938 99.6439 363.513 100.013 365.549 101.23C369.371 103.525 370.609 109.223 368.083 112.905C367.275 114.083 366.127 115.15 366.028 116.577C365.938 117.874 366.776 119.022 367.175 120.259C368.183 123.442 365.578 127.234 362.235 127.424C360.548 127.523 358.742 126.865 357.235 127.613C355.738 128.362 355.179 130.168 354.221 131.545C352.335 134.249 348.382 135.267 345.418 133.82C344.181 133.211 343.013 132.213 341.636 132.303C340.259 132.393 339.181 133.57 337.823 133.83C336.057 134.169 334.37 132.872 333.322 131.405C332.274 129.938 331.536 128.212 330.188 127.014C328.422 125.448 325.947 125.059 323.711 124.29C318.781 122.594 314.669 118.683 312.713 113.853C310.767 109.024 311.016 103.346 313.392 98.7059" fill="#333333"/>
<path d="M346.895 114.452C347.394 113.913 348.123 113.404 348.861 113.155H348.712C348.851 113.105 348.991 113.095 349.131 113.075C349.67 112.945 350.209 112.975 350.668 113.264H350.658C351.496 113.574 352.245 114.192 352.654 115.001C353.363 116.408 353.103 118.194 352.145 119.441C351.317 120.529 349.889 121.237 348.562 120.918C347.344 120.618 346.436 119.521 346.097 118.313C345.718 116.996 345.957 115.46 346.895 114.452Z" fill="#455A64"/>
<path d="M314.869 140.256L312.294 92.9285C312.194 90.843 313.701 89.0269 315.777 88.7575L336.945 82.7605C343.752 81.8425 348.532 90.1245 349.151 96.9597C349.849 104.553 350.398 113.863 349.66 119.561C348.173 131.026 339.46 132.732 339.46 132.732C339.547 137.089 339.59 139.268 339.59 139.268L338.901 157.059L314.889 140.256H314.869Z" fill="#FFBE9D"/>
<path d="M346.196 106.878C346.246 107.647 345.627 108.326 344.829 108.395C344.021 108.465 343.332 107.886 343.282 107.118C343.232 106.349 343.851 105.661 344.649 105.601C345.458 105.531 346.146 106.11 346.196 106.878Z" fill="#333333"/>
<path d="M347.265 101.859C347.085 102.059 345.957 101.27 344.38 101.31C342.803 101.34 341.676 102.179 341.496 101.989C341.406 101.909 341.586 101.56 342.075 101.171C342.564 100.791 343.392 100.412 344.38 100.392C345.358 100.372 346.197 100.712 346.686 101.061C347.185 101.42 347.354 101.759 347.265 101.849V101.859Z" fill="#333333"/>
<path d="M331.625 106.878C331.675 107.647 331.056 108.326 330.258 108.395C329.449 108.465 328.761 107.886 328.711 107.118C328.661 106.349 329.28 105.661 330.078 105.601C330.887 105.531 331.575 106.11 331.625 106.878Z" fill="#333333"/>
<path d="M331.775 102.588C331.596 102.787 330.468 101.999 328.891 102.039C327.314 102.069 326.186 102.907 326.007 102.718C325.917 102.638 326.096 102.288 326.586 101.899C327.075 101.52 327.903 101.141 328.891 101.121C329.869 101.101 330.707 101.44 331.196 101.789C331.685 102.149 331.865 102.488 331.775 102.578V102.588Z" fill="#333333"/>
<path d="M337.832 114.113C337.832 114.023 338.801 113.823 340.377 113.574C340.777 113.524 341.156 113.434 341.216 113.155C341.306 112.865 341.126 112.436 340.916 111.967C340.507 110.999 340.088 109.992 339.639 108.934C337.862 104.623 336.565 101.061 336.735 100.991C336.904 100.921 338.491 104.364 340.268 108.674C340.697 109.742 341.106 110.75 341.495 111.728C341.665 112.177 341.934 112.696 341.745 113.304C341.645 113.604 341.355 113.833 341.096 113.913C340.837 114.003 340.617 114.013 340.417 114.023C338.821 114.152 337.832 114.192 337.822 114.103L337.832 114.113Z" fill="#333333"/>
<path d="M339.45 132.732C339.45 132.732 331.785 133.45 324.04 129.09C324.04 129.09 327.972 136.823 339.37 135.436L339.45 132.732Z" fill="#EB996E"/>
<path d="M337.703 117.865C336.914 116.807 335.647 116.188 334.459 116.258C333.641 116.308 332.842 116.717 332.413 117.445C331.984 118.174 331.994 119.242 332.523 119.99C333.122 120.829 334.22 121.078 335.108 120.839C335.996 120.599 336.705 119.97 337.383 119.342C337.573 119.172 337.763 118.982 337.862 118.733C337.962 118.483 337.962 118.154 337.783 117.934" fill="#EB996E"/>
<path d="M333.222 115.33C333.482 115.31 333.532 117.016 335.029 118.194C336.526 119.372 338.342 119.122 338.362 119.362C338.392 119.472 337.963 119.701 337.194 119.751C336.436 119.801 335.328 119.591 334.41 118.873C333.492 118.154 333.083 117.166 333.003 116.468C332.913 115.759 333.093 115.33 333.212 115.33H333.222Z" fill="#333333"/>
<path d="M332.284 96.0818C332.144 96.511 330.557 96.3613 328.721 96.6307C326.875 96.8702 325.398 97.4491 325.138 97.0798C325.028 96.9002 325.268 96.491 325.867 96.0519C326.456 95.6227 327.394 95.2035 328.501 95.0439C329.609 94.8942 330.627 95.0439 331.306 95.2934C331.995 95.5429 332.344 95.8722 332.284 96.0818Z" fill="#333333"/>
<path d="M346.556 96.4512C346.287 96.8205 345.189 96.4811 343.891 96.4911C342.584 96.4612 341.486 96.8005 341.227 96.4312C341.107 96.2516 341.276 95.8923 341.746 95.533C342.215 95.1837 343.003 94.8843 343.901 94.8843C344.799 94.8843 345.588 95.1937 346.047 95.543C346.516 95.9023 346.676 96.2616 346.566 96.4412L346.556 96.4512Z" fill="#333333"/>
<path d="M356.846 94.5549C356.317 92.8486 355.339 91.2122 353.832 90.2343C353.013 89.6955 352.055 89.3762 351.287 88.7575C349.64 87.4304 349.251 85.1054 348.233 83.2495C346.915 80.8547 344.38 79.1683 341.666 78.8889C339.4 78.6594 337.075 79.3379 334.869 78.7792C333.242 78.37 331.815 77.3123 330.158 76.993C326.945 76.3844 323.951 78.6894 321.615 80.9844C321.615 83.2894 323.442 84.826 325.208 86.3028C326.975 87.7796 329.41 88.4182 331.675 88.0091C333.432 87.6898 335.358 86.8018 336.885 87.7397C338.482 88.7276 338.552 91.1324 339.969 92.3697C341.995 94.1259 345.219 92.4794 347.793 93.2378C349.78 93.8265 351.027 95.7224 352.344 97.3289C353.662 98.9255 355.648 100.442 357.634 99.8534C357.504 98.0673 357.375 96.2612 356.846 94.5549Z" fill="#333333"/>
<path d="M332.883 84.2173C331.376 83.7882 328.302 82.8103 327.493 81.5032C325.737 78.6693 322.653 76.7335 319.489 76.9032C316.335 77.0728 313.301 79.5674 312.653 82.9001C308.83 82.9301 305.108 85.3249 303.271 88.937C303.042 89.3861 302.842 89.8551 302.672 90.334C301.485 92.4295 301.255 95.0538 302.114 97.3089C302.632 98.6659 303.521 100.183 302.822 101.46C302.114 102.757 300.317 102.797 298.91 103.286C296.475 104.124 294.898 106.928 295.437 109.443C295.626 110.351 296.065 111.249 295.876 112.157C295.676 113.095 294.878 113.763 294.249 114.502C292.712 116.328 292.233 118.992 293.041 121.247C293.85 123.492 295.916 125.248 298.271 125.667C299.339 125.857 300.507 125.817 301.425 126.386C302.483 127.044 302.952 128.322 303.7 129.309C305.138 131.225 307.842 132.064 310.118 131.315C310.577 131.165 311.006 130.936 311.405 130.667C312.124 131.664 313.251 132.333 315.168 132.333L314.729 107.217C314.968 107.746 315.427 108.225 316.256 108.415C320.288 109.323 320.876 101.021 319.978 98.7657C321.435 97.4685 322.912 96.1614 324.02 94.515C325.128 92.8685 326.116 88.3882 325.877 86.3626C327.334 86.4524 333.521 84.4069 332.863 84.2173H332.883Z" fill="#333333"/>
<path d="M316.376 108.834C316.256 106.389 313.262 105.86 311.136 107.088C309.968 107.756 309.08 109.113 309.19 111.708C309.479 118.633 316.376 116.917 316.376 116.717C316.376 116.597 316.515 111.688 316.376 108.824V108.834Z" fill="#FFBE9D"/>
<path d="M314.15 114.192C314.15 114.192 314.03 114.282 313.831 114.382C313.631 114.482 313.292 114.562 312.932 114.442C312.194 114.202 311.525 113.065 311.435 111.818C311.395 111.189 311.495 110.58 311.705 110.071C311.894 109.552 312.204 109.183 312.573 109.103C312.932 109.004 313.202 109.213 313.302 109.403C313.401 109.592 313.362 109.732 313.401 109.742C313.421 109.762 313.541 109.622 313.481 109.333C313.451 109.193 313.362 109.034 313.192 108.914C313.022 108.784 312.773 108.724 312.513 108.764C311.984 108.824 311.515 109.333 311.296 109.892C311.046 110.451 310.906 111.129 310.956 111.838C311.056 113.234 311.825 114.512 312.843 114.761C313.332 114.871 313.741 114.701 313.94 114.532C314.15 114.352 314.18 114.192 314.15 114.182V114.192Z" fill="#EB996E"/>
<path d="M323.142 82.9502C323.192 83.02 322.443 83.1498 321.755 84.1077C321.066 85.0556 320.807 86.8617 321.246 88.8973L321.286 89.0769L321.116 89.1168C319.399 89.5459 317.513 90.9029 316.655 93.0483C316.455 93.5771 316.316 94.1659 316.296 94.7346C316.296 95.3233 316.395 95.932 316.515 96.5607C316.625 97.1893 316.755 97.8379 316.775 98.5364C316.824 99.2149 316.645 100.003 316.226 100.582C315.367 101.889 313.98 102.538 312.792 103.166C311.565 103.775 310.437 104.394 309.579 105.272C307.822 106.998 307.044 109.233 306.994 111.079C306.924 112.945 307.453 114.422 307.902 115.36C308.361 116.308 308.75 116.757 308.711 116.787C308.701 116.797 308.601 116.687 308.411 116.477C308.241 116.258 307.992 115.919 307.732 115.45C307.214 114.522 306.615 113.015 306.645 111.069C306.645 109.143 307.433 106.788 309.259 104.952C310.158 104.014 311.365 103.346 312.573 102.737C313.761 102.109 315.068 101.47 315.817 100.313C316.585 99.2648 316.236 97.8878 316.036 96.6505C315.926 96.0218 315.817 95.3832 315.826 94.7246C315.856 94.0661 316.006 93.4474 316.236 92.8786C317.194 90.5836 319.21 89.1767 321.036 88.7576L320.906 88.9771C320.497 86.8417 320.817 84.9658 321.605 83.9879C321.984 83.499 322.403 83.2396 322.693 83.0999C322.992 82.9801 323.152 82.9302 323.152 82.9402L323.142 82.9502Z" fill="#455A64"/>
<path d="M311.555 116.787C312.054 116.248 312.782 115.739 313.521 115.489H313.371C313.511 115.439 313.65 115.43 313.79 115.41C314.329 115.28 314.868 115.31 315.327 115.599H315.317C316.155 115.908 316.904 116.527 317.313 117.335C318.022 118.742 317.762 120.528 316.804 121.776C315.976 122.863 314.549 123.572 313.221 123.253C312.004 122.953 311.095 121.856 310.756 120.648C310.377 119.331 310.616 117.794 311.555 116.787Z" fill="#455A64"/>
<path d="M370.957 408.274C370.817 408.294 365.169 370.516 358.342 323.917C351.516 277.298 346.096 239.49 346.236 239.47C346.376 239.451 352.025 277.219 358.851 323.837C365.678 370.446 371.097 408.254 370.957 408.274Z" fill="#455A64"/>
<path d="M329.16 226.269C329.16 226.269 329.16 226.589 329.06 227.157C328.95 227.726 328.74 228.524 328.371 229.492C327.643 231.408 326.155 233.943 323.73 235.998C321.305 238.054 318.56 239.101 316.554 239.511C315.546 239.72 314.718 239.8 314.139 239.81C313.57 239.82 313.251 239.8 313.251 239.76C313.251 239.67 314.518 239.65 316.475 239.151C318.421 238.662 321.056 237.595 323.401 235.599C325.746 233.613 327.243 231.189 328.042 229.353C328.85 227.507 329.08 226.259 329.17 226.279L329.16 226.269Z" fill="#455A64"/>
<path d="M342.224 227.616C342.244 227.706 341.565 227.696 341.046 228.465C340.807 228.824 340.617 229.373 340.767 229.902C340.897 230.431 341.445 230.85 342.104 230.92C342.753 231 343.382 230.72 343.641 230.231C343.911 229.752 343.851 229.183 343.701 228.774C343.372 227.916 342.703 227.756 342.743 227.676C342.743 227.646 342.913 227.636 343.182 227.756C343.451 227.866 343.801 228.155 344.04 228.624C344.27 229.083 344.4 229.782 344.07 230.461C343.751 231.149 342.873 231.549 342.054 231.439C341.236 231.359 340.477 230.77 340.318 230.022C340.148 229.283 340.437 228.644 340.767 228.245C341.106 227.836 341.515 227.646 341.795 227.596C342.084 227.546 342.244 227.596 342.234 227.626L342.224 227.616Z" fill="#455A64"/>
<path d="M385.558 317.681C385.598 317.831 383.522 318.42 381.087 319.418C378.642 320.406 376.746 321.414 376.666 321.284C376.596 321.174 378.403 319.937 380.888 318.939C383.373 317.931 385.529 317.551 385.558 317.691V317.681Z" fill="#455A64"/>
<path d="M308.72 174.911C308.72 174.911 308.311 174.861 307.622 174.601C306.933 174.332 305.985 173.803 304.947 172.985C303.909 172.166 302.801 171.059 301.544 169.881C300.296 168.714 298.859 167.447 297.033 166.778C295.216 166.1 293.28 166.289 291.673 166.788C290.057 167.287 288.719 168.095 287.651 168.824C285.526 170.32 284.308 171.398 284.248 171.318C284.228 171.288 284.508 170.999 285.046 170.51C285.585 170.021 286.384 169.313 287.442 168.524C288.5 167.756 289.847 166.888 291.534 166.339C293.19 165.79 295.256 165.561 297.212 166.289C299.159 167.008 300.636 168.335 301.873 169.532C303.121 170.74 304.189 171.867 305.177 172.695C307.133 174.412 308.76 174.801 308.72 174.901V174.911Z" fill="white"/>
<path d="M357.583 167.966C357.583 167.966 357.044 167.447 355.996 166.639C354.948 165.84 353.292 164.813 351.016 164.164C348.76 163.515 345.856 163.306 342.872 164.244C339.878 165.162 336.994 167.118 333.87 168.993C332.303 169.931 330.706 170.77 329.069 171.358C327.433 171.957 325.796 172.326 324.219 172.556C321.065 173.015 318.191 172.895 315.806 172.715C313.42 172.526 311.504 172.246 310.187 172.047C309.578 171.947 309.079 171.857 308.67 171.797C308.32 171.737 308.141 171.688 308.151 171.678C308.151 171.658 308.34 171.668 308.69 171.698C309.099 171.737 309.598 171.787 310.217 171.857C311.544 171.997 313.46 172.216 315.836 172.366C318.201 172.496 321.055 172.576 324.149 172.107C325.696 171.867 327.293 171.488 328.89 170.909C330.487 170.331 332.044 169.502 333.6 168.574C336.704 166.718 339.639 164.733 342.722 163.815C345.806 162.877 348.81 163.136 351.106 163.845C353.421 164.553 355.078 165.661 356.106 166.509C356.615 166.948 356.994 167.307 357.224 167.577C357.463 167.836 357.573 167.986 357.563 167.996L357.583 167.966Z" fill="white"/>
<path d="M367.883 167.636C367.943 167.636 367.903 168.315 367.434 169.283C366.985 170.241 366.007 171.469 364.52 172.207C363.023 172.936 361.456 172.956 360.418 172.726C359.37 172.507 358.811 172.118 358.841 172.068C358.871 171.988 359.47 172.247 360.478 172.367C361.476 172.487 362.913 172.417 364.29 171.748C365.658 171.07 366.606 169.982 367.115 169.114C367.634 168.245 367.803 167.616 367.883 167.636Z" fill="white"/>
<path d="M283.351 188.89C283.351 188.89 283.989 188.761 285.167 188.611C286.425 188.471 288.101 188.282 290.137 188.052C294.339 187.603 300.147 187.014 306.565 186.406C307.333 186.336 308.082 186.256 308.8 186.196L308.561 186.466C308.411 180.538 308.301 175.26 308.251 171.468C308.241 169.642 308.221 168.135 308.211 166.998C308.211 165.95 308.231 165.371 308.271 165.371C308.301 165.371 308.351 165.95 308.411 166.998C308.461 168.135 308.531 169.642 308.611 171.468C308.76 175.26 308.93 180.528 309.09 186.456V186.705L308.85 186.725C308.142 186.795 307.383 186.865 306.615 186.945C300.197 187.553 294.389 188.082 290.177 188.441C288.141 188.601 286.454 188.731 285.187 188.83C284.009 188.91 283.351 188.94 283.351 188.9V188.89Z" fill="#333333"/>
<path d="M69.053 398.116L47.4457 410.26L27.585 414.94C26.1578 415.279 25.3095 416.756 25.7386 418.163C25.9782 418.951 26.587 419.57 27.3654 419.819C32.3456 421.456 50.6893 426.964 51.8969 426.415C53.8131 425.547 75.8695 415.1 75.8695 415.1L69.053 398.116Z" fill="#5280E2"/>
<g opacity="0.6">
<path d="M25.749 418.163L53.7137 425.607L52.7856 426.096C51.7975 426.515 51.059 426.655 50.1707 426.465C47.7954 425.946 41.2783 424.37 27.4057 419.889C26.5973 419.63 25.9686 418.981 25.749 418.163Z" fill="white"/>
</g>
<g opacity="0.6">
<path d="M58.3744 417.365C57.7057 417.015 56.7775 417.285 56.4082 417.934C56.039 418.592 56.2985 419.53 56.9572 419.89C57.6258 420.249 58.7436 419.97 59.043 419.271C59.3424 418.572 58.9732 417.484 58.2446 417.295" fill="white"/>
</g>
<path d="M44.9602 417.065C44.8304 417.025 45.1897 415.688 44.9103 414.002C44.6508 412.316 43.8823 411.068 43.9921 411.009C44.0719 410.929 45.06 412.166 45.3394 413.972C45.6388 415.778 45.05 417.125 44.9502 417.065H44.9602Z" fill="#333333"/>
<path d="M50.15 415.828C49.9903 415.838 49.8506 414.361 49.0721 412.755C48.3136 411.138 47.2457 410.11 47.3555 409.991C47.4353 409.871 48.7427 410.789 49.5611 412.525C50.3995 414.251 50.2897 415.848 50.15 415.828Z" fill="#333333"/>
<path d="M54.5715 413.753C54.4119 413.753 54.4917 412.146 53.5336 410.53C52.6054 408.883 51.1783 408.155 51.2581 408.015C51.288 407.955 51.6872 408.045 52.2461 408.394C52.805 408.743 53.4937 409.372 54.0027 410.25C54.5117 411.128 54.7113 412.046 54.7312 412.695C54.7512 413.353 54.6314 413.753 54.5715 413.743V413.753Z" fill="#333333"/>
<path d="M54.6311 409.073C54.6311 409.073 54.8806 408.843 55.4395 408.604C55.9984 408.374 56.8567 408.105 57.9545 408.105C58.4835 408.125 59.1422 408.095 59.7509 408.554C60.0603 408.783 60.24 409.262 60.0903 409.671C59.9406 410.08 59.6312 410.35 59.2819 410.539C57.8846 411.258 55.8986 410.779 54.8706 409.322C53.8626 407.845 54.0023 405.949 54.8706 404.692C55.1101 404.393 55.4395 404.093 55.8986 404.064C56.3577 404.034 56.7469 404.393 56.8567 404.742C57.1062 405.441 56.9465 406.049 56.8766 406.578C56.667 407.656 56.2878 408.464 55.9684 408.973C55.659 409.492 55.4195 409.731 55.3896 409.711C55.2898 409.661 56.168 408.584 56.4874 406.508C56.5473 405.999 56.6371 405.391 56.4275 404.902C56.3277 404.662 56.1381 404.513 55.9085 404.533C55.689 404.542 55.4395 404.732 55.2598 404.982C54.5612 406.029 54.4315 407.766 55.3097 409.003C56.168 410.24 57.9046 410.659 59.0423 410.09C59.3118 409.951 59.5414 409.731 59.6312 409.502C59.711 409.272 59.6412 409.043 59.4515 408.883C59.0523 408.544 58.4435 408.504 57.9345 408.474C55.8387 408.404 54.6411 409.162 54.6111 409.053L54.6311 409.073Z" fill="#333333"/>
<path d="M80.79 403.625L95.3013 416.357C95.3013 416.357 87.2273 435.376 89.6725 437.99L115.382 410.749L93.5947 389.974L80.79 403.615V403.625Z" fill="#5280E2"/>
<path d="M102.068 406.828C102.706 406.438 103.645 406.628 104.064 407.257C104.483 407.886 104.293 408.834 103.655 409.243C103.016 409.642 101.888 409.443 101.539 408.774C101.189 408.105 101.479 406.997 102.187 406.758" fill="#E8E8E8"/>
<g opacity="0.6">
<path d="M115.392 410.759L113.116 408.753L89.3134 435.615C89.3134 435.615 88.6946 437.321 89.6827 437.99L115.392 410.749V410.759Z" fill="white"/>
</g>
<path d="M94.7425 416.667C94.8822 416.786 95.5708 416.178 96.6088 415.928C97.6467 415.649 98.545 415.858 98.6048 415.689C98.6947 415.539 97.7166 414.99 96.4491 415.319C95.1816 415.639 94.5828 416.587 94.7325 416.677L94.7425 416.667Z" fill="#333333"/>
<path d="M93.2355 420.648C93.3353 420.798 94.1037 420.438 95.0918 420.518C96.0798 420.568 96.7984 421.027 96.9182 420.887C97.0579 420.778 96.3693 419.959 95.1317 419.879C93.9041 419.79 93.1057 420.528 93.2355 420.648Z" fill="#333333"/>
<path d="M95.1219 425.497C95.2616 425.407 94.7726 424.589 93.7247 424.25C92.6767 423.9 91.7985 424.25 91.8584 424.409C91.8983 424.589 92.6668 424.549 93.5251 424.849C94.3933 425.128 94.9822 425.617 95.1219 425.497Z" fill="#333333"/>
<path d="M91.7587 413.404C91.9283 413.464 92.3275 412.675 93.086 411.977C93.8346 411.258 94.633 410.909 94.5931 410.729C94.5731 410.56 93.5351 410.669 92.6569 411.508C91.7686 412.346 91.599 413.364 91.7686 413.404H91.7587Z" fill="#333333"/>
<path d="M88.8837 410.779C88.9336 410.829 89.5124 410.38 90.1611 409.412C90.4805 408.923 90.8099 408.304 91.0693 407.576C91.1991 407.207 91.3089 406.818 91.3887 406.399C91.4286 406.199 91.4885 405.97 91.4586 405.68C91.4586 405.401 91.1891 404.982 90.8099 404.952C90.4705 404.892 90.1412 405.052 89.9516 405.251C89.7519 405.441 89.6422 405.65 89.5424 405.83C89.3328 406.199 89.1631 406.578 89.0334 406.957C88.7839 407.706 88.6841 408.404 88.6741 408.993C88.6641 410.18 88.9535 410.859 89.0234 410.839C89.1232 410.819 88.9935 410.121 89.1232 409.023C89.1831 408.474 89.3228 407.835 89.5823 407.157C89.712 406.818 89.8817 406.478 90.0813 406.149C90.2809 405.79 90.5105 405.54 90.7101 405.59C90.7799 405.61 90.8099 405.62 90.8298 405.76C90.8498 405.9 90.8099 406.089 90.7799 406.279C90.7101 406.668 90.6202 407.037 90.5105 407.386C90.3009 408.085 90.0314 408.694 89.7719 409.183C89.2529 410.17 88.8038 410.719 88.8837 410.779Z" fill="#333333"/>
<path d="M89.2334 410.78C89.2933 410.75 89.0737 410.041 88.2553 409.173C87.8461 408.744 87.2872 408.305 86.5886 407.945C86.2393 407.776 85.8501 407.616 85.4309 407.506C85.0117 407.416 84.4628 407.267 83.9239 407.726C83.6544 407.985 83.6544 408.404 83.7642 408.654C83.864 408.913 84.0037 409.083 84.1335 409.263C84.4029 409.612 84.7223 409.901 85.0516 410.131C85.7103 410.59 86.4189 410.81 87.0078 410.879C88.2154 411.009 88.8941 410.61 88.8641 410.55C88.8441 410.44 88.1455 410.66 87.0776 410.43C86.5587 410.321 85.9399 410.081 85.391 409.652C85.1115 409.442 84.852 409.183 84.6225 408.883C84.373 408.564 84.2432 408.235 84.373 408.155C84.5027 408.015 84.9319 407.995 85.2712 408.095C85.6505 408.185 85.9998 408.314 86.3291 408.454C86.9778 408.744 87.5268 409.123 87.9359 409.472C88.7743 410.191 89.1336 410.8 89.2234 410.75L89.2334 410.78Z" fill="#333333"/>
<path d="M80.7901 364.05L64.5322 347.985L97.3972 287.656C100.411 284.203 104.234 281.549 108.525 279.923L118.735 276.041L144.324 273.926L160.073 278.486C164.624 280.282 170.373 283.555 169.794 288.414L164.165 329.445L161.391 381.093L92.5169 364.14L107.797 344.363L102.288 320.854L80.8001 364.06L80.7901 364.05Z" fill="#455A64"/>
<path d="M106.061 355.748L141.58 341.539C144.774 340.252 145.842 336.739 146.101 333.307L148.996 295.389C148.996 295.389 148.656 279.264 158.726 278.476L164.455 280.731C171.86 284.662 173.697 295.449 172.689 303.771C171.252 315.605 170.663 332.339 169.056 342.607C167.749 351.009 162.699 357.654 154.714 360.558L109.973 370.147L106.061 355.738V355.748Z" fill="#455A64"/>
<path d="M107.408 356.996H102.617C102.617 356.996 91.8085 353.094 89.5829 353.463C87.5769 353.803 80.2514 358.662 78.8142 359.63C78.6546 359.74 78.5348 359.889 78.4649 360.069C78.1755 360.857 78.5548 361.745 79.3432 362.065L79.4929 362.125L79.423 362.344C79.3432 362.614 79.2933 362.923 79.3133 363.222C79.3632 364.25 80.7504 364.559 81.2794 363.681L80.9999 364.17C80.8901 364.37 80.8303 364.599 80.8502 364.829L80.8702 365.278C80.9001 365.777 81.2295 366.196 81.6985 366.355C82.1476 366.505 82.6367 366.375 82.9561 366.026C83.8842 365.008 85.8902 362.953 87.2476 362.733C88.4552 362.534 90.4712 362.504 91.6788 362.514C92.2976 362.514 92.8465 362.893 93.076 363.472C92.2676 363.532 86.6587 366.455 84.6627 367.503C84.0439 367.822 83.5848 368.411 83.505 369.099C83.4351 369.718 83.7445 370.377 84.982 370.087C87.6268 369.469 92.3774 367.283 92.3774 367.283C92.3774 367.283 94.8326 366.585 96.4194 367.702C98.655 369.279 99.673 369.858 101.599 369.219C103.515 368.581 104.933 367.673 104.933 367.673L108.715 367.293C108.715 367.293 112.288 358.363 107.408 356.996Z" fill="#FFBE9D"/>
<path d="M93.1359 358.822C93.1359 358.822 92.3674 358.622 91.1099 358.542C89.8524 358.452 88.0759 358.602 86.2994 359.361C84.5229 360.119 83.1856 361.306 82.3772 362.274C81.5588 363.242 81.2095 363.961 81.1795 363.931C81.1696 363.931 81.2494 363.741 81.4191 363.432C81.5887 363.122 81.8682 362.683 82.2674 362.174C83.0558 361.177 84.4032 359.939 86.2196 359.171C88.036 358.403 89.8524 358.273 91.1199 358.393C91.7586 358.452 92.2676 358.552 92.6169 358.642C92.9662 358.732 93.1459 358.802 93.1459 358.812L93.1359 358.822Z" fill="#EB996E"/>
<path d="M91.9882 356.197C91.9882 356.197 91.2098 355.868 89.8724 355.828C88.555 355.768 86.6987 356.167 84.9521 357.215C83.2156 358.273 81.9181 359.61 80.99 360.568C80.5508 361.037 80.1916 361.426 79.9021 361.725C79.6426 361.995 79.5029 362.144 79.483 362.134C79.473 362.134 79.6027 361.965 79.8422 361.675C80.0818 361.386 80.4311 360.977 80.8802 360.478C81.7784 359.49 83.0759 358.123 84.8424 357.055C86.6089 355.988 88.5251 355.599 89.8724 355.698C90.5511 355.738 91.09 355.858 91.4393 355.988C91.619 356.038 91.7487 356.108 91.8485 356.147C91.9383 356.187 91.9882 356.207 91.9783 356.217L91.9882 356.197Z" fill="#EB996E"/>
<path d="M151.83 301.177C151.83 301.177 151.77 301.476 151.71 302.045C151.65 302.663 151.57 303.492 151.471 304.539C151.281 306.765 151.011 309.888 150.692 313.739C150.383 317.641 150.003 322.261 149.594 327.38C149.494 328.667 149.395 329.984 149.285 331.321C149.175 332.668 149.095 334.045 148.816 335.382C148.546 336.72 147.938 337.977 146.979 338.935C146.021 339.893 144.814 340.601 143.566 341.21C133.366 345.93 123.965 349.821 117.138 352.555C113.755 353.892 110.991 354.98 109.034 355.748C108.106 356.118 107.378 356.407 106.829 356.616C106.33 356.816 106.07 356.936 106.07 356.956C106.07 356.976 106.35 356.896 106.859 356.716C107.408 356.527 108.156 356.267 109.094 355.938C111.031 355.249 113.825 354.222 117.258 352.905C124.125 350.26 133.546 346.419 143.776 341.689C145.043 341.07 146.301 340.342 147.319 339.314C148.357 338.296 149.015 336.899 149.295 335.492C149.594 334.085 149.664 332.698 149.764 331.361C149.864 330.014 149.964 328.697 150.053 327.41C150.423 322.281 150.762 317.661 151.041 313.749C151.301 309.898 151.52 306.765 151.67 304.539C151.73 303.492 151.78 302.653 151.82 302.035C151.85 301.466 151.85 301.157 151.84 301.157L151.83 301.177Z" fill="#333333"/>
<path d="M157.578 348.324C157.628 348.314 157.469 347.466 156.86 346.219C156.261 344.972 155.153 343.365 153.536 341.978C151.92 340.601 150.153 339.753 148.836 339.364C147.508 338.965 146.65 338.925 146.64 338.985C146.62 339.075 147.458 339.234 148.716 339.723C149.973 340.202 151.64 341.06 153.197 342.387C154.754 343.724 155.862 345.231 156.53 346.399C157.199 347.566 157.499 348.364 157.578 348.334V348.324Z" fill="#333333"/>
<g opacity="0.3">
<path d="M115.671 352.415C119.903 350.031 124.045 348.195 128.466 346.179C132.887 344.173 137.219 341.589 140.113 337.687C145.572 330.333 144.953 319.716 150.542 312.452C150.173 317.332 149.814 322.221 149.444 327.1C149.105 331.571 149.794 336.001 146.909 339.044C144.484 341.609 139.744 343.575 136.39 344.672C129.653 346.897 122.398 350.19 115.661 352.415" fill="#333333"/>
</g>
<path d="M36.6571 350.44C36.6571 350.44 28.0242 353.523 27.9942 363.202C27.9244 381.742 65.4502 402.168 65.4502 402.168L115.391 369.079L118.525 367.812C118.525 367.812 51.1085 342.487 36.6571 350.44Z" fill="#333333"/>
<path d="M90.0911 385.793C90.0911 385.793 89.612 385.504 88.7937 384.915C87.9753 384.326 86.8076 383.438 85.3804 382.341C82.5161 380.136 78.6337 377.002 74.442 373.41C70.2603 369.818 66.5676 366.445 63.9528 363.951C62.6454 362.703 61.5974 361.686 60.8888 360.967C60.1802 360.249 59.791 359.84 59.8209 359.82C59.8409 359.79 60.2701 360.159 61.0286 360.827C61.8469 361.566 62.9148 362.534 64.2023 363.691C66.877 366.116 70.5996 369.439 74.7814 373.031C78.9631 376.613 82.8055 379.786 85.61 382.071C86.9573 383.169 88.0751 384.077 88.9234 384.775C89.7019 385.414 90.121 385.783 90.1011 385.813L90.0911 385.793Z" fill="#455A64"/>
<path d="M50.7589 357.375C50.739 357.255 52.9646 357.035 55.5694 357.814C58.1842 358.572 59.9308 359.97 59.8509 360.059C59.7711 360.189 57.9447 359.031 55.4297 358.303C52.9147 357.544 50.7589 357.534 50.7589 357.375Z" fill="#455A64"/>
<path d="M55.0605 354.451C55.1005 354.331 56.7073 355.03 58.0247 356.676C59.3521 358.313 59.7014 360.019 59.5816 360.039C59.4319 360.089 58.893 358.532 57.6355 356.996C56.3979 355.439 54.9907 354.581 55.0705 354.451H55.0605Z" fill="#455A64"/>
<path d="M40.2305 324.117L54.4424 362.384C55.2508 364.569 57.3566 366.006 59.682 365.976L137.887 364.949V359.012L108.865 360.069L96.5391 321.872C96.12 320.585 94.9223 319.707 93.565 319.707L43.1148 319.856C40.9191 319.856 39.4221 322.072 40.2205 324.117H40.2305Z" fill="#B9B9B9"/>
<path d="M40.23 324.117C40.23 324.117 40.23 324.077 40.2001 323.997C40.1801 323.917 40.1302 323.808 40.1003 323.638C40.0304 323.319 39.9706 322.82 40.1302 322.201C40.2899 321.592 40.6991 320.844 41.5075 320.355C41.9067 320.106 42.3858 319.936 42.9247 319.906C43.4636 319.886 44.0425 319.906 44.6613 319.896C49.5915 319.896 56.7474 319.886 65.7097 319.876C70.1908 319.876 75.131 319.856 80.4605 319.846C83.1252 319.846 85.8898 319.836 88.7441 319.826C90.1713 319.826 91.6284 319.826 93.0955 319.826C93.834 319.786 94.5526 319.886 95.1814 320.285C95.7902 320.674 96.2692 321.273 96.4788 321.992C100.201 333.547 104.343 346.389 108.765 360.119L108.794 360.209H108.884C118.136 359.869 127.887 359.51 137.907 359.151L137.777 359.021V364.958L137.897 364.829C120.402 365.058 103.794 365.288 88.7142 365.487C81.1791 365.587 74.0232 365.687 67.3364 365.777C65.6598 365.797 64.023 365.827 62.4062 365.846C61.5978 365.856 60.7994 365.866 60.0109 365.876C59.2225 365.906 58.454 365.817 57.7354 365.547C56.3083 365.018 55.1406 363.891 54.6016 362.534C54.0827 361.147 53.5737 359.78 53.0746 358.453C49.1125 347.826 45.9088 339.244 43.6932 333.307C42.5854 330.353 41.7271 328.058 41.1382 326.492C40.5494 324.935 40.23 324.127 40.23 324.127C40.23 324.127 40.5195 324.955 41.0883 326.512C41.6672 328.088 42.5155 330.383 43.6034 333.347C45.799 339.294 48.9728 347.885 52.905 358.522C53.404 359.849 53.903 361.216 54.422 362.613C54.9809 364.02 56.1785 365.198 57.6556 365.737C58.3941 366.016 59.2025 366.116 60.0009 366.086C60.7894 366.086 61.5878 366.066 62.3962 366.056C64.013 366.036 65.6498 366.016 67.3265 365.996C74.0132 365.916 81.1691 365.826 88.7042 365.727C103.784 365.527 120.392 365.318 137.887 365.088H138.007V364.958C138.007 363.412 138.007 361.745 138.007 360.079V358.892H137.877C127.857 359.261 118.106 359.62 108.854 359.959L108.974 360.049C104.543 346.319 100.391 333.477 96.6585 321.932C96.4389 321.183 95.9299 320.525 95.2712 320.116C94.6225 319.687 93.8041 319.587 93.0756 319.627C91.5985 319.627 90.1513 319.637 88.7242 319.647C85.8698 319.657 83.1053 319.667 80.4405 319.677C75.1111 319.697 70.1808 319.717 65.6897 319.736C56.7274 319.776 49.5716 319.806 44.6413 319.836C44.0225 319.836 43.4437 319.836 42.9048 319.856C42.3558 319.896 41.8568 320.076 41.4576 320.325C40.6392 320.834 40.24 321.602 40.0803 322.221C39.9306 322.85 39.9905 323.359 40.0704 323.678C40.1502 323.997 40.2201 324.147 40.2201 324.147L40.23 324.117Z" fill="#333333"/>
<path d="M74.9112 338.586C73.8932 337.897 72.0269 338.177 71.1087 338.995C70.2005 339.813 69.9011 341.23 70.3602 342.357C70.8193 343.495 71.997 344.283 73.2146 344.353C74.512 344.423 75.8693 343.605 76.2386 342.357C76.5979 341.11 76.1987 339.244 74.9112 338.586Z" fill="white"/>
<path d="M57.0264 404.253C57.0264 404.253 127.507 359.111 130.621 357.345C133.266 355.838 140.352 351.478 147.328 353.403C154.314 355.329 160.572 361.586 163.705 370.736C165.492 375.964 166.34 384.875 166.739 391.571C167.209 399.563 166.171 406.219 160.941 412.286C158.566 415.05 155.621 417.444 152.138 418.532C151.4 418.762 150.641 418.961 149.863 419.131C136.519 422.025 121.379 417.355 113.884 405.949L112.237 403.445C112.237 403.445 66.0785 420.398 65.3599 420.159L57.0363 404.263L57.0264 404.253Z" fill="#333333"/>
<path d="M144.324 391.521C144.324 391.521 144.194 391.59 143.935 391.69C143.656 391.8 143.276 391.95 142.777 392.149C141.739 392.548 140.232 393.127 138.306 393.876C134.384 395.352 128.715 397.488 121.679 400.142C114.613 402.776 106.16 405.909 96.6684 409.362C87.1772 412.814 76.658 416.596 65.4202 420.398L65.2206 420.468L65.1208 420.278C63.3543 416.916 61.498 413.353 59.6117 409.751C58.6536 407.915 57.6955 406.089 56.7973 404.383L56.6875 404.173L56.8871 404.053C78.0752 390.603 97.0277 378.579 110.711 369.888C117.537 365.577 123.056 362.104 126.879 359.69C128.775 358.512 130.252 357.584 131.27 356.946C131.759 356.646 132.138 356.417 132.418 356.247C132.677 356.087 132.817 356.028 132.817 356.028C132.817 356.028 132.697 356.127 132.448 356.297C132.178 356.477 131.809 356.726 131.33 357.035C130.322 357.694 128.865 358.642 126.988 359.849C123.186 362.294 117.697 365.816 110.91 370.177C97.2573 378.898 78.3247 390.972 57.1765 404.473L57.2664 404.143C58.1546 405.85 59.1127 407.676 60.0808 409.512C61.9671 413.114 63.8234 416.676 65.5899 420.039L65.2905 419.919C76.5183 416.127 87.0375 412.355 96.5387 408.933C106.02 405.48 114.493 402.397 121.589 399.823C128.645 397.228 134.334 395.153 138.266 393.706C140.212 392.997 141.719 392.449 142.767 392.069C143.266 391.89 143.656 391.75 143.935 391.65C144.194 391.561 144.334 391.521 144.334 391.521H144.324Z" fill="#455A64"/>
<path d="M106.259 230.6C106.259 230.6 102.027 248.77 102.027 261.533C102.027 264.215 103.259 266.756 105.517 268.203C109.461 270.73 116.09 274.353 121.888 274.515L128.764 255.895L106.259 230.6Z" fill="#333333"/>
<path d="M153.845 240.109C151.53 231.388 150.412 221.19 142.917 215.702C137.358 211.631 131.14 210.643 124.264 211.152C120.88 211.401 117.098 213.088 114.204 214.864C110.231 217.289 108.665 221.988 106.848 226.279C103.205 234.861 104.074 246.296 106.828 249.399L142.787 266.911C149.723 263.009 154.105 261.403 154.923 251.953C155.272 247.982 154.863 243.971 153.845 240.119V240.109Z" fill="#333333"/>
<path d="M142.378 222.707L119.923 216.87C112.727 216.061 107.876 224.892 107.367 232.126C106.808 240.159 106.439 249.978 107.347 255.975C109.184 268.039 118.406 269.635 118.406 269.635C118.406 269.595 118.435 269.815 118.475 273.397L118.426 279.204C118.406 281.549 119.104 283.894 120.601 285.7C124.024 289.841 130.023 290.22 136.989 287.377C141.031 285.73 143.765 282.597 143.945 278.446L146.141 227.028C146.201 224.832 144.564 222.946 142.378 222.707Z" fill="#FFBE9D"/>
<path d="M110.292 243.801C110.262 244.62 110.921 245.318 111.769 245.368C112.617 245.418 113.336 244.799 113.376 243.981C113.406 243.163 112.747 242.464 111.899 242.414C111.05 242.364 110.332 242.983 110.292 243.801Z" fill="#333333"/>
<path d="M109.463 239.321C109.653 239.521 110.831 238.662 112.497 238.682C114.164 238.682 115.372 239.541 115.551 239.331C115.641 239.241 115.451 238.872 114.923 238.483C114.404 238.094 113.515 237.714 112.477 237.714C111.439 237.714 110.571 238.094 110.062 238.473C109.543 238.862 109.373 239.221 109.463 239.311V239.321Z" fill="#333333"/>
<path d="M124.933 243.801C124.903 244.62 125.561 245.318 126.41 245.368C127.258 245.418 127.977 244.799 128.017 243.981C128.046 243.163 127.388 242.464 126.539 242.414C125.691 242.364 124.973 242.983 124.933 243.801Z" fill="#333333"/>
<path d="M125.811 238.982C126.001 239.181 127.179 238.323 128.845 238.343C130.502 238.343 131.72 239.201 131.899 238.992C131.989 238.902 131.799 238.533 131.27 238.143C130.751 237.754 129.863 237.375 128.825 237.375C127.787 237.375 126.919 237.754 126.41 238.133C125.901 238.523 125.721 238.882 125.811 238.972V238.982Z" fill="#333333"/>
<path d="M119.693 249.968C119.693 249.878 118.665 249.688 116.999 249.459C116.569 249.409 116.17 249.329 116.1 249.04C116 248.731 116.18 248.272 116.39 247.783C116.799 246.755 117.218 245.687 117.667 244.56C119.444 239.97 120.731 236.188 120.542 236.118C120.352 236.048 118.765 239.71 116.989 244.31C116.559 245.438 116.15 246.525 115.761 247.553C115.601 248.032 115.312 248.581 115.531 249.219C115.641 249.539 115.951 249.768 116.23 249.848C116.5 249.928 116.739 249.938 116.949 249.958C118.635 250.058 119.683 250.078 119.683 249.978L119.693 249.968Z" fill="#333333"/>
<path d="M118.405 269.635C118.405 269.635 126.509 270.214 134.574 265.444C134.574 265.444 130.522 273.846 118.465 272.639L118.396 269.635H118.405Z" fill="#EB996E"/>
<path d="M125.163 253.101C124.694 252.323 123.835 251.914 122.947 251.874C121.67 251.824 120.602 252.253 119.773 253.421C119.484 253.76 119.504 254.718 119.624 254.978C119.733 255.247 119.654 255.117 119.853 255.297C120.592 255.956 121.37 256.624 122.328 256.854C123.286 257.093 124.464 256.784 125.093 255.856C125.652 255.028 125.642 253.87 125.173 253.091L125.163 253.101Z" fill="#EB996E"/>
<path d="M124.872 251.205C124.603 251.185 124.573 252.992 123.016 254.249C121.459 255.517 119.533 255.287 119.523 255.537C119.493 255.646 119.952 255.896 120.76 255.926C121.559 255.966 122.727 255.726 123.675 254.948C124.623 254.169 125.042 253.131 125.112 252.393C125.192 251.634 124.992 251.185 124.872 251.195V251.205Z" fill="#333333"/>
<path d="M124.982 232.925C125.112 233.384 126.789 233.284 128.725 233.643C130.661 233.963 132.198 234.632 132.488 234.252C132.617 234.063 132.368 233.624 131.759 233.144C131.16 232.665 130.182 232.186 129.024 231.987C127.867 231.787 126.779 231.897 126.05 232.146C125.322 232.386 124.933 232.715 124.992 232.935L124.982 232.925Z" fill="#333333"/>
<path d="M109.454 234.841C109.843 235.16 111.03 234.542 112.547 234.262C114.054 233.923 115.392 234.013 115.621 233.574C115.721 233.364 115.452 233.025 114.823 232.775C114.204 232.526 113.236 232.396 112.198 232.615C111.16 232.835 110.322 233.324 109.863 233.803C109.394 234.282 109.284 234.691 109.463 234.851L109.454 234.841Z" fill="#333333"/>
<path d="M120.192 215.562C120.172 215.652 120.162 215.742 120.142 215.822L120.182 215.842C120.182 215.752 120.182 215.652 120.182 215.562H120.192Z" fill="#333333"/>
<path d="M138.135 273.901C137.873 273.887 137.674 273.66 137.681 273.398C137.762 270.397 136.533 267.42 136.788 264.416C137.068 261.064 139.144 258.13 139.922 254.847C141.18 249.599 139.044 244.14 138.156 238.792C135.132 238.523 132.257 236.796 130.182 234.531C127.676 231.797 126.1 228.355 124.573 224.972C124.762 228.325 126.04 231.608 128.156 234.222C126.828 234.541 125.401 234.022 124.363 233.124C123.325 232.236 122.626 231.009 122.048 229.782C120.64 226.788 119.822 223.525 119.602 220.222C119.313 224.962 119.992 229.772 121.638 234.232C120.79 234.002 119.892 234.262 119.024 234.422C118.155 234.581 117.157 234.581 116.519 233.973C116.089 233.563 115.92 232.965 115.78 232.386C114.822 228.395 114.542 224.234 114.982 220.153C113.984 222.388 112.986 224.643 112.437 227.028C111.888 229.412 111.808 231.967 112.626 234.272C112.297 234.721 111.558 234.681 111.129 234.312C110.71 233.943 110.53 233.374 110.421 232.825C110.041 230.809 110.331 228.744 110.62 226.718C109.482 228.894 109.163 231.378 108.574 233.763C107.985 236.138 107.007 238.593 105.001 239.999C104.532 236.487 104.582 234.072 105.001 230.75C105.321 228.215 106.438 225.671 107.466 223.326C108.624 220.701 110.261 218.117 112.127 216.371C115.57 213.148 117.097 214.435 119.403 215.552L119.672 215.652C119.672 215.592 119.672 215.542 119.682 215.483L119.772 214.994C125.621 213.477 131.888 213.567 137.697 215.253C142.008 216.51 147.407 220.721 149.713 224.583C149.753 224.653 149.803 224.733 149.843 224.802C154.641 232.835 158.914 244.055 157.423 261.515C157.105 265.228 154.499 268.301 150.975 269.515L138.312 273.876C138.255 273.896 138.195 273.904 138.135 273.901Z" fill="#333333"/>
<path d="M104.373 298.203C102.467 303.911 100.531 309.708 100.231 315.715C99.9218 321.722 101.439 328.088 105.601 332.429" fill="#455A64"/>
<path d="M105.601 332.429C105.601 332.429 105.491 332.359 105.321 332.189C105.152 332.02 104.882 331.78 104.593 331.421C103.984 330.732 103.195 329.645 102.427 328.188C100.87 325.284 99.6924 320.724 99.9719 315.695C100.251 310.666 101.569 306.275 102.567 303.172C103.076 301.616 103.515 300.368 103.834 299.51C104.154 298.652 104.343 298.183 104.383 298.193C104.413 298.203 104.293 298.692 104.034 299.57C103.744 300.538 103.375 301.785 102.926 303.272C102.028 306.395 100.78 310.766 100.501 315.715C100.231 320.664 101.319 325.135 102.766 328.018C104.194 330.942 105.711 332.349 105.621 332.419L105.601 332.429Z" fill="#333333"/>
<path d="M172.908 301.177C172.908 301.177 172.927 301.406 172.917 301.835C172.898 302.314 172.878 302.943 172.848 303.711C172.768 305.338 172.618 307.693 172.399 310.596C171.969 316.414 171.161 324.416 170.402 333.277C170.103 337.718 169.394 341.938 168.446 345.68C167.957 347.546 167.428 349.332 166.6 350.879C165.762 352.406 164.714 353.663 163.606 354.651C161.38 356.617 159.095 357.495 157.538 357.944C156.749 358.173 156.121 358.293 155.702 358.353C155.272 358.413 155.053 358.443 155.053 358.423C155.043 358.373 155.941 358.243 157.488 357.754C159.015 357.245 161.241 356.337 163.376 354.381C164.434 353.403 165.442 352.176 166.231 350.679C167.009 349.183 167.518 347.426 167.987 345.57C168.905 341.849 169.584 337.668 169.893 333.237C170.642 324.376 171.51 316.374 172.039 310.566C172.299 307.713 172.508 305.378 172.658 303.691C172.728 302.923 172.788 302.304 172.828 301.825C172.868 301.396 172.908 301.177 172.917 301.177H172.908Z" fill="#333333"/>
</g>
<defs>
<clipPath id="clip0_68_4983">
<rect width="440" height="438" fill="white"/>
</clipPath>
</defs>
</svg>
