<svg width="20" height="20" viewBox="0 0 20 20" fill="none" xmlns="http://www.w3.org/2000/svg">
<g clip-path="url(#clip0_68_5639)">
<path d="M14.7161 18.8916C14.2744 18.8916 13.7078 18.75 12.9994 18.3333L10.5078 16.8583C10.2494 16.7083 9.74945 16.7083 9.49945 16.8583L6.99945 18.3333C5.52445 19.2083 4.65778 18.8583 4.26611 18.575C3.88278 18.2916 3.28278 17.5666 3.67445 15.9L4.26611 13.3416C4.33278 13.075 4.19945 12.6166 3.99945 12.4166L1.93278 10.35C0.899447 9.31664 0.98278 8.43331 1.12445 7.99998C1.26611 7.56664 1.71611 6.79998 3.14945 6.55831L5.80778 6.11664C6.05778 6.07498 6.41611 5.80831 6.52445 5.58331L7.99945 2.64164C8.66611 1.29998 9.54111 1.09998 9.99945 1.09998C10.4578 1.09998 11.3328 1.29998 11.9994 2.64164L13.4661 5.57498C13.5828 5.79998 13.9411 6.06664 14.1911 6.10831L16.8494 6.54998C18.2911 6.79164 18.7411 7.55831 18.8744 7.99164C19.0078 8.42498 19.0911 9.30831 18.0661 10.3416L15.9994 12.4166C15.7994 12.6166 15.6744 13.0666 15.7328 13.3416L16.3244 15.9C16.7078 17.5666 16.1161 18.2916 15.7328 18.575C15.5244 18.725 15.1911 18.8916 14.7161 18.8916ZM9.99945 15.4916C10.4078 15.4916 10.8161 15.5916 11.1411 15.7833L13.6328 17.2583C14.3578 17.6916 14.8161 17.6916 14.9911 17.5666C15.1661 17.4416 15.2911 17 15.1078 16.1833L14.5161 13.625C14.3578 12.9333 14.6161 12.0416 15.1161 11.5333L17.1828 9.46664C17.5911 9.05831 17.7744 8.65831 17.6911 8.38331C17.5994 8.10831 17.2161 7.88331 16.6494 7.79164L13.9911 7.34998C13.3494 7.24164 12.6494 6.72498 12.3578 6.14164L10.8911 3.20831C10.6244 2.67498 10.2911 2.35831 9.99945 2.35831C9.70778 2.35831 9.37445 2.67498 9.11611 3.20831L7.64111 6.14164C7.34945 6.72498 6.64945 7.24164 6.00778 7.34998L3.35778 7.79164C2.79111 7.88331 2.40778 8.10831 2.31611 8.38331C2.22445 8.65831 2.41611 9.06664 2.82445 9.46664L4.89111 11.5333C5.39111 12.0333 5.64945 12.9333 5.49111 13.625L4.89945 16.1833C4.70778 17.0083 4.84111 17.4416 5.01611 17.5666C5.19111 17.6916 5.64111 17.6833 6.37445 17.2583L8.86611 15.7833C9.18278 15.5916 9.59111 15.4916 9.99945 15.4916Z" fill="#5280E2"/>
<path d="M9.99945 15.4916C10.4078 15.4916 10.8161 15.5916 11.1411 15.7833L13.6328 17.2583C14.3578 17.6916 14.8161 17.6916 14.9911 17.5666C15.1661 17.4416 15.2911 17 15.1078 16.1833L14.5161 13.625C14.3578 12.9333 14.6161 12.0416 15.1161 11.5333L17.1828 9.46664C17.5911 9.05831 17.7744 8.65831 17.6911 8.38331C17.5994 8.10831 17.2161 7.88331 16.6494 7.79164L13.9911 7.34998C13.3494 7.24164 12.6494 6.72498 12.3578 6.14164L10.8911 3.20831C10.6244 2.67498 10.2911 2.35831 9.99945 2.35831C9.70778 2.35831 9.37445 2.67498 9.11611 3.20831L7.64111 6.14164C7.34945 6.72498 6.64945 7.24164 6.00778 7.34998L3.35778 7.79164C2.79111 7.88331 2.40778 8.10831 2.31611 8.38331C2.22445 8.65831 2.41611 9.06664 2.82445 9.46664L4.89111 11.5333C5.39111 12.0333 5.64945 12.9333 5.49111 13.625L4.89945 16.1833C4.70778 17.0083 4.84111 17.4416 5.01611 17.5666C5.19111 17.6916 5.64111 17.6833 6.37445 17.2583L8.86611 15.7833C9.18278 15.5916 9.59111 15.4916 9.99945 15.4916Z" fill="#5280E2"/>
</g>
<path d="M14.7161 18.8916C14.2744 18.8916 13.7078 18.75 12.9994 18.3333L10.5078 16.8583C10.2494 16.7083 9.74945 16.7083 9.49945 16.8583L6.99945 18.3333C5.52445 19.2083 4.65778 18.8583 4.26611 18.575C3.88278 18.2916 3.28278 17.5666 3.67445 15.9L4.26611 13.3416C4.33278 13.075 4.19945 12.6166 3.99945 12.4166L1.93278 10.35C0.899447 9.31664 0.98278 8.43331 1.12445 7.99998C1.26611 7.56664 1.71611 6.79998 3.14945 6.55831L5.80778 6.11664C6.05778 6.07498 6.41611 5.80831 6.52445 5.58331L7.99945 2.64164C8.66611 1.29998 9.54111 1.09998 9.99945 1.09998C10.4578 1.09998 11.3328 1.29998 11.9994 2.64164L13.4661 5.57498C13.5828 5.79998 13.9411 6.06664 14.1911 6.10831L16.8494 6.54998C18.2911 6.79164 18.7411 7.55831 18.8744 7.99164C19.0078 8.42498 19.0911 9.30831 18.0661 10.3416L15.9994 12.4166C15.7994 12.6166 15.6744 13.0666 15.7328 13.3416L16.3244 15.9C16.7078 17.5666 16.1161 18.2916 15.7328 18.575C15.5244 18.725 15.1911 18.8916 14.7161 18.8916ZM9.99945 15.4916C10.4078 15.4916 10.8161 15.5916 11.1411 15.7833L13.6328 17.2583C14.3578 17.6916 14.8161 17.6916 14.9911 17.5666C15.1661 17.4416 15.2911 17 15.1078 16.1833L14.5161 13.625C14.3578 12.9333 14.6161 12.0416 15.1161 11.5333L17.1828 9.46664C17.5911 9.05831 17.7744 8.65831 17.6911 8.38331C17.5994 8.10831 17.2161 7.88331 16.6494 7.79164L13.9911 7.34998C13.3494 7.24164 12.6494 6.72498 12.3578 6.14164L10.8911 3.20831C10.6244 2.67498 10.2911 2.35831 9.99945 2.35831C9.70778 2.35831 9.37445 2.67498 9.11611 3.20831L7.64111 6.14164C7.34945 6.72498 6.64945 7.24164 6.00778 7.34998L3.35778 7.79164C2.79111 7.88331 2.40778 8.10831 2.31611 8.38331C2.22445 8.65831 2.41611 9.06664 2.82445 9.46664L4.89111 11.5333C5.39111 12.0333 5.64945 12.9333 5.49111 13.625L4.89945 16.1833C4.70778 17.0083 4.84111 17.4416 5.01611 17.5666C5.19111 17.6916 5.64111 17.6833 6.37445 17.2583L8.86611 15.7833C9.18278 15.5916 9.59111 15.4916 9.99945 15.4916Z" fill="#5280E2"/>
<defs>
<clipPath id="clip0_68_5639">
<rect width="9" height="18" fill="white" transform="translate(1 1)"/>
</clipPath>
</defs>
</svg>
