<svg width="16" height="16" viewBox="0 0 16 16" fill="none" xmlns="http://www.w3.org/2000/svg">
<path d="M5.93333 12.7665C5.51333 12.7665 5.12 12.6665 4.77333 12.4665C3.95333 11.9932 3.5 11.0399 3.5 9.78653V6.21987C3.5 4.96653 3.95333 4.0132 4.77333 3.53987C5.59333 3.06653 6.64 3.1532 7.73333 3.77987L10.82 5.55987C11.9067 6.18653 12.5067 7.0532 12.5067 7.99987C12.5067 8.94653 11.9067 9.8132 10.82 10.4399L7.73333 12.2199C7.10667 12.5865 6.49333 12.7665 5.93333 12.7665ZM5.93333 4.23987C5.68667 4.23987 5.46 4.2932 5.26667 4.40653C4.77333 4.6932 4.5 5.3332 4.5 6.21987V9.77987C4.5 10.6599 4.77333 11.3065 5.27333 11.5932C5.77333 11.8799 6.46667 11.7932 7.23333 11.3532L10.32 9.5732C11.0867 9.1332 11.5067 8.5732 11.5067 7.99987C11.5067 7.42653 11.0867 6.86653 10.32 6.42653L7.23333 4.64653C6.76 4.3732 6.32 4.23987 5.93333 4.23987Z" fill="white"/>
</svg>
