<svg width="800" height="597" viewBox="0 0 800 597" fill="none" xmlns="http://www.w3.org/2000/svg">
<g clip-path="url(#clip0_263_4093)">
<path d="M800 523.92H0V524.32H800V523.92Z" fill="#EBEBEB"/>
<path d="M719.84 549.664H685.152V550.064H719.84V549.664Z" fill="#EBEBEB"/>
<path d="M551.473 541.36H496.896V541.76H551.473V541.36Z" fill="#EBEBEB"/>
<path d="M705.792 534.816H634.544V535.216H705.792V534.816Z" fill="#EBEBEB"/>
<path d="M276.832 542.88H259.008V543.28H276.832V542.88Z" fill="#EBEBEB"/>
<path d="M244.752 542.88H183.328V543.28H244.752V542.88Z" fill="#EBEBEB"/>
<path d="M150.416 536.128H106.096V536.528H150.416V536.128Z" fill="#EBEBEB"/>
<path d="M379.216 452.56H70.2561C65.2161 452.56 61.1201 448.464 61.1201 443.424V9.136C61.1201 4.096 65.2161 0 70.2561 0H379.216C384.256 0 388.352 4.096 388.352 9.136V443.424C388.352 448.464 384.256 452.56 379.216 452.56ZM70.2561 0.4C65.4401 0.4 61.5201 4.32 61.5201 9.136V443.424C61.5201 448.24 65.4401 452.16 70.2561 452.16H379.216C384.032 452.16 387.952 448.24 387.952 443.424V9.136C387.952 4.32 384.032 0.4 379.216 0.4H70.2561Z" fill="#EBEBEB"/>
<path d="M725.296 452.56H416.336C411.296 452.56 407.2 448.464 407.2 443.424V9.136C407.2 4.096 411.296 0 416.336 0H725.296C730.336 0 734.432 4.096 734.432 9.136V443.424C734.432 448.464 730.336 452.56 725.296 452.56ZM416.336 0.4C411.52 0.4 407.6 4.32 407.6 9.136V443.424C407.6 448.24 411.52 452.16 416.336 452.16H725.296C730.112 452.16 734.032 448.24 734.032 443.424V9.136C734.032 4.32 730.112 0.4 725.296 0.4H416.336Z" fill="#EBEBEB"/>
<path d="M345.712 233.488L346.432 212.464L333.52 208.24C332.992 201.056 331.792 193.968 330.08 187.12L341.024 179.056L333.6 159.312L320.064 160.4C316.832 154.016 313.04 147.936 308.8 142.24L315.808 130.544L301.392 115.168L289.296 121.36C283.84 116.736 278.096 112.528 271.952 108.832L273.904 95.4076L254.704 86.6876L245.904 96.9916C239.2 94.8156 232.256 93.1836 225.072 92.1116L221.808 78.9436L200.72 78.2236L196.56 91.1356C189.312 91.7276 182.288 92.8636 175.44 94.5756L167.312 83.6956L147.568 91.0716L148.656 104.608C142.272 107.888 136.192 111.68 130.496 115.92L118.848 108.912L103.408 123.264L109.6 135.424C104.976 140.816 100.768 146.624 97.1205 152.768L83.6965 150.752L74.9285 169.952L85.2965 178.752C83.1205 185.456 81.4405 192.448 80.4165 199.584L67.2005 202.912L66.4805 223.936L79.4405 228.16C79.9685 235.392 81.1685 242.432 82.8805 249.264L71.9365 257.328L79.3605 277.072L92.8965 275.984C96.1285 282.368 99.9205 288.448 104.16 294.144L97.1525 305.84L111.568 321.216L123.664 315.024C129.056 319.648 134.864 323.856 141.008 327.568L138.992 340.992L158.192 349.712L167.04 339.408C173.744 341.584 180.688 343.216 187.872 344.288L191.136 357.456L212.224 358.176L216.384 345.264C223.616 344.672 230.656 343.536 237.488 341.824L245.552 352.704L265.296 345.328L264.256 331.792C270.64 328.512 276.656 324.72 282.416 320.464L294.064 327.472L309.504 313.12L303.312 300.96C307.936 295.568 312.144 289.76 315.792 283.616L329.216 285.632L337.984 266.432L327.616 257.632C329.792 250.928 331.472 243.984 332.496 236.8L345.664 233.472L345.712 233.488ZM203.632 301.6C157.584 300.016 121.536 261.408 123.104 215.36C124.688 169.264 163.296 133.2 209.344 134.784C255.392 136.368 291.44 174.976 289.872 221.072C288.288 267.12 249.68 303.168 203.632 301.6Z" fill="#EBEBEB"/>
<path d="M705.536 163.952L710.832 159.008L708.72 154.832C710.336 152.944 711.776 150.928 713.024 148.848L717.664 149.552L720.672 142.928L717.104 139.888C717.872 137.552 718.432 135.136 718.784 132.72L723.344 131.584L723.584 124.32L719.12 122.88C718.928 120.416 718.544 118 717.952 115.6L721.712 112.8L719.152 106L714.496 106.368C713.392 104.208 712.096 102.112 710.608 100.096L713.024 96.0959L708.064 90.7839L703.904 92.9119C702 91.2959 700 89.8559 697.92 88.6079L698.592 83.9679L691.984 80.9439L688.944 84.5119C686.592 83.7599 684.176 83.1999 681.76 82.8479L680.624 78.3039L673.36 78.0479L671.904 82.5279C669.456 82.7199 667.024 83.1039 664.624 83.7119L661.84 79.9519L655.024 82.4959L655.408 87.1679C653.248 88.2719 651.12 89.5679 649.136 91.0559L645.104 88.6399L639.808 93.5839L641.936 97.7759C640.304 99.6639 638.88 101.68 637.632 103.76L632.992 103.056L629.984 109.68L633.552 112.72C632.784 115.056 632.224 117.472 631.872 119.888L627.312 121.024L627.072 128.288L631.536 129.728C631.728 132.176 632.112 134.608 632.704 137.008L628.944 139.792L631.504 146.592L636.176 146.24C637.28 148.4 638.576 150.496 640.064 152.512L637.648 156.512L642.608 161.824L646.768 159.696C648.672 161.312 650.672 162.752 652.752 164L652.064 168.624L658.672 171.648L661.712 168.096C664.064 168.848 666.464 169.392 668.896 169.76L670.032 174.304L677.296 174.56L678.752 170.08C681.2 169.888 683.632 169.504 686.032 168.896L688.816 172.656L695.632 170.112L695.248 165.44C697.408 164.336 699.52 163.056 701.52 161.552L705.536 163.952ZM667.744 133.344C663.84 129.168 664.064 122.608 668.24 118.72C672.416 114.816 678.976 115.04 682.88 119.216C686.784 123.392 686.56 129.952 682.368 133.856C678.192 137.76 671.632 137.536 667.744 133.36V133.344Z" fill="#EBEBEB"/>
<path d="M511.985 379.807L495.441 368.383V368.351C493.809 362.335 491.553 356.559 488.785 351.119L493.025 334.479L469.025 308.783L452.129 311.871C446.897 308.751 441.281 306.095 435.409 304.063C435.409 304.063 435.377 304.063 435.361 304.063L425.089 286.767L389.953 285.567L378.529 302.111C378.529 302.111 378.481 302.111 378.465 302.111C372.465 303.743 366.673 305.999 361.249 308.751L344.625 304.511L318.929 328.511L322.017 345.375C318.833 350.671 316.241 356.287 314.209 362.159L296.913 372.431L295.713 407.583L312.273 419.023C313.905 425.071 316.097 430.847 318.913 436.335L314.689 452.927L338.689 478.623L355.473 475.551C360.769 478.687 366.401 481.327 372.353 483.375L382.609 500.639L417.745 501.839L429.169 485.311C435.249 483.679 441.041 481.423 446.529 478.655L463.089 482.879L488.785 458.879L485.697 442.015C488.881 436.719 491.473 431.103 493.505 425.215L510.801 414.943L512.001 379.791L511.985 379.807ZM402.465 433.231C380.625 432.479 363.553 414.143 364.305 392.351C365.057 370.511 383.329 353.439 405.185 354.191C427.025 354.943 444.097 373.215 443.345 395.071C442.593 416.847 424.321 433.983 402.465 433.231Z" fill="#EBEBEB"/>
<path d="M549.681 280C549.681 280 549.601 280 549.569 280L521.857 279.056C520.705 279.024 519.649 278.4 519.073 277.408L511.617 264.848C507.649 263.408 503.745 261.6 499.969 259.44L487.953 261.632C486.817 261.84 485.665 261.456 484.881 260.608L465.953 240.352C465.169 239.504 464.865 238.32 465.153 237.216L468.177 225.36C466.337 221.6 464.801 217.6 463.601 213.408L451.553 205.088C450.609 204.432 450.049 203.344 450.097 202.192L451.041 174.48C451.073 173.328 451.697 172.272 452.689 171.696L465.281 164.224C466.769 160.144 468.577 156.24 470.673 152.624L468.465 140.576C468.257 139.44 468.641 138.288 469.489 137.504L489.761 118.576C490.609 117.792 491.793 117.488 492.897 117.776L504.785 120.816C508.641 118.944 512.625 117.408 516.705 116.224L525.025 104.176C525.681 103.232 526.753 102.64 527.921 102.72L555.633 103.664C556.785 103.696 557.841 104.32 558.417 105.312L565.889 117.904C569.857 119.36 573.745 121.168 577.457 123.296L589.537 121.088C590.673 120.88 591.825 121.264 592.609 122.112L611.537 142.384C612.321 143.232 612.625 144.416 612.337 145.52L609.297 157.424C611.169 161.28 612.705 165.264 613.889 169.344L625.921 177.664C626.865 178.32 627.409 179.408 627.377 180.56L626.433 208.272C626.401 209.424 625.777 210.48 624.785 211.056L612.193 218.528C610.705 222.608 608.897 226.496 606.801 230.112L609.009 242.176C609.217 243.312 608.833 244.464 607.985 245.248L587.729 264.16C586.881 264.944 585.713 265.248 584.593 264.96L572.753 261.936C568.849 263.824 564.833 265.36 560.769 266.528L552.465 278.56C551.825 279.472 550.801 280.016 549.681 280.016V280ZM523.937 272.352L547.953 273.168L555.905 261.648C556.353 260.992 557.041 260.512 557.809 260.304C562.225 259.12 566.625 257.44 570.849 255.296C570.849 255.296 570.849 255.296 570.865 255.296C571.569 254.944 572.401 254.848 573.201 255.056L584.465 257.92L602.033 241.52L599.937 230.048C599.793 229.232 599.937 228.4 600.369 227.696C602.689 223.856 604.657 219.632 606.209 215.168C606.465 214.368 607.009 213.712 607.713 213.296L619.745 206.144L620.561 182.128L609.041 174.176C608.433 173.76 607.985 173.152 607.761 172.464C607.729 172.384 607.713 172.288 607.681 172.192C606.481 167.776 604.801 163.44 602.705 159.312C602.337 158.576 602.241 157.744 602.449 156.944L605.329 145.616L588.929 128.048L577.425 130.16C576.625 130.304 575.793 130.16 575.089 129.744C571.089 127.36 566.865 125.392 562.529 123.872C562.289 123.792 562.033 123.68 561.825 123.536C561.361 123.248 560.977 122.848 560.689 122.384L553.537 110.336L529.521 109.52L521.569 121.04C521.089 121.728 520.385 122.208 519.585 122.4C515.137 123.616 510.817 125.28 506.705 127.376C505.969 127.744 505.137 127.84 504.337 127.632L493.009 124.752L475.441 141.152L477.537 152.624C477.665 153.344 477.569 154.096 477.233 154.736C477.185 154.832 477.137 154.912 477.073 155.008C474.753 158.864 472.785 163.104 471.233 167.584C470.977 168.336 470.449 168.976 469.761 169.376L457.713 176.528L456.897 200.544L468.433 208.512C469.089 208.96 469.569 209.632 469.777 210.416C471.025 215.024 472.689 219.392 474.753 223.408C474.865 223.632 474.961 223.888 475.025 224.128C475.153 224.672 475.153 225.232 475.025 225.776L472.145 237.056L488.545 254.624L499.969 252.528C500.769 252.384 501.601 252.528 502.289 252.944C506.369 255.344 510.609 257.328 514.913 258.816C515.697 259.056 516.369 259.584 516.785 260.304L523.921 272.336L523.937 272.352ZM538.769 242.016C538.177 242.016 537.585 242.016 536.993 241.984C509.073 241.024 487.153 217.536 488.097 189.632C489.057 161.712 512.577 139.792 540.449 140.736C568.369 141.696 590.289 165.184 589.345 193.088C588.881 206.592 583.185 219.12 573.297 228.352C563.841 237.2 551.633 242 538.753 242L538.769 242.016ZM538.705 147.472C515.185 147.472 495.665 166.192 494.849 189.872C494.017 214.064 513.025 234.416 537.217 235.248C548.945 235.648 560.113 231.456 568.689 223.44C577.249 215.44 582.193 204.576 582.593 192.88C583.425 168.688 564.417 148.336 540.225 147.504C539.713 147.488 539.201 147.472 538.705 147.472Z" fill="#EBEBEB"/>
<path d="M613.504 80.5921L602.032 77.5041L598.944 66.0321L603.44 61.5361L608.176 71.3601L618 76.0961L613.504 80.5921Z" fill="#E1E1E1"/>
<path d="M614.209 72.9126C616.305 70.8166 616.305 67.4086 614.209 65.3286C612.113 63.2326 608.721 63.2486 606.641 65.3286L612.353 56.7686L620.017 60.6406L621.697 68.6886L614.225 72.9126H614.209Z" fill="#E1E1E1"/>
<path d="M602.528 62.4482L610.944 54.0322L622.416 57.1202L625.504 68.5922L617.088 77.0082L605.616 73.9202L602.528 62.4482ZM617.808 69.3282C619.904 67.2322 619.904 63.8242 617.808 61.7442C615.712 59.6482 612.32 59.6642 610.24 61.7442C608.144 63.8402 608.144 67.2162 610.24 69.2962C612.336 71.3922 615.728 71.4082 617.808 69.2962V69.3282Z" fill="#A3A3A3"/>
<path d="M144.353 386.816L150.513 385.152L152.161 378.992L149.761 376.592L147.217 381.856L141.937 384.4L144.353 386.816Z" fill="#E1E1E1"/>
<path d="M143.969 382.688C142.849 381.568 142.849 379.744 143.969 378.608C145.089 377.472 146.913 377.488 148.033 378.608L144.977 374.016L140.865 376.096L139.969 380.416L143.969 382.688Z" fill="#E1E1E1"/>
<path d="M150.241 377.072L145.729 372.56L139.569 374.208L137.921 380.368L142.433 384.88L148.593 383.232L150.241 377.072ZM142.049 380.768C140.929 379.648 140.929 377.824 142.049 376.688C143.169 375.552 144.993 375.568 146.113 376.688C147.233 377.808 147.233 379.616 146.113 380.752C144.993 381.888 143.169 381.888 142.049 380.752V380.768Z" fill="#A3A3A3"/>
<path d="M122.177 49.1356L127.281 54.2396C128.609 55.5676 130.785 55.5676 132.113 54.2396C133.441 52.9116 133.441 50.7356 132.113 49.4076L127.009 44.3036C125.681 42.9756 123.505 42.9756 122.177 44.3036C120.849 45.6316 120.849 47.8076 122.177 49.1356Z" fill="#A3A3A3"/>
<path d="M118.576 36.3998C122.512 34.9918 126.784 36.8318 128.112 40.5278C129.44 44.2238 127.328 48.3678 123.392 49.7918C119.456 51.1998 115.184 49.3598 113.856 45.6638C112.528 41.9678 114.64 37.8238 118.576 36.3998Z" fill="#E1E1E1"/>
<path d="M113.001 44.8033L113.742 46.8662L128.951 41.4028L128.21 39.3399L113.001 44.8033Z" fill="#A3A3A3"/>
<path d="M400 596.176C571.332 596.176 710.224 588.067 710.224 578.064C710.224 568.061 571.332 559.952 400 559.952C228.668 559.952 89.7764 568.061 89.7764 578.064C89.7764 588.067 228.668 596.176 400 596.176Z" fill="#F5F5F5"/>
<path d="M138.752 105.104C137.152 98.0641 137.872 92.1281 140.896 87.3121C143.936 82.4961 148.944 79.2961 155.952 77.6961C163.136 76.0641 169.104 76.7361 173.872 79.7121C178.64 82.6881 181.808 87.6481 183.392 94.5921C184.544 99.6321 184.624 103.968 183.664 107.584C182.704 111.2 180.816 114.272 178.016 116.8C175.216 119.328 171.424 121.136 166.624 122.224C161.76 123.328 157.552 123.472 154.016 122.64C150.48 121.808 147.328 119.952 144.592 117.04C141.84 114.128 139.904 110.16 138.752 105.12V105.104ZM152.096 102.128C153.088 106.48 154.608 109.44 156.656 110.96C158.704 112.496 161.12 112.944 163.92 112.304C166.784 111.648 168.784 110.224 169.936 108C171.088 105.776 171.104 102.256 170.016 97.4241C169.088 93.3601 167.6 90.5761 165.536 89.0721C163.472 87.5681 161.04 87.1361 158.224 87.7761C155.536 88.3841 153.584 89.8241 152.4 92.0961C151.2 94.3681 151.104 97.7121 152.112 102.096L152.096 102.128Z" fill="#433FEA"/>
<path d="M189.744 99.8245C188.656 95.0565 189.376 90.7525 191.888 86.9285C194.4 83.1045 198.4 80.5765 203.872 79.3285C210.128 77.9045 215.28 78.6405 219.296 81.5525C222.528 83.8885 224.64 87.2005 225.616 91.4885C226.704 96.3045 226.016 100.609 223.52 104.401C221.024 108.193 216.96 110.737 211.328 112.017C206.304 113.153 201.952 112.817 198.272 110.961C193.744 108.673 190.896 104.961 189.728 99.8405L189.744 99.8245ZM201.744 97.0725C202.384 99.8565 203.408 101.793 204.848 102.865C206.272 103.937 207.856 104.289 209.552 103.905C211.28 103.505 212.544 102.529 213.36 100.961C214.176 99.3925 214.24 97.1525 213.584 94.2565C212.96 91.5525 211.952 89.6485 210.528 88.5925C209.104 87.5205 207.568 87.1685 205.92 87.5525C204.176 87.9525 202.88 88.9445 202.048 90.5605C201.216 92.1605 201.104 94.3365 201.744 97.0885V97.0725Z" fill="#433FEA"/>
<path d="M237.728 117.777L227.92 74.6088L239.136 72.0648L240.192 76.6888C241.296 74.4008 242.432 72.7528 243.568 71.7768C245.104 70.4648 246.928 69.5528 249.056 69.0728C253.232 68.1288 256.832 68.9928 259.84 71.6648C262.848 74.3368 264.896 78.0328 265.968 82.7528C267.152 87.9528 266.8 92.2088 264.944 95.5048C263.072 98.8168 260.24 100.897 256.432 101.761C254.592 102.177 252.832 102.241 251.168 101.969C249.504 101.681 247.936 101.057 246.448 100.097L249.84 115.025L237.744 117.777H237.728ZM243.504 87.6008C244.064 90.0808 245.008 91.7928 246.32 92.7528C247.632 93.7128 249.088 94.0168 250.672 93.6488C252.064 93.3288 253.104 92.4968 253.792 91.1368C254.48 89.7768 254.496 87.7128 253.872 84.9768C253.296 82.4488 252.384 80.7048 251.136 79.7288C249.888 78.7688 248.56 78.4488 247.136 78.7688C245.6 79.1208 244.464 80.0008 243.712 81.4408C242.96 82.8648 242.896 84.9288 243.504 87.6168V87.6008Z" fill="#433FEA"/>
<path d="M271.088 88.56L282.72 84.736C283.536 86.032 284.448 86.8961 285.472 87.2961C286.496 87.6961 287.744 87.7441 289.216 87.4081C290.832 87.0401 292 86.416 292.72 85.536C293.296 84.864 293.488 84.16 293.312 83.392C293.12 82.528 292.512 81.9681 291.504 81.6961C290.784 81.5041 288.976 81.4881 286.064 81.6321C281.744 81.8561 278.688 81.8401 276.928 81.5841C275.168 81.3281 273.568 80.5921 272.128 79.3761C270.688 78.1601 269.744 76.6081 269.328 74.7201C268.864 72.6561 269.056 70.752 269.92 68.992C270.784 67.232 272.176 65.7441 274.112 64.5281C276.048 63.3121 278.784 62.304 282.304 61.504C286.032 60.656 288.848 60.32 290.752 60.48C292.656 60.64 294.336 61.2 295.792 62.112C297.248 63.04 298.608 64.432 299.856 66.304L288.752 70.0001C288.224 69.0721 287.568 68.4481 286.784 68.1281C285.696 67.7121 284.496 67.664 283.152 67.968C281.792 68.272 280.864 68.736 280.352 69.36C279.84 69.984 279.664 70.6401 279.824 71.3281C280 72.0961 280.528 72.5761 281.392 72.8001C282.272 73.0081 284.048 72.9761 286.752 72.6881C290.832 72.2401 293.952 72.1921 296.064 72.5441C298.192 72.9121 299.936 73.7121 301.312 74.9761C302.688 76.2401 303.568 77.76 303.968 79.536C304.384 81.344 304.224 83.216 303.536 85.1681C302.832 87.1201 301.424 88.864 299.312 90.416C297.2 91.952 294.112 93.184 290.08 94.112C284.368 95.4081 280.112 95.52 277.328 94.448C274.528 93.376 272.448 91.408 271.088 88.56Z" fill="#433FEA"/>
<path d="M310.16 48.9765L323.296 48.8965L323.36 58.9765L320.944 79.2485L312.816 79.2965L310.224 59.0565L310.16 48.9765ZM310.8 82.4005L323.056 82.3365L323.12 93.1685L310.864 93.2325L310.8 82.4005Z" fill="#433FEA"/>
<path d="M205.889 186.608C205.793 186.608 205.697 186.592 205.601 186.56C198.401 183.776 194.097 181.04 191.857 177.776C190.225 178.096 188.417 177.888 186.689 177.072C185.009 176.272 183.393 174.88 182.241 172.88C181.153 173.712 179.825 173.936 178.353 173.488C176.721 172.976 175.041 171.616 173.633 169.632C172.737 170.272 171.825 170.368 171.153 170.32C166.401 169.936 159.953 160.464 159.489 150.368C159.473 149.92 159.809 149.552 160.257 149.536C160.689 149.504 161.073 149.856 161.089 150.304C161.521 159.888 167.665 168.432 171.281 168.72C171.873 168.784 172.353 168.592 172.769 168.272C170.593 164.464 169.473 159.024 171.137 153.216C172.513 148.416 173.729 146.528 175.185 146.88C177.937 147.568 177.585 158.032 176.113 164.944C175.777 166.512 175.297 167.632 174.753 168.432C176.017 170.304 177.505 171.552 178.817 171.968C179.985 172.336 180.849 172.032 181.489 171.408C180.225 168.304 179.969 164.096 181.681 158.704C183.921 151.616 184.833 151.424 185.377 151.312C185.761 151.232 186.145 151.36 186.401 151.664C187.873 153.328 186.113 164.336 184.257 169.776C184.017 170.48 183.713 171.104 183.361 171.632C184.353 173.584 185.825 174.912 187.345 175.632C188.577 176.224 189.841 176.432 190.977 176.32C190.833 176.016 190.705 175.712 190.593 175.392C189.329 171.952 189.937 167.984 192.481 163.264C194.177 160.128 195.553 158.672 196.817 158.672C197.201 158.672 197.889 158.816 198.401 159.728C199.793 162.304 198.785 170.8 196.033 175.008C195.377 176 194.481 176.752 193.441 177.248C195.585 180.064 199.649 182.544 206.161 185.072C206.577 185.232 206.785 185.696 206.625 186.112C206.497 186.432 206.193 186.624 205.873 186.624L205.889 186.608ZM196.849 160.256C196.849 160.256 195.937 160.256 193.921 164.016C191.601 168.304 191.025 171.84 192.113 174.832C192.241 175.2 192.401 175.552 192.593 175.904C193.441 175.536 194.177 174.944 194.705 174.144C196.945 170.72 198.017 163.68 197.185 160.928C197.009 160.368 196.833 160.272 196.833 160.272L196.849 160.256ZM185.377 153.52C184.961 154.304 184.273 155.888 183.233 159.168C181.857 163.504 181.857 166.976 182.625 169.648C182.673 169.52 182.721 169.376 182.769 169.248C184.657 163.744 185.569 156.176 185.377 153.52ZM174.833 148.48C174.561 148.736 173.793 149.744 172.673 153.632C171.201 158.768 172.113 163.456 173.841 166.832C174.177 166.144 174.401 165.344 174.561 164.592C176.225 156.736 175.745 149.632 174.833 148.496V148.48Z" fill="#263238"/>
<path d="M266.721 270.464C264.289 270.464 261.713 269.904 259.425 268.56C259.041 268.336 258.913 267.84 259.137 267.472C259.361 267.088 259.857 266.96 260.225 267.184C265.937 270.528 273.313 268.192 274.833 265.76C275.009 265.472 275.169 265.104 275.073 264.688C272.817 264.928 270.033 264.336 266.865 262.336C262.801 259.792 262.481 259.04 262.497 258.432C262.497 258.08 262.721 257.76 263.041 257.6C264.641 256.8 271.857 260.112 274.865 262.096C275.265 262.352 275.585 262.64 275.857 262.928C277.185 262.608 278.225 261.92 278.897 261.088C279.361 260.528 279.681 259.904 279.841 259.296C279.729 259.296 279.633 259.328 279.521 259.328C276.961 259.584 274.401 258.48 271.665 255.968C269.793 254.224 269.057 253.04 269.297 252.08C269.377 251.776 269.633 251.232 270.449 251.04C272.657 250.496 278.129 252.816 280.353 255.264C280.849 255.808 281.201 256.464 281.377 257.152C283.457 256.176 285.681 253.968 288.289 250.32C288.545 249.968 289.041 249.872 289.409 250.128C289.761 250.384 289.857 250.88 289.601 251.248C286.577 255.472 284.065 257.872 281.521 258.848C281.425 259.968 280.961 261.12 280.129 262.112C279.313 263.088 278.129 263.92 276.641 264.368C276.801 265.088 276.641 265.856 276.193 266.592C274.849 268.768 270.977 270.464 266.721 270.464ZM265.297 259.36C265.841 259.76 266.609 260.288 267.713 260.976C269.889 262.336 271.825 262.96 273.473 263.088C270.817 261.44 267.361 259.984 265.297 259.36ZM270.881 252.56C270.977 252.816 271.329 253.472 272.753 254.784C275.137 256.976 277.297 257.968 279.361 257.728C279.537 257.712 279.697 257.68 279.873 257.648C279.761 257.168 279.521 256.72 279.185 256.32C276.929 253.856 271.985 252.288 270.897 252.544L270.881 252.56Z" fill="#263238"/>
<path d="M287.904 268.272L262.976 272.8L240.336 149.264L192.24 158L113.856 297.2L122.272 343.136L222.816 324.88L229.696 362.448L277.792 353.712L270.912 316.144L295.84 311.616L287.904 268.288V268.272ZM161.744 291.184L203.28 218.272L214.864 281.536L161.744 291.184Z" fill="#8A48F5"/>
<path d="M488.688 140.864C487.76 132.336 486.048 124.752 483.568 118.112C481.088 111.488 477.36 104.976 472.384 98.6084C467.408 92.2404 460.624 86.7044 452.064 82.0164C443.488 77.3284 432.176 74.0644 418.112 72.2404C388.848 68.4324 366.032 73.6164 349.664 87.8244C333.296 102.032 322.528 129.232 317.344 169.44C315.232 185.792 314.72 200.912 315.776 214.784C316.832 228.672 319.392 239.824 323.424 248.272C328.944 260.144 336.752 269.616 346.864 276.704C356.96 283.792 370.8 288.48 388.384 290.768C419.744 294.848 442.976 288.832 458.096 272.704C473.216 256.576 483.248 229.328 488.192 190.944C490.4 173.824 490.56 157.12 488.704 140.832L488.688 140.864Z" fill="#8A48F5"/>
<path d="M402.832 274.368C398.992 274.24 394.896 273.888 390.656 273.344C376.016 271.44 364.672 267.728 356.976 262.32C349.376 256.992 343.616 249.968 339.392 240.864L339.312 240.704C336.24 234.272 334.224 225.104 333.344 213.456C332.368 200.832 332.864 186.784 334.816 171.696C340.528 127.344 352.32 108.832 361.216 101.12C371.584 92.1282 385.568 88.0642 403.984 88.6882C407.76 88.8162 411.76 89.1522 415.856 89.6962C427.68 91.2322 437.024 93.8562 443.648 97.4722C450.064 100.976 455.072 105.008 458.544 109.456C462.384 114.384 465.264 119.36 467.104 124.288C469.056 129.52 470.448 135.744 471.216 142.784C472.928 157.68 472.752 173.104 470.752 188.736C466.32 223.2 457.744 247.408 445.28 260.704C436.032 270.576 422.16 275.04 402.864 274.384L402.832 274.368Z" fill="#263238"/>
<path d="M434.144 141.329L434.352 135.265L430.624 134.049C430.464 131.985 430.128 129.937 429.632 127.969L432.784 125.649L430.64 119.953L426.736 120.273C425.808 118.433 424.72 116.689 423.488 115.041L425.504 111.665L421.344 107.233L417.856 109.025C416.288 107.697 414.624 106.481 412.864 105.409L413.424 101.537L407.888 99.0248L405.36 102.001C403.424 101.377 401.424 100.913 399.36 100.593L398.416 96.8008L392.336 96.5928L391.136 100.321C389.056 100.497 387.024 100.817 385.056 101.313L382.72 98.1768L377.024 100.305L377.344 104.209C375.504 105.153 373.76 106.241 372.112 107.473L368.752 105.457L364.304 109.601L366.096 113.105C364.768 114.657 363.552 116.337 362.496 118.097L358.624 117.521L356.096 123.057L359.088 125.585C358.464 127.521 357.968 129.537 357.68 131.585L353.872 132.545L353.664 138.609L357.408 139.825C357.568 141.905 357.904 143.937 358.4 145.905L355.248 148.225L357.392 153.921L361.296 153.601C362.224 155.441 363.312 157.185 364.544 158.833L362.528 162.209L366.688 166.641L370.176 164.849C371.728 166.177 373.408 167.393 375.168 168.465L374.592 172.337L380.128 174.849L382.672 171.873C384.608 172.497 386.608 172.961 388.672 173.281L389.616 177.073L395.696 177.281L396.896 173.553C398.976 173.377 401.008 173.057 402.976 172.561L405.296 175.697L410.992 173.569L410.688 169.665C412.528 168.721 414.272 167.633 415.92 166.401L419.28 168.417L423.728 164.273L421.936 160.769C423.264 159.217 424.48 157.537 425.536 155.777L429.408 156.353L431.936 150.817L428.944 148.289C429.568 146.353 430.048 144.353 430.352 142.289L434.144 141.329ZM393.184 160.961C379.904 160.513 369.52 149.377 369.968 136.097C370.416 122.801 381.552 112.417 394.832 112.865C408.112 113.313 418.496 124.449 418.048 137.745C417.6 151.025 406.464 161.409 393.184 160.961Z" fill="#8A48F5"/>
<path opacity="0.3" d="M459.392 252.657L459.824 248.577L457.376 247.569C457.376 246.161 457.248 244.769 457.008 243.425L459.248 242.001L458.112 238.049H455.456C454.912 236.785 454.288 235.537 453.536 234.369L455.056 232.193L452.48 228.993L450.032 230.017C449.056 229.041 448 228.145 446.848 227.345L447.44 224.737L443.84 222.753L441.952 224.657C440.656 224.113 439.328 223.713 437.984 223.393L437.536 220.769L433.456 220.305L432.448 222.753C431.04 222.753 429.664 222.897 428.304 223.137L426.88 220.881L422.928 222.033V224.689C421.68 225.233 420.432 225.857 419.248 226.609L417.072 225.073L413.872 227.649L414.896 230.097C413.952 231.073 413.024 232.129 412.224 233.281L409.648 232.705L407.664 236.305L409.552 238.161C409.024 239.473 408.608 240.785 408.288 242.145L405.664 242.577L405.232 246.657L407.68 247.681C407.68 249.073 407.808 250.449 408.048 251.809L405.792 253.233L406.944 257.185H409.6C410.144 258.449 410.768 259.697 411.52 260.865L409.984 263.041L412.544 266.257L415.008 265.217C415.984 266.193 417.04 267.089 418.192 267.889L417.6 270.497L421.2 272.481L423.088 270.593C424.384 271.121 425.712 271.521 427.056 271.841L427.504 274.465L431.584 274.929L432.592 272.465C433.984 272.465 435.376 272.321 436.736 272.081L438.16 274.337L442.096 273.185V270.529C443.36 269.985 444.608 269.361 445.792 268.609L447.952 270.145L451.168 267.585L450.128 265.137C451.104 264.161 452 263.105 452.816 261.953L455.392 262.529L457.376 258.929L455.488 257.073C456.016 255.761 456.416 254.449 456.736 253.105L459.376 252.657H459.392ZM438.8 251.073C436.896 254.529 432.56 255.809 429.104 253.905C425.648 252.001 424.4 247.665 426.288 244.209C428.192 240.753 432.512 239.505 435.968 241.393C439.424 243.297 440.704 247.617 438.8 251.073Z" fill="#8A48F5"/>
<path d="M482.065 183.521L477.297 180.225C476.833 178.497 476.177 176.817 475.377 175.265L476.593 170.465L469.681 163.057L464.817 163.953C463.313 163.057 461.697 162.289 460.001 161.697L457.041 156.705L446.913 156.353L443.617 161.121C443.617 161.121 443.617 161.121 443.601 161.121C441.873 161.585 440.209 162.241 438.641 163.041L433.841 161.825L426.433 168.737L427.329 173.601C426.417 175.121 425.665 176.753 425.073 178.433L420.081 181.393L419.729 191.521L424.497 194.817C424.961 196.561 425.601 198.225 426.417 199.809L425.201 204.593L432.113 212.001L436.945 211.121C438.465 212.017 440.097 212.785 441.809 213.377L444.769 218.353L454.897 218.705L458.193 213.937C459.937 213.473 461.617 212.817 463.201 212.017L467.969 213.233L475.377 206.321L474.481 201.457C475.393 199.937 476.145 198.305 476.737 196.609L481.729 193.649L482.081 183.521H482.065ZM450.497 198.913C444.193 198.705 439.281 193.409 439.489 187.137C439.697 180.833 444.977 175.921 451.265 176.129C457.569 176.337 462.481 181.617 462.273 187.905C462.065 194.177 456.785 199.121 450.497 198.913Z" fill="white"/>
<path d="M516.864 102.673L517.696 100.657C518.288 100.353 518.864 99.9687 519.376 99.5687L521.232 99.6327L523.408 96.5127L522.704 94.8007C522.912 94.1767 523.072 93.5207 523.152 92.8487L524.752 91.3767L524.08 87.6327L522.064 86.8007C521.76 86.2087 521.392 85.6487 520.976 85.1367L521.04 83.2807L517.92 81.1047L516.208 81.8087C515.568 81.5847 514.928 81.4407 514.256 81.3607L512.784 79.7607L509.04 80.4327L508.208 82.4487C507.6 82.7527 507.04 83.1207 506.528 83.5367L504.672 83.4727L502.496 86.5927L503.2 88.3047C502.992 88.9287 502.832 89.5847 502.752 90.2727L501.152 91.7447L501.824 95.4887L503.84 96.3207C504.144 96.9287 504.528 97.4887 504.944 98.0007L504.88 99.8407L508 102.017L509.712 101.313C510.352 101.537 510.992 101.681 511.664 101.761L513.152 103.361L516.896 102.689L516.864 102.673ZM508.72 92.2887C508.304 89.9527 509.856 87.7447 512.176 87.3287C514.512 86.9127 516.72 88.4647 517.136 90.7847C517.552 93.1047 516 95.3287 513.68 95.7447C511.36 96.1607 509.136 94.6087 508.72 92.2887Z" fill="#433FEA"/>
<path d="M472.977 92.0642L471.761 91.0402C473.889 88.5282 476.897 85.3442 481.377 82.9922L482.113 84.4162C477.345 86.9122 474.289 90.5282 472.977 92.0802V92.0642Z" fill="#433FEA"/>
<path d="M485.744 82.9608L485.12 81.4888C491.168 78.8968 497.488 77.8888 503.904 78.4808L503.76 80.0808C497.616 79.4888 491.568 80.4808 485.76 82.9608H485.744Z" fill="#433FEA"/>
<path d="M482.721 94.0321L481.393 93.1361C484.673 88.3041 491.169 84.1121 497.185 82.9121L497.489 84.4801C491.857 85.6001 485.777 89.5201 482.705 94.0321H482.721Z" fill="#433FEA"/>
<path d="M376.544 248.001C376.336 248.001 376.128 247.921 375.968 247.761L372.608 244.305C370.896 244.145 369.216 243.825 367.568 243.361L362.336 245.665C362.08 245.777 361.792 245.745 361.568 245.601L352.8 239.793C352.576 239.649 352.432 239.393 352.448 239.121L352.528 233.425C351.456 232.097 350.512 230.657 349.696 229.137L345.2 227.393C344.944 227.297 344.752 227.073 344.704 226.801L342.608 216.497C342.56 216.225 342.64 215.953 342.832 215.761L346.288 212.401C346.448 210.705 346.768 209.009 347.216 207.361L344.912 202.145C344.8 201.889 344.832 201.601 344.976 201.377L350.784 192.609C350.928 192.385 351.152 192.241 351.456 192.257L357.152 192.337C358.496 191.265 359.936 190.321 361.44 189.521L363.184 185.025C363.28 184.769 363.504 184.577 363.776 184.529L374.08 182.433C374.352 182.385 374.624 182.465 374.816 182.657L378.16 186.113C379.856 186.273 381.552 186.593 383.2 187.041L388.416 184.737C388.672 184.625 388.96 184.657 389.184 184.801L397.952 190.609C398.176 190.753 398.32 191.009 398.304 191.281L398.224 196.993C399.296 198.321 400.24 199.761 401.04 201.265L405.536 203.009C405.792 203.105 405.984 203.329 406.032 203.601L408.128 213.905C408.176 214.177 408.096 214.449 407.904 214.641L404.448 218.001C404.288 219.681 403.968 221.377 403.504 223.025L405.808 228.257C405.92 228.513 405.888 228.801 405.744 229.025L399.936 237.777C399.792 238.001 399.552 238.113 399.264 238.129L393.568 238.049C392.24 239.105 390.8 240.049 389.28 240.865L387.536 245.361C387.44 245.617 387.216 245.809 386.944 245.857L376.64 247.953C376.64 247.953 376.528 247.953 376.48 247.953L376.544 248.001ZM367.52 241.713C367.52 241.713 367.664 241.713 367.744 241.745C369.456 242.241 371.232 242.577 373.04 242.737C373.232 242.737 373.408 242.833 373.552 242.977L376.816 246.337L386.256 244.417L387.952 240.049C388.016 239.873 388.16 239.713 388.336 239.633C389.936 238.801 391.456 237.809 392.848 236.673C392.992 236.561 393.152 236.481 393.36 236.497L398.912 236.577L404.24 228.545L402 223.457C401.92 223.281 401.92 223.089 401.968 222.913C402.48 221.169 402.8 219.377 402.96 217.617C402.96 217.425 403.056 217.249 403.2 217.105L406.56 213.841L404.64 204.401L400.272 202.705C400.08 202.641 399.936 202.497 399.84 202.321C399.008 200.721 398.016 199.217 396.88 197.825C396.752 197.681 396.688 197.489 396.704 197.297L396.784 191.745L388.752 186.417L383.664 188.657C383.488 188.737 383.296 188.737 383.12 188.689C381.392 188.177 379.6 187.857 377.808 187.697C377.616 187.697 377.44 187.601 377.296 187.457L374.048 184.097L364.608 186.017L362.912 190.385C362.848 190.561 362.704 190.721 362.528 190.801C360.928 191.633 359.424 192.625 358.016 193.761C357.872 193.873 357.68 193.969 357.488 193.937L351.936 193.857L346.608 201.889L348.848 206.977C348.944 207.201 348.944 207.441 348.832 207.665C348.384 209.265 348.048 211.041 347.904 212.833C347.904 213.025 347.808 213.201 347.664 213.345L344.304 216.609L346.224 226.049L350.592 227.745C350.784 227.825 350.944 227.969 351.024 228.161C351.856 229.745 352.848 231.249 353.968 232.625C354.096 232.769 354.16 232.961 354.16 233.153L354.08 238.705L362.112 244.033L367.2 241.793C367.296 241.745 367.408 241.729 367.52 241.729V241.713ZM375.392 236.529C371.344 236.529 367.264 235.377 363.648 232.993C358.896 229.841 355.664 225.041 354.528 219.457C353.392 213.873 354.496 208.193 357.648 203.441C364.16 193.649 377.408 190.945 387.2 197.441C396.992 203.937 399.68 217.201 393.184 226.993C389.088 233.169 382.304 236.529 375.392 236.529ZM358.976 204.321C356.064 208.705 355.04 213.969 356.096 219.137C357.152 224.305 360.144 228.737 364.528 231.649C373.6 237.649 385.856 235.169 391.856 226.113C397.856 217.057 395.376 204.785 386.32 198.769C377.264 192.769 364.992 195.249 358.976 204.321Z" fill="white"/>
<path d="M681.328 282.72L656.225 279.328L672.832 154.832L624.384 148.288L506.865 256.496L500.688 302.784L601.952 316.448L596.896 354.304L645.344 360.848L650.4 322.992L675.504 326.384L681.328 282.72ZM554.256 265.568L616.272 209.04L607.76 272.784L554.256 265.568Z" fill="#8A48F5"/>
<path d="M630.609 359.664C630.609 359.664 630.513 359.664 630.465 359.664C630.033 359.584 629.745 359.168 629.825 358.736L667.153 154.048C667.233 153.616 667.649 153.344 668.081 153.408C668.513 153.488 668.801 153.904 668.721 154.336L631.393 359.024C631.329 359.408 630.993 359.68 630.609 359.68V359.664Z" fill="#263238"/>
<path d="M663.729 157.472C663.697 158.192 663.105 158.768 662.369 158.736C661.633 158.704 661.073 158.112 661.105 157.376C661.137 156.64 661.729 156.08 662.465 156.112C663.185 156.144 663.761 156.736 663.729 157.472Z" fill="#263238"/>
<path d="M658.401 185.151C658.369 185.871 657.777 186.447 657.041 186.415C656.305 186.383 655.745 185.791 655.777 185.055C655.809 184.319 656.401 183.759 657.137 183.791C657.857 183.823 658.433 184.415 658.401 185.151Z" fill="#263238"/>
<path d="M653.073 212.832C653.041 213.552 652.449 214.128 651.713 214.096C650.977 214.064 650.417 213.472 650.449 212.736C650.481 212 651.073 211.44 651.809 211.472C652.529 211.504 653.105 212.096 653.073 212.832Z" fill="#263238"/>
<path d="M642.576 241.647C642.544 242.367 641.952 242.943 641.216 242.911C640.48 242.879 639.92 242.287 639.952 241.551C639.984 240.815 640.576 240.255 641.312 240.287C642.048 240.319 642.608 240.911 642.576 241.647Z" fill="#263238"/>
<path d="M642.401 268.191C642.369 268.911 641.777 269.487 641.041 269.455C640.305 269.423 639.745 268.831 639.777 268.095C639.809 267.359 640.401 266.799 641.137 266.831C641.873 266.863 642.433 267.455 642.401 268.191Z" fill="#263238"/>
<path d="M637.073 295.872C637.041 296.592 636.449 297.168 635.713 297.136C634.977 297.104 634.417 296.512 634.449 295.776C634.481 295.056 635.073 294.48 635.809 294.512C636.545 294.544 637.105 295.136 637.073 295.872Z" fill="#263238"/>
<path d="M631.744 323.552C631.712 324.272 631.12 324.848 630.384 324.816C629.648 324.784 629.088 324.192 629.12 323.456C629.152 322.72 629.744 322.16 630.48 322.192C631.216 322.224 631.776 322.816 631.744 323.552Z" fill="#263238"/>
<path d="M626.401 351.231C626.369 351.951 625.777 352.527 625.041 352.495C624.305 352.463 623.745 351.871 623.777 351.135C623.809 350.399 624.401 349.839 625.137 349.871C625.873 349.903 626.433 350.495 626.401 351.231Z" fill="#263238"/>
<path d="M641.264 242.4C640.896 242.4 640.56 242.144 640.48 241.76C640.384 241.328 640.656 240.896 641.088 240.816L645.056 239.968C645.488 239.888 645.92 240.144 646 240.576C646.096 241.008 645.824 241.44 645.392 241.52L641.424 242.368C641.424 242.368 641.312 242.384 641.248 242.384L641.264 242.4Z" fill="#263238"/>
<path d="M654.528 227.664C654.528 227.664 650.944 236.992 649.744 242.64C648.544 248.288 648.464 260.912 648.464 260.912" fill="#263238"/>
<path d="M648.464 261.712C648.016 261.712 647.664 261.344 647.664 260.912C647.664 260.4 647.744 248.144 648.96 242.464C650.16 236.816 653.632 227.744 653.776 227.36C653.936 226.944 654.4 226.752 654.816 226.896C655.232 227.056 655.44 227.52 655.28 227.936C655.248 228.032 651.712 237.264 650.528 242.8C649.36 248.304 649.264 260.8 649.264 260.912C649.264 261.36 648.896 261.712 648.464 261.712Z" fill="#263238"/>
<path d="M355.92 399.824C358.144 363.984 354.048 298.816 421.424 307.44C493.648 316.688 472.976 401.136 472.976 401.136L355.904 399.824H355.92Z" fill="#263238"/>
<path d="M402.416 378.289C418.657 378.289 431.824 365.122 431.824 348.881C431.824 332.639 418.657 319.473 402.416 319.473C386.174 319.473 373.008 332.639 373.008 348.881C373.008 365.122 386.174 378.289 402.416 378.289Z" fill="white"/>
<path d="M406.288 319.521C392.368 317.137 377.472 327.409 376 337.809L431.216 342.881C429.264 331.025 417.344 321.409 406.288 319.521Z" fill="#263238"/>
<path d="M424.928 348.144C424.528 355.824 420.352 361.856 415.568 361.616C410.784 361.376 407.248 354.944 407.648 347.248C408.048 339.568 412.224 333.536 417.008 333.776C421.792 334.016 425.328 340.448 424.928 348.144Z" fill="#263238"/>
<path d="M402.416 379.872C385.328 379.872 371.408 365.968 371.408 348.864C371.408 331.76 385.312 317.856 402.416 317.856C419.52 317.856 433.424 331.76 433.424 348.864C433.424 365.968 419.52 379.872 402.416 379.872ZM402.416 321.072C387.088 321.072 374.608 333.536 374.608 348.88C374.608 364.224 387.072 376.688 402.416 376.688C417.76 376.688 430.224 364.224 430.224 348.88C430.224 333.536 417.76 321.072 402.416 321.072Z" fill="#8A48F5"/>
<path opacity="0.3" d="M464.784 398.912C464.784 398.912 464.656 398.912 464.592 398.896C464.16 398.8 463.904 398.368 464 397.936C464.048 397.728 469.152 376.032 463.856 354.096C463.76 353.664 464.016 353.232 464.448 353.136C464.864 353.04 465.312 353.296 465.408 353.728C470.8 376.048 465.6 398.096 465.552 398.32C465.456 398.688 465.136 398.928 464.768 398.928L464.784 398.912Z" fill="white"/>
<path opacity="0.3" d="M460.32 342.096C460.016 342.096 459.728 341.92 459.6 341.632C457.536 337.136 454.992 333.024 452.016 329.376C451.744 329.04 451.792 328.528 452.128 328.256C452.464 327.968 452.976 328.032 453.248 328.368C456.304 332.112 458.944 336.352 461.056 340.96C461.248 341.36 461.056 341.84 460.656 342.016C460.544 342.064 460.432 342.096 460.32 342.096Z" fill="white"/>
<path d="M205.968 567.952C205.776 567.952 205.568 567.952 205.376 567.952C200.96 567.824 197.472 564.144 197.6 559.728C197.728 555.312 201.36 551.904 205.824 551.952C205.872 551.952 205.92 551.952 205.984 551.952C210.608 551.952 221.728 546.336 244.992 509.664C246.24 507.696 248.288 506.368 250.592 506.032C252.896 505.696 255.248 506.384 256.992 507.92C285.696 532.944 316.112 548.528 316.416 548.688C320.352 550.688 321.92 555.504 319.92 559.44C317.92 563.376 313.104 564.96 309.168 562.96C307.952 562.352 281.376 548.752 253.488 525.92C233.984 555.232 219.52 567.952 205.968 567.952Z" fill="#263238"/>
<path d="M255.472 506.48C255.248 506.48 255.024 506.48 254.784 506.432C252.16 506.064 250.336 503.632 250.704 501.008C251.84 493.04 250.432 463.2 240.352 440C239.44 437.888 240.144 435.424 242.048 434.112C263.968 419.184 310.656 417.392 312.624 417.328C315.264 417.264 317.488 419.312 317.584 421.952C317.68 424.608 315.6 426.816 312.96 426.912C312.528 426.912 271.712 428.496 250.736 440.032C259.664 463.136 261.696 491.936 260.208 502.352C259.872 504.752 257.808 506.48 255.456 506.48H255.472Z" fill="#263238"/>
<path d="M263.536 500.256C260.336 492.72 245.952 493.584 237.504 500.032C232.992 503.488 226.88 513.856 226.24 517.616C225.6 521.376 228.208 524.784 232.672 524.4C238.192 523.92 245.76 515.904 245.76 515.904C240.72 520.848 247.216 524.336 256.928 517.184C262.304 513.216 267.104 508.688 263.536 500.256Z" fill="#433FEA"/>
<path d="M538.736 401.936C538.736 401.936 538.592 401.936 538.512 401.904C538.08 401.776 537.84 401.344 537.968 400.912C540.096 393.488 542.432 388.96 545.488 386.432C545.024 384.832 545.072 383.008 545.728 381.216C546.368 379.472 547.616 377.744 549.504 376.416C548.576 375.408 548.24 374.096 548.56 372.608C548.928 370.944 550.128 369.136 551.984 367.552C551.264 366.72 551.088 365.808 551.072 365.136C551.024 360.368 559.888 353.088 569.888 351.728C570.32 351.648 570.736 351.968 570.784 352.416C570.848 352.848 570.544 353.264 570.096 353.312C560.592 354.608 552.624 361.488 552.656 365.12C552.656 365.712 552.88 366.176 553.232 366.56C556.832 364.048 562.144 362.432 568.08 363.584C572.992 364.528 574.992 365.568 574.752 367.056C574.32 369.856 563.856 370.448 556.848 369.6C555.264 369.408 554.096 369.04 553.248 368.56C551.504 369.984 550.384 371.584 550.096 372.928C549.84 374.128 550.224 374.96 550.896 375.552C553.872 374.016 558.048 373.376 563.568 374.608C570.832 376.208 571.104 377.088 571.264 377.616C571.376 378 571.28 378.384 571.008 378.672C569.472 380.288 558.352 379.52 552.768 378.16C552.048 377.984 551.392 377.744 550.848 377.44C548.992 378.608 547.808 380.176 547.216 381.776C546.752 383.056 546.64 384.32 546.848 385.456C547.136 385.28 547.424 385.12 547.728 384.992C551.04 383.424 555.04 383.68 559.968 385.792C563.232 387.2 564.816 388.432 564.928 389.696C564.96 390.064 564.896 390.784 564.016 391.36C561.584 392.976 553.024 392.736 548.576 390.368C547.52 389.808 546.704 388.976 546.112 387.984C543.504 390.368 541.392 394.656 539.456 401.36C539.36 401.712 539.04 401.936 538.688 401.936H538.736ZM547.424 387.008C547.872 387.824 548.528 388.496 549.376 388.96C552.992 390.88 560.096 391.328 562.752 390.24C563.296 390.016 563.376 389.84 563.376 389.84C563.376 389.84 563.296 388.944 559.376 387.264C554.896 385.344 551.312 385.072 548.448 386.432C548.096 386.592 547.76 386.784 547.424 387.008ZM552.752 376.496C552.896 376.544 553.024 376.576 553.168 376.608C558.816 377.984 566.448 378.224 569.056 377.792C568.24 377.456 566.592 376.896 563.232 376.16C558.8 375.184 555.328 375.488 552.736 376.48L552.752 376.496ZM554.768 367.504C555.488 367.776 556.304 367.936 557.072 368.016C565.04 368.96 572.08 367.84 573.136 366.848C572.864 366.608 571.792 365.92 567.808 365.152C562.56 364.16 557.968 365.472 554.768 367.488V367.504Z" fill="#263238"/>
<path d="M330.448 565.28C331.504 564.944 331.152 563.92 329.968 563.92H308.304C267.056 559.552 238.24 565.408 256.4 566.784C274.56 568.16 255.12 567.872 241.856 572.896C228.592 577.92 340.496 579.184 350.688 572.896C360.08 567.104 315.84 569.968 330.448 565.28Z" fill="#263238"/>
<path d="M485.552 571.664L297.072 565.408L289.248 382.656L511.824 387.632L485.552 571.664Z" fill="#8A48F5"/>
<path d="M355.92 568.16C355.504 568.16 355.152 567.84 355.12 567.424L340.016 383.872C339.984 383.424 340.304 383.04 340.752 383.008C341.2 382.976 341.584 383.296 341.616 383.744L356.72 567.296C356.752 567.744 356.432 568.128 355.984 568.16C355.968 568.16 355.936 568.16 355.92 568.16Z" fill="#263238"/>
<path d="M485.552 571.664L536.208 563.952L552.16 394.016L511.824 387.632L485.552 571.664Z" fill="#8A48F5"/>
<path opacity="0.2" d="M485.552 571.664L536.208 563.952L552.16 394.016L511.824 387.632L485.552 571.664Z" fill="black"/>
<path d="M313.168 530.176L308.528 421.6C308.048 410.272 317.232 400.88 328.576 401.136L469.472 404.288C481.232 404.544 490.128 415.04 488.464 426.688L472.848 536.112C471.44 546.032 462.784 553.296 452.768 552.96L332.144 548.96C321.888 548.624 313.616 540.432 313.184 530.176H313.168Z" fill="#263238"/>
<path d="M328.399 434.464L350.191 435.152L350.015 440.768L336.367 440.336L336.239 444.512L348.895 444.912L348.719 450.288L336.063 449.888L335.903 455.072L349.951 455.52L349.759 461.488L327.567 460.784L328.399 434.464Z" fill="white"/>
<path d="M354.24 461.631L355.072 435.312L368.624 435.744C371.136 435.824 373.056 436.095 374.368 436.575C375.68 437.055 376.736 437.888 377.504 439.072C378.288 440.272 378.64 441.695 378.592 443.375C378.544 444.831 378.192 446.08 377.536 447.12C376.88 448.16 376 448.992 374.88 449.616C374.176 450.016 373.216 450.336 371.984 450.56C372.944 450.912 373.632 451.264 374.064 451.6C374.352 451.824 374.768 452.304 375.328 453.024C375.888 453.744 376.24 454.304 376.416 454.688L380.112 462.448L370.928 462.16L366.832 453.983C366.32 452.927 365.84 452.24 365.424 451.904C364.848 451.472 364.192 451.247 363.456 451.231H362.736L362.4 461.888L354.224 461.631H354.24ZM362.912 446.24L366.336 446.352C366.704 446.352 367.424 446.272 368.496 446.064C369.04 445.968 369.488 445.711 369.84 445.279C370.192 444.847 370.384 444.351 370.4 443.775C370.432 442.927 370.176 442.272 369.648 441.792C369.12 441.312 368.112 441.056 366.64 441.008L363.072 440.896L362.896 446.24H362.912Z" fill="white"/>
<path d="M382.847 462.544L383.679 436.224L397.231 436.656C399.743 436.736 401.663 437.008 402.975 437.488C404.287 437.968 405.343 438.8 406.111 439.984C406.895 441.184 407.247 442.608 407.199 444.288C407.151 445.744 406.799 446.992 406.143 448.032C405.487 449.072 404.607 449.904 403.487 450.528C402.783 450.928 401.823 451.248 400.591 451.472C401.551 451.824 402.239 452.176 402.671 452.512C402.959 452.736 403.375 453.216 403.935 453.936C404.479 454.656 404.847 455.216 405.023 455.6L408.719 463.36L399.535 463.072L395.439 454.896C394.927 453.84 394.447 453.152 394.031 452.816C393.455 452.384 392.799 452.16 392.063 452.144H391.343L391.007 462.8L382.831 462.544H382.847ZM391.519 447.152L394.943 447.264C395.311 447.264 396.031 447.184 397.103 446.976C397.647 446.88 398.095 446.624 398.447 446.192C398.799 445.76 398.991 445.264 399.007 444.688C399.039 443.84 398.783 443.184 398.255 442.704C397.727 442.224 396.719 441.968 395.247 441.92L391.679 441.808L391.503 447.152H391.519Z" fill="white"/>
<path d="M410.111 450.256C410.255 445.952 411.551 442.656 414.015 440.336C416.479 438.016 419.855 436.928 424.127 437.056C428.511 437.2 431.839 438.48 434.143 440.912C436.431 443.344 437.519 446.672 437.391 450.912C437.295 453.984 436.687 456.496 435.599 458.432C434.495 460.368 432.959 461.856 430.959 462.88C428.959 463.92 426.511 464.384 423.583 464.288C420.607 464.192 418.175 463.648 416.255 462.64C414.335 461.632 412.815 460.08 411.663 458C410.511 455.92 409.999 453.328 410.095 450.256H410.111ZM418.239 450.544C418.159 453.2 418.591 455.12 419.535 456.32C420.479 457.52 421.807 458.128 423.503 458.192C425.247 458.24 426.623 457.728 427.615 456.608C428.607 455.504 429.151 453.472 429.247 450.528C429.327 448.048 428.879 446.224 427.919 445.056C426.959 443.888 425.615 443.264 423.903 443.216C422.255 443.168 420.927 443.696 419.903 444.832C418.879 445.968 418.319 447.872 418.223 450.544H418.239Z" fill="white"/>
<path d="M441.455 464.4L442.287 438.08L455.839 438.512C458.351 438.592 460.271 438.864 461.583 439.344C462.895 439.824 463.951 440.656 464.719 441.84C465.503 443.04 465.855 444.464 465.807 446.144C465.759 447.6 465.407 448.848 464.751 449.888C464.095 450.928 463.215 451.76 462.095 452.384C461.391 452.784 460.431 453.104 459.199 453.328C460.159 453.68 460.847 454.032 461.279 454.368C461.567 454.592 461.983 455.072 462.543 455.792C463.087 456.512 463.455 457.072 463.631 457.456L467.327 465.216L458.143 464.928L454.047 456.752C453.535 455.696 453.055 455.008 452.639 454.672C452.063 454.24 451.407 454.016 450.671 454H449.951L449.615 464.656L441.439 464.4H441.455ZM450.127 449.008L453.551 449.12C453.919 449.12 454.639 449.04 455.711 448.832C456.255 448.736 456.703 448.48 457.055 448.048C457.407 447.616 457.599 447.12 457.615 446.544C457.647 445.696 457.391 445.04 456.863 444.56C456.335 444.08 455.327 443.824 453.855 443.776L450.287 443.664L450.111 449.008H450.127Z" fill="white"/>
<path d="M454.4 509.136C453.824 509.136 453.264 508.912 452.848 508.448L439.152 493.456L424.368 506.96C423.504 507.744 422.176 507.68 421.408 506.832L407.712 491.84L392.928 505.344C392.064 506.128 390.736 506.064 389.968 505.216L376.272 490.224L361.488 503.728C361.072 504.112 360.528 504.304 359.984 504.272C359.424 504.24 358.896 504 358.528 503.584L344.832 488.592L330.048 502.096C329.2 502.88 327.856 502.816 327.088 501.968C326.304 501.104 326.368 499.776 327.216 499.008L343.552 484.08C344.4 483.296 345.744 483.36 346.512 484.208L360.208 499.2L374.992 485.696C375.408 485.312 375.952 485.12 376.496 485.152C377.056 485.184 377.584 485.424 377.952 485.84L391.648 500.832L406.432 487.328C407.28 486.544 408.624 486.608 409.392 487.456L423.088 502.448L437.872 488.944C438.72 488.16 440.048 488.224 440.832 489.072L455.952 505.616C456.736 506.48 456.672 507.808 455.824 508.576C455.424 508.944 454.912 509.12 454.416 509.12L454.4 509.136Z" fill="white"/>
<path d="M201.2 575.536L191.184 570.768L182.256 527.296L187.104 521.968L201.2 575.536Z" fill="#8A48F5"/>
<path d="M201.2 575.536L214.48 567.776L203.104 531.968L187.104 521.968L201.2 575.536Z" fill="#8A48F5"/>
<path opacity="0.2" d="M201.2 575.536L214.48 567.776L203.104 531.968L187.104 521.968L201.2 575.536Z" fill="black"/>
<path d="M419.12 583.44C418.736 583.44 418.368 583.44 418.016 583.44C413.6 583.312 410.112 579.632 410.24 575.216C410.368 570.8 414.016 567.328 418.464 567.44C430.784 567.84 456.88 560.272 471.776 545.808C472.704 544.912 473.824 544.256 475.056 543.888C500.32 536.304 509.712 551.616 510.112 552.272L496.336 560.416C496.336 560.416 496.384 560.528 496.528 560.704C496.368 560.496 492.8 555.84 481.408 558.72C462.704 575.792 434 583.44 419.152 583.44H419.12Z" fill="#263238"/>
<path d="M418.224 594.08L389.088 592.24L386.8 538.528L425.952 539.984L418.224 594.08Z" fill="#8A48F5"/>
<path d="M418.224 594.08L425.04 587.296L429.264 553.808L425.952 539.984L418.224 594.08Z" fill="#8A48F5"/>
<path opacity="0.2" d="M418.224 594.08L425.04 587.296L429.264 553.808L425.952 539.984L418.224 594.08Z" fill="black"/>
<path d="M587.056 573.728C586.048 573.728 585.024 573.408 584.16 572.752C567.536 560.112 545.04 537.664 536.416 516.016C536.288 515.696 536.191 515.376 536.143 515.04C531.935 490.032 527.919 437.376 527.743 435.152C527.535 432.512 529.52 430.208 532.16 430C534.8 429.808 537.104 431.776 537.312 434.416C537.36 434.96 541.408 488.128 545.52 512.928C554.128 533.984 577.456 555.6 589.968 565.104C592.08 566.704 592.495 569.712 590.879 571.824C589.935 573.072 588.495 573.712 587.056 573.712V573.728Z" fill="#263238"/>
<path d="M597.248 578.16C593.536 578.16 589.328 576.48 584.752 573.168C582.608 571.616 582.128 568.608 583.68 566.464C585.232 564.32 588.24 563.84 590.384 565.392C594.352 568.256 596.512 568.576 597.264 568.576C599.92 568.576 602.064 570.72 602.064 573.376C602.064 576.032 599.92 578.176 597.264 578.176L597.248 578.16Z" fill="#263238"/>
<path d="M586.08 573.023C591.216 557.759 612.272 560.783 619.52 563.039C626.768 565.311 633.296 568.159 637.232 570.719C641.152 573.279 641.216 577.583 635.984 580.031C629.52 583.055 613.328 580.367 613.328 580.367C621.712 584.031 613.312 589.919 598.592 584.143C593.808 582.255 584.256 578.607 586.064 573.007L586.08 573.023Z" fill="#433FEA"/>
<path d="M546.976 441.728C545.072 454.688 534.336 464.256 525.6 462.96C516.864 461.68 516.512 450.096 518.416 437.136C520.32 424.176 523.776 414.736 532.512 416.016C541.248 417.296 548.896 428.752 546.976 441.712V441.728Z" fill="#263238"/>
<path d="M335.808 389.984C336.533 389.984 337.12 389.397 337.12 388.672C337.12 387.948 336.533 387.36 335.808 387.36C335.084 387.36 334.496 387.948 334.496 388.672C334.496 389.397 335.084 389.984 335.808 389.984Z" fill="#263238"/>
<path d="M349.136 398.128C349.136 398.848 348.544 399.44 347.824 399.44C347.104 399.44 346.512 398.848 346.512 398.128C346.512 397.408 347.104 396.816 347.824 396.816C348.544 396.816 349.136 397.408 349.136 398.128Z" fill="#263238"/>
<path d="M350.592 553.167C350.592 553.887 350 554.479 349.28 554.479C348.56 554.479 347.968 553.887 347.968 553.167C347.968 552.447 348.56 551.855 349.28 551.855C350 551.855 350.592 552.447 350.592 553.167Z" fill="#263238"/>
<path d="M362.624 562.608C362.624 563.328 362.032 563.92 361.312 563.92C360.592 563.92 360 563.328 360 562.608C360 561.888 360.592 561.296 361.312 561.296C362.032 561.296 362.624 561.888 362.624 562.608Z" fill="#263238"/>
<path d="M132.016 578.352C128.208 578.352 123.056 576.048 120.288 572.032C120.032 571.664 120.128 571.168 120.496 570.912C120.864 570.656 121.36 570.752 121.616 571.12C124.608 575.424 131.184 577.728 134.112 576.368C134.416 576.224 134.672 576.048 134.864 575.824C132.256 574.624 129.872 572.256 129.216 568.656C128.848 566.624 128.56 563.888 130.24 563.504C132.528 562.992 135.536 568.544 136.688 572.752C136.896 573.536 136.976 574.256 136.896 574.896C137.904 575.168 138.896 575.248 139.76 575.12C140.448 575.024 141.44 574.736 141.952 573.92C140.016 572.608 138.704 570.288 138.272 567.216C137.648 562.848 138.112 562.08 138.608 561.712C138.928 561.472 139.328 561.424 139.712 561.584C141.424 562.32 143.504 568.512 143.888 572.032C143.936 572.416 143.936 572.784 143.888 573.136C144.544 573.392 145.264 573.536 146.048 573.552C147.44 573.632 148.8 573.184 149.904 572.544C149.68 572.4 149.456 572.24 149.264 572.064C147.6 570.64 146.928 568.384 147.216 565.136C147.44 562.624 148 561.264 149.008 560.832C149.36 560.672 150.08 560.528 150.944 561.216C152.672 562.592 154.288 566.976 153.712 570.112C153.584 570.768 153.312 571.376 152.912 571.952C155.84 572.464 159.984 571.632 163.536 570.752C163.968 570.64 164.4 570.912 164.512 571.344C164.624 571.776 164.352 572.208 163.92 572.32C159.584 573.392 154.912 574.256 151.616 573.312C150.144 574.48 148.08 575.184 146.016 575.168C145.072 575.152 144.192 574.976 143.392 574.672C142.768 575.744 141.584 576.464 140 576.704C138.944 576.864 137.68 576.768 136.416 576.4C136.048 577.008 135.52 577.488 134.8 577.824C134.032 578.176 133.088 578.352 132.048 578.352H132.016ZM130.64 565.104C130.544 565.344 130.384 566.16 130.768 568.368C131.296 571.312 133.2 573.264 135.312 574.304C135.312 573.968 135.232 573.584 135.12 573.168C133.856 568.592 131.472 565.44 130.624 565.104H130.64ZM139.552 563.712C139.552 564.32 139.6 565.328 139.84 567.008C140.16 569.296 141.008 571.04 142.272 572.16C141.904 568.944 140.48 565.232 139.552 563.712ZM149.616 562.32C149.616 562.32 149.008 562.624 148.784 565.296C148.544 567.984 149.04 569.808 150.272 570.864C150.56 571.104 150.88 571.312 151.232 571.472C151.68 570.976 152 570.416 152.096 569.824C152.528 567.504 151.424 564.112 150.176 562.736C149.856 562.384 149.648 562.304 149.6 562.304L149.616 562.32Z" fill="#263238"/>
<path d="M366.193 590.448L370.529 582.928L366.193 575.408H361.553L364.177 582.928L361.553 590.448H366.193Z" fill="#263238"/>
<path d="M361.856 586.848C359.696 586.848 357.936 585.088 357.936 582.928C357.936 580.768 359.696 579.024 361.856 579.024L354.48 577.552L352.528 583.504L355.824 588.528L361.856 586.848Z" fill="#263238"/>
<path d="M362.497 575.408H353.809L349.473 582.928L353.809 590.448H362.497L366.833 582.928L362.497 575.408ZM358.161 586.848C356.001 586.848 354.241 585.088 354.241 582.928C354.241 580.768 356.001 579.024 358.161 579.024C360.321 579.024 362.065 580.768 362.065 582.928C362.065 585.088 360.321 586.848 358.161 586.848Z" fill="#433FEA"/>
<path d="M668.624 574.896L665.408 569.312L668.624 563.728H672.064L670.128 569.312L672.064 574.896H668.624Z" fill="#433FEA"/>
<path d="M671.84 572.223C673.44 572.223 674.752 570.911 674.752 569.311C674.752 567.711 673.44 566.415 671.84 566.415L677.312 565.327L678.768 569.743L676.32 573.471L671.84 572.223Z" fill="#433FEA"/>
<path d="M671.376 563.728H677.824L681.04 569.312L677.824 574.896H671.376L668.16 569.312L671.376 563.728ZM674.592 572.224C676.192 572.224 677.504 570.912 677.504 569.312C677.504 567.712 676.192 566.416 674.592 566.416C672.992 566.416 671.696 567.712 671.696 569.312C671.696 570.912 672.992 572.224 674.592 572.224Z" fill="#263238"/>
<path d="M548.72 582.32H555.952C557.84 582.32 559.376 580.784 559.376 578.896C559.376 577.008 557.84 575.472 555.952 575.472H548.72C546.832 575.472 545.296 577.008 545.296 578.896C545.296 580.784 546.832 582.32 548.72 582.32Z" fill="#263238"/>
<path d="M537.168 575.856C538.96 572.064 543.28 570.352 546.832 572.032C550.384 573.712 551.824 578.128 550.032 581.92C548.24 585.712 543.92 587.424 540.368 585.744C536.816 584.064 535.376 579.648 537.168 575.856Z" fill="#433FEA"/>
<path d="M539.133 585.732L541.116 586.667L548.007 572.05L546.024 571.115L539.133 585.732Z" fill="#263238"/>
</g>
<defs>
<clipPath id="clip0_263_4093">
<rect width="800" height="596.176" fill="white"/>
</clipPath>
</defs>
</svg>
