<svg width="30" height="31" viewBox="0 0 30 31" fill="none" xmlns="http://www.w3.org/2000/svg">
<path fill-rule="evenodd" clip-rule="evenodd" d="M15 30.5C23.2843 30.5 30 23.7843 30 15.5C30 7.21574 23.2843 0.5 15 0.5C6.71574 0.5 0 7.21574 0 15.5C0 23.7843 6.71574 30.5 15 30.5ZM16.0607 7.40501C15.1958 7.42913 14.2832 7.63733 13.6385 8.24984C13.1061 8.74232 12.8379 9.45908 12.7776 10.1756C12.7592 10.6881 12.7619 11.2019 12.7645 11.7155C12.7664 12.1006 12.7684 12.4857 12.7615 12.87C12.5248 12.8718 12.2873 12.8713 12.0497 12.8708C11.7328 12.8701 11.4158 12.8695 11.1 12.874C11.1 13.1807 11.1004 13.4878 11.1009 13.7952C11.1018 14.4109 11.1027 15.0277 11.1 15.6446C11.4158 15.6492 11.7328 15.6485 12.0497 15.6479C12.2873 15.6474 12.5248 15.6469 12.7615 15.6486C12.7669 16.8712 12.7659 18.0936 12.7649 19.3161C12.7637 20.8442 12.7624 22.3722 12.7736 23.9002C13.4233 23.8957 14.0717 23.8963 14.7203 23.897C15.2068 23.8975 15.6934 23.898 16.1808 23.8962C16.1848 22.5209 16.1838 21.1467 16.1828 19.7724C16.1818 18.3982 16.1808 17.0239 16.1848 15.6486C16.5125 15.6469 16.8403 15.6474 17.168 15.6479C17.605 15.6485 18.0419 15.6492 18.4789 15.6446C18.6151 14.7237 18.7311 13.7947 18.7951 12.862C18.3628 12.86 17.9304 12.86 17.498 12.86C17.0656 12.86 16.6332 12.86 16.2009 12.858C16.2009 12.6968 16.2006 12.5356 16.2004 12.3745C16.1996 11.891 16.1989 11.4077 16.2049 10.9242C16.2729 10.5518 16.6572 10.2675 17.0296 10.2916H18.7991C18.8032 9.32672 18.8032 8.36588 18.7991 7.40099C18.571 7.40099 18.3428 7.40075 18.1146 7.40051C17.4301 7.39976 16.7454 7.39901 16.0607 7.40501Z" fill="#433FEA"/>
</svg>
