<svg width="318" height="40" viewBox="0 0 318 40" fill="none" xmlns="http://www.w3.org/2000/svg">
<path d="M127.692 22.2781C128.566 18.5099 131.376 16.8694 134.606 16.8694C137.836 16.8694 141.002 18.4983 141.428 22.2781H127.692ZM145.76 34.1855L146.221 28.9994C138.629 33.1775 129.254 33.7634 127.831 26.4503H147.002V24.1354C146.769 16.2595 140.78 12.3687 134.606 12.3687C128.292 12.3687 122.117 16.4002 122.117 24.5981C122.117 37.0096 135.387 39.5535 145.76 34.1855ZM99.8042 22.2781C100.679 18.5099 103.489 16.8694 106.719 16.8694C109.943 16.8694 113.115 18.4983 113.541 22.2781H99.8042ZM117.867 34.1855L118.327 28.9994C110.737 33.1775 101.361 33.7634 99.9382 26.4503H119.109V24.1354C118.876 16.2595 112.888 12.3687 106.714 12.3687C100.399 12.3687 94.2243 16.4002 94.2243 24.5981C94.2243 37.0096 107.501 39.5535 117.867 34.1855ZM156.401 2.73488H151.1V36.1777H156.401V25.8934C158.43 25.8934 159.998 25.8934 161.607 27.3757C163.863 29.6906 165.525 32.6554 167.047 36.1771H173.128C171.653 31.4537 167 24.0883 162.068 24.0883V23.3913C166.126 23.3913 171.099 16.9978 172.435 13.0192H166.86C165.572 15.7968 163.863 18.346 161.514 20.4317C159.945 21.9141 158.056 21.8676 156.401 21.8676V2.73488ZM183.238 18.0646V9.45042H191.074C195.266 9.45042 196.882 11.5833 196.882 13.7575C196.882 15.8904 195.266 18.0646 191.074 18.0646H183.238ZM183.238 31.3079V22.6937H192.363C196.555 22.6937 198.17 24.8266 198.17 27.0008C198.17 29.1337 196.468 31.3079 192.27 31.3079H183.238ZM192.223 4.5864H177.705V36.1712H193.605C200.38 36.1712 203.79 32.3269 203.79 27.6978C203.79 23.6191 200.84 20.7067 195.82 20.3788V19.6405C200.613 18.7616 202.409 15.7497 202.409 12.603C202.409 8.33719 199.091 4.5864 192.223 4.5864ZM207.866 13.0134V36.1719H213.166V20.6137C215.148 18.6215 217.725 17.9297 221.923 17.9297H224.046L223.632 12.603H221.929C218.425 12.603 215.107 14.1325 213.819 17.3263H213.172V13.0134H207.866ZM230.506 24.5923C230.506 19.4999 233.38 16.9042 237.252 16.9042C240.382 16.9042 242.569 17.8768 244.505 19.8696V29.3157C242.569 31.3079 240.382 32.2811 237.252 32.2811C233.386 32.2811 230.506 29.6906 230.506 24.5923ZM244.51 13.0134V16.3944H243.91C241.834 13.6639 239.421 12.2751 235.87 12.2751C228.634 12.2751 225.019 18.1582 225.019 24.5923C225.019 31.0265 228.634 36.9102 235.87 36.9102C239.421 36.9102 241.834 35.5214 243.91 32.7909H244.51V36.1719H249.811V13.0134H244.51ZM256.189 36.1719H261.489V13.0134H256.189V36.1719ZM258.865 10.0545C261.075 10.0545 262.55 8.57209 262.55 6.35079C262.55 4.12949 261.075 2.64711 258.865 2.64711C256.655 2.64711 255.18 4.12949 255.18 6.35079C255.174 8.57145 256.649 10.0545 258.865 10.0545ZM273.173 13.0134H267.874V36.1719H273.173V19.8696C275.109 17.971 277.249 16.9042 279.826 16.9042C282.636 16.9042 285.283 18.4808 285.283 23.2035V36.1719H290.583V22.0025C290.583 16.0253 287.796 12.2751 282.041 12.2751C278.91 12.2751 275.756 13.6168 273.68 16.5822H273.173V13.0134ZM295.032 19.7348C295.032 23.854 298.856 25.4771 301.806 26.1276L308.581 27.5635C310.791 28.0262 311.806 28.6768 311.806 29.7842C311.806 31.4544 309.503 32.2398 306.139 32.2398C302.174 32.2398 297.615 30.7103 295.078 29.3215L295.539 34.5546C298.489 36.0841 302.314 36.916 305.859 36.916C312.447 36.916 317.333 34.7418 317.333 29.5499C317.333 25.3364 313.829 23.7605 309.73 22.8815L303.556 21.5863C301.62 21.17 300.559 20.5195 300.559 19.4121C300.559 17.8355 302.634 17.0036 305.952 17.0036C309.683 17.0036 313.695 18.3924 315.811 19.5528L315.351 14.3196C312.814 13.0244 309.544 12.2803 306.226 12.2803C300.197 12.2745 295.032 14.408 295.032 19.7348ZM74.9313 18.7267V23.8076H84.7617V29.4977C82.1086 31.0388 79.3686 31.7422 76.7625 31.7422C70.5295 31.7422 64.8626 27.6752 64.8626 20.4324C64.8626 13.1896 70.5353 9.12258 76.7625 9.12258C80.7618 9.12258 85.018 10.7456 88.8782 14.0156L88.3069 7.55244C84.5749 5.09687 80.4706 3.93653 76.1384 3.93653C67.4744 3.93653 58.9967 9.7731 58.9967 20.4266C58.9967 31.0801 67.4744 36.9166 76.1384 36.9166C80.4706 36.9166 84.9891 35.9441 90.1026 32.1468V18.7267H74.9313ZM17.8413 3.76486L17.4658 0.349013C12.425 -1.19725 7.05058 2.64195 3.78173 6.99227C1.91574 9.52012 0.372456 12.3248 1.96276 14.8527C-0.654254 17.2863 -0.654254 22.6659 1.96276 25.1467C0.372456 27.6745 1.91574 30.4792 3.78173 33.0071C6.96234 37.2167 11.0228 39.9795 15.2237 39.9795C19.5656 39.9795 23.0689 36.3758 23.0689 31.9777V28.6561C23.0689 26.4103 22.2297 25.146 20.593 23.4178L18.117 20.7486C18.164 20.5137 18.164 20.3253 18.164 20.0962C18.164 18.2737 16.8552 16.9623 15.0362 16.9623C13.3113 16.9623 11.9555 18.2737 11.9555 20.0962C11.9555 21.7366 13.3107 23.0887 15.0362 23.0887C15.2707 23.0887 15.4588 23.0415 15.5934 23.0415L18.1634 25.7578C19.1431 26.8336 19.6126 27.6274 19.6126 28.9388V31.9784C19.6126 35.7705 16.5319 37.3574 13.1232 36.0938C10.8347 35.2529 8.49918 33.5188 6.35172 30.7141C4.43872 28.045 4.85545 26.7872 5.92918 26.0347C6.86185 25.4765 7.84219 25.5642 9.52589 27.6752C9.43765 27.9514 9.39063 28.2805 9.39063 28.6096C9.39063 30.3379 10.7929 31.7435 12.4714 31.7435C14.1499 31.7435 15.5052 30.3385 15.5052 28.6096C15.5052 26.9285 14.1499 25.5229 12.4714 25.5229H12.2369C10.2299 22.948 7.80097 21.1726 4.43872 22.948C3.22393 21.8722 3.41201 18.033 4.43872 17.0514C7.80097 18.8267 10.2299 17.0514 12.2369 14.4764H12.4714C14.1493 14.4764 15.5052 13.0715 15.5052 11.3897C15.5052 9.66145 14.1499 8.25587 12.4714 8.25587C10.7929 8.25587 9.39063 9.66081 9.39063 11.3897C9.38787 11.7067 9.43548 12.0222 9.53169 12.3242C7.85378 14.4287 6.86765 14.5229 5.93498 13.9647C4.86125 13.218 4.43872 11.9537 6.35752 9.28521C9.01575 5.82225 13.5934 2.03661 17.8413 3.76486ZM23.2982 36.2351L23.6737 39.651C28.7139 41.1973 34.089 37.358 37.3572 33.0077C39.2232 30.4799 40.7665 27.6752 39.1762 25.1473C41.7932 22.7131 41.7932 17.334 39.1762 14.8533C40.7665 12.3255 39.2232 9.52076 37.3572 6.99292C34.1772 2.78264 30.1168 0.0256915 25.9152 0.0256915C21.5733 0.0256915 18.07 3.62934 18.07 8.02742V11.349C18.07 13.5949 18.9093 14.8591 20.5459 16.5874L23.0219 19.2566C22.9749 19.4915 22.9749 19.6799 22.9749 19.909C22.9749 21.7315 24.2837 23.0428 26.102 23.0428C27.827 23.0428 29.1828 21.7315 29.1828 19.909C29.1828 18.2685 27.8276 16.9165 26.102 16.9165C25.8676 16.9165 25.6795 16.9636 25.5449 16.9636L22.9749 14.2473C21.9952 13.1715 21.5256 12.3777 21.5256 11.067V8.02742C21.5256 4.23533 24.6064 2.64776 28.0157 3.912C30.3042 4.7529 32.6397 6.48696 34.7872 9.29166C36.7002 11.9608 36.2835 13.2186 35.2097 13.9711C34.2771 14.5293 33.2967 14.4416 31.613 12.3306C31.7091 12.0286 31.7567 11.7132 31.7541 11.3962C31.7541 9.6679 30.3519 8.26233 28.6733 8.26233C26.9948 8.26233 25.6396 9.66726 25.6396 11.3962C25.6396 13.0773 26.9948 14.4829 28.6733 14.4829H28.9078C30.9148 17.0578 33.3438 18.8332 36.706 17.0578C37.9208 18.1336 37.7327 21.9728 36.706 22.9544C33.3438 21.1791 30.9148 22.9544 28.9078 25.5294H28.6733C26.9948 25.5294 25.6396 26.9343 25.6396 28.6161C25.6396 30.3444 26.9948 31.7499 28.6733 31.7499C30.3519 31.7499 31.7541 30.345 31.7541 28.6161C31.7567 28.2991 31.7091 27.9837 31.613 27.6816C33.2909 25.5771 34.2771 25.4829 35.2097 26.0411C36.2835 26.7878 36.706 28.0521 34.7872 30.7212C32.1232 34.1784 27.5461 37.9634 23.2982 36.2351Z" fill="white"/>
</svg>
