<svg width="255" height="60" viewBox="0 0 255 60" fill="none" xmlns="http://www.w3.org/2000/svg">
<path d="M68.4965 9.38924L39.4118 0.670549C36.5402 -0.223516 33.4478 -0.223516 30.5021 0.670549L1.49114 9.38924C-0.497048 9.98545 -0.497048 12.8916 1.49114 13.4879L30.5758 22.2066C33.4474 23.1007 36.5398 23.1007 39.4855 22.2066L64.3731 14.7547V21.3869C63.8574 21.6847 63.4896 22.2066 63.4896 22.8029V24.5915C63.4896 25.262 63.8579 25.8582 64.447 26.0817L62.9005 29.7332C62.6796 30.2551 62.9739 30.7765 63.563 30.8508L65.183 31H66.1403L67.7602 30.8508C68.2759 30.7765 68.5702 30.2546 68.4228 29.7332L66.8763 26.0817C67.4654 25.7838 67.8336 25.262 67.8336 24.5915V22.8029C67.8336 22.2067 67.4654 21.6853 66.9502 21.3869V14.0094L68.5701 13.4875C70.4844 12.8175 70.4844 9.98567 68.4962 9.38939L68.4965 9.38924Z" fill="#8A48F5"/>
<path d="M11.0739 20.9307C10.4216 21.9826 9.84396 23.0907 9.34103 24.255C8.04467 27.3633 7.39648 30.7542 7.39648 34.4276C7.39648 38.1011 8.04467 41.4919 9.34103 44.6002C10.6837 47.7085 12.5357 50.4165 14.8969 52.7242C17.3044 55.0319 20.1287 56.8215 23.3696 58.0931C26.6568 59.3646 30.2218 60.0004 34.0646 60.0004C37.8611 60.0004 41.3566 59.3646 44.5513 58.0931C47.7922 56.8215 50.5933 55.0554 52.9545 52.7948C55.362 50.4872 57.2371 47.7792 58.5798 44.6709C59.9225 41.5155 60.5938 38.1011 60.5938 34.4276C60.5938 30.7071 59.9225 27.3162 58.5798 24.255C58.0832 23.1053 57.5137 22.0104 56.8714 20.9703L45.948 24.268C46.8043 25.3803 47.4961 26.624 48.0237 27.9991C48.8108 29.93 49.2043 32.0728 49.2043 34.4276C49.2043 36.7824 48.8108 38.9252 48.0237 40.8561C47.2829 42.7871 46.218 44.4589 44.8291 45.8718C43.4401 47.2847 41.8196 48.3679 39.9677 49.1214C38.162 49.8749 36.1712 50.2517 33.9951 50.2517C31.8191 50.2517 29.8051 49.8749 27.9531 49.1214C26.1012 48.3679 24.4807 47.2847 23.0918 45.8718C21.7491 44.4589 20.6842 42.7871 19.8972 40.8561C19.1564 38.8781 18.786 36.7353 18.786 34.4276C18.786 32.0728 19.1564 29.93 19.8972 27.9991C20.4609 26.616 21.1791 25.3659 22.0516 24.2486L11.0739 20.9307Z" fill="#8A48F5"/>
<path d="M33.9978 40.918C34.4446 40.918 34.8914 41.0278 35.247 41.2382L37.9734 42.8577C38.7667 43.3335 39.2682 43.3335 39.4597 43.1963C39.6512 43.059 39.788 42.5741 39.5874 41.6774L38.94 38.8684C38.7667 38.109 39.0494 37.1299 39.5965 36.5718L41.8579 34.3026C42.3047 33.8543 42.5053 33.4151 42.4141 33.1132C42.3138 32.8112 41.8943 32.5642 41.2743 32.4635L38.3655 31.9786C37.6634 31.8596 36.8974 31.2923 36.5783 30.6519L34.9734 27.4311C34.6816 26.8455 34.3169 26.4978 33.9978 26.4978C33.6786 26.4978 33.3139 26.8455 33.0312 27.4311L31.4172 30.6519C31.0981 31.2923 30.3321 31.8596 29.63 31.9786L26.7304 32.4635C26.1103 32.5642 25.6908 32.8112 25.5905 33.1132C25.4902 33.4151 25.7 33.8634 26.1468 34.3026L28.4081 36.5718C28.9553 37.1208 29.2379 38.109 29.0647 38.8684L28.4173 41.6774C28.2075 42.5832 28.3534 43.059 28.5449 43.1963C28.7364 43.3335 29.2288 43.3244 30.0312 42.8577L32.7577 41.2382C33.1042 41.0278 33.551 40.918 33.9978 40.918Z" fill="#8A48F5"/>
<path fill-rule="evenodd" clip-rule="evenodd" d="M39.1588 44.6511C38.6755 44.6511 38.0555 44.4955 37.2804 44.0381L34.554 42.4185C34.2713 42.2538 33.7242 42.2538 33.4507 42.4185L30.7151 44.0381C29.1011 44.9988 28.1528 44.6145 27.7243 44.3034C27.3048 43.9923 26.6483 43.1963 27.0769 41.3663L27.7243 38.5573C27.7972 38.2645 27.6513 37.7613 27.4325 37.5417L25.1711 35.2725C24.0404 34.1379 24.1316 33.1681 24.2866 32.6923C24.4416 32.2165 24.934 31.3747 26.5024 31.1093L29.4112 30.6244C29.6847 30.5787 30.0768 30.2859 30.1954 30.0388L31.8093 26.8089C32.5388 25.3358 33.4962 25.1162 33.9978 25.1162C34.4993 25.1162 35.4567 25.3358 36.1862 26.8089L37.791 30.0297C37.9187 30.2767 38.3108 30.5695 38.5843 30.6153L41.4931 31.1002C43.0706 31.3655 43.563 32.2073 43.7089 32.6831C43.8548 33.1589 43.946 34.1288 42.8244 35.2634L40.563 37.5417C40.3442 37.7613 40.2074 38.2554 40.2713 38.5573L40.9187 41.3663C41.3381 43.1963 40.6907 43.9923 40.2713 44.3034C40.0433 44.4681 39.6786 44.6511 39.1588 44.6511ZM35.247 41.2382C34.8914 41.0278 34.4446 40.918 33.9978 40.918C33.551 40.918 33.1042 41.0278 32.7577 41.2382L30.0312 42.8577C29.2288 43.3244 28.7364 43.3335 28.5449 43.1963C28.3534 43.059 28.2075 42.5832 28.4173 41.6774L29.0647 38.8684C29.2379 38.109 28.9553 37.1208 28.4081 36.5718L26.1468 34.3026C25.7 33.8634 25.4902 33.4151 25.5905 33.1132C25.6908 32.8112 26.1103 32.5642 26.7304 32.4635L29.63 31.9786C30.3321 31.8596 31.0981 31.2923 31.4172 30.6519L33.0312 27.4311C33.3139 26.8455 33.6786 26.4978 33.9978 26.4978C34.3169 26.4978 34.6816 26.8455 34.9734 27.4311L36.5783 30.6519C36.8974 31.2923 37.6634 31.8596 38.3655 31.9786L41.2743 32.4635C41.8943 32.5642 42.3138 32.8112 42.4141 33.1132C42.5053 33.4151 42.3047 33.8543 41.8579 34.3026L39.5965 36.5718C39.0494 37.1299 38.7667 38.109 38.94 38.8684L39.5874 41.6774C39.788 42.5741 39.6512 43.059 39.4597 43.1963C39.2682 43.3335 38.7667 43.3335 37.9734 42.8577L35.247 41.2382Z" fill="#8A48F5"/>
<path d="M79.2171 44V27.052L80.5471 28.42H72.3011V23.556H92.0231V28.42H83.7771L85.1071 27.052V44H79.2171ZM101.876 44.38C103.802 44.38 105.524 44.1267 107.044 43.62C108.59 43.088 109.806 42.3407 110.692 41.378C111.604 40.39 112.06 39.2373 112.06 37.92C112.06 36.3747 111.414 35.1587 110.122 34.272C108.83 33.36 107.057 32.904 104.802 32.904L104.65 34.082C105.942 34.082 107.108 33.8667 108.146 33.436C109.185 32.98 109.996 32.3593 110.578 31.574C111.186 30.7887 111.49 29.902 111.49 28.914C111.49 27.6727 111.047 26.6213 110.16 25.76C109.299 24.8987 108.108 24.24 106.588 23.784C105.068 23.328 103.358 23.1253 101.458 23.176C100.166 23.2013 98.8617 23.3787 97.5444 23.708C96.227 24.0373 94.897 24.4807 93.5544 25.038L94.9984 29.142C96.1384 28.686 97.253 28.344 98.3424 28.116C99.4317 27.8627 100.483 27.736 101.496 27.736C102.383 27.736 103.118 27.8247 103.7 28.002C104.283 28.154 104.726 28.382 105.03 28.686C105.334 28.99 105.486 29.3573 105.486 29.788C105.486 30.1933 105.36 30.548 105.106 30.852C104.878 31.1307 104.524 31.346 104.042 31.498C103.561 31.65 102.978 31.726 102.294 31.726H98.6084V35.412H102.788C103.852 35.412 104.663 35.5893 105.22 35.944C105.778 36.2733 106.056 36.7673 106.056 37.426C106.056 37.9327 105.879 38.3633 105.524 38.718C105.17 39.0727 104.65 39.3513 103.966 39.554C103.308 39.7313 102.522 39.82 101.61 39.82C100.344 39.82 99.0897 39.6933 97.8484 39.44C96.6324 39.1613 95.505 38.7687 94.4664 38.262L92.8704 42.404C94.1877 43.0627 95.619 43.5567 97.1644 43.886C98.735 44.2153 100.306 44.38 101.876 44.38ZM137.35 44V23.556H143.24V44H137.35ZM127.052 30.092C129.738 30.1173 131.752 30.7253 133.094 31.916C134.462 33.0813 135.146 34.7407 135.146 36.894C135.146 39.1487 134.374 40.9093 132.828 42.176C131.283 43.4173 129.092 44.038 126.254 44.038L116.298 44V23.556H122.188V30.092H127.052ZM125.722 39.82C126.862 39.8453 127.736 39.6047 128.344 39.098C128.952 38.5913 129.256 37.8313 129.256 36.818C129.256 35.8047 128.952 35.0827 128.344 34.652C127.736 34.196 126.862 33.9553 125.722 33.93L122.188 33.892V39.82H125.722ZM148.954 44V23.556H159.404C161.963 23.556 163.964 24.0247 165.408 24.962C166.852 25.874 167.574 27.166 167.574 28.838C167.574 30.51 166.89 31.8273 165.522 32.79C164.18 33.7273 162.394 34.196 160.164 34.196L160.772 32.828C163.255 32.828 165.104 33.284 166.32 34.196C167.562 35.108 168.182 36.438 168.182 38.186C168.182 39.9847 167.498 41.4033 166.13 42.442C164.762 43.4807 162.672 44 159.86 44H148.954ZM154.388 39.972H159.366C160.456 39.972 161.266 39.7947 161.798 39.44C162.356 39.06 162.634 38.49 162.634 37.73C162.634 36.9447 162.381 36.3747 161.874 36.02C161.368 35.64 160.57 35.45 159.48 35.45H154.388V39.972ZM154.388 31.954H158.872C159.911 31.954 160.684 31.764 161.19 31.384C161.722 31.004 161.988 30.4593 161.988 29.75C161.988 29.0153 161.722 28.4707 161.19 28.116C160.684 27.7613 159.911 27.584 158.872 27.584H154.388V31.954ZM193.645 44V23.556H199.535V44H193.645ZM183.347 30.092C186.032 30.1173 188.046 30.7253 189.389 31.916C190.757 33.0813 191.441 34.7407 191.441 36.894C191.441 39.1487 190.668 40.9093 189.123 42.176C187.578 43.4173 185.386 44.038 182.549 44.038L172.593 44V23.556H178.483V30.092H183.347ZM182.017 39.82C183.157 39.8453 184.031 39.6047 184.639 39.098C185.247 38.5913 185.551 37.8313 185.551 36.818C185.551 35.8047 185.247 35.0827 184.639 34.652C184.031 34.196 183.157 33.9553 182.017 33.93L178.483 33.892V39.82H182.017ZM207.377 44.304C206.364 44.304 205.49 43.962 204.755 43.278C204.046 42.5687 203.691 41.6693 203.691 40.58C203.691 39.4907 204.046 38.6167 204.755 37.958C205.49 37.274 206.364 36.932 207.377 36.932C208.416 36.932 209.29 37.274 209.999 37.958C210.709 38.6167 211.063 39.4907 211.063 40.58C211.063 41.6693 210.709 42.5687 209.999 43.278C209.29 43.962 208.416 44.304 207.377 44.304ZM215.081 44V23.556H220.743V29.332L219.945 27.66C220.553 26.216 221.528 25.1267 222.871 24.392C224.213 23.632 225.847 23.252 227.773 23.252V28.724C227.519 28.6987 227.291 28.686 227.089 28.686C226.886 28.6607 226.671 28.648 226.443 28.648C224.821 28.648 223.504 29.1167 222.491 30.054C221.503 30.966 221.009 32.3973 221.009 34.348V44H215.081ZM240.072 44.304C238.375 44.304 236.855 43.9747 235.512 43.316C234.195 42.6573 233.169 41.6567 232.434 40.314C231.699 38.946 231.332 37.2107 231.332 35.108V23.556H237.26V34.234C237.26 35.9313 237.615 37.1853 238.324 37.996C239.059 38.7813 240.085 39.174 241.402 39.174C242.314 39.174 243.125 38.984 243.834 38.604C244.543 38.1987 245.101 37.5907 245.506 36.78C245.911 35.944 246.114 34.9053 246.114 33.664V23.556H252.042V44H246.418V38.376L247.444 40.01C246.76 41.4287 245.747 42.5053 244.404 43.24C243.087 43.9493 241.643 44.304 240.072 44.304Z" fill="#212121"/>
</svg>
