<svg width="30" height="31" viewBox="0 0 30 31" fill="none" xmlns="http://www.w3.org/2000/svg">
<path fill-rule="evenodd" clip-rule="evenodd" d="M15 30.5C23.2843 30.5 30 23.7843 30 15.5C30 7.21574 23.2843 0.5 15 0.5C6.71574 0.5 0 7.21574 0 15.5C0 23.7843 6.71574 30.5 15 30.5ZM19.0388 11.576C19.0388 13.8824 17.1692 15.752 14.8628 15.752C12.5564 15.752 10.6868 13.8824 10.6868 11.576C10.6868 9.26966 12.5564 7.4 14.8628 7.4C17.1692 7.4 19.0388 9.26966 19.0388 11.576ZM16.9172 11.576C16.9172 10.4413 15.9975 9.52157 14.8628 9.52157C13.7281 9.52157 12.8084 10.4416 12.8084 11.576C12.8084 12.7107 13.7281 13.6305 14.8628 13.6305C15.9975 13.6305 16.9172 12.7107 16.9172 11.576ZM17.9197 16.0777C18.7877 15.3938 19.4405 15.7878 19.6763 16.2615C20.0874 17.0873 19.6231 17.4865 18.575 18.1593C17.6873 18.7292 16.4705 18.9448 15.6755 19.0268L16.3407 19.6917L18.8015 22.1525C19.1753 22.5265 19.1755 23.1327 18.8015 23.5067L18.6887 23.6195C18.3147 23.9935 17.7083 23.9935 17.3345 23.6195L14.8737 21.1587L12.4129 23.6195C12.0388 23.9933 11.4326 23.9935 11.0586 23.6195L10.9459 23.5067C10.5718 23.1327 10.5718 22.5262 10.9459 22.1525L13.4066 19.6917L14.0696 19.0287C13.2752 18.9483 12.0452 18.7336 11.1501 18.159C10.102 17.4862 9.63774 17.0873 10.0488 16.2615C10.2846 15.7878 10.9377 15.3938 11.8054 16.0777C12.9783 17.0019 14.8625 17.0019 14.8625 17.0019C14.8625 17.0019 16.7468 17.0019 17.9197 16.0777Z" fill="#433FEA"/>
</svg>
