<svg width="150" height="45" viewBox="0 0 150 45" fill="none" xmlns="http://www.w3.org/2000/svg">
<path d="M25.125 16.0029H28.3393V20.9984H33.8426V16.0029H37.0569V28.9181H33.8426V23.6789H28.3393V28.9181H25.125V16.0029Z" fill="black"/>
<path d="M45.8319 29.2109C44.9553 29.2109 44.1193 29.081 43.3237 28.821C42.5445 28.5449 41.8627 28.1387 41.2783 27.6026C40.6938 27.0503 40.2311 26.3598 39.8902 25.5313C39.5493 24.6866 39.3789 23.7037 39.3789 22.5828V22.0954C39.3789 21.0232 39.5413 20.0891 39.8658 19.2931C40.1906 18.497 40.637 17.8391 41.2052 17.3192C41.7735 16.7831 42.4308 16.3851 43.1777 16.1252C43.9245 15.849 44.7279 15.7109 45.5883 15.7109C47.6177 15.7109 49.1598 16.247 50.2151 17.3192C51.2703 18.3914 51.798 19.9429 51.798 21.9736V23.3382H42.6663C42.6825 23.9068 42.78 24.4023 42.9585 24.8247C43.137 25.2308 43.3725 25.5638 43.6646 25.8237C43.9569 26.0837 44.2897 26.2786 44.663 26.4086C45.0527 26.5223 45.4423 26.5792 45.8319 26.5792C46.6599 26.5792 47.2848 26.4573 47.7069 26.2136C48.129 25.97 48.4293 25.6125 48.6078 25.1414H51.5544C51.2947 26.4898 50.6535 27.5052 49.6307 28.1875C48.6078 28.8698 47.3417 29.2109 45.8319 29.2109ZM45.7102 18.3427C45.3367 18.3427 44.9634 18.3914 44.5901 18.4889C44.2329 18.5864 43.9162 18.7407 43.6402 18.9519C43.3644 19.1631 43.137 19.4474 42.9585 19.8048C42.78 20.1622 42.6825 20.5927 42.6663 21.0963H48.681C48.6647 20.5602 48.5754 20.1135 48.413 19.7561C48.267 19.3986 48.056 19.1144 47.78 18.9032C47.5202 18.692 47.2117 18.5458 46.8547 18.4645C46.4975 18.3833 46.116 18.3427 45.7102 18.3427Z" fill="black"/>
<path d="M57.0166 18.6834H52.9014V16.0029H64.3462V18.6834H60.2309V28.9181H57.0166V18.6834Z" fill="black"/>
<path d="M71.8944 29.2109C71.0177 29.2109 70.1816 29.081 69.3862 28.821C68.607 28.5449 67.9252 28.1306 67.3408 27.5783C66.7563 27.0259 66.2936 26.3355 65.9527 25.507C65.6118 24.6784 65.4414 23.7037 65.4414 22.5828V22.0954C65.4414 21.0394 65.6118 20.1135 65.9527 19.3174C66.2936 18.5214 66.7563 17.8553 67.3408 17.3192C67.9252 16.7831 68.607 16.3851 69.3862 16.1252C70.1816 15.849 71.0177 15.7109 71.8944 15.7109C72.771 15.7109 73.599 15.849 74.3782 16.1252C75.1575 16.3851 75.8392 16.7831 76.4237 17.3192C77.0244 17.8553 77.495 18.5214 77.8361 19.3174C78.177 20.1135 78.3474 21.0394 78.3474 22.0954V22.5828C78.3474 23.6875 78.177 24.6541 77.8361 25.4826C77.495 26.3111 77.0244 27.0015 76.4237 27.5539C75.8392 28.1062 75.1575 28.5205 74.3782 28.7967C73.599 29.0728 72.771 29.2109 71.8944 29.2109ZM71.8944 26.4817C72.8034 26.4817 73.5583 26.1568 74.159 25.507C74.7759 24.8572 75.0843 23.8824 75.0843 22.5828V22.0954C75.0843 20.9095 74.7759 20.0079 74.159 19.3905C73.5583 18.757 72.8034 18.4402 71.8944 18.4402C70.9691 18.4402 70.206 18.757 69.6054 19.3905C69.0047 20.0079 68.7045 20.9095 68.7045 22.0954V22.5828C68.7045 23.8987 69.0047 24.8815 69.6054 25.5313C70.206 26.1649 70.9691 26.4817 71.8944 26.4817Z" fill="black"/>
<path d="M80.5356 29.2105C80.4056 29.2105 80.2435 29.2024 80.0487 29.1861C79.8538 29.1861 79.6915 29.1699 79.5615 29.1374V26.2376C79.6427 26.2538 79.7646 26.262 79.9268 26.262C80.2352 26.262 80.5032 26.1726 80.7304 25.9939C80.9577 25.799 81.1444 25.4741 81.2905 25.0192C81.4528 24.5643 81.5665 23.9632 81.6313 23.2159C81.7125 22.4524 81.7532 21.5102 81.7532 20.3892V16.0029H91.9806V28.9181H88.7663V18.6834H84.724V20.8766C84.724 22.5499 84.6347 23.9307 84.4562 25.0192C84.2938 26.0914 84.034 26.9361 83.677 27.5535C83.3359 28.1708 82.8977 28.6013 82.362 28.845C81.8425 29.0887 81.2336 29.2105 80.5356 29.2105Z" fill="black"/>
<path d="M100.74 29.2109C99.8635 29.2109 99.0275 29.081 98.2321 28.821C97.4529 28.5449 96.7709 28.1306 96.1865 27.5783C95.602 27.0259 95.1395 26.3355 94.7986 25.507C94.4575 24.6784 94.2871 23.7037 94.2871 22.5828V22.0954C94.2871 21.0394 94.4575 20.1135 94.7986 19.3174C95.1395 18.5214 95.602 17.8553 96.1865 17.3192C96.7709 16.7831 97.4529 16.3851 98.2321 16.1252C99.0275 15.849 99.8635 15.7109 100.74 15.7109C101.617 15.7109 102.445 15.849 103.224 16.1252C104.003 16.3851 104.685 16.7831 105.27 17.3192C105.87 17.8553 106.341 18.5214 106.682 19.3174C107.023 20.1135 107.193 21.0394 107.193 22.0954V22.5828C107.193 23.6875 107.023 24.6541 106.682 25.4826C106.341 26.3111 105.87 27.0015 105.27 27.5539C104.685 28.1062 104.003 28.5205 103.224 28.7967C102.445 29.0728 101.617 29.2109 100.74 29.2109ZM100.74 26.4817C101.649 26.4817 102.404 26.1568 103.005 25.507C103.622 24.8572 103.93 23.8824 103.93 22.5828V22.0954C103.93 20.9095 103.622 20.0079 103.005 19.3905C102.404 18.757 101.649 18.4402 100.74 18.4402C99.8148 18.4402 99.0519 18.757 98.4513 19.3905C97.8505 20.0079 97.5502 20.9095 97.5502 22.0954V22.5828C97.5502 23.8987 97.8505 24.8815 98.4513 25.5313C99.0519 26.1649 99.8148 26.4817 100.74 26.4817Z" fill="black"/>
<path d="M109.741 16.0029H118.995V18.6834H112.956V28.9181H109.741V16.0029Z" fill="black"/>
<path d="M120.937 16.0029H124.151V24.2881L129.898 16.0029H132.868V28.9181H129.654V20.6329L123.907 28.9181H120.937V16.0029Z" fill="black"/>
<path d="M138.404 24.0688C137.414 23.7439 136.692 23.2566 136.237 22.6067C135.783 21.9569 135.555 21.1934 135.555 20.3161C135.555 19.6825 135.661 19.1058 135.872 18.586C136.099 18.0499 136.432 17.595 136.87 17.2213C137.309 16.8315 137.861 16.5309 138.526 16.3197C139.208 16.1085 140.003 16.0029 140.913 16.0029H147V28.9181H143.786V24.4587H141.473L138.672 28.9181H135.068L138.404 24.0688ZM138.77 20.3161C138.77 20.8685 138.948 21.2746 139.305 21.5345C139.679 21.7944 140.174 21.9244 140.791 21.9244H143.786V18.6834H140.791C140.174 18.6834 139.679 18.8215 139.305 19.0977C138.948 19.3576 138.77 19.7638 138.77 20.3161Z" fill="black"/>
<path fill-rule="evenodd" clip-rule="evenodd" d="M4.15483 22.6999C4.05221 22.6917 3.94847 22.6875 3.84375 22.6875C1.7209 22.6875 0 24.4084 0 26.5312C0 28.6541 1.7209 30.375 3.84375 30.375C5.96659 30.375 7.6875 28.6541 7.6875 26.5312C7.6875 26.3683 7.67736 26.2077 7.65767 26.0501C5.83997 25.9045 4.37891 24.4944 4.15483 22.6999Z" fill="#5D00F5"/>
<path fill-rule="evenodd" clip-rule="evenodd" d="M7.6875 18.0937C7.6875 15.9709 5.96659 14.25 3.84375 14.25C1.7209 14.25 2.109e-07 15.9709 0 18.0937C-3.81868e-07 20.2166 1.7209 21.9375 3.84375 21.9375C3.94206 21.9375 4.0395 21.9338 4.13593 21.9266C4.278 20.0367 5.78666 18.528 7.67657 18.3859C7.68381 18.2895 7.6875 18.1921 7.6875 18.0937Z" fill="#EB236B"/>
<path fill-rule="evenodd" clip-rule="evenodd" d="M11.8001 21.9077C11.9577 21.9274 12.1183 21.9375 12.2812 21.9375C14.4041 21.9375 16.125 20.2166 16.125 18.0937C16.125 15.9709 14.4041 14.25 12.2812 14.25C10.1584 14.25 8.4375 15.9709 8.4375 18.0937C8.4375 18.1985 8.44168 18.3022 8.44991 18.4048C10.2444 18.6289 11.6545 20.09 11.8001 21.9077Z" fill="#4BD0A0"/>
<path fill-rule="evenodd" clip-rule="evenodd" d="M8.46986 26.0301C8.44851 26.1941 8.4375 26.3614 8.4375 26.5312C8.4375 28.6541 10.1584 30.375 12.2812 30.375C14.4041 30.375 16.125 28.6541 16.125 26.5312C16.125 24.4084 14.4041 22.6875 12.2812 22.6875C12.1114 22.6875 11.9441 22.6985 11.7801 22.7199C11.5559 24.4419 10.1919 25.8059 8.46986 26.0301Z" fill="#0066FF"/>
</svg>
