<svg width="268" height="80" viewBox="0 0 268 80" fill="none" xmlns="http://www.w3.org/2000/svg">
<path d="M44.8899 28.4492H50.6328V37.3301H60.4654V28.4492H66.2083V51.4095H60.4654V42.0955H50.6328V51.4095H44.8899V28.4492Z" fill="black"/>
<path d="M81.8863 51.9307C80.3202 51.9307 78.8264 51.6996 77.405 51.2375C76.0127 50.7465 74.7947 50.0245 73.7505 49.0715C72.7063 48.0895 71.8795 46.8621 71.2705 45.3891C70.6615 43.8873 70.3569 42.14 70.3569 40.1473V39.2808C70.3569 37.3747 70.647 35.714 71.2269 34.2989C71.8071 32.8837 72.6048 31.714 73.6198 30.7899C74.6352 29.8368 75.8097 29.1292 77.144 28.6671C78.4783 28.1761 79.9138 27.9307 81.4511 27.9307C85.0768 27.9307 87.8322 28.8837 89.7176 30.7899C91.603 32.696 92.5457 35.4541 92.5457 39.0642V41.4902H76.2305C76.2593 42.5011 76.4335 43.3819 76.7524 44.1328C77.0713 44.8548 77.4921 45.4469 78.014 45.909C78.5363 46.3711 79.1309 46.7177 79.7979 46.9487C80.494 47.1509 81.1902 47.252 81.8863 47.252C83.3657 47.252 84.4822 47.0353 85.2363 46.6021C85.9904 46.1689 86.5271 45.5335 86.846 44.696H92.1105C91.6465 47.0931 90.5008 48.8982 88.6734 50.1112C86.846 51.3242 84.5837 51.9307 81.8863 51.9307ZM81.6689 32.6094C81.0016 32.6094 80.3346 32.696 79.6676 32.8693C79.0294 33.0426 78.4636 33.3169 77.9705 33.6924C77.4777 34.0678 77.0713 34.5733 76.7524 35.2086C76.4335 35.844 76.2593 36.6094 76.2305 37.5047H86.9766C86.9475 36.5516 86.788 35.7574 86.4979 35.122C86.2369 34.4866 85.8601 33.9812 85.3669 33.6057C84.9026 33.2303 84.3516 32.9704 83.7137 32.826C83.0755 32.6816 82.3938 32.6094 81.6689 32.6094Z" fill="black"/>
<path d="M101.87 33.2146H94.5171V28.4492H114.965V33.2146H107.613V51.4095H101.87V33.2146Z" fill="black"/>
<path d="M128.451 51.9307C126.885 51.9307 125.391 51.6996 123.97 51.2375C122.578 50.7465 121.36 50.0101 120.315 49.0281C119.271 48.0462 118.444 46.8187 117.835 45.3458C117.226 43.8729 116.922 42.14 116.922 40.1473V39.2808C116.922 37.4036 117.226 35.7574 117.835 34.3422C118.444 32.927 119.271 31.7429 120.315 30.7899C121.36 29.8368 122.578 29.1292 123.97 28.6671C125.391 28.1761 126.885 27.9307 128.451 27.9307C130.017 27.9307 131.497 28.1761 132.889 28.6671C134.281 29.1292 135.499 29.8368 136.543 30.7899C137.617 31.7429 138.458 32.927 139.067 34.3422C139.676 35.7574 139.981 37.4036 139.981 39.2808V40.1473C139.981 42.1112 139.676 43.8296 139.067 45.3025C138.458 46.7754 137.617 48.0029 136.543 48.9848C135.499 49.9668 134.281 50.7032 132.889 51.1942C131.497 51.6852 130.017 51.9307 128.451 51.9307ZM128.451 47.0787C130.075 47.0787 131.424 46.5011 132.497 45.3458C133.6 44.1906 134.151 42.4577 134.151 40.1473V39.2808C134.151 37.1725 133.6 35.5696 132.497 34.4722C131.424 33.3458 130.075 32.7826 128.451 32.7826C126.798 32.7826 125.435 33.3458 124.362 34.4722C123.288 35.5696 122.752 37.1725 122.752 39.2808V40.1473C122.752 42.4866 123.288 44.2339 124.362 45.3891C125.435 46.5155 126.798 47.0787 128.451 47.0787Z" fill="black"/>
<path d="M143.89 51.9294C143.658 51.9294 143.368 51.9149 143.02 51.8861C142.672 51.8861 142.382 51.8572 142.15 51.7994V46.6442C142.295 46.6731 142.513 46.6875 142.802 46.6875C143.354 46.6875 143.832 46.5287 144.238 46.211C144.644 45.8644 144.978 45.2868 145.239 44.4781C145.529 43.6695 145.732 42.6009 145.848 41.2724C145.993 39.9149 146.066 38.2399 146.066 36.2471V28.4492H164.339V51.4095H158.596V33.2146H151.373V37.1135C151.373 40.0882 151.214 42.5431 150.895 44.4781C150.605 46.3843 150.141 47.8861 149.503 48.9835C148.893 50.081 148.111 50.8464 147.153 51.2796C146.225 51.7128 145.137 51.9294 143.89 51.9294Z" fill="black"/>
<path d="M179.989 51.9307C178.423 51.9307 176.929 51.6996 175.508 51.2375C174.116 50.7465 172.897 50.0101 171.853 49.0281C170.809 48.0462 169.983 46.8187 169.374 45.3458C168.764 43.8729 168.46 42.14 168.46 40.1473V39.2808C168.46 37.4036 168.764 35.7574 169.374 34.3422C169.983 32.927 170.809 31.7429 171.853 30.7899C172.897 29.8368 174.116 29.1292 175.508 28.6671C176.929 28.1761 178.423 27.9307 179.989 27.9307C181.556 27.9307 183.035 28.1761 184.427 28.6671C185.819 29.1292 187.037 29.8368 188.082 30.7899C189.155 31.7429 189.996 32.927 190.605 34.3422C191.214 35.7574 191.519 37.4036 191.519 39.2808V40.1473C191.519 42.1112 191.214 43.8296 190.605 45.3025C189.996 46.7754 189.155 48.0029 188.082 48.9848C187.037 49.9668 185.819 50.7032 184.427 51.1942C183.035 51.6852 181.556 51.9307 179.989 51.9307ZM179.989 47.0787C181.613 47.0787 182.962 46.5011 184.036 45.3458C185.138 44.1906 185.689 42.4577 185.689 40.1473V39.2808C185.689 37.1725 185.138 35.5696 184.036 34.4722C182.962 33.3458 181.613 32.7826 179.989 32.7826C178.336 32.7826 176.973 33.3458 175.9 34.4722C174.826 35.5696 174.29 37.1725 174.29 39.2808V40.1473C174.29 42.4866 174.826 44.2339 175.9 45.3891C176.973 46.5155 178.336 47.0787 179.989 47.0787Z" fill="black"/>
<path d="M196.071 28.4492H212.604V33.2146H201.814V51.4095H196.071V28.4492Z" fill="black"/>
<path d="M216.073 28.4492H221.816V43.1785L232.084 28.4492H237.392V51.4095H231.649V36.6803L221.381 51.4095H216.073V28.4492Z" fill="black"/>
<path d="M247.283 42.7886C245.513 42.211 244.223 41.3446 243.411 40.1893C242.598 39.0341 242.192 37.6767 242.192 36.1171C242.192 34.9908 242.381 33.9655 242.758 33.0413C243.164 32.0882 243.758 31.2796 244.542 30.6153C245.325 29.9222 246.311 29.3879 247.5 29.0124C248.718 28.637 250.139 28.4492 251.764 28.4492H262.641V51.4095H256.898V43.4817H252.765L247.761 51.4095H241.322L247.283 42.7886ZM247.935 36.1171C247.935 37.0991 248.254 37.8211 248.892 38.2832C249.56 38.7453 250.444 38.9763 251.546 38.9763H256.898V33.2146H251.546C250.444 33.2146 249.56 33.4601 248.892 33.951C248.254 34.4131 247.935 35.1352 247.935 36.1171Z" fill="black"/>
<path fill-rule="evenodd" clip-rule="evenodd" d="M7.4233 40.3551C7.23995 40.3404 7.0546 40.333 6.8675 40.333C3.07468 40.333 0 43.3924 0 47.1663C0 50.9403 3.07468 53.9997 6.8675 53.9997C10.6603 53.9997 13.735 50.9403 13.735 47.1663C13.735 46.8766 13.7169 46.5912 13.6817 46.3109C10.4341 46.0521 7.82366 43.5452 7.4233 40.3551Z" fill="#5D00F5"/>
<path fill-rule="evenodd" clip-rule="evenodd" d="M13.735 32.1663C13.735 28.3924 10.6603 25.333 6.8675 25.333C3.07468 25.333 3.76808e-07 28.3924 0 32.1663C-6.82271e-07 35.9403 3.07468 38.9997 6.8675 38.9997C7.04314 38.9997 7.21724 38.9931 7.38953 38.9802C7.64336 35.6204 10.3388 32.9383 13.7155 32.6858C13.7284 32.5143 13.735 32.3411 13.735 32.1663Z" fill="#EB236B"/>
<path fill-rule="evenodd" clip-rule="evenodd" d="M21.0828 38.9466C21.3644 38.9816 21.6513 38.9997 21.9425 38.9997C25.7353 38.9997 28.8099 35.9403 28.8099 32.1663C28.8099 28.3924 25.7353 25.333 21.9425 25.333C18.1496 25.333 15.075 28.3924 15.075 32.1663C15.075 32.3525 15.0824 32.5369 15.0971 32.7194C18.3032 33.1177 20.8227 35.7152 21.0828 38.9466Z" fill="#4BD0A0"/>
<path fill-rule="evenodd" clip-rule="evenodd" d="M15.1328 46.2755C15.0946 46.567 15.075 46.8644 15.075 47.1663C15.075 50.9403 18.1496 53.9997 21.9425 53.9997C25.7353 53.9997 28.8099 50.9403 28.8099 47.1663C28.8099 43.3924 25.7353 40.333 21.9425 40.333C21.639 40.333 21.3402 40.3526 21.0471 40.3905C20.6465 43.452 18.2095 45.8769 15.1328 46.2755Z" fill="#0066FF"/>
</svg>
