<svg width="150" height="45" viewBox="0 0 150 45" fill="none" xmlns="http://www.w3.org/2000/svg">
<path d="M57.1861 17.0116C57.5776 15.3273 58.8364 14.594 60.2828 14.594C61.7291 14.594 63.1472 15.3221 63.3379 17.0116H57.1861ZM65.2781 22.334L65.4843 20.016C62.0845 21.8835 57.8859 22.1454 57.2487 18.8765H65.8342V17.8418C65.7298 14.3214 63.048 12.5823 60.2828 12.5823C57.455 12.5823 54.6898 14.3843 54.6898 18.0487C54.6898 23.5963 60.6327 24.7335 65.2781 22.334ZM44.6969 17.0116C45.0886 15.3273 46.3472 14.594 47.7938 14.594C49.2376 14.594 50.6582 15.3221 50.8489 17.0116H44.6969ZM52.7862 22.334L52.9925 20.016C49.593 21.8835 45.3941 22.1454 44.7569 18.8765H53.3424V17.8418C53.238 14.3214 50.5564 12.5823 47.7912 12.5823C44.9631 12.5823 42.198 14.3843 42.198 18.0487C42.198 23.5963 48.1437 24.7335 52.7862 22.334ZM70.0434 8.27616H67.6697V23.2245H70.0434V18.6276C70.9521 18.6276 71.6545 18.6276 72.3751 19.2902C73.3856 20.3249 74.1298 21.6501 74.8114 23.2242H77.5348C76.8742 21.113 74.7904 17.8208 72.5813 17.8208V17.5092C74.3986 17.5092 76.6261 14.6514 77.2241 12.8731H74.7278C74.1506 14.1146 73.3856 15.254 72.3332 16.1863C71.6308 16.8489 70.7848 16.8282 70.0434 16.8282V8.27616ZM82.0625 15.1283V11.2779H85.5719C87.4492 11.2779 88.1727 12.2313 88.1727 13.2031C88.1727 14.1564 87.4492 15.1283 85.5719 15.1283H82.0625ZM82.0625 21.0478V17.1974H86.1488C88.0264 17.1974 88.7496 18.1508 88.7496 19.1226C88.7496 20.076 87.9872 21.0478 86.1073 21.0478H82.0625ZM86.0862 9.10375H79.5846V23.2216H86.705C89.7393 23.2216 91.2667 21.5033 91.2667 19.4341C91.2667 17.6111 89.9455 16.3092 87.6973 16.1627V15.8327C89.8437 15.4398 90.648 14.0936 90.648 12.687C90.648 10.7803 89.1621 9.10375 86.0862 9.10375ZM93.0921 12.8705V23.2219H95.4655V16.2677C96.3531 15.3772 97.5073 15.068 99.3875 15.068H100.338L100.152 12.687H99.3901C97.8208 12.687 96.335 13.3707 95.758 14.7983H95.4681V12.8705H93.0921ZM103.231 18.0461C103.231 15.7698 104.518 14.6096 106.252 14.6096C107.654 14.6096 108.634 15.0443 109.5 15.9351V20.1573C108.634 21.0478 107.654 21.4828 106.252 21.4828C104.521 21.4828 103.231 20.3249 103.231 18.0461ZM109.503 12.8705V14.3817H109.234C108.304 13.1613 107.224 12.5405 105.633 12.5405C102.393 12.5405 100.774 15.1701 100.774 18.0461C100.774 20.922 102.393 23.5519 105.633 23.5519C107.224 23.5519 108.304 22.9312 109.234 21.7107H109.503V23.2219H111.877V12.8705H109.503ZM114.733 23.2219H117.107V12.8705H114.733V23.2219ZM115.932 11.5479C116.921 11.5479 117.582 10.8853 117.582 9.89241C117.582 8.89952 116.921 8.23693 115.932 8.23693C114.942 8.23693 114.281 8.89952 114.281 9.89241C114.279 10.885 114.939 11.5479 115.932 11.5479ZM122.339 12.8705H119.966V23.2219H122.339V15.9351C123.206 15.0864 124.165 14.6096 125.319 14.6096C126.577 14.6096 127.763 15.3143 127.763 17.4253V23.2219H130.136V16.8885C130.136 14.2167 128.888 12.5405 126.311 12.5405C124.909 12.5405 123.496 13.1402 122.567 14.4657H122.339V12.8705ZM132.129 15.8748C132.129 17.7161 133.842 18.4415 135.163 18.7323L138.197 19.3741C139.187 19.581 139.641 19.8717 139.641 20.3667C139.641 21.1133 138.61 21.4643 137.103 21.4643C135.327 21.4643 133.285 20.7807 132.149 20.1599L132.356 22.499C133.677 23.1827 135.39 23.5545 136.977 23.5545C139.928 23.5545 142.116 22.5827 142.116 20.262C142.116 18.3787 140.547 17.6742 138.711 17.2813L135.946 16.7024C135.079 16.5163 134.604 16.2256 134.604 15.7306C134.604 15.0259 135.533 14.654 137.019 14.654C138.69 14.654 140.487 15.2748 141.435 15.7935L141.229 13.4543C140.093 12.8754 138.628 12.5428 137.142 12.5428C134.442 12.5402 132.129 13.4938 132.129 15.8748ZM33.5577 15.4242V17.6953H37.9602V20.2387C36.772 20.9275 35.5449 21.2419 34.3778 21.2419C31.5863 21.2419 29.0484 19.424 29.0484 16.1866C29.0484 12.9492 31.5889 11.1313 34.3778 11.1313C36.1688 11.1313 38.075 11.8568 39.8037 13.3185L39.5479 10.4295C37.8765 9.33193 36.0384 8.81327 34.0982 8.81327C30.2181 8.81327 26.4214 11.4221 26.4214 16.184C26.4214 20.946 30.2181 23.5548 34.0982 23.5548C36.0384 23.5548 38.062 23.1201 40.3521 21.4228V15.4242H33.5577ZM7.99017 8.73654L7.82199 7.20971C5.56449 6.51856 3.15757 8.23462 1.69363 10.1791C0.857957 11.309 0.166803 12.5627 0.879014 13.6926C-0.293005 14.7804 -0.293005 17.185 0.879014 18.2938C0.166803 19.4238 0.857957 20.6774 1.69363 21.8073C3.11805 23.6889 4.93651 24.9238 6.81786 24.9238C8.76238 24.9238 10.3313 23.3131 10.3313 21.3472V19.8625C10.3313 18.8587 9.95546 18.2936 9.22248 17.5211L8.11363 16.328C8.13469 16.223 8.13469 16.1388 8.13469 16.0363C8.13469 15.2217 7.54853 14.6356 6.73392 14.6356C5.96142 14.6356 5.35421 15.2217 5.35421 16.0363C5.35421 16.7696 5.96113 17.3739 6.73392 17.3739C6.83892 17.3739 6.92315 17.3529 6.98344 17.3529L8.1344 18.567C8.57315 19.0479 8.78344 19.4027 8.78344 19.9888V21.3475C8.78344 23.0425 7.40373 23.7518 5.87719 23.187C4.85228 22.8112 3.80632 22.0361 2.84459 20.7824C1.98786 19.5893 2.17449 19.0271 2.65536 18.6908C3.07305 18.4413 3.51209 18.4805 4.26613 19.424C4.22661 19.5475 4.20555 19.6946 4.20555 19.8417C4.20555 20.6142 4.83353 21.2425 5.58526 21.2425C6.337 21.2425 6.94392 20.6145 6.94392 19.8417C6.94392 19.0903 6.337 18.462 5.58526 18.462H5.48026C4.58142 17.3111 3.49363 16.5175 1.98786 17.3111C1.44382 16.8302 1.52805 15.1141 1.98786 14.6754C3.49363 15.4689 4.58142 14.6754 5.48026 13.5244H5.58526C6.33671 13.5244 6.94392 12.8964 6.94392 12.1447C6.94392 11.3722 6.337 10.7439 5.58526 10.7439C4.83353 10.7439 4.20555 11.3719 4.20555 12.1447C4.20432 12.2864 4.22564 12.4274 4.26873 12.5624C3.51728 13.5031 3.07565 13.5452 2.65796 13.2957C2.17709 12.9619 1.98786 12.3968 2.84719 11.204C4.03767 9.65616 6.08776 7.96404 7.99017 8.73654ZM10.434 23.2502L10.6022 24.777C12.8594 25.4682 15.2666 23.7521 16.7303 21.8076C17.5659 20.6777 18.2571 19.424 17.5449 18.2941C18.7169 17.2061 18.7169 14.8017 17.5449 13.6929C18.2571 12.563 17.5659 11.3093 16.7303 10.1794C15.3061 8.2975 13.4877 7.06519 11.606 7.06519C9.66152 7.06519 8.09257 8.67596 8.09257 10.6418V12.1265C8.09257 13.1304 8.46844 13.6955 9.20142 14.468L10.3103 15.6611C10.2892 15.7661 10.2892 15.8503 10.2892 15.9527C10.2892 16.7673 10.8754 17.3535 11.6897 17.3535C12.4622 17.3535 13.0694 16.7673 13.0694 15.9527C13.0694 15.2194 12.4625 14.6151 11.6897 14.6151C11.5847 14.6151 11.5005 14.6362 11.4402 14.6362L10.2892 13.422C9.85046 12.9412 9.64017 12.5863 9.64017 12.0005V10.6418C9.64017 8.94683 11.0199 8.23721 12.5467 8.80231C13.5716 9.17818 14.6176 9.95327 15.5793 11.2069C16.436 12.4 16.2494 12.9622 15.7685 13.2986C15.3508 13.5481 14.9118 13.5088 14.1578 12.5653C14.2008 12.4303 14.2221 12.2893 14.2209 12.1476C14.2209 11.3751 13.593 10.7468 12.8412 10.7468C12.0895 10.7468 11.4826 11.3748 11.4826 12.1476C11.4826 12.899 12.0895 13.5273 12.8412 13.5273H12.9462C13.8451 14.6783 14.9329 15.4718 16.4386 14.6783C16.9827 15.1591 16.8984 16.8752 16.4386 17.3139C14.9329 16.5204 13.8451 17.3139 12.9462 18.4649H12.8412C12.0895 18.4649 11.4826 19.0929 11.4826 19.8446C11.4826 20.6171 12.0895 21.2454 12.8412 21.2454C13.593 21.2454 14.2209 20.6174 14.2209 19.8446C14.2221 19.7029 14.2008 19.5619 14.1578 19.4269C14.9092 18.4863 15.3508 18.4441 15.7685 18.6937C16.2494 19.0274 16.4386 19.5925 15.5793 20.7856C14.3862 22.3309 12.3364 24.0227 10.434 23.2502Z" fill="#191816"/>
<path d="M27.3828 35.7689H28.3474L32.0305 30.31C32.2388 30.0031 32.4032 29.7071 32.5238 29.3893H32.6334L32.6005 30.7704V35.7689H33.5103V28.0958H32.5457L28.8517 33.5766C28.6543 33.8725 28.4899 34.1575 28.3694 34.4754H28.2597L28.2926 33.0175V28.0958H27.3828V35.7689ZM37.0059 35.7689H37.9157V28.896H40.5574L40.4917 28.0958H34.4299L34.3532 28.896H37.0059V35.7689ZM41.4502 32.2721V33.0614H45.0127V32.2721H41.4502ZM50.8893 33.0723C50.8893 34.3658 50.1 35.1879 49.0039 35.1879C47.8968 35.1879 47.1075 34.3658 47.1075 33.0723C47.1075 31.7789 47.8858 30.9567 49.0039 30.9567C50.111 30.9567 50.8893 31.7789 50.8893 33.0723ZM46.2525 33.0723C46.2525 34.7604 47.4144 35.9004 49.0039 35.9004C50.5933 35.9004 51.7552 34.7604 51.7552 33.0723C51.7552 31.3842 50.5933 30.2333 49.0039 30.2333C47.4144 30.2333 46.2525 31.3842 46.2525 33.0723ZM55.2952 35.9004C56.8518 35.9004 57.9589 34.8371 57.9589 33.2477C57.9808 31.4939 56.7531 30.6498 55.5473 30.6498C54.8348 30.6498 54.0894 30.9677 53.5633 31.5925H53.4427C53.5085 30.2662 53.7716 29.3454 54.8458 29.0385C55.2733 28.9179 56.3585 28.7864 57.2793 28.5781L57.2025 27.7012C56.3475 27.9314 55.5912 28.03 54.9993 28.1396C53.4318 28.4137 52.5658 29.7181 52.5658 32.2941C52.5658 34.2891 53.2344 35.9004 55.2952 35.9004ZM53.4318 32.4366V32.2831C53.9908 31.6912 54.7362 31.3842 55.361 31.3842C56.2818 31.3842 57.1258 31.9981 57.1039 33.2477C57.1039 34.4316 56.3804 35.1879 55.2952 35.1879C53.7825 35.1879 53.3989 33.8067 53.4318 32.4366ZM58.9564 37.9612H59.8114V35.0344H59.9429C60.3594 35.5935 60.9404 35.9004 61.7296 35.9004C62.9244 35.9004 64.1631 34.9467 64.1521 33.0723C64.1741 31.2089 62.9354 30.2333 61.7406 30.2333C60.9404 30.2333 60.3594 30.5512 59.9429 31.1212H59.8114V30.3648H58.9564V37.9612ZM59.8114 34.3329V31.8117C60.2937 31.2637 60.8966 30.9896 61.5433 30.9896C62.475 30.9896 63.3081 31.7131 63.2862 33.0723C63.3081 34.4316 62.475 35.155 61.5433 35.155C60.8966 35.155 60.2937 34.881 59.8114 34.3329ZM68.9181 32.4585V32.9846H68.7975C68.3481 32.5681 67.6575 32.316 66.9341 32.316C65.9146 32.316 64.961 32.875 64.961 34.0917C64.961 35.2098 65.7941 35.9004 66.9231 35.9004C67.6685 35.9004 68.3481 35.5825 68.7975 35.0344H68.9181V35.7689H69.7731V32.2941C69.7731 30.7923 68.7427 30.2333 67.5698 30.2333C66.8902 30.2333 66.1668 30.4087 65.5529 30.7156L65.4433 31.6035C66.09 31.2527 66.8244 31.0225 67.4602 31.0225C68.2823 31.0225 68.9181 31.4281 68.9181 32.4585ZM65.827 34.1027C65.827 33.3464 66.386 33.0394 67.1094 33.0394C67.7562 33.0394 68.4139 33.2477 68.9181 33.6423V34.3767C68.4139 34.8919 67.7452 35.155 67.0875 35.155C66.375 35.155 65.827 34.8371 65.827 34.1027ZM73.0679 35.9004C74.471 35.9004 75.2602 35.1879 75.2602 34.3548C75.2602 33.73 74.8546 33.2148 74.186 33.0394V32.9408C74.7779 32.7654 75.1506 32.305 75.1506 31.6802C75.1506 30.8581 74.3614 30.2333 72.9912 30.2333C72.2896 30.2333 71.5552 30.3867 70.9304 30.6717L70.8098 31.5487C71.4456 31.2089 72.2019 31.0225 72.8816 31.0225C73.8791 31.0225 74.2627 31.4062 74.2627 31.8446C74.2627 32.3708 73.8462 32.6667 73.3091 32.6667H72.1581V33.3573H73.4187C73.9887 33.3573 74.3833 33.741 74.3833 34.2014C74.3833 34.6946 73.9229 35.1112 72.9692 35.1112C72.2019 35.1112 71.4456 34.9248 70.8098 34.585L70.9304 35.4619C71.5552 35.7469 72.2896 35.9004 73.0679 35.9004ZM80.6761 33.0723C80.6761 34.3658 79.8869 35.1879 78.7907 35.1879C77.6836 35.1879 76.8944 34.3658 76.8944 33.0723C76.8944 31.7789 77.6726 30.9567 78.7907 30.9567C79.8978 30.9567 80.6761 31.7789 80.6761 33.0723ZM76.0393 33.0723C76.0393 34.7604 77.2013 35.9004 78.7907 35.9004C80.3801 35.9004 81.542 34.7604 81.542 33.0723C81.542 31.3842 80.3801 30.2333 78.7907 30.2333C77.2013 30.2333 76.0393 31.3842 76.0393 33.0723ZM82.5289 35.7689H85.3789C86.4421 35.7689 87.1327 35.1331 87.1327 34.3329C87.1327 33.6862 86.7052 33.1929 86.0146 33.0394V32.9408C86.6066 32.7435 86.9683 32.2721 86.9683 31.7241C86.9683 30.891 86.2448 30.3648 85.3241 30.3648H82.5289V35.7689ZM83.3839 35.0454V33.3573H85.346C85.9489 33.3573 86.2558 33.741 86.2558 34.1904C86.2558 34.6617 85.9269 35.0454 85.335 35.0454H83.3839ZM83.3839 32.6667V31.0992H85.2254C85.8064 31.0992 86.0914 31.4281 86.0914 31.8337C86.0914 32.2831 85.7625 32.6667 85.1377 32.6667H83.3839ZM91.9232 32.4585V32.9846H91.8026C91.3532 32.5681 90.6626 32.316 89.9392 32.316C88.9197 32.316 87.9661 32.875 87.9661 34.0917C87.9661 35.2098 88.7992 35.9004 89.9282 35.9004C90.6736 35.9004 91.3532 35.5825 91.8026 35.0344H91.9232V35.7689H92.7782V32.2941C92.7782 30.7923 91.7478 30.2333 90.5749 30.2333C89.8953 30.2333 89.1719 30.4087 88.558 30.7156L88.4484 31.6035C89.0951 31.2527 89.8295 31.0225 90.4653 31.0225C91.2874 31.0225 91.9232 31.4281 91.9232 32.4585ZM88.832 34.1027C88.832 33.3464 89.3911 33.0394 90.1145 33.0394C90.7613 33.0394 91.419 33.2477 91.9232 33.6423V34.3767C91.419 34.8919 90.7503 35.155 90.0926 35.155C89.3801 35.155 88.832 34.8371 88.832 34.1027ZM98.068 35.7689H98.923V30.3648H98.068V32.601H94.9988V30.3648H94.1438V35.7689H94.9988V33.3244H98.068V35.7689ZM100.347 35.7689H101.202V35.7579L103.647 32.4694C103.888 32.1516 104.085 31.8117 104.195 31.5925H104.305C104.283 31.8775 104.283 32.316 104.283 32.6229V35.7689H105.138V30.3648H104.283L102.014 33.445C101.74 33.8067 101.422 34.2452 101.279 34.5192H101.17C101.191 34.1904 101.202 33.73 101.202 33.3793V30.3648H100.347V35.7689ZM110.926 35.4291L111.047 34.5521C109.435 35.5277 107.199 35.2537 107.024 33.3244H111.387L111.398 33.0723C111.452 31.3842 110.389 30.2333 108.8 30.2333C107.254 30.2333 106.158 31.4062 106.158 33.0723C106.158 35.725 108.8 36.5033 110.926 35.4291ZM107.046 32.6339C107.188 31.5925 107.846 30.9567 108.8 30.9567C109.786 30.9567 110.433 31.5925 110.521 32.6339H107.046Z" fill="#4F5364"/>
</svg>
