<svg width="150" height="45" viewBox="0 0 150 45" fill="none" xmlns="http://www.w3.org/2000/svg">
<g clip-path="url(#clip0_116_3930)">
<path d="M80.2334 15.5547H80.7484V29.2555H80.2334V15.5547Z" fill="#FF3A4F"/>
<mask id="mask0_116_3930" style="mask-type:luminance" maskUnits="userSpaceOnUse" x="0" y="15" width="151" height="15">
<path d="M0 15.418H150.147V29.4163H0V15.418Z" fill="white"/>
</mask>
<g mask="url(#mask0_116_3930)">
<path d="M21.7056 15.5796C21.8701 15.5505 22.0775 15.536 22.3209 15.536C22.5642 15.536 22.7639 15.5505 22.9288 15.5796L20.3393 20.2303C20.1744 20.2594 19.9739 20.2732 19.7309 20.2732C19.4879 20.2732 19.2805 20.2586 19.1156 20.2303L20.0527 18.556L18.3929 15.58C18.5574 15.5509 18.7648 15.5364 19.0081 15.5364C19.2515 15.5364 19.452 15.5509 19.6165 15.58L20.661 17.5547L21.7056 15.5796ZM27.4426 15.5796C27.8222 15.5149 28.2017 15.5149 28.5805 15.5796V20.2303C28.2014 20.2946 27.8222 20.2946 27.443 20.2303V18.3555H25.5181V20.2296C25.1393 20.2942 24.7601 20.2942 24.3813 20.2296V15.58C24.7601 15.5153 25.1393 15.5153 25.5181 15.58V17.4043H27.443L27.4426 15.5796ZM34.4894 20.2303C34.1102 20.2946 33.731 20.2946 33.3515 20.2303V17.5045L31.1832 20.2303C30.8901 20.2804 30.5897 20.2804 30.2897 20.2303V15.5796C30.6682 15.5149 31.0474 15.5149 31.4265 15.5796V18.3054L33.5952 15.5796C33.8886 15.5295 34.1894 15.5295 34.4897 15.5796L34.4894 20.2303ZM38.1874 15.5723C38.6378 15.5723 39.0032 15.6867 39.2825 15.9159C39.561 16.1447 39.7038 16.4389 39.7038 16.7963C39.7038 17.2685 39.4895 17.6117 39.0675 17.8263C39.289 17.9266 39.4681 18.0697 39.5966 18.2556C39.7256 18.4416 39.7899 18.6635 39.7899 18.9141C39.7899 19.3216 39.6468 19.6441 39.3613 19.8802C39.0744 20.1163 38.6879 20.2303 38.2016 20.2303H36.1848V15.5792L38.1874 15.572V15.5723ZM37.3292 17.49H38.0592C38.2096 17.49 38.3316 17.4471 38.4242 17.3614C38.5172 17.2757 38.5601 17.1544 38.5601 17.004C38.5601 16.6823 38.3952 16.5246 38.0589 16.5246H37.3288V17.4907L37.3292 17.49ZM37.3292 19.2784H38.1308C38.4671 19.2784 38.632 19.1135 38.632 18.7772C38.632 18.4554 38.4529 18.2905 38.0879 18.2905H37.3288L37.3292 19.2784ZM44.5045 19.2787C44.5619 19.5933 44.5619 19.9082 44.5045 20.2303H41.2633V15.5792H44.5045C44.5619 15.901 44.5619 16.2159 44.5045 16.5308H42.4089V17.4036H44.2612C44.3185 17.7257 44.3185 18.0402 44.2612 18.3551H42.4089V19.2777H44.5045V19.2787ZM47.8307 15.5796C48.3529 15.5796 48.775 15.7223 49.0971 16.0082C49.4193 16.2951 49.5838 16.6739 49.5838 17.1392C49.5838 17.604 49.4193 17.9829 49.0971 18.2694C48.775 18.5556 48.3526 18.698 47.8307 18.698H47.1508V20.2296C46.7716 20.2935 46.3928 20.2935 46.014 20.2296V15.5792L47.8307 15.5796ZM47.8234 17.7333C47.9879 17.7333 48.1314 17.6832 48.2454 17.583C48.3602 17.4835 48.4176 17.3331 48.4176 17.1326C48.4176 16.9329 48.3606 16.7821 48.2458 16.6823C48.1317 16.582 47.9952 16.5315 47.831 16.5315H47.1511V17.7482L47.8238 17.7337L47.8234 17.7333ZM53.6327 19.3717C54.054 19.3717 54.5051 19.2214 54.9845 18.9279C55.0201 18.9853 55.0347 19.1494 55.0274 19.4291C55.0201 19.708 55.0056 19.8867 54.9773 19.9655C54.5912 20.2016 54.119 20.3237 53.5608 20.3237C52.7665 20.3237 52.1298 20.0876 51.6504 19.6227C51.171 19.1578 50.9349 18.5778 50.9349 17.891C50.9349 17.2042 51.1782 16.6249 51.6577 16.1596C52.1371 15.6947 52.7738 15.4586 53.5681 15.4586C54.1259 15.4586 54.5981 15.5807 54.9845 15.8164C55.0136 15.8952 55.0274 16.0743 55.0347 16.3532C55.0419 16.6321 55.0274 16.7963 54.9918 16.8544C54.5124 16.5602 54.062 16.4102 53.6396 16.4102C53.2027 16.4102 52.8377 16.5464 52.5446 16.8181C52.2511 17.0905 52.108 17.4479 52.108 17.8986C52.108 18.349 52.2511 18.7071 52.5446 18.9791C52.8377 19.2508 53.2027 19.3866 53.6393 19.3866L53.632 19.3721L53.6327 19.3717ZM60.9221 20.2303C60.5433 20.2946 60.1641 20.2946 59.7845 20.2303V17.5045L57.6163 20.2303C57.3235 20.2804 57.0232 20.2804 56.7228 20.2303V15.5796C57.1016 15.5149 57.4808 15.5149 57.8596 15.5796V18.3054L60.0279 15.5796C60.3213 15.5295 60.6221 15.5295 60.9224 15.5796L60.9221 20.2303ZM66.0442 15.5796C66.1012 15.9014 66.1012 16.2163 66.0442 16.5312H64.7847V20.2303C64.4055 20.2946 64.0263 20.2946 63.6471 20.2303V16.5312H62.3883C62.3302 16.209 62.3302 15.8945 62.3883 15.5796H66.0442ZM70.7799 19.2787C70.837 19.5933 70.837 19.9082 70.7799 20.2303H67.5388V15.5792H70.7799C70.837 15.901 70.837 16.2159 70.7799 16.5308H68.6836V17.4036H70.5366C70.5936 17.7257 70.5936 18.0402 70.5366 18.3551H68.6836V19.2777H70.7799V19.2787ZM75.7165 15.5796C75.7732 15.9014 75.7732 16.2163 75.7165 16.5312H74.4569V20.2303C74.0778 20.2946 73.6986 20.2946 73.3194 20.2303V16.5312H72.0606C72.0025 16.209 72.0025 15.8945 72.0606 15.5796H75.7165ZM22.3623 27.8734C23.0233 27.8734 23.7301 27.6381 24.4811 27.1783C24.5371 27.2676 24.5596 27.5258 24.5487 27.9628C24.5371 28.3997 24.5149 28.6808 24.4699 28.8036C23.8644 29.1733 23.1246 29.364 22.25 29.364C21.0057 29.364 20.008 28.9935 19.2566 28.2653C18.5058 27.5364 18.1357 26.628 18.1357 25.5522C18.1357 24.4764 18.5171 23.5677 19.2678 22.8392C20.0196 22.1102 21.0177 21.7401 22.262 21.7401C23.1366 21.7401 23.8764 21.9308 24.4819 22.3009C24.5265 22.4244 24.5494 22.7048 24.5603 23.1421C24.5712 23.5793 24.5494 23.8372 24.4928 23.9266C23.742 23.4668 23.0356 23.2318 22.3739 23.2318C21.69 23.2318 21.1183 23.445 20.6589 23.871C20.1991 24.2967 19.975 24.8571 19.975 25.5635C19.975 26.2699 20.1991 26.831 20.6589 27.2567C21.1183 27.6827 21.6903 27.8959 22.3739 27.8959L22.363 27.8741L22.3623 27.8734ZM32.6654 29.2183C32.0709 29.3189 31.4767 29.3189 30.8821 29.2183V24.9471L27.4851 29.2183C27.0257 29.2971 26.5554 29.2971 26.0839 29.2183V21.9312C26.6778 21.8302 27.2716 21.8302 27.8661 21.9312V26.2024L31.2635 21.9312C31.7233 21.8527 32.194 21.8527 32.6654 21.9312V29.2183ZM39.0104 21.9312C39.6046 21.8302 40.1981 21.8302 40.7926 21.9312V29.2183C40.1985 29.3189 39.605 29.3189 39.0101 29.2183V26.2812H35.9937V29.2183C35.3999 29.3189 34.8061 29.3189 34.2115 29.2183V21.9312C34.8057 21.8302 35.3999 21.8302 35.9937 21.9312V24.7902H39.0097V21.9312H39.0104ZM47.4518 27.7267C47.5416 28.2206 47.5416 28.7146 47.4518 29.218H42.3736V21.9312H47.4518C47.5416 22.436 47.5416 22.9289 47.4518 23.4217H44.1671V24.7899H47.0709C47.1606 25.2947 47.1606 25.7876 47.0709 26.2812H44.1671V27.7267H47.4518ZM51.5436 21.9308C52.3623 21.9308 53.0236 22.1553 53.5281 22.6038C54.033 23.0524 54.2908 23.6462 54.2908 24.3751C54.2908 25.1037 54.033 25.6979 53.5281 26.1464C53.0233 26.595 52.3623 26.8183 51.5436 26.8183H50.4787V29.2176C49.8845 29.3193 49.2903 29.3193 48.6954 29.2176V21.9308H51.5436ZM51.5327 25.3056C51.7906 25.3056 52.0147 25.2272 52.1937 25.0706C52.3731 24.9134 52.4632 24.6784 52.4632 24.3642C52.4632 24.0501 52.3732 23.8151 52.1945 23.6582C52.0147 23.5009 51.8015 23.4221 51.5436 23.4221H50.4787V25.3289L51.5327 25.3056ZM60.378 21.9312C60.4677 22.436 60.4677 22.9292 60.378 23.4217H57.3736V29.2183C56.7791 29.3189 56.1849 29.3189 55.5903 29.2183V21.9312H60.378ZM68.1584 29.2183C67.5642 29.3189 66.9707 29.3189 66.3758 29.2183V24.9471L62.9788 29.2183C62.5194 29.2971 62.0483 29.2971 61.5776 29.2183V21.9312C62.1718 21.8302 62.7653 21.8302 63.3602 21.9312V26.2024L66.7572 21.9312C67.2166 21.8527 67.6877 21.8527 68.1584 21.9312V29.2183ZM75.2999 29.2071C74.7054 29.308 74.1112 29.308 73.5166 29.2071V26.741H72.8218L71.2187 29.2071C70.9608 29.2521 70.6357 29.2746 70.2435 29.2746C69.8512 29.2746 69.5258 29.2521 69.2679 29.2071L71.0389 26.4722C70.6016 26.2812 70.2653 26.0008 70.019 25.631C69.7721 25.2606 69.6486 24.8356 69.6486 24.3526C69.6486 23.6349 69.8955 23.0524 70.3888 22.6038C70.882 22.1553 71.5437 21.9312 72.362 21.9312H75.3101L75.2992 29.2071H75.2999ZM72.3736 23.4105C72.1158 23.4105 71.9026 23.4896 71.7235 23.6458C71.5437 23.8031 71.4548 24.0272 71.4548 24.3301C71.4548 24.633 71.5437 24.8567 71.7235 25.014C71.9026 25.172 72.1267 25.2501 72.3845 25.2501H73.5057V23.4112H72.3736V23.4105ZM87.7913 17.7293C88.4516 17.7293 88.9692 17.8986 89.3531 18.2465C89.737 18.5945 89.924 19.0231 89.924 19.5406C89.924 20.0491 89.7366 20.4777 89.3527 20.8256C88.9688 21.1735 88.452 21.3431 87.7909 21.3431H85.6408V15.5433H89.3701C89.4239 15.8019 89.4239 16.0608 89.3701 16.3194H86.551V17.7293H87.7909H87.7913ZM87.8004 20.5666C88.1839 20.5666 88.4781 20.4686 88.6924 20.2724C88.9067 20.0756 89.0142 19.8257 89.0142 19.5315C89.0142 19.2283 88.9071 18.9784 88.6928 18.7819C88.4785 18.5858 88.1843 18.4877 87.8011 18.4877H86.5608V20.5844L87.8011 20.5663L87.8004 20.5666ZM93.9548 15.4361C94.8475 15.4361 95.579 15.7303 96.1503 16.3194C96.7212 16.9078 97.0067 17.6218 97.0067 18.4695C97.0067 19.3172 96.7212 20.0313 96.1503 20.6197C95.579 21.2088 94.8475 21.5033 93.9551 21.5033C93.0635 21.5033 92.3316 21.2091 91.7607 20.62C91.1897 20.0309 90.9035 19.3082 90.9035 18.4608C90.9035 17.6131 91.1897 16.8904 91.7607 16.3013C92.3313 15.7129 93.0631 15.418 93.9548 15.418V15.4361ZM92.4388 16.8453C92.0374 17.2739 91.8322 17.8187 91.8322 18.4786C91.8322 19.1385 92.0371 19.683 92.4388 20.1116C92.8397 20.5401 93.3489 20.7537 93.9555 20.7537C94.562 20.7537 95.0705 20.5401 95.4725 20.1119C95.8735 19.6833 96.0791 19.1393 96.0791 18.479C96.0791 17.8187 95.8739 17.2743 95.4725 16.8461C95.0712 16.4178 94.562 16.2039 93.9551 16.2039C93.3486 16.2039 92.8394 16.4182 92.4384 16.8468M103.019 21.3606C102.707 21.4231 102.403 21.4231 102.109 21.3606V16.3285H99.9678L99.6199 19.7367C99.5574 20.3258 99.4056 20.7631 99.1557 21.0577C98.9058 21.3519 98.5485 21.495 98.085 21.495C97.9071 21.495 97.7552 21.4768 97.6212 21.4332C97.5675 21.1739 97.5675 20.9153 97.6212 20.6567C97.7011 20.6741 97.773 20.6832 97.8442 20.6832C98.0937 20.6832 98.2899 20.6033 98.4326 20.4424C98.5757 20.2819 98.665 20.0139 98.6999 19.6481L99.1288 15.5524H103.011L103.019 21.3606ZM106.577 17.5775C107.246 17.5775 107.773 17.7555 108.156 18.1129C108.54 18.4695 108.737 18.9246 108.737 19.4691C108.737 20.0131 108.549 20.4595 108.166 20.8165C107.782 21.1732 107.256 21.3515 106.586 21.3515H104.454V15.5524C104.766 15.4895 105.069 15.4895 105.364 15.5524V17.5775H106.577ZM106.586 20.5754C106.97 20.5754 107.273 20.4682 107.487 20.263C107.701 20.0578 107.808 19.7901 107.808 19.4603C107.808 19.1298 107.701 18.8622 107.487 18.657C107.272 18.4517 106.969 18.3446 106.586 18.3446H105.363V20.5841L106.586 20.5754H106.586ZM116.382 15.5524C116.685 15.4895 116.989 15.4895 117.3 15.5524V21.3515H109.984V15.5524C110.296 15.4895 110.6 15.4895 110.894 15.5524V20.5841H113.187V15.5524C113.481 15.4895 113.785 15.4895 114.097 15.5524V20.5841H116.381V15.5524H116.382ZM122.705 20.5572C122.768 20.8162 122.768 21.0751 122.705 21.3337H118.762V15.5342H122.706C122.769 15.7928 122.769 16.0517 122.706 16.3103H119.672V18.0057H122.429C122.483 18.2647 122.483 18.5233 122.429 18.7819H119.672V20.5844L122.706 20.5576L122.705 20.5572ZM129.271 15.5698C129.582 15.5073 129.886 15.5073 130.19 15.5698V21.37C129.886 21.4318 129.582 21.4318 129.271 21.37V18.7459C129.11 18.9155 128.87 19.067 128.557 19.201C128.245 19.3347 127.906 19.4062 127.549 19.4062C126.96 19.4062 126.505 19.2283 126.184 18.8796C125.862 18.5316 125.702 18.0678 125.702 17.4969V15.5614C126.014 15.4986 126.318 15.4986 126.612 15.5614V17.372C126.612 18.2109 127.023 18.6304 127.843 18.6304C128.156 18.6304 128.441 18.568 128.701 18.4343C128.959 18.2999 129.155 18.1576 129.289 18.0057L129.271 15.5698ZM135.613 20.5572C135.676 20.8162 135.676 21.0751 135.613 21.3337H131.67V15.5342H135.613C135.676 15.7928 135.676 16.0517 135.613 16.3103H132.579V18.0057H135.336C135.39 18.2647 135.39 18.5233 135.336 18.7819H132.579V20.5844L135.613 20.5576V20.5572ZM143.731 21.3515C143.437 21.414 143.142 21.414 142.847 21.3515L141.91 17.1668L140.412 21.3515C140.162 21.4049 139.912 21.4049 139.663 21.3515L138.163 17.1668L137.227 21.3515C136.932 21.414 136.639 21.414 136.343 21.3515L137.699 15.5524C137.958 15.4979 138.216 15.4979 138.475 15.5524L140.046 19.9238L141.616 15.5524C141.875 15.4979 142.134 15.4979 142.392 15.5524L143.731 21.3515H143.731ZM88.4694 23.3487C89.3618 23.3487 90.0929 23.6436 90.6646 24.2327C91.2359 24.8211 91.5217 25.5355 91.5217 26.3829C91.5217 27.2302 91.2359 27.9446 90.6646 28.533C90.0936 29.1221 89.3621 29.4163 88.4698 29.4163C87.5778 29.4163 86.8463 29.1221 86.275 28.5337C85.7037 27.9453 85.4178 27.2215 85.4178 26.3738C85.4178 25.5261 85.704 24.8037 86.275 24.2149C86.8459 23.6262 87.5778 23.3316 88.4698 23.3316V23.3491L88.4694 23.3487ZM86.9527 24.759C86.5517 25.1869 86.3462 25.7313 86.3462 26.3908C86.3462 27.0511 86.5514 27.5956 86.9527 28.0238C87.354 28.4524 87.8632 28.6666 88.4698 28.6666C89.0763 28.6666 89.5848 28.4524 89.9868 28.0238C90.3882 27.5952 90.5934 27.0504 90.5934 26.3905C90.5934 25.7309 90.3885 25.1865 89.9868 24.7583C89.5855 24.3297 89.0767 24.1154 88.4698 24.1154C87.8632 24.1154 87.3548 24.3297 86.9531 24.7583M94.9187 25.6419C95.579 25.6419 96.0965 25.8116 96.4804 26.1591C96.8643 26.5078 97.0514 26.9356 97.0514 27.4532C97.0514 27.9617 96.864 28.3902 96.4801 28.7382C96.0965 29.0861 95.5793 29.2557 94.9183 29.2557H92.7682V23.4562H96.4982C96.5516 23.7152 96.5516 23.9741 96.4982 24.2327H93.6787V25.6427H94.9187V25.6419ZM94.9277 28.48C95.3109 28.48 95.6048 28.3819 95.8194 28.185C96.0337 27.9889 96.1408 27.7394 96.1408 27.4441C96.1408 27.1412 96.0337 26.8921 95.8194 26.6959C95.6051 26.4991 95.3109 26.4007 94.9274 26.4007H93.6867V28.4974L94.927 28.4792L94.9277 28.48ZM100.378 23.4649C101.047 23.4649 101.574 23.6429 101.957 24.0003C102.341 24.357 102.537 24.812 102.537 25.3659C102.537 25.91 102.35 26.3647 101.967 26.7217C101.583 27.0787 101.057 27.2574 100.387 27.2574H99.1652V29.2645C98.8703 29.3269 98.567 29.3269 98.255 29.2645V23.4649H100.378ZM100.387 26.4984C100.77 26.4984 101.073 26.3912 101.287 26.1867C101.502 25.9815 101.608 25.7048 101.608 25.3659C101.608 25.0263 101.501 24.7503 101.287 24.5451C101.073 24.3395 100.769 24.2327 100.386 24.2327H99.1637V26.4984H100.386H100.387ZM108.38 29.2645C108.067 29.3269 107.755 29.3269 107.443 29.2645L106.854 27.8099H104.329L103.749 29.2641C103.437 29.3266 103.124 29.3266 102.812 29.2641L105.221 23.4646C105.471 23.4108 105.73 23.4108 105.989 23.4646L108.38 29.2645ZM106.56 27.0428L105.587 24.6337L104.615 27.0428H106.56H106.56ZM112.358 26.2583C112.697 26.3734 112.956 26.5612 113.134 26.8201C113.312 27.0791 113.402 27.3729 113.402 27.7125C113.402 28.2304 113.206 28.6408 112.813 28.9445C112.42 29.2474 111.903 29.3985 111.27 29.3985C110.529 29.3985 109.904 29.2296 109.396 28.89C109.369 28.8283 109.351 28.6859 109.351 28.4622C109.351 28.2392 109.369 28.0968 109.404 28.0427C109.967 28.444 110.582 28.6405 111.243 28.6405C111.599 28.6405 111.902 28.5508 112.143 28.3728C112.384 28.1938 112.51 27.9442 112.51 27.6232C112.51 27.3461 112.42 27.1238 112.242 26.9451C112.064 26.7657 111.796 26.6763 111.439 26.6763H110.475C110.413 26.4352 110.413 26.1947 110.475 25.9536H111.421C111.707 25.9536 111.939 25.8646 112.109 25.6946C112.278 25.525 112.367 25.3024 112.367 25.035C112.367 24.7583 112.269 24.5356 112.072 24.3573C111.876 24.1786 111.609 24.0893 111.27 24.0893C110.663 24.0893 110.074 24.2854 109.503 24.6777C109.467 24.6341 109.449 24.4997 109.449 24.277C109.449 24.0544 109.468 23.9113 109.494 23.8485C109.993 23.5096 110.6 23.3407 111.305 23.3407C111.903 23.3407 112.376 23.4831 112.724 23.7777C113.072 24.0718 113.251 24.4467 113.251 24.9021C113.251 25.2145 113.169 25.4905 113.009 25.7316C112.849 25.9724 112.635 26.1508 112.367 26.2666L112.358 26.2583ZM117.335 23.3487C118.228 23.3487 118.959 23.6436 119.53 24.2327C120.101 24.8211 120.387 25.5355 120.387 26.3829C120.387 27.2302 120.101 27.9446 119.53 28.533C118.959 29.1221 118.228 29.4163 117.335 29.4163C116.443 29.4163 115.712 29.1221 115.14 28.5337C114.569 27.9453 114.284 27.2215 114.284 26.3738C114.284 25.5261 114.57 24.8037 115.141 24.2149C115.712 23.6262 116.443 23.3316 117.336 23.3316V23.3491L117.335 23.3487ZM115.819 24.759C115.417 25.1869 115.212 25.7313 115.212 26.3908C115.212 27.0511 115.417 27.5956 115.818 28.0238C116.219 28.4524 116.729 28.6666 117.335 28.6666C117.942 28.6666 118.45 28.4524 118.852 28.0238C119.254 27.5952 119.459 27.0504 119.459 26.3905C119.459 25.7309 119.254 25.1865 118.852 24.7583C118.451 24.3297 117.942 24.1154 117.335 24.1154C116.729 24.1154 116.219 24.3297 115.818 24.7583M123.99 23.4737C124.525 23.4737 124.962 23.608 125.301 23.8848C125.64 24.1608 125.809 24.5182 125.809 24.9548C125.809 25.2588 125.738 25.5257 125.587 25.7494C125.435 25.9721 125.23 26.1417 124.962 26.2579C125.292 26.3731 125.542 26.5521 125.72 26.7929C125.899 27.0337 125.988 27.3195 125.988 27.6493C125.988 28.1396 125.809 28.5326 125.453 28.8261C125.096 29.1214 124.614 29.2637 123.998 29.2637H121.633V23.4649L123.989 23.474L123.99 23.4737ZM122.553 28.5239H123.954C124.303 28.5239 124.579 28.4349 124.775 28.2653C124.971 28.0957 125.069 27.8643 125.069 27.5694C125.069 27.2934 124.98 27.0693 124.793 26.8997C124.606 26.7304 124.338 26.6502 123.981 26.6502H122.563L122.554 28.5243L122.553 28.5239ZM122.562 25.999H123.963C124.258 25.999 124.489 25.9191 124.659 25.7582C124.829 25.5984 124.918 25.3841 124.918 25.1153C124.918 24.8393 124.828 24.625 124.641 24.4732C124.453 24.3214 124.212 24.2407 123.909 24.2407H122.562V25.9986L122.562 25.999ZM132.224 29.2645C131.912 29.3269 131.599 29.3269 131.287 29.2645L130.699 27.8099H128.173L127.593 29.2641C127.281 29.3266 126.969 29.3266 126.656 29.2641L129.065 23.4646C129.316 23.4108 129.574 23.4108 129.833 23.4646L132.224 29.2641L132.224 29.2645ZM130.404 27.0428L129.43 24.6337L128.458 27.0428H130.404ZM137.38 23.4649C137.674 23.4025 137.977 23.4025 138.289 23.4649V29.2652C137.977 29.3269 137.674 29.3269 137.38 29.2652V26.6952H134.194V29.2648C133.9 29.3273 133.596 29.3273 133.284 29.2648V23.4646C133.597 23.4028 133.9 23.4028 134.194 23.4646V25.927H137.379V23.4646L137.38 23.4649ZM144.721 29.2645C144.426 29.3273 144.123 29.3273 143.811 29.2645V24.9904L140.457 29.2645C140.216 29.3091 139.975 29.3091 139.734 29.2645V23.4649C140.046 23.4025 140.349 23.4025 140.644 23.4649V27.7398L144.007 23.4649C144.248 23.4116 144.489 23.4116 144.73 23.4649L144.721 29.2645ZM150.099 28.4705C150.162 28.7295 150.162 28.9881 150.099 29.2467H146.156V23.4471H150.099C150.162 23.7057 150.162 23.9647 150.099 24.2237H147.065V25.9191H149.823C149.876 26.1777 149.876 26.4359 149.823 26.6948H147.066V28.497L150.1 28.4701L150.099 28.4705Z" fill="#082CAF"/>
</g>
<mask id="mask1_116_3930" style="mask-type:luminance" maskUnits="userSpaceOnUse" x="0" y="15" width="151" height="15">
<path d="M0 15.418H150.147V29.4163H0V15.418Z" fill="white"/>
</mask>
<g mask="url(#mask1_116_3930)">
<path d="M0 29.2667H13.7179V15.5488H0V29.2667ZM12.0036 27.5514H1.71501V17.2631H12.0036V27.5514ZM8.51985 26.963L3.96465 22.4078L8.51985 17.8515V20.2766L6.38898 22.4074L8.52022 24.5383L8.51985 26.963Z" fill="#FF3A4F"/>
</g>
</g>
<defs>
<clipPath id="clip0_116_3930">
<rect width="150" height="45" fill="white"/>
</clipPath>
</defs>
</svg>
