<svg width="132" height="40" viewBox="0 0 132 40" fill="none" xmlns="http://www.w3.org/2000/svg">
<path fill-rule="evenodd" clip-rule="evenodd" d="M18.3945 26.4382C18.3945 31.0918 14.7256 34.4666 8.89779 34.4666C5.51853 34.3721 2.31612 32.9202 0 30.433L1.94905 28.2556C3.77331 30.0101 5.91976 31.7153 8.85921 31.7153C12.1243 31.7153 15.6445 29.8657 15.6445 26.5448C15.6445 23.7865 13.4743 21.9873 8.91367 20.5686C3.71659 18.9643 1.07663 16.787 1.07663 12.6937C1.07663 8.64275 4.47101 5.31836 9.30733 5.31836C12.9195 5.31836 15.1795 6.8734 17.3792 8.86049L15.4631 11.0091C13.5344 9.28333 11.6966 8.11332 9.4412 8.11332C6.64356 8.11332 3.88221 9.93538 3.88221 12.5585C3.88221 14.9351 5.23452 16.4489 10.0084 17.9249C14.3808 19.2851 18.3945 21.3938 18.3945 26.4382ZM41.984 8.00233C41.984 9.27861 43.008 10.3133 44.2712 10.3133C44.8779 10.3136 45.4597 10.0702 45.8887 9.63673C46.3177 9.20329 46.5585 8.61532 46.5583 8.00233C46.5583 6.72605 45.5343 5.69142 44.2712 5.69142C43.008 5.69142 41.984 6.72605 41.984 8.00233ZM64.1168 6.16506H61.3599V34.0102H64.1168V6.16506ZM70.5508 33.0833C70.5508 33.0833 72.248 34.4757 77.9023 34.4757L77.8988 34.4746C83.4805 34.4746 88.0105 30.3514 88.0105 24.718C88.0105 19.0844 83.4839 14.9774 77.9023 14.9774C76.3189 14.9346 74.7471 15.2592 73.3076 15.9262V6.16506H70.5508V33.0833ZM91.2292 24.7423C91.2288 30.3783 95.7517 34.9474 101.332 34.9481C106.912 34.9481 111.436 30.3794 111.437 24.7431C111.437 19.1072 106.913 14.5384 101.333 14.5382C95.7533 14.538 91.2296 19.1065 91.2292 24.7423ZM128.153 34.0188H131.752L123.796 24.4467L131.215 15.4693H127.637L122.002 22.2878L116.339 15.4693H112.74L120.213 24.4592L112.313 34.0188H115.89L122.006 26.6183L128.153 34.0188ZM101.349 17.2934C98.3732 17.2929 95.69 19.1034 94.5511 21.8804C93.412 24.6575 94.0413 27.8541 96.1456 29.9796C98.2499 32.1052 101.415 32.741 104.164 31.5904C106.913 30.4398 108.706 27.7297 108.705 24.7237C108.704 20.6203 105.411 17.294 101.349 17.2934ZM77.9019 17.7678C76.2556 17.7912 74.6544 18.3152 73.3072 19.2715V30.7644C74.7351 31.4654 76.3171 31.785 77.9019 31.6928C81.9611 31.6928 85.2533 28.8276 85.2533 24.7303C85.2533 20.6331 81.9577 17.7667 77.8985 17.7667L77.9019 17.7678ZM52.1719 6.16537H54.9287V34.0105H52.1719V6.16537ZM35.1692 34.0126L25.526 24.272L34.2559 15.4483H38.154L29.4241 24.272L39.0673 34.0126H35.1692ZM22.7605 6.16506V34.0102H25.5173V6.16506H22.7605ZM42.9896 34.0126H45.7464V15.4483H42.9896V34.0126Z" fill="black"/>
</svg>
