<svg width="145" height="45" viewBox="0 0 145 45" fill="none" xmlns="http://www.w3.org/2000/svg">
<mask id="mask0_103_4311" style="mask-type:luminance" maskUnits="userSpaceOnUse" x="0" y="0" width="145" height="45">
<path d="M144.231 0H0V45H144.231V0Z" fill="white"/>
</mask>
<g mask="url(#mask0_103_4311)">
<path fill-rule="evenodd" clip-rule="evenodd" d="M7.75765 9.50023C8.31727 9.73998 8.79738 10.0597 9.19708 10.4593C9.59677 10.8589 9.91673 11.3386 10.1571 11.898C10.3968 12.4574 10.5568 13.0169 10.5568 13.6564V15.015C10.5568 15.3348 10.3968 15.5745 10.0771 15.6545L6.79812 16.5336C6.47792 16.6136 6.318 16.5336 6.318 16.134V13.7362C6.318 13.4965 6.23804 13.2567 6.07812 13.0969C5.91831 12.937 5.67842 12.8571 5.43865 12.8571H5.11835C4.87835 12.8571 4.63846 12.937 4.47865 13.0969C4.31873 13.2567 4.23877 13.4965 4.23877 13.7362V17.0133C4.23877 17.2529 4.31873 17.4928 4.39869 17.7326C4.47865 17.8924 4.63846 18.1322 4.79838 18.2921L9.51681 21.8886C9.91673 22.2085 10.1571 22.6079 10.237 22.9277C10.317 23.2475 10.3968 23.647 10.4768 24.1266V30.3607C10.4768 31.0002 10.317 31.5596 10.0771 32.1192C9.83688 32.6786 9.51681 33.1582 9.11712 33.5577C8.71742 33.9574 8.23731 34.2771 7.67769 34.517C7.11785 34.7568 6.55777 34.9165 5.91831 34.9165H4.5585C3.91904 34.9165 3.35896 34.7568 2.79935 34.517C2.2395 34.2771 1.75938 33.9574 1.35969 33.5577C0.960002 33.1582 0.640269 32.6786 0.400385 32.1192C0.159923 31.7195 0 31.0802 0 30.5205V27.0039C0 26.6842 0.159925 26.4445 0.480348 26.3645L3.75912 25.4854C4.07885 25.4054 4.23877 25.4854 4.23877 25.8848V30.3607C4.23877 30.6005 4.31873 30.8404 4.47865 31.0002C4.63846 31.1601 4.87835 31.2401 5.11835 31.2401H5.43865C5.67842 31.2401 5.91831 31.1601 6.07812 31.0002C6.23804 30.8404 6.318 30.6005 6.318 30.3607V25.5653C6.318 25.2456 6.23804 25.0057 6.15808 24.766C6.07811 24.5263 5.91831 24.2865 5.75838 24.1266L1.03996 20.53C0.640272 20.2102 0.400385 19.8905 0.24 19.4909C0.0799618 19.1712 0 18.6917 0 18.1322V13.8162C0 13.1767 0.159923 12.6172 0.400385 12.0579C0.640269 11.4984 0.960002 11.0188 1.35969 10.6191C1.75938 10.2195 2.2395 9.89982 2.79935 9.66007C3.35896 9.42028 3.91904 9.26043 4.5585 9.26043H5.91831C6.55777 9.18053 7.19781 9.26043 7.75765 9.50023ZM25.4316 13.1767C25.5115 13.2567 25.5115 13.4165 25.4316 13.4965L20.4734 22.7679L25.3517 34.2771C25.4316 34.437 25.3517 34.517 25.3517 34.597C25.2718 34.6769 25.1918 34.7568 25.0319 34.7568H21.4332C21.2732 34.7568 21.1933 34.6769 21.0329 34.597C20.8731 34.517 20.7931 34.437 20.7931 34.2771L18.1543 28.2827L17.5143 29.4816V34.2771C17.5143 34.597 17.3544 34.7568 17.0347 34.7568H13.8355C13.5158 34.7568 13.3559 34.597 13.3559 34.2771V13.4965C13.3559 13.1767 13.5158 13.0169 13.8355 13.0169H17.0347C17.3544 13.0169 17.5143 13.1767 17.5143 13.4965V19.8105L20.8731 13.4165C21.0329 13.0969 21.1933 13.0169 21.5932 13.0169H25.1918C25.3517 13.0169 25.4316 13.0969 25.4316 13.1767ZM32.1494 34.2771C32.1494 34.597 31.9895 34.7568 31.6697 34.7568H28.4706C28.1508 34.7568 27.9909 34.597 27.9909 34.2771V13.4965C27.9909 13.1767 28.1508 13.0169 28.4706 13.0169H31.6697C31.9895 13.0169 32.1494 13.1767 32.1494 13.4965V34.2771ZM44.865 31.0802V34.2771C44.865 34.597 44.7052 34.7568 44.3853 34.7568H36.1483C35.8285 34.7568 35.6684 34.597 35.6684 34.2771V13.4965C35.6684 13.1767 35.8285 13.0169 36.1483 13.0169H39.3472C39.6669 13.0169 39.8268 13.1767 39.8268 13.4965V30.5205H44.3054C44.7052 30.5205 44.865 30.7604 44.865 31.0802ZM56.8613 31.0802V34.2771C56.8613 34.597 56.7014 34.7568 56.3815 34.7568H48.144C47.824 34.7568 47.6641 34.597 47.6641 34.2771V13.4965C47.6641 13.1767 47.824 13.0169 48.144 13.0169H51.3429C51.6631 13.0169 51.823 13.1767 51.823 13.4965V30.5205H56.3017C56.7014 30.5205 56.8613 30.7604 56.8613 31.0802ZM68.2974 9.89982V13.0969C68.2974 13.4165 68.137 13.5764 67.8174 13.5764H63.6588V18.7716H67.2578C67.5774 18.7716 67.7378 18.9314 67.7378 19.2512V22.448C67.7378 22.7678 67.5774 22.9277 67.2578 22.9277H63.6588V34.1173C63.6588 34.437 63.499 34.597 63.1793 34.597H59.9804C59.6604 34.597 59.5005 34.437 59.5005 34.1173V9.89982C59.5005 9.58013 59.6604 9.42028 59.9804 9.42028H67.8982C68.137 9.42028 68.2974 9.58013 68.2974 9.89982ZM80.6136 34.2771C80.6932 34.597 80.534 34.7568 80.2132 34.7568H76.934C76.6143 34.7568 76.4551 34.597 76.3743 34.2771L76.0547 30.6805H73.8151L73.4955 34.2771C73.4159 34.597 73.2555 34.7568 72.9359 34.7568H69.6567C69.337 34.7568 69.1778 34.597 69.2574 34.2771L71.9759 13.4965C72.0567 13.1767 72.2159 13.0169 72.5367 13.0169H77.3344C77.654 13.0169 77.894 13.1767 77.894 13.4965L80.6136 34.2771ZM90.3705 13.1767C90.9301 13.4165 91.4101 13.7362 91.8093 14.1359C92.2097 14.5355 92.5293 15.015 92.7693 15.5745C93.0093 16.134 93.1697 16.6935 93.1697 17.3329V19.4909C93.1697 19.8105 93.0093 20.0504 92.6886 20.1303L89.4105 20.6098C89.0909 20.6898 88.9305 20.6098 88.9305 20.2102V17.4129C88.9305 17.1731 88.8509 16.9333 88.6905 16.7734C88.5313 16.6136 88.2913 16.5336 88.0501 16.5336H87.7305C87.4905 16.5336 87.2517 16.6136 87.0913 16.7734C86.9309 16.9333 86.8513 17.1731 86.8513 17.4129V30.2008C86.8513 30.4407 86.9309 30.6805 87.0913 30.8404C87.2517 31.0002 87.4905 31.0802 87.7305 31.0802H88.0501C88.2913 31.0802 88.5313 31.0002 88.6905 30.8404C88.8509 30.6805 88.9305 30.4407 88.9305 30.2008V25.8848C88.9305 25.5653 89.0909 25.4054 89.4105 25.4854L92.6886 25.8848C93.0093 25.9648 93.1697 26.2046 93.1697 26.5244V30.3607C93.1697 31.0002 93.0093 31.5596 92.7693 32.1192C92.5293 32.6786 92.2097 33.1582 91.8093 33.5577C91.4101 33.9574 90.9301 34.2771 90.3705 34.517C89.8109 34.7568 89.2501 34.9165 88.6109 34.9165H87.2517C86.6113 34.9165 86.0517 34.7568 85.492 34.517C84.9313 34.2771 84.4524 33.9574 84.052 33.5577C83.6528 33.1582 83.332 32.6786 83.092 32.1192C82.852 31.5596 82.6928 31.0002 82.6928 30.3607V17.3329C82.6928 16.6935 82.852 16.134 83.092 15.5745C83.332 15.015 83.6528 14.5355 84.052 14.1359C84.4524 13.7362 84.9313 13.4165 85.492 13.1767C86.0517 12.937 86.6113 12.7772 87.2517 12.7772H88.6109C89.2501 12.7772 89.8109 12.8571 90.3705 13.1767ZM104.845 13.5764V16.7734C104.845 17.0931 104.685 17.2529 104.366 17.2529H101.806V34.2771C101.806 34.597 101.646 34.7568 101.326 34.7568H98.1278C97.9674 34.7568 97.8878 34.6769 97.8082 34.597C97.7274 34.517 97.6478 34.3571 97.6478 34.1973V17.2529H95.0886C94.769 17.2529 94.6086 17.0931 94.6086 16.7734V13.5764C94.6086 13.2567 94.769 13.0969 95.0886 13.0969H104.445C104.685 13.0169 104.845 13.1767 104.845 13.5764ZM117.241 30.5205C117.241 31.1601 117.081 31.7195 116.841 32.2791C116.601 32.8384 116.281 33.318 115.882 33.7176C115.482 34.1173 115.002 34.437 114.442 34.6769C113.882 34.9165 113.323 35.0764 112.682 35.0764H111.323C110.684 35.0764 110.123 34.9165 109.564 34.6769C109.004 34.437 108.524 34.1173 108.125 33.7176C107.724 33.318 107.405 32.8384 107.165 32.2791C106.925 31.7195 106.764 31.1601 106.764 30.5205V17.3329C106.764 16.6935 106.925 16.134 107.165 15.5745C107.405 15.015 107.724 14.5355 108.125 14.1359C108.524 13.7362 109.004 13.4165 109.564 13.1767C110.123 12.937 110.684 12.7772 111.323 12.7772H112.682C113.323 12.7772 113.882 12.937 114.442 13.1767C115.002 13.4165 115.482 13.7362 115.882 14.1359C116.281 14.5355 116.601 15.015 116.841 15.5745C117.081 16.134 117.241 16.6935 117.241 17.3329V30.5205ZM124.359 34.2771C124.359 34.597 124.199 34.7568 123.798 34.7568H120.6C120.28 34.7568 120.12 34.597 120.12 34.2771V13.4965C120.12 13.1767 120.28 13.0169 120.6 13.0169H126.038C126.678 13.0169 127.238 13.1767 127.798 13.4165C128.357 13.6564 128.837 13.976 129.237 14.3757C129.637 14.7753 129.957 15.2548 130.197 15.8143C130.437 16.3738 130.597 16.9333 130.597 17.5727V22.0485C130.597 22.9277 130.357 23.7269 129.797 24.4463C129.237 25.1657 128.597 25.7249 127.877 26.1247L131.316 34.2771C131.397 34.597 131.236 34.7568 130.917 34.7568H127.637C127.478 34.7568 127.318 34.6769 127.238 34.597C127.078 34.517 126.998 34.3571 126.998 34.1973L124.359 27.4835V34.2771ZM144.592 13.1767C144.672 13.2567 144.672 13.4165 144.592 13.4965L140.433 26.3645V34.2771C140.433 34.597 140.273 34.7568 139.953 34.7568H136.674C136.355 34.7568 136.195 34.597 136.195 34.2771V26.3645L131.956 13.5764C131.877 13.4165 131.956 13.3367 131.956 13.2567C132.036 13.1767 132.117 13.0969 132.276 13.0969H136.115C136.435 13.0969 136.674 13.2567 136.674 13.5764L138.114 20.53H138.273L139.713 13.5764C139.793 13.2567 139.953 13.0969 140.273 13.0969H144.112C144.432 13.0169 144.512 13.0969 144.592 13.1767ZM75.7351 26.6842L75.0151 18.6917H74.6955L73.9755 26.6842H75.7351ZM112.922 17.4928C112.922 17.2529 112.843 17.0133 112.682 16.8533C112.523 16.6935 112.283 16.6136 112.042 16.6136H111.722C111.482 16.6136 111.244 16.6935 111.083 16.8533C110.923 17.0133 110.843 17.2529 110.843 17.4928V30.281C110.843 30.5205 110.923 30.7604 111.083 30.9203C111.244 31.0802 111.482 31.1601 111.722 31.1601H112.042C112.283 31.1601 112.523 31.0802 112.682 30.9203C112.843 30.7604 112.922 30.5205 112.922 30.281V17.4928ZM124.359 22.7679H125.558C125.798 22.7679 126.038 22.6879 126.197 22.528C126.358 22.3682 126.437 22.1285 126.437 21.8886V17.8124C126.437 17.5727 126.358 17.3329 126.197 17.1731C126.038 17.0133 125.798 16.9333 125.558 16.9333H124.359V22.7679Z" fill="black"/>
</g>
</svg>
