<svg width="40" height="60" viewBox="0 0 40 60" fill="none" xmlns="http://www.w3.org/2000/svg">
<path fill-rule="evenodd" clip-rule="evenodd" d="M27.0751 28.3369C26.4126 28.3369 25.5626 28.1244 24.5001 27.4994L20.7626 25.2869C20.3751 25.0619 19.6251 25.0619 19.2501 25.2869L15.5001 27.4994C13.2876 28.8119 11.9876 28.2869 11.4001 27.8619C10.8251 27.4369 9.92515 26.3494 10.5126 23.8494L11.4001 20.0119C11.5001 19.6119 11.3001 18.9244 11.0001 18.6244L7.90015 15.5244C6.35015 13.9744 6.47515 12.6494 6.68765 11.9994C6.90015 11.3494 7.57515 10.1994 9.72515 9.83691L13.7126 9.17441C14.0876 9.11191 14.6251 8.71191 14.7876 8.37441L17.0001 3.96191C18.0001 1.94941 19.3126 1.64941 20.0001 1.64941C20.6876 1.64941 22.0001 1.94941 23.0001 3.96191L25.2001 8.36191C25.3751 8.69941 25.9126 9.09941 26.2876 9.16191L30.2751 9.82441C32.4376 10.1869 33.1126 11.3369 33.3126 11.9869C33.5126 12.6369 33.6376 13.9619 32.1001 15.5119L29.0001 18.6244C28.7001 18.9244 28.5126 19.5994 28.6001 20.0119L29.4876 23.8494C30.0626 26.3494 29.1751 27.4369 28.6001 27.8619C28.2876 28.0869 27.7876 28.3369 27.0751 28.3369ZM21.7126 23.6744C21.2251 23.3869 20.6126 23.2369 20.0001 23.2369C19.3876 23.2369 18.7751 23.3869 18.3001 23.6744L14.5626 25.8869C13.4626 26.5244 12.7876 26.5369 12.5251 26.3494C12.2626 26.1619 12.0626 25.5119 12.3501 24.2744L13.2376 20.4369C13.4751 19.3994 13.0876 18.0494 12.3376 17.2994L9.23765 14.1994C8.62515 13.5994 8.33765 12.9869 8.47515 12.5744C8.61265 12.1619 9.18765 11.8244 10.0376 11.6869L14.0126 11.0244C14.9751 10.8619 16.0251 10.0869 16.4626 9.21191L18.6751 4.81191C19.0626 4.01191 19.5626 3.53691 20.0001 3.53691C20.4376 3.53691 20.9376 4.01191 21.3376 4.81191L23.5376 9.21191C23.9751 10.0869 25.0252 10.8619 25.9877 11.0244L29.9751 11.6869C30.8251 11.8244 31.4001 12.1619 31.5376 12.5744C31.6626 12.9869 31.3876 13.5869 30.7751 14.1994L27.6751 17.2994C26.9251 18.0619 26.5376 19.3994 26.7751 20.4369L27.6626 24.2744C27.9376 25.4994 27.7502 26.1619 27.4877 26.3494C27.2252 26.5369 26.5377 26.5369 25.4502 25.8869L21.7126 23.6744Z" fill="#8A48F5"/>
<path fill-rule="evenodd" clip-rule="evenodd" d="M27.0751 58.3369C26.4126 58.3369 25.5626 58.1244 24.5001 57.4994L20.7626 55.2869C20.3751 55.0619 19.6251 55.0619 19.2501 55.2869L15.5001 57.4994C13.2876 58.8119 11.9876 58.2869 11.4001 57.8619C10.8251 57.4369 9.92515 56.3494 10.5126 53.8494L11.4001 50.0119C11.5001 49.6119 11.3001 48.9244 11.0001 48.6244L7.90015 45.5244C6.35015 43.9744 6.47515 42.6494 6.68765 41.9994C6.90015 41.3494 7.57515 40.1994 9.72515 39.8369L13.7126 39.1744C14.0876 39.1119 14.6251 38.7119 14.7876 38.3744L17.0001 33.9619C18.0001 31.9494 19.3126 31.6494 20.0001 31.6494C20.6876 31.6494 22.0001 31.9494 23.0001 33.9619L25.2001 38.3619C25.3751 38.6994 25.9126 39.0994 26.2876 39.1619L30.2751 39.8244C32.4376 40.1869 33.1126 41.3369 33.3126 41.9869C33.5126 42.6369 33.6376 43.9619 32.1001 45.5119L29.0001 48.6244C28.7001 48.9244 28.5126 49.5994 28.6001 50.0119L29.4876 53.8494C30.0626 56.3494 29.1751 57.4369 28.6001 57.8619C28.2876 58.0869 27.7876 58.3369 27.0751 58.3369Z" fill="#8A48F5"/>
</svg>
