<svg width="30" height="31" viewBox="0 0 30 31" fill="none" xmlns="http://www.w3.org/2000/svg">
<path fill-rule="evenodd" clip-rule="evenodd" d="M15 30.5C23.2843 30.5 30 23.7843 30 15.5C30 7.21574 23.2843 0.5 15 0.5C6.71574 0.5 0 7.21574 0 15.5C0 23.7843 6.71574 30.5 15 30.5ZM21.5932 10.0833C21.7088 8.76929 20.3212 9.31034 20.3212 9.31034C19.2966 9.73448 18.24 10.1655 17.1719 10.6012C13.8602 11.952 10.4389 13.3476 7.52433 14.7211C5.94399 15.3008 6.86907 15.8806 6.86907 15.8806L9.37449 16.6535C10.5308 17.0013 11.1476 16.6149 11.1476 16.6149L16.5438 12.9433C18.471 11.6293 18.0085 12.7114 17.546 13.1752L13.4987 17.04C12.882 17.581 13.1904 18.0448 13.4602 18.2767C14.2249 18.9514 16.106 20.1859 16.9272 20.7248C17.1409 20.865 17.2829 20.9581 17.3147 20.9821C17.5074 21.1367 18.5481 21.8323 19.2419 21.6777C19.9358 21.5232 20.0128 20.6343 20.0128 20.6343L20.9379 14.5665C21.0767 13.5131 21.2358 12.5006 21.3629 11.6919C21.483 10.9281 21.5744 10.3462 21.5932 10.0833Z" fill="#433FEA"/>
</svg>
