<svg width="30" height="31" viewBox="0 0 30 31" fill="none" xmlns="http://www.w3.org/2000/svg">
<path fill-rule="evenodd" clip-rule="evenodd" d="M15 30.5C23.2843 30.5 30 23.7843 30 15.5C30 7.21574 23.2843 0.5 15 0.5C6.71574 0.5 0 7.21574 0 15.5C0 23.7843 6.71574 30.5 15 30.5ZM20.7273 11.4091C21.341 11.341 21.9545 11.2046 22.5 10.9319C22.0909 11.5456 21.6137 12.0909 20.9317 12.4319V12.841C20.9317 16.9319 17.8636 21.5681 12.2046 21.5681C10.4319 21.5681 8.86356 21.0909 7.5 20.2046C7.77267 20.2727 7.97721 20.2727 8.24988 20.2727C9.68178 20.2727 11.0453 19.7954 12.0681 18.9772C10.7046 18.9772 9.61368 18.0909 9.20457 16.8636C9.34101 16.9317 9.54555 16.9317 9.75012 16.9317C10.0221 16.9317 10.2942 16.8637 10.5662 16.7957L10.5683 16.7952C9.13668 16.5226 8.11392 15.2952 8.11392 13.7952V13.7271C8.52303 13.9998 9.00024 14.1362 9.47745 14.1362C8.65947 13.5906 8.11392 12.7043 8.11392 11.6134C8.11392 10.9998 8.25036 10.5226 8.52303 10.0453C10.0911 11.8863 12.341 13.1134 14.8638 13.2499C14.7957 13.0453 14.7957 12.8408 14.7957 12.5681C14.7957 10.8636 16.1592 9.5 17.8638 9.5C18.7501 9.5 19.5681 9.84077 20.1137 10.4545C20.8636 10.3182 21.4772 10.0456 22.0909 9.70457C21.8182 10.4547 21.341 11 20.7273 11.4091Z" fill="#433FEA"/>
</svg>
