<svg width="24" height="30" viewBox="0 0 24 30" fill="none" xmlns="http://www.w3.org/2000/svg">
<path d="M10.7896 18.1703C10.5896 18.1703 10.3996 18.0903 10.2596 17.9503L7.83957 15.5303C7.54957 15.2403 7.54957 14.7603 7.83957 14.4703C8.12957 14.1803 8.60957 14.1803 8.89957 14.4703L10.7896 16.3603L15.0896 12.0603C15.3796 11.7703 15.8596 11.7703 16.1496 12.0603C16.4396 12.3503 16.4396 12.8303 16.1496 13.1203L11.3196 17.9503C11.1796 18.0903 10.9896 18.1703 10.7896 18.1703Z" fill="#433FEA"/>
<path d="M11.9999 25.75C11.3699 25.75 10.7399 25.54 10.2499 25.12L8.66988 23.76C8.50988 23.62 8.10988 23.48 7.89988 23.48H6.17988C4.69988 23.48 3.49988 22.28 3.49988 20.8V19.09C3.49988 18.88 3.35988 18.49 3.21988 18.33L1.86988 16.74C1.04988 15.77 1.04988 14.24 1.86988 13.27L3.21988 11.68C3.35988 11.52 3.49988 11.13 3.49988 10.92V9.2C3.49988 7.72 4.69988 6.52 6.17988 6.52H7.90988C8.11988 6.52 8.51988 6.37 8.67988 6.24L10.2599 4.88C11.2399 4.04 12.7699 4.04 13.7499 4.88L15.3299 6.24C15.4899 6.38 15.8899 6.52 16.0999 6.52H17.7999C19.2799 6.52 20.4799 7.72 20.4799 9.2V10.9C20.4799 11.11 20.6299 11.51 20.7699 11.67L22.1299 13.25C22.9699 14.23 22.9699 15.76 22.1299 16.74L20.7699 18.32C20.6299 18.48 20.4799 18.88 20.4799 19.09V20.79C20.4799 22.27 19.2799 23.47 17.7999 23.47H16.0999C15.8899 23.47 15.4899 23.62 15.3299 23.75L13.7499 25.11C13.2599 25.54 12.6299 25.75 11.9999 25.75ZM6.17988 8.02C5.52988 8.02 4.99988 8.55 4.99988 9.2V10.91C4.99988 11.48 4.72988 12.21 4.35988 12.64L3.00988 14.23C2.65988 14.64 2.65988 15.35 3.00988 15.76L4.35988 17.35C4.72988 17.79 4.99988 18.51 4.99988 19.08V20.79C4.99988 21.44 5.52988 21.97 6.17988 21.97H7.90988C8.48988 21.97 9.21988 22.24 9.65988 22.62L11.2399 23.98C11.6499 24.33 12.3699 24.33 12.7799 23.98L14.3599 22.62C14.7999 22.25 15.5299 21.97 16.1099 21.97H17.8099C18.4599 21.97 18.9899 21.44 18.9899 20.79V19.09C18.9899 18.51 19.2599 17.78 19.6399 17.34L20.9999 15.76C21.3499 15.35 21.3499 14.63 20.9999 14.22L19.6399 12.64C19.2599 12.2 18.9899 11.47 18.9899 10.89V9.2C18.9899 8.55 18.4599 8.02 17.8099 8.02H16.1099C15.5299 8.02 14.7999 7.75 14.3599 7.37L12.7799 6.01C12.3699 5.66 11.6499 5.66 11.2399 6.01L9.65988 7.38C9.21988 7.75 8.47988 8.02 7.90988 8.02H6.17988Z" fill="#433FEA"/>
</svg>
