<svg width="30" height="31" viewBox="0 0 30 31" fill="none" xmlns="http://www.w3.org/2000/svg">
<path fill-rule="evenodd" clip-rule="evenodd" d="M15 30.5C23.2843 30.5 30 23.7843 30 15.5C30 7.21574 23.2843 0.5 15 0.5C6.71574 0.5 0 7.21574 0 15.5C0 23.7843 6.71574 30.5 15 30.5ZM20.8638 9.14609C20.4727 8.79071 18.7843 7.72988 15.2615 7.71452C15.2615 7.71452 11.09 7.44044 9.06507 9.27461C7.93803 10.3874 7.55835 12.0422 7.51671 14.0616C7.51533 14.1287 7.51374 14.1978 7.51212 14.2688C7.46505 16.3342 7.38213 19.9729 10.9532 20.9649C10.9532 20.9649 10.9386 23.8289 10.937 24.0806C10.937 24.2566 10.9649 24.3771 11.0655 24.4019C11.1378 24.4195 11.2462 24.3821 11.3384 24.2902C11.9291 23.697 13.8199 21.4158 13.8199 21.4158C16.357 21.5815 18.3756 21.0806 18.5926 21.0096C18.6438 20.9932 18.7174 20.976 18.8089 20.9547H18.809C19.6344 20.7622 21.9197 20.2294 22.3414 16.8228C22.8256 12.9217 22.1635 10.2589 20.8638 9.14609ZM14.5993 9.9527C14.6003 9.80234 14.7231 9.68132 14.8734 9.68234C16.2491 9.69194 17.4137 10.1503 18.3485 11.0616C19.2924 11.9817 19.7575 13.2332 19.7693 14.7826C19.7704 14.9329 19.6495 15.0557 19.4991 15.0569C19.3487 15.058 19.2259 14.937 19.2248 14.7867C19.2138 13.3496 18.7866 12.2491 17.9684 11.4515C17.1413 10.6452 16.1146 10.2355 14.8696 10.2269C14.7193 10.2258 14.5982 10.1031 14.5993 9.9527ZM15.3113 10.8323C15.1213 10.8184 14.956 10.9612 14.9421 11.1512C14.9282 11.3412 15.071 11.5065 15.261 11.5204C16.1363 11.5845 16.7812 11.8758 17.2402 12.3768C17.7024 12.8819 17.9314 13.5119 17.9144 14.2933C17.9103 14.4838 18.0614 14.6415 18.2519 14.6457C18.4424 14.6498 18.6002 14.4987 18.6043 14.3082C18.6246 13.3686 18.3438 12.5607 17.7492 11.9109L17.7491 11.9108C17.1464 11.253 16.3218 10.9063 15.3113 10.8323ZM15.6582 12.1684C15.508 12.1606 15.38 12.276 15.3721 12.4261C15.3643 12.5763 15.4797 12.7044 15.6298 12.7122C16.0302 12.7331 16.2967 12.8496 16.4696 13.0283C16.6437 13.2084 16.7588 13.4887 16.7796 13.9091C16.7871 14.0593 16.9149 14.175 17.0651 14.1676C17.2152 14.1601 17.3309 14.0323 17.3235 13.8821C17.2985 13.3789 17.156 12.9548 16.861 12.6498C16.5647 12.3434 16.1504 12.1941 15.6582 12.1684ZM16.1996 16.8585C16.0214 17.0781 15.6903 17.0502 15.6903 17.0502C13.2706 16.4325 12.623 13.9814 12.623 13.9814C12.623 13.9814 12.5939 13.6504 12.8146 13.4721L13.2518 13.1245C13.4686 12.9575 13.6069 12.5521 13.3862 12.1562C13.2169 11.859 13.0329 11.5705 12.8347 11.2918C12.6422 11.0289 12.1938 10.4905 12.1921 10.4888C11.9759 10.2337 11.6579 10.1745 11.3227 10.3491C11.3217 10.3491 11.3203 10.3496 11.3189 10.35C11.3177 10.3504 11.3165 10.3508 11.3157 10.3508C10.9823 10.5429 10.6816 10.787 10.425 11.0739C10.4241 11.0756 10.4233 11.0764 10.4224 11.0773C10.4216 11.078 10.4208 11.0788 10.42 11.0803C10.2129 11.3302 10.0943 11.5753 10.0643 11.8153C10.0581 11.8507 10.0559 11.8867 10.0579 11.9226C10.0568 12.0286 10.0729 12.1342 10.1057 12.235L10.1171 12.2428C10.2216 12.6138 10.4831 13.2318 11.0514 14.2622C11.3765 14.8582 11.7513 15.4256 12.172 15.9583C12.3828 16.2254 12.6087 16.4802 12.8487 16.7214L12.8573 16.73L12.8573 16.7301C12.863 16.7358 12.8686 16.7415 12.8744 16.747L12.9001 16.7728L12.9258 16.7985L12.9515 16.8242C13.1927 17.0641 13.4474 17.2901 13.7145 17.5008C14.2473 17.9216 14.8148 18.2965 15.4109 18.6214C16.441 19.1897 17.0596 19.4512 17.43 19.5557L17.4379 19.5672C17.5387 19.6 17.6442 19.6162 17.7502 19.6152C17.7861 19.617 17.8221 19.6147 17.8575 19.6085C18.098 19.58 18.3428 19.4617 18.592 19.2534C18.5929 19.2529 18.5935 19.2525 18.594 19.252C18.5944 19.2516 18.5947 19.2514 18.595 19.251C18.5959 19.2502 18.5967 19.2493 18.5984 19.2484C18.8853 18.9918 19.1294 18.6911 19.3218 18.3577C19.3218 18.3569 19.3221 18.3557 19.3224 18.3545L19.3224 18.3545V18.3544C19.3228 18.3531 19.3232 18.3517 19.3232 18.3507C19.4978 18.0155 19.4386 17.6975 19.1821 17.481C19.1817 17.481 19.1608 17.4638 19.1254 17.4346C18.98 17.3148 18.5905 16.9939 18.3791 16.8384C18.1007 16.6403 17.8124 16.4562 17.5155 16.2869C17.1194 16.0662 16.7148 16.2045 16.5472 16.4213L16.1996 16.8585Z" fill="#433FEA"/>
</svg>
