<svg width="30" height="31" viewBox="0 0 30 31" fill="none" xmlns="http://www.w3.org/2000/svg">
<path fill-rule="evenodd" clip-rule="evenodd" d="M15 30.5C23.2843 30.5 30 23.7843 30 15.5C30 7.21574 23.2843 0.5 15 0.5C6.71574 0.5 0 7.21574 0 15.5C0 23.7843 6.71574 30.5 15 30.5ZM7.5 10.7C7.6218 16.5463 10.5449 20.0598 15.6698 20.0598H15.9604V16.715C17.8436 16.9024 19.2676 18.2797 19.8391 20.0598H22.5C21.7692 17.3989 19.8485 15.928 18.6492 15.3658C19.8485 14.6725 21.5349 12.9861 21.9378 10.7H19.5205C18.9958 12.5551 17.4407 14.2415 15.9604 14.4008V10.7H13.5431V17.1835C12.044 16.8087 10.1515 14.9911 10.0672 10.7H7.5Z" fill="#433FEA"/>
</svg>
