<svg width="30" height="18" viewBox="0 0 30 18" fill="none" xmlns="http://www.w3.org/2000/svg">
<path fill-rule="evenodd" clip-rule="evenodd" d="M14.6781 17.9245H16.4713C16.4713 17.9245 17.0128 17.8617 17.2897 17.5484C17.5442 17.2604 17.536 16.72 17.536 16.72C17.536 16.72 17.5009 14.1895 18.6175 13.8169C19.7185 13.4496 21.1321 16.2625 22.6303 17.3442C23.7633 18.1625 24.6242 17.9834 24.6242 17.9834L28.6306 17.9245C28.6306 17.9245 30.7263 17.7885 29.7326 16.0555C29.6512 15.914 29.1537 14.7736 26.7536 12.4307C24.2413 9.9784 24.5781 10.3751 27.6041 6.13333C29.447 3.55007 30.1836 1.97307 29.9535 1.29767C29.7341 0.654159 28.3786 0.824148 28.3786 0.824148L23.8678 0.853478C23.8678 0.853478 23.5331 0.805594 23.2853 0.961583C23.0428 1.11413 22.8872 1.47055 22.8872 1.47055C22.8872 1.47055 22.173 3.46941 21.2212 5.16962C19.2125 8.75671 18.4092 8.94658 18.0809 8.72349C17.317 8.2043 17.5079 6.63819 17.5079 5.52527C17.5079 2.04884 18.0093 0.599385 16.5316 0.22419C16.0413 0.0997537 15.6801 0.0174257 14.4261 0.0039823C12.8164 -0.0132387 11.4544 0.00920467 10.6831 0.406621C10.1699 0.670937 9.77391 1.25978 10.0152 1.29367C10.3134 1.33545 10.9885 1.48532 11.3464 1.99751C11.8088 2.65913 11.7926 4.14436 11.7926 4.14436C11.7926 4.14436 12.0583 8.23663 11.1723 8.74482C10.5643 9.09346 9.73018 8.38173 7.93937 5.12729C7.022 3.4603 6.3291 1.61743 6.3291 1.61743C6.3291 1.61743 6.19568 1.27312 5.95736 1.0888C5.66833 0.865478 5.26447 0.794705 5.26447 0.794705L0.977812 0.824148C0.977812 0.824148 0.334464 0.843035 0.0980418 1.13735C-0.112287 1.39933 0.0812464 1.94051 0.0812464 1.94051C0.0812464 1.94051 3.437 10.1979 7.23708 14.3592C10.7218 18.1749 14.6781 17.9245 14.6781 17.9245Z" fill="white"/>
</svg>
