<svg width="30" height="31" viewBox="0 0 30 31" fill="none" xmlns="http://www.w3.org/2000/svg">
<path fill-rule="evenodd" clip-rule="evenodd" d="M15 30.5C23.2843 30.5 30 23.7843 30 15.5C30 7.21574 23.2843 0.5 15 0.5C6.71574 0.5 0 7.21574 0 15.5C0 23.7843 6.71574 30.5 15 30.5ZM20.9288 9.19784C19.3852 7.6523 17.3322 6.80081 15.145 6.8C10.6385 6.8 6.97038 10.4676 6.96876 14.9757C6.96822 16.4167 7.34469 17.8234 8.06004 19.0631L6.9 23.3L11.2343 22.1632C12.4285 22.8147 13.7732 23.1579 15.1414 23.1584H15.1447C19.6509 23.1584 23.319 19.4903 23.3209 14.9825C23.3222 12.7975 22.4727 10.7434 20.9288 9.19784ZM15.1452 21.7774H15.1425C13.923 21.7768 12.7269 21.4492 11.6837 20.8301L11.4354 20.6828L8.86323 21.3575L9.54966 18.8497L9.38814 18.5925C8.70798 17.5105 8.34867 16.2601 8.34924 14.9759C8.35059 11.229 11.3994 8.18075 15.1477 8.18075C16.9628 8.18129 18.669 8.88926 19.9521 10.1737C21.2352 11.4582 21.9412 13.1655 21.9407 14.9814C21.9393 18.7289 18.8908 21.7774 15.1452 21.7774ZM18.8726 16.6876C18.6682 16.5853 17.664 16.0912 17.4765 16.0231C17.2894 15.9548 17.153 15.9207 17.0168 16.1253C16.8807 16.33 16.4892 16.7899 16.37 16.9264C16.2508 17.0628 16.1315 17.0797 15.9275 16.9774C15.8941 16.9606 15.8485 16.9409 15.7923 16.9165L15.7922 16.9165C15.5045 16.7917 14.9372 16.5457 14.2845 15.9633C13.6772 15.4215 13.2672 14.7525 13.148 14.5482C13.0287 14.3436 13.1351 14.2331 13.2374 14.1313C13.2988 14.0701 13.3692 13.9843 13.4396 13.8986C13.4747 13.8558 13.5098 13.813 13.5438 13.7734C13.6304 13.6723 13.668 13.5955 13.7191 13.4915C13.7282 13.4728 13.7378 13.4533 13.7482 13.4326C13.8164 13.2962 13.7823 13.177 13.7312 13.0747C13.6972 13.0063 13.5035 12.535 13.328 12.1077C13.2407 11.8952 13.1578 11.6936 13.1013 11.5578C12.9548 11.2061 12.8065 11.207 12.6874 11.2077C12.6716 11.2078 12.6563 11.2079 12.6416 11.2072C12.5226 11.2012 12.3862 11.2001 12.2501 11.2001C12.1139 11.2001 11.8927 11.2511 11.7053 11.4557C11.6932 11.4689 11.6797 11.4833 11.665 11.499L11.6649 11.4991C11.4521 11.7264 10.9902 12.2194 10.9902 13.1601C10.9902 14.1632 11.7186 15.1324 11.8237 15.2723L11.8245 15.2733C11.8311 15.2822 11.843 15.2993 11.86 15.3236C12.1039 15.6735 13.3985 17.5307 15.3144 18.3581C15.802 18.5687 16.1823 18.6943 16.4791 18.7884C16.9685 18.9439 17.4138 18.922 17.766 18.8694C18.1586 18.8107 18.9746 18.3753 19.1448 17.8981C19.3151 17.421 19.3151 17.0118 19.2641 16.9266C19.2229 16.8577 19.1264 16.811 18.9833 16.7418L18.9833 16.7418C18.949 16.7253 18.912 16.7074 18.8726 16.6876Z" fill="#433FEA"/>
</svg>
