<svg width="20" height="20" viewBox="0 0 20 20" fill="none" xmlns="http://www.w3.org/2000/svg">
<path fill-rule="evenodd" clip-rule="evenodd" d="M17.0859 2.90654C15.2058 1.03324 12.7056 0.00114423 10.0417 0C4.55292 0 0.085655 4.44562 0.0834513 9.90989C0.0827806 11.6566 0.541235 13.3615 1.41273 14.8645L0 20L5.27898 18.6219C6.73348 19.4114 8.37107 19.8276 10.0377 19.8282H10.0418C15.53 19.8282 19.9977 15.382 20 9.91762C20.001 7.26968 18.966 4.77974 17.0859 2.90654ZM10.0418 18.1545H10.0385C8.55331 18.1539 7.0966 17.7567 5.82586 17.0062L5.52358 16.8278L2.39096 17.6456L3.2271 14.6059L3.0303 14.2941C2.20182 12.9827 1.76416 11.4669 1.76483 9.91037C1.76665 5.36873 5.4796 1.67382 10.0452 1.67382C12.2558 1.67458 14.334 2.53247 15.8967 4.08957C17.4594 5.64659 18.3194 7.71612 18.3185 9.91714C18.3167 14.4592 14.6038 18.1545 10.0418 18.1545ZM14.5818 11.985C14.333 11.8612 13.1098 11.2621 12.8816 11.1794C12.6536 11.0969 12.4877 11.0556 12.3218 11.3035C12.156 11.5514 11.679 12.1091 11.5339 12.2744C11.3887 12.4396 11.2436 12.4604 10.9949 12.3363C10.7459 12.2125 9.94429 11.9509 8.99384 11.1072C8.25418 10.4506 7.75482 9.63976 7.60967 9.39175C7.46451 9.14383 7.59415 9.00986 7.7188 8.88638C7.8307 8.77539 7.96762 8.59708 8.09207 8.45252C8.21653 8.30797 8.25792 8.20461 8.34089 8.03936C8.42387 7.87412 8.38238 7.72947 8.3201 7.6056C8.25792 7.48155 7.76028 6.26266 7.55295 5.76682C7.35098 5.28406 7.14585 5.34937 6.99312 5.34174C6.84816 5.33459 6.68212 5.33297 6.51618 5.33297C6.35033 5.33297 6.08082 5.39495 5.85269 5.64287C5.62466 5.89078 4.98187 6.48988 4.98187 7.70878C4.98187 8.92767 5.87339 10.1051 5.99784 10.2704C6.12221 10.4357 7.75243 12.9369 10.2484 14.0096C10.8419 14.2647 11.3055 14.417 11.6669 14.5312C12.263 14.7198 12.8054 14.6931 13.234 14.6294C13.7121 14.5582 14.7062 14.0303 14.9135 13.4519C15.1208 12.8734 15.1208 12.3775 15.0587 12.2743C14.9965 12.1711 14.8306 12.1091 14.5818 11.985Z" fill="white"/>
</svg>
