<svg width="1280" height="232" viewBox="0 0 1280 232" fill="none" xmlns="http://www.w3.org/2000/svg">
<path opacity="0.3" d="M398.756 284.998H401.939C463.409 269.318 528.725 247.792 596.527 218.555C1088.28 6.50047 1245.73 147.345 1315.89 284.998H1316.76C1246.59 146.951 1089.1 5.30886 596.226 217.846C527.357 247.545 461.065 269.265 398.757 284.998M372.128 284.998H375.576C444.613 268.942 518.943 245.585 596.53 212.128C1095.94 -3.22864 1250.56 145.39 1319.11 284.998H1319.98C1251.41 145.009 1096.75 -4.41871 596.228 211.419C517.454 245.387 442.047 268.931 372.128 284.998ZM342.512 284.998H346.393C423.494 268.969 507.889 243.925 596.53 205.7C1103.62 -12.9671 1255.22 143.615 1322.2 284.998H1323.06C1256.06 143.247 1104.42 -14.154 596.228 204.991C506.203 243.811 420.577 269.015 342.514 284.998H342.512ZM308.847 284.998H313.186C399.01 269.543 494.976 243.066 596.53 199.273C1111.32 -22.7165 1259.74 142.029 1325.19 284.998H1326.04C1260.57 141.672 1112.12 -23.9003 596.228 198.564C493.074 243.046 395.683 269.665 308.847 284.998ZM268.7 284.998H273.953C369.334 270.933 479.203 243.44 596.529 192.846C1119.05 -32.4783 1264.12 140.638 1328.09 284.998H1328.93C1264.93 140.294 1119.85 -33.6621 596.226 192.137C476.86 243.61 365.2 271.176 268.698 284.998H268.7ZM215.594 284.998H223.17C329.424 273.791 457.769 246.256 596.53 186.418C1126.83 -42.2619 1268.36 139.453 1330.9 284.998H1331.73C1269.17 139.124 1127.63 -43.4442 596.226 185.71C454.264 246.928 323.218 274.316 215.593 284.998H215.594ZM-58 279.419V280.201C-49.9885 281.428 -37.9969 283.207 -22.447 284.998H-15.5042C-34.4929 282.952 -48.8546 280.821 -58 279.419ZM-58 272.992V273.774C-37.5331 276.911 8.82031 283.642 74.468 284.998H121.606C242.129 282.536 409.921 260.461 596.529 179.991C1134.66 -52.0658 1272.47 138.487 1333.63 284.998H1334.46C1273.26 138.169 1135.46 -53.2481 596.226 179.282C269.286 320.267 0.144947 281.91 -58 272.992ZM-58 266.565V267.347C0.407085 276.3 269.59 314.549 596.529 173.565C1142.57 -61.9024 1276.42 137.752 1336.27 285H1337.1C1277.22 137.448 1143.37 -63.0847 596.228 172.857C269.286 313.838 0.144947 275.481 -58 266.565ZM1338 231.459V229.387C1278.56 81.6387 1146.14 -122.128 596.226 115.008C269.286 255.993 0.144947 217.635 -58 208.718V209.5C0.407085 218.454 269.59 256.702 596.529 115.717C1147.92 -122.058 1279 83.8521 1338 231.459ZM1338 237.886V235.814C1278.56 88.0656 1146.14 -115.701 596.226 121.435C269.286 262.42 0.144947 224.063 -58 215.145V215.927C0.407085 224.881 269.59 263.129 596.529 122.144C1147.92 -115.631 1279 90.279 1338 237.886ZM1338 244.312V242.241C1278.56 94.4925 1146.14 -109.274 596.226 127.862C269.286 268.847 0.144947 230.49 -58 221.574V222.356C0.407085 231.309 269.59 269.557 596.529 128.572C1147.92 -109.202 1279 96.7075 1338 244.314V244.312ZM1338 250.741V248.669C1278.56 100.921 1146.14 -102.844 596.226 134.291C269.286 275.276 0.144947 236.917 -58 228.001V228.783C0.407085 237.736 269.59 275.984 596.529 135.001C1147.92 -102.774 1279 103.134 1338 250.742V250.741ZM1338 257.168V255.096C1278.56 107.348 1146.14 -96.417 596.226 140.717C269.286 281.702 0.144947 243.345 -58 234.428V235.21C0.407085 244.163 269.59 282.411 596.529 141.428C1147.92 -96.3468 1279 109.563 1338 257.169V257.168ZM1338 263.595V261.523C1278.56 113.775 1146.14 -89.9901 596.226 147.146C269.286 288.129 0.144947 249.772 -58 240.854V241.636C0.407085 250.59 269.59 288.838 596.529 147.853C1147.92 -89.9215 1279 115.988 1338 263.595ZM1338 270.022V267.95C1278.56 120.202 1146.14 -83.5647 596.226 153.571C269.286 294.558 0.144947 256.199 -58 247.283V248.065C0.407085 257.018 269.59 295.267 596.529 154.282C1147.92 -83.4931 1279 122.417 1338 270.023V270.022ZM1338 276.448V274.377C1278.56 126.628 1146.14 -77.1378 596.226 159.998C269.286 300.985 0.144947 262.626 -58 253.71V254.492C0.407085 263.445 269.59 301.693 596.529 160.708C1147.92 -77.0662 1279 128.843 1338 276.45V276.448ZM1338 282.875V280.804C1278.56 133.055 1146.14 -70.711 596.226 166.425C269.286 307.412 0.144947 269.054 -58 260.137V260.919C0.407085 269.872 269.59 308.12 596.529 167.135C1147.92 -70.6393 1279 135.27 1338 282.877V282.875ZM-58 202.29C0.144947 211.208 269.286 249.565 596.226 108.58C1146.14 -128.556 1278.56 75.2102 1338 222.957V225.029C1279 77.4221 1147.92 -128.488 596.529 109.287C269.59 250.274 0.407085 212.025 -58 203.072V202.29Z" fill="#5280E2"/>
</svg>
