<svg width="24" height="25" viewBox="0 0 24 25" fill="none" xmlns="http://www.w3.org/2000/svg">
<path d="M10.9298 23.25C10.4498 23.25 9.96985 23.13 9.52985 22.89C8.63985 22.39 8.1098 21.5 8.1098 20.49V15.14C8.1098 14.63 7.77979 13.88 7.46979 13.49L3.6698 9.50003C3.0398 8.87003 2.5498 7.77002 2.5498 6.96002V4.64005C2.5498 3.03005 3.76982 1.77002 5.31982 1.77002H18.6598C20.1898 1.77002 21.4298 3.01004 21.4298 4.54004V6.76004C21.4298 7.81004 20.7998 9.02002 20.1998 9.61002C19.9098 9.90002 19.4298 9.90002 19.1398 9.61002C18.8498 9.32002 18.8498 8.84002 19.1398 8.55002C19.5098 8.18002 19.9298 7.35004 19.9298 6.76004V4.54004C19.9298 3.84004 19.3598 3.27002 18.6598 3.27002H5.31982C4.60982 3.27002 4.0498 3.87005 4.0498 4.64005V6.96002C4.0498 7.33002 4.34981 8.06004 4.73981 8.45004L8.58984 12.5C9.09984 13.13 9.59979 14.19 9.59979 15.14V20.49C9.59979 21.15 10.0498 21.47 10.2498 21.58C10.6798 21.82 11.1898 21.81 11.5898 21.57L12.9898 20.67C13.2798 20.5 13.5598 19.95 13.5598 19.58C13.5598 19.17 13.8998 18.83 14.3098 18.83C14.7198 18.83 15.0598 19.17 15.0598 19.58C15.0598 20.48 14.4998 21.51 13.7898 21.94L12.3998 22.84C11.9498 23.11 11.4398 23.25 10.9298 23.25Z" fill="#5280E2"/>
<path d="M16.0701 17.77C13.8901 17.77 12.1201 16 12.1201 13.82C12.1201 11.64 13.8901 9.87 16.0701 9.87C18.2501 9.87 20.0201 11.64 20.0201 13.82C20.0201 16 18.2501 17.77 16.0701 17.77ZM16.0701 11.37C14.7201 11.37 13.6201 12.47 13.6201 13.82C13.6201 15.17 14.7201 16.27 16.0701 16.27C17.4201 16.27 18.5201 15.17 18.5201 13.82C18.5201 12.47 17.4201 11.37 16.0701 11.37Z" fill="#5280E2"/>
<path d="M19.87 18.37C19.68 18.37 19.4901 18.3 19.3401 18.15L18.3401 17.15C18.0501 16.86 18.0501 16.38 18.3401 16.09C18.6301 15.8 19.1101 15.8 19.4001 16.09L20.4001 17.09C20.6901 17.38 20.6901 17.86 20.4001 18.15C20.2601 18.29 20.06 18.37 19.87 18.37Z" fill="#5280E2"/>
</svg>
