<svg width="390" height="360" viewBox="0 0 390 360" fill="none" xmlns="http://www.w3.org/2000/svg">
<g opacity="0.3">
<path d="M199.764 26.8509C195.764 24.9693 191.316 24.7571 188.488 25.1886C185.838 25.5918 182.008 26.5962 178.782 29.1074C176.779 30.6706 175.287 32.6158 174.349 34.8864C173.24 37.5815 172.899 40.7575 173.34 44.3296C173.404 44.8672 173.681 45.3411 174.114 45.6665C174.548 45.9919 175.088 46.1334 175.628 46.0485L182.569 44.9945C183.55 44.846 184.282 43.9901 184.268 43.0069C184.246 40.7928 184.978 36.9448 190.158 36.0677C194.108 35.4028 196.176 38.0059 196.879 39.1589C198.03 41.0333 198.179 43.4384 197.277 45.5958C195.892 48.9062 192.566 49.8894 190.705 50.1724C188.566 50.5048 187.088 52.4996 187.415 54.6145L188.552 62.0559C188.715 63.1452 189.739 63.888 190.833 63.7253L197.597 62.6996C198.691 62.5369 199.437 61.5183 199.274 60.429L199.032 58.8657C199.032 58.8304 199.046 58.795 199.082 58.7738C200.531 58.0098 203.302 56.2627 205.576 53.2069C208.475 49.3094 209.541 44.6833 208.738 39.4559C207.594 31.9792 203.217 28.4637 199.75 26.8367L199.764 26.8509Z" fill="#5280E2"/>
<path d="M194.847 65.0409L194.257 65.1329C191.429 65.5644 189.475 68.2028 189.909 71.0181C190.342 73.8334 192.992 75.7786 195.82 75.3471L196.41 75.2551C199.238 74.8237 201.192 72.1852 200.758 69.37C200.325 66.5547 197.675 64.6095 194.847 65.0409Z" fill="#5280E2"/>
</g>
<g opacity="0.3">
<path d="M60.4192 146.917C58.4084 144.413 55.5735 142.864 53.5911 142.242C51.7296 141.662 48.9017 141.096 45.9886 141.711C44.1768 142.093 42.5782 142.892 41.2353 144.081C39.6437 145.488 38.4003 147.455 37.5477 149.931C37.4198 150.298 37.4483 150.702 37.6259 151.048C37.8035 151.402 38.109 151.664 38.4927 151.777L43.3668 153.298C44.056 153.51 44.8092 153.184 45.1147 152.541C45.811 151.084 47.5233 148.806 51.1967 149.888C53.989 150.709 54.5077 153.071 54.6001 154.047C54.7493 155.639 54.0743 157.259 52.7954 158.376C50.8272 160.102 48.3404 159.678 47.0331 159.275C45.5268 158.808 43.921 159.643 43.4521 161.128L41.8037 166.348C41.5621 167.112 41.9884 167.926 42.7558 168.166L47.502 169.652C48.2694 169.892 49.0865 169.468 49.3281 168.704L49.6762 167.607C49.6762 167.607 49.7117 167.565 49.733 167.565C50.9267 167.522 53.2998 167.268 55.7653 165.995C58.9129 164.368 61.0942 161.687 62.2523 158.016C63.9078 152.767 62.1742 149.075 60.4334 146.903L60.4192 146.917Z" fill="#5280E2"/>
<path d="M44.9368 170.309L44.5247 170.182C42.5352 169.56 40.4179 170.663 39.7927 172.644C39.1674 174.624 40.2758 176.732 42.2652 177.355L42.6773 177.482C44.6668 178.104 46.7841 177.001 47.4094 175.02C48.0346 173.04 46.9262 170.932 44.9368 170.309Z" fill="#5280E2"/>
</g>
<path d="M271 316.399C288.294 315.65 310.228 310.153 323.642 298.921C305.126 299.395 286.397 305.612 271 316.399Z" fill="#333333"/>
<path d="M283.029 296.035C300.323 295.285 322.257 289.789 335.671 278.556C317.155 279.03 298.426 285.247 283.029 296.035Z" fill="#333333"/>
<path d="M295.961 276.639C313.255 275.889 335.188 270.393 348.603 259.16C330.087 259.634 311.358 265.852 295.961 276.639Z" fill="#333333"/>
<path d="M310.392 256.635C327.593 253.784 348.795 245.692 360.696 233.009C342.23 235.747 324.339 244.15 310.392 256.635Z" fill="#333333"/>
<path d="M323.081 241.872C338.357 233.172 355.374 218.325 361.712 202.65C345.185 211.697 331.444 225.646 323.081 241.872Z" fill="#333333"/>
<path d="M316.928 248.854C321.631 231.779 323.095 208.818 316.189 192.535C310.832 210.728 311.095 230.76 316.928 248.854Z" fill="#333333"/>
<path d="M304.693 265.173C308.026 247.057 307.436 223.078 298.725 206.696C294.81 226.021 296.934 246.824 304.693 265.173Z" fill="#333333"/>
<path d="M290.113 285.191C293.446 267.075 292.856 243.096 284.145 226.714C280.23 246.039 282.354 266.842 290.113 285.191Z" fill="#333333"/>
<path d="M274.567 310.549C277.9 292.434 277.31 268.455 268.599 252.073C264.684 271.397 266.809 292.201 274.567 310.549Z" fill="#333333"/>
<path d="M268.642 319.908C266.134 324.513 264.173 328.276 262.879 330.9C262.247 332.173 261.75 333.185 261.387 333.928C261.238 334.246 261.117 334.508 261.011 334.72C260.933 334.904 260.897 334.996 260.904 335.003C260.911 335.003 260.968 334.925 261.068 334.755C261.181 334.55 261.323 334.295 261.501 333.991C261.892 333.263 262.425 332.272 263.1 331.02C264.464 328.431 266.489 324.704 269.047 320.134C271.59 315.558 274.731 310.168 278.305 304.233C281.907 298.319 285.978 291.882 290.412 285.233C299.3 271.949 307.997 260.363 314.491 252.143C317.738 248.026 320.403 244.73 322.264 242.467C323.159 241.363 323.87 240.486 324.389 239.842C324.609 239.567 324.787 239.333 324.929 239.149C325.049 238.994 325.106 238.909 325.099 238.902C325.092 238.895 325.014 238.965 324.879 239.107C324.723 239.284 324.524 239.496 324.289 239.757C323.742 240.38 323.003 241.229 322.065 242.304C320.14 244.518 317.419 247.779 314.122 251.86C307.528 260.016 298.76 271.574 289.858 284.88" fill="#E0E0E0"/>
<path d="M238.793 200.825C245.103 185.312 249.074 163.802 244.513 147.469C237.465 163.95 235.433 182.929 238.793 200.825Z" fill="#333333"/>
<path d="M225.578 182.023C231.888 166.511 235.86 145 231.298 128.667C224.25 145.149 222.218 164.127 225.578 182.023Z" fill="#333333"/>
<path d="M213.584 162.826C219.894 147.313 223.865 125.803 219.304 109.47C212.256 125.951 210.224 144.93 213.584 162.826Z" fill="#333333"/>
<path d="M201.654 142.065C206.06 125.781 207.431 103.868 200.98 88.2846C195.963 105.629 196.205 124.756 201.654 142.065Z" fill="#333333"/>
<path d="M193.669 124.954C192.106 108.006 185.796 87.0467 174.442 75.149C175.807 93.3351 182.642 111.047 193.669 124.954Z" fill="#333333"/>
<path d="M197.385 133.173C184.126 122.146 164.339 111.599 147.102 111.104C161.092 123.157 178.975 131.009 197.385 133.173Z" fill="#333333"/>
<path d="M206.927 150.525C192.198 140.282 170.676 131.136 152.622 132.183C168.197 143.423 187.508 149.945 206.927 150.525Z" fill="#333333"/>
<path d="M218.807 171.42C204.078 161.177 182.556 152.031 164.502 153.078C180.076 164.318 199.388 170.84 218.807 171.42Z" fill="#333333"/>
<path d="M235.042 195.321C220.313 185.079 198.791 175.933 180.737 176.98C196.312 188.22 215.624 194.741 235.042 195.321Z" fill="#333333"/>
<path d="M240.968 204.312C244.044 208.372 246.588 211.619 248.4 213.819C249.281 214.887 249.97 215.729 250.482 216.351C250.702 216.613 250.887 216.825 251.036 217.002C251.164 217.143 251.235 217.214 251.242 217.207C251.249 217.207 251.199 217.115 251.086 216.959C250.951 216.776 250.787 216.549 250.581 216.273C250.091 215.637 249.43 214.767 248.592 213.67C246.844 211.421 244.357 208.139 241.33 204.05C238.289 199.969 234.772 195.031 230.95 189.493C227.155 183.94 223.084 177.765 218.97 171.179C210.764 158.001 203.993 145.679 199.317 136.646C196.973 132.133 195.118 128.455 193.868 125.902C193.25 124.671 192.759 123.688 192.397 122.973C192.241 122.669 192.106 122.422 191.999 122.216C191.907 122.047 191.857 121.962 191.843 121.969C191.836 121.969 191.864 122.068 191.942 122.245C192.035 122.457 192.148 122.712 192.283 123.03C192.617 123.758 193.072 124.756 193.648 126.008C194.834 128.597 196.632 132.303 198.92 136.852C203.502 145.941 210.217 158.32 218.437 171.512" fill="#E0E0E0"/>
<g opacity="0.3">
<path d="M359.175 140.091C356.262 136.646 352.226 134.56 349.412 133.76C346.784 133.011 342.79 132.317 338.719 133.286C336.19 133.888 333.973 135.062 332.126 136.774C329.937 138.804 328.268 141.612 327.145 145.121C326.974 145.644 327.031 146.203 327.294 146.691C327.557 147.179 327.998 147.533 328.538 147.688L335.437 149.655C336.41 149.931 337.454 149.45 337.867 148.53C338.79 146.465 341.121 143.204 346.315 144.59C350.272 145.651 351.075 148.947 351.238 150.313C351.501 152.541 350.613 154.84 348.851 156.459C346.144 158.949 342.634 158.447 340.787 157.924C338.655 157.322 336.431 158.546 335.827 160.654L333.696 168.046C333.383 169.128 334.016 170.253 335.096 170.564L341.817 172.481C342.904 172.792 344.034 172.163 344.346 171.088L344.794 169.531C344.801 169.496 344.837 169.468 344.879 169.468C346.556 169.369 349.881 168.93 353.292 167.056C357.654 164.665 360.624 160.817 362.124 155.625C364.262 148.19 361.704 143.069 359.175 140.084V140.091Z" fill="#5280E2"/>
<path d="M338.257 173.485L337.668 173.316C334.854 172.516 331.912 174.136 331.102 176.937C330.3 179.738 331.927 182.667 334.74 183.473L335.33 183.643C338.144 184.442 341.085 182.823 341.888 180.021C342.691 177.22 341.064 174.292 338.25 173.485H338.257Z" fill="#5280E2"/>
</g>
<path d="M131.477 200.577C128.124 198.08 124.045 197.047 121.338 196.913C118.809 196.786 115.064 196.998 111.597 198.724C109.444 199.792 107.689 201.32 106.389 203.251C104.847 205.543 103.931 208.422 103.661 211.817C103.618 212.326 103.789 212.821 104.123 213.203C104.464 213.592 104.933 213.819 105.451 213.84L112.087 214.172C113.025 214.222 113.864 213.564 114.041 212.652C114.439 210.593 115.853 207.17 120.827 207.332C124.614 207.46 126.035 210.261 126.475 211.463C127.186 213.416 126.866 215.672 125.623 217.504C123.711 220.312 120.436 220.595 118.66 220.51C116.613 220.418 114.866 221.989 114.759 224.012L114.397 231.121C114.347 232.16 115.15 233.045 116.194 233.101L122.66 233.427C123.704 233.476 124.593 232.677 124.649 231.637L124.727 230.145C124.727 230.109 124.756 230.081 124.791 230.067C126.284 229.628 129.182 228.532 131.868 226.134C135.293 223.064 137.161 218.975 137.417 213.981C137.78 206.837 134.39 202.749 131.484 200.584L131.477 200.577Z" fill="#EBEBEB"/>
<path d="M119.661 235.061L119.093 235.032C116.386 234.898 114.077 236.978 113.942 239.673C113.807 242.368 115.896 244.666 118.603 244.801L119.171 244.829C121.878 244.964 124.187 242.884 124.322 240.189C124.457 237.494 122.368 235.195 119.661 235.061Z" fill="#EBEBEB"/>
<path d="M96.9678 326.507H103.107C106.723 313.69 108.457 299.43 106.091 287.504C100.549 299.458 97.4438 312.919 96.9678 326.507Z" fill="#333333"/>
<path d="M95.8016 267.033C88.2559 283.316 85.2078 302.394 87.2044 320.771C87.2754 320.912 87.3394 321.061 87.4104 321.202C94.2385 305.669 99.1694 283.988 95.8016 267.033Z" fill="#333333"/>
<path d="M79.6021 244.122C74.0672 260.907 73.0441 279.673 76.6535 297.159C76.8737 297.69 77.1011 298.234 77.3356 298.779C82.3305 282.383 84.7747 260.32 79.6092 244.122H79.6021Z" fill="#333333"/>
<path d="M69.051 278.464C68.9941 278.28 68.9657 278.181 68.9728 278.174C68.9799 278.174 69.0297 278.259 69.1078 278.436C69.2002 278.655 69.3068 278.917 69.4418 279.235C69.5483 279.504 69.6762 279.829 69.8112 280.169C70.0528 280.558 70.2873 280.961 70.5431 281.343C70.0386 263.829 65.2568 241.894 55.1533 228.97C55.3878 246.994 60.4538 264.876 69.4205 279.532C69.392 279.454 69.3565 279.362 69.3352 279.284C69.2215 278.952 69.1291 278.683 69.0581 278.457L69.051 278.464Z" fill="#333333"/>
<path d="M73.2858 289.965C73.2361 289.831 73.1863 289.704 73.1295 289.569C61.1644 277.573 43.2239 265.788 27.0811 264.232C39.6003 277.41 56.0274 286.549 73.2858 289.965Z" fill="#333333"/>
<path d="M81.6629 308.449C81.5989 308.393 81.5278 308.336 81.4639 308.279C81.4852 308.329 81.5065 308.386 81.535 308.435C81.5776 308.435 81.6203 308.449 81.67 308.449H81.6629Z" fill="#333333"/>
<path d="M31.1096 286.238C45.0641 298.581 62.7346 306.419 80.8812 308.364C80.7533 308.067 80.6254 307.777 80.4975 307.487C67.1185 296.417 47.8352 286.28 31.1025 286.238H31.1096Z" fill="#333333"/>
<path d="M41.1914 308.449C50.3286 316.534 61.0645 322.674 72.4896 326.507H86.5293C73.4843 316.753 56.2969 308.484 41.1914 308.449Z" fill="#333333"/>
<path d="M74.834 293.898C76.4185 297.881 78.3226 302.472 80.5039 307.48C80.6318 307.77 80.7597 308.06 80.8876 308.357C83.3531 313.987 86.1738 320.12 89.293 326.507H89.9751C89.094 324.718 88.2414 322.949 87.4101 321.202C87.3391 321.061 87.2751 320.912 87.2041 320.771C85.1649 316.47 83.2678 312.332 81.5271 308.435C81.5057 308.385 81.4844 308.328 81.456 308.279C79.9568 304.905 78.5784 301.722 77.335 298.772C77.1006 298.227 76.8732 297.683 76.6529 297.152C76.1556 295.964 75.6795 294.811 75.2248 293.714C73.2638 288.926 71.7078 285.035 70.6633 282.333C70.3294 281.491 70.0523 280.784 69.8036 280.169C69.6686 279.829 69.5407 279.504 69.4341 279.235C69.2991 278.917 69.1925 278.648 69.1002 278.436C69.022 278.259 68.9794 278.167 68.9652 278.174C68.9581 278.174 68.9794 278.273 69.0433 278.464C69.1215 278.683 69.2067 278.959 69.3204 279.291C69.3489 279.369 69.3773 279.461 69.4057 279.539C69.6686 280.282 70.0096 281.244 70.4359 282.439C71.0967 284.3 72.0062 286.712 73.1217 289.576C73.1714 289.704 73.2212 289.838 73.278 289.973C73.7611 291.21 74.2727 292.519 74.8269 293.905L74.834 293.898Z" fill="#E0E0E0"/>
<path d="M349.391 326.232C349.391 326.338 279.278 326.423 192.815 326.423C106.353 326.423 36.2178 326.338 36.2178 326.232C36.2178 326.125 106.317 326.041 192.815 326.041C279.313 326.041 349.391 326.125 349.391 326.232Z" fill="#263238"/>
<path d="M73.1365 99.8055C84.9229 95.2612 90.7774 82.0651 86.2128 70.3311C81.6483 58.5971 68.3932 52.7687 56.6068 57.3129C44.8204 61.8572 38.9659 75.0533 43.5305 86.7873C48.095 98.5213 61.3501 104.35 73.1365 99.8055Z" fill="white"/>
<path d="M87.7606 78.5585C87.7606 78.5585 87.7463 78.4311 87.725 78.1906C87.7108 77.936 87.6824 77.5752 87.654 77.1084C87.6398 76.8679 87.6256 76.6062 87.6042 76.3091C87.5758 76.0191 87.5119 75.7008 87.4621 75.3541C87.4053 75.0075 87.3485 74.6397 87.2845 74.2436C87.2348 73.8475 87.0856 73.4372 86.9861 72.9987C86.5811 71.2373 85.7569 69.1577 84.4496 66.9578C83.1351 64.7651 81.238 62.4662 78.6518 60.5209C78.3249 60.2804 77.9981 60.0399 77.6642 59.7923C77.316 59.566 76.9536 59.3609 76.5913 59.1416C76.2218 58.9365 75.8737 58.6818 75.4829 58.505C75.0921 58.3211 74.7013 58.1301 74.3034 57.9391C74.1045 57.8471 73.9055 57.7481 73.6995 57.6561C73.4934 57.5783 73.2803 57.5005 73.0671 57.4298C72.6408 57.2742 72.2145 57.1185 71.7882 56.9629C71.3548 56.8215 70.9 56.7295 70.4453 56.6022C69.9906 56.4961 69.543 56.3405 69.0669 56.2909C68.129 56.1566 67.177 55.9656 66.1893 55.9585C65.6991 55.9443 65.2017 55.8948 64.7044 55.9019C64.207 55.9302 63.7025 55.9514 63.1981 55.9797C62.9423 55.9939 62.6936 55.9939 62.4378 56.0292L61.6776 56.1424C61.1731 56.2273 60.6544 56.2839 60.15 56.39C59.1481 56.6588 58.1037 56.8639 57.1161 57.2742C56.0929 57.5996 55.1337 58.1018 54.1461 58.5757C53.663 58.8374 53.2082 59.1345 52.7322 59.4175C52.4977 59.566 52.249 59.6933 52.0288 59.8631L51.3609 60.3653C50.4372 60.9949 49.6273 61.7871 48.7817 62.551C48.3981 62.9684 48.0144 63.3928 47.6236 63.8172L47.3323 64.1355L47.0694 64.4821L46.5507 65.1753L46.0249 65.8685L45.5702 66.6112L45.1155 67.361L44.8881 67.7359L44.6963 68.1321C44.4405 68.6626 44.1847 69.1931 43.9218 69.7307C43.7158 70.2895 43.5097 70.8483 43.3037 71.4071C42.5647 73.6777 42.1597 76.0898 42.1313 78.5514C42.1669 81.0059 42.5647 83.4251 43.3037 85.6957C43.5097 86.2545 43.7158 86.8133 43.9218 87.3721C44.1776 87.9097 44.4405 88.4402 44.6963 88.9707L44.8881 89.3668L45.1155 89.7417L45.5702 90.4915L46.0249 91.2343L46.5507 91.9345L47.0694 92.6277L47.3323 92.9743L47.6236 93.2927C48.0144 93.7171 48.3981 94.1415 48.7817 94.5588C49.6273 95.3228 50.4372 96.1079 51.3609 96.7445L52.0288 97.2468C52.249 97.4165 52.4977 97.5438 52.7322 97.6924C53.2082 97.9753 53.6701 98.2724 54.1461 98.5341C55.1337 99.0081 56.0929 99.5103 57.1161 99.8357C58.1037 100.246 59.1481 100.451 60.15 100.72C60.6615 100.826 61.1731 100.883 61.6776 100.967L62.4378 101.081C62.6936 101.116 62.9423 101.109 63.1981 101.13C63.7025 101.158 64.207 101.18 64.7044 101.208C65.2017 101.215 65.6991 101.166 66.1893 101.151C67.177 101.151 68.129 100.953 69.0669 100.819C69.543 100.769 69.9906 100.614 70.4453 100.508C70.8929 100.387 71.3548 100.295 71.7882 100.147C72.2216 99.9913 72.6479 99.8357 73.0671 99.6801C73.2803 99.6023 73.4863 99.5244 73.6995 99.4537C73.8984 99.3618 74.1045 99.2627 74.3034 99.1708C74.7013 98.9798 75.0921 98.7959 75.4829 98.6049C75.8808 98.428 76.2289 98.1734 76.5913 97.9683C76.9536 97.749 77.316 97.5438 77.6642 97.3175C77.9981 97.0699 78.3249 96.8294 78.6518 96.5889C81.238 94.6437 83.1351 92.3519 84.4496 90.152C85.7569 87.9451 86.5811 85.8654 86.9861 84.1112C87.0856 83.6726 87.2348 83.2694 87.2845 82.8662C87.3485 82.4701 87.4053 82.1023 87.4621 81.7557C87.5119 81.4091 87.5758 81.0979 87.6042 80.8008C87.6185 80.5108 87.6398 80.242 87.654 80.0015C87.6824 79.5346 87.7037 79.1739 87.725 78.9192C87.7392 78.6787 87.7606 78.5514 87.7606 78.5514C87.7606 78.5514 87.7606 78.6787 87.7606 78.9192C87.7535 79.1739 87.7392 79.5346 87.7179 80.0015C87.7108 80.242 87.6966 80.5108 87.6824 80.8008C87.654 81.0908 87.5971 81.4091 87.5545 81.7557C87.5048 82.1023 87.4479 82.4701 87.3911 82.8733C87.3485 83.2765 87.2064 83.6797 87.1069 84.1253C86.7161 85.9008 85.9061 87.9946 84.6059 90.2227C83.2985 92.4438 81.3943 94.764 78.7939 96.7375C78.467 96.978 78.1402 97.2255 77.8063 97.4802C77.4581 97.7065 77.0886 97.9188 76.7263 98.1451C76.3568 98.3573 76.0015 98.612 75.6037 98.7959C75.2129 98.9869 74.815 99.1778 74.41 99.3688C74.211 99.4679 74.005 99.5598 73.8061 99.6588C73.5929 99.7367 73.3797 99.8145 73.1666 99.8923C72.7403 100.048 72.3069 100.204 71.8735 100.366C71.4329 100.515 70.9711 100.607 70.5164 100.734C70.0545 100.84 69.6069 101.003 69.1238 101.052C68.1717 101.187 67.2125 101.385 66.2178 101.392C65.7204 101.413 65.223 101.463 64.7186 101.456C64.2141 101.434 63.7096 101.406 63.1981 101.378C62.9423 101.364 62.6865 101.364 62.4307 101.328L61.6634 101.215C61.1518 101.13 60.6331 101.074 60.1144 100.967C59.0984 100.692 58.0468 100.494 57.045 100.076C56.0148 99.7508 55.0414 99.2415 54.0395 98.7676C53.5564 98.5059 53.0875 98.2017 52.6043 97.9187C52.3698 97.7702 52.114 97.6429 51.8938 97.4731L51.2117 96.9709C50.2738 96.3343 49.4567 95.535 48.597 94.7639C48.2062 94.3395 47.8154 93.9081 47.4247 93.4836L47.1333 93.1583L46.8705 92.8117L46.3447 92.1114L45.8118 91.404L45.35 90.6471L44.8881 89.8903L44.6536 89.5083L44.4547 89.1051C44.1918 88.5675 43.936 88.0299 43.6731 87.4853C43.4671 86.9194 43.2539 86.3535 43.0479 85.7876C42.2947 83.4887 41.8897 81.0413 41.8613 78.5514C41.8969 76.0615 42.3018 73.6211 43.0479 71.3222C43.2539 70.7563 43.4671 70.1905 43.6731 69.6246C43.936 69.087 44.1989 68.5423 44.4547 68.0047L44.6536 67.6015L44.8881 67.2196L45.35 66.4627L45.8118 65.7058L46.3447 64.9985L46.8705 64.2982L47.1333 63.9516L47.4247 63.6262C47.8154 63.1947 48.2062 62.7703 48.597 62.3459C49.4567 61.5749 50.2738 60.7756 51.2117 60.139L51.8867 59.6367C52.1141 59.467 52.3627 59.3396 52.5972 59.1911C53.0804 58.9082 53.5422 58.604 54.0324 58.3423C55.0343 57.8683 56.0006 57.3591 57.0379 57.0337C58.0397 56.6163 59.0913 56.4183 60.1073 56.1424C60.626 56.0363 61.1447 55.9797 61.6563 55.8948L62.4236 55.7817C62.6794 55.7463 62.9352 55.7534 63.191 55.7321C63.7025 55.7038 64.207 55.6826 64.7115 55.6543C65.2159 55.6543 65.7133 55.6968 66.2107 55.718C67.2054 55.7251 68.1646 55.9231 69.1167 56.0575C69.5927 56.107 70.0474 56.2697 70.5093 56.3758C70.964 56.5032 71.4258 56.5951 71.8664 56.7437C72.2998 56.9063 72.7332 57.062 73.1595 57.2176C73.3726 57.2954 73.5858 57.3732 73.799 57.451C74.005 57.55 74.2039 57.642 74.4029 57.741C74.8008 57.932 75.1987 58.123 75.5965 58.314C75.9944 58.4979 76.3426 58.7525 76.7192 58.9647C77.0815 59.1911 77.451 59.3962 77.7991 59.6297C78.1331 59.8772 78.467 60.1248 78.7868 60.3724C81.3872 62.3459 83.2843 64.666 84.5988 66.8871C85.899 69.1153 86.7161 71.2161 87.0998 72.9845C87.1993 73.4301 87.3414 73.8333 87.384 74.2365C87.4408 74.6326 87.4977 75.0075 87.5474 75.3541C87.5971 75.7008 87.654 76.0191 87.6824 76.3091C87.6966 76.5991 87.7037 76.8679 87.7179 77.1084C87.7321 77.5752 87.7463 77.936 87.7606 78.1906C87.7677 78.4382 87.7606 78.5585 87.7606 78.5585Z" fill="#263238"/>
<path d="M56.7315 74.6539H61.0798C61.0798 74.6539 61.0798 71.0181 64.8739 70.9544C66.8421 70.9191 67.8652 72.2064 68.2773 73.1897C68.7605 74.3356 68.6113 75.6371 67.9647 76.6981C67.2257 77.9077 65.6129 79.0112 62.6785 78.4948V84.8469H66.9771V82.5409C66.9771 82.5409 73.0093 80.9918 73.0093 74.378C73.0093 67.7643 67.311 66.5759 64.8668 66.5759C62.9982 66.5759 56.6462 67.0286 56.7243 74.661L56.7315 74.6539Z" fill="#5280E2"/>
<path d="M67.0413 86.495H62.6787V90.5481H67.0413V86.495Z" fill="#5280E2"/>
<path d="M88.7981 99.8711C88.7981 101.795 87.235 103.351 85.3024 103.351C83.3698 103.351 81.8066 101.795 81.8066 99.8711C81.8066 97.9471 83.3698 96.391 85.3024 96.391C87.235 96.391 88.7981 97.9471 88.7981 99.8711Z" fill="white"/>
<path d="M88.7976 99.8711C88.7976 99.8711 88.7763 99.5598 88.6342 99.0364C88.4921 98.52 88.1369 97.7702 87.3553 97.1902C86.6021 96.6102 85.3587 96.2848 84.158 96.7304C83.5682 96.9426 83.0069 97.3458 82.6019 97.8975C82.1898 98.4422 81.9625 99.1496 81.9554 99.8711C81.9554 100.593 82.1898 101.293 82.6019 101.845C82.9998 102.396 83.5682 102.8 84.158 103.012C85.3587 103.457 86.6021 103.132 87.3553 102.552C88.1369 101.972 88.4921 101.222 88.6342 100.706C88.7763 100.182 88.7692 99.8711 88.7976 99.8711C88.8047 99.8711 88.8118 99.9489 88.8118 100.097C88.8118 100.246 88.7976 100.465 88.7408 100.734C88.6271 101.272 88.2861 102.078 87.4761 102.715C86.6945 103.351 85.3658 103.726 84.0656 103.259C83.4261 103.033 82.808 102.609 82.3746 102.007C81.927 101.413 81.6712 100.656 81.6641 99.8711C81.6641 99.0859 81.927 98.322 82.3746 97.7349C82.8151 97.1336 83.4261 96.7092 84.0656 96.4828C85.3658 96.016 86.6945 96.3909 87.4761 97.0275C88.2861 97.6641 88.6271 98.4705 88.7408 99.0081C88.7976 99.284 88.8189 99.5032 88.8118 99.6447C88.8118 99.7933 88.8047 99.8711 88.7976 99.8711Z" fill="#263238"/>
<path d="M336.236 81.3436C345.628 71.9929 345.628 56.8324 336.236 47.4818C326.843 38.1311 311.615 38.1311 302.222 47.4818C292.83 56.8325 292.83 71.9929 302.222 81.3436C311.615 90.6943 326.843 90.6943 336.236 81.3436Z" fill="white"/>
<path d="M343.274 64.4114C343.274 64.4114 343.26 64.277 343.239 64.0224C343.225 63.7536 343.196 63.3787 343.168 62.8835C343.154 62.636 343.139 62.353 343.118 62.0489C343.083 61.7447 343.019 61.4122 342.969 61.0515C342.912 60.6907 342.848 60.3017 342.784 59.8844C342.734 59.467 342.578 59.0426 342.472 58.5757C342.045 56.7296 341.178 54.5438 339.807 52.2237C338.429 49.9177 336.432 47.5056 333.718 45.4614C333.377 45.2067 333.029 44.9521 332.681 44.6904C332.318 44.4499 331.935 44.2377 331.558 44.0042C331.174 43.785 330.805 43.5162 330.393 43.3323C329.981 43.1342 329.569 42.9361 329.149 42.7381C328.943 42.6391 328.73 42.54 328.517 42.441C328.297 42.3632 328.076 42.2783 327.856 42.2005C327.409 42.0378 326.961 41.8751 326.513 41.7124C326.059 41.5639 325.575 41.4648 325.107 41.3375C324.63 41.2314 324.154 41.0616 323.657 41.0121C322.669 40.8707 321.668 40.6726 320.63 40.6655C320.112 40.6514 319.593 40.5948 319.074 40.6089C318.548 40.6372 318.023 40.6655 317.49 40.6938C317.227 40.715 316.957 40.708 316.694 40.7433L315.898 40.8636C315.365 40.9485 314.825 41.0121 314.292 41.1253C313.234 41.4083 312.147 41.6275 311.102 42.059C310.029 42.3986 309.02 42.9291 307.983 43.4242C307.479 43.7001 306.996 44.0113 306.498 44.3084C306.257 44.464 305.994 44.5984 305.759 44.7753L305.056 45.2987C304.082 45.9636 303.237 46.7912 302.342 47.5905C301.937 48.0291 301.532 48.4747 301.127 48.9204L300.821 49.2528L300.544 49.6136L299.997 50.3421L299.45 51.0778L298.967 51.863L298.484 52.6481L298.242 53.0442L298.036 53.4616C297.766 54.0204 297.496 54.5792 297.226 55.138C297.013 55.7251 296.793 56.3122 296.579 56.8993C295.798 59.2902 295.379 61.8225 295.343 64.4043C295.379 66.9862 295.798 69.5256 296.572 71.9094C296.793 72.4965 297.006 73.0836 297.219 73.6707C297.489 74.2295 297.759 74.7954 298.029 75.3471L298.235 75.7645L298.476 76.1606L298.96 76.9457L299.443 77.7309L299.99 78.4665L300.537 79.1951L300.814 79.5559L301.12 79.8883C301.525 80.334 301.93 80.7796 302.335 81.2182C303.223 82.0175 304.075 82.8521 305.049 83.51L305.752 84.0334C305.987 84.2103 306.249 84.3447 306.491 84.5003C306.988 84.7974 307.472 85.1157 307.983 85.3845C309.02 85.8796 310.029 86.4101 311.102 86.7497C312.14 87.1812 313.234 87.3934 314.292 87.6834C314.825 87.7966 315.372 87.8531 315.898 87.9451L316.694 88.0654C316.957 88.1007 317.227 88.1007 317.49 88.1149C318.023 88.1432 318.548 88.1715 319.074 88.1997C319.6 88.2068 320.119 88.1573 320.63 88.1432C321.668 88.1432 322.662 87.931 323.657 87.7966C324.154 87.747 324.623 87.5773 325.107 87.4712C325.583 87.3438 326.059 87.2448 326.513 87.0963C326.968 86.9336 327.416 86.7709 327.863 86.6082C328.084 86.5304 328.304 86.4455 328.524 86.3677C328.737 86.2687 328.943 86.1696 329.156 86.0706C329.576 85.8725 329.988 85.6745 330.4 85.4764C330.812 85.2925 331.181 85.0237 331.565 84.8044C331.942 84.571 332.325 84.3517 332.688 84.1183C333.036 83.8566 333.384 83.6019 333.725 83.3473C336.439 81.303 338.436 78.891 339.814 76.585C341.185 74.2719 342.052 72.0862 342.479 70.2329C342.585 69.7732 342.741 69.3488 342.791 68.9243C342.855 68.507 342.919 68.118 342.976 67.7572C343.033 67.3965 343.097 67.064 343.125 66.7598C343.146 66.4557 343.161 66.1727 343.175 65.9252C343.203 65.43 343.232 65.0551 343.246 64.7863C343.267 64.5317 343.281 64.3973 343.281 64.3973C343.281 64.3973 343.281 64.5317 343.281 64.7863C343.274 65.0551 343.26 65.43 343.239 65.9252C343.232 66.1798 343.218 66.4557 343.203 66.7669C343.175 67.0781 343.118 67.4106 343.068 67.7714C343.011 68.1321 342.955 68.5282 342.898 68.9456C342.855 69.37 342.699 69.7944 342.599 70.2612C342.194 72.1216 341.335 74.3285 339.97 76.6699C338.592 79.0041 336.596 81.4374 333.867 83.5171C333.526 83.7717 333.178 84.0334 332.823 84.2952C332.46 84.5357 332.07 84.7549 331.693 84.9954C331.302 85.2147 330.933 85.4906 330.514 85.6745C330.101 85.8726 329.682 86.0777 329.263 86.2757C329.05 86.3748 328.837 86.4809 328.624 86.5799C328.403 86.6577 328.176 86.7426 327.956 86.8275C327.508 86.9902 327.053 87.1599 326.599 87.3226C326.137 87.4782 325.654 87.5773 325.178 87.7046C324.694 87.8178 324.218 87.9875 323.714 88.0371C322.712 88.1785 321.703 88.3907 320.659 88.3978C320.14 88.419 319.614 88.4685 319.081 88.4615C318.548 88.4332 318.016 88.412 317.483 88.3837C317.213 88.3624 316.943 88.3695 316.673 88.3341L315.863 88.2139C315.323 88.129 314.776 88.0653 314.236 87.9522C313.17 87.6622 312.061 87.45 311.01 87.0185C309.923 86.6719 308.9 86.1413 307.855 85.6391C307.344 85.3633 306.853 85.0449 306.349 84.7479C306.1 84.5922 305.837 84.4578 305.603 84.281L304.892 83.7505C303.905 83.0785 303.045 82.2367 302.143 81.4304C301.731 80.9847 301.326 80.532 300.914 80.0864L300.601 79.7469L300.324 79.379L299.77 78.6434L299.215 77.9007L298.725 77.1084L298.235 76.3091L297.993 75.9059L297.787 75.4815C297.517 74.9156 297.24 74.3498 296.963 73.7839C296.743 73.1897 296.523 72.5955 296.302 72.0013C295.514 69.5822 295.087 67.0145 295.052 64.3973C295.087 61.7871 295.514 59.2124 296.302 56.7932C296.523 56.199 296.743 55.6049 296.963 55.0107C297.24 54.4448 297.51 53.8789 297.787 53.313L297.993 52.8886L298.235 52.4854L298.725 51.6861L299.215 50.8939L299.77 50.1512L300.324 49.4155L300.601 49.0477L300.914 48.7082C301.326 48.2554 301.738 47.8098 302.143 47.3642C303.045 46.5578 303.905 45.716 304.892 45.0441L305.603 44.5135C305.837 44.3367 306.1 44.2023 306.349 44.0467C306.853 43.7496 307.344 43.4313 307.855 43.1554C308.907 42.6532 309.93 42.1227 311.01 41.7832C312.061 41.3517 313.17 41.1324 314.236 40.8494C314.776 40.7363 315.323 40.6797 315.863 40.5877L316.673 40.4675C316.943 40.4321 317.213 40.4321 317.483 40.418C318.023 40.3897 318.556 40.3684 319.081 40.3401C319.614 40.3401 320.133 40.3826 320.659 40.4038C321.703 40.4109 322.712 40.616 323.714 40.7646C324.218 40.8212 324.694 40.9909 325.178 41.097C325.654 41.2243 326.137 41.3304 326.599 41.479C327.053 41.6488 327.508 41.8114 327.956 41.9741C328.183 42.059 328.403 42.1368 328.624 42.2217C328.837 42.3207 329.05 42.4268 329.263 42.5259C329.682 42.731 330.101 42.9291 330.514 43.1271C330.933 43.3181 331.302 43.5869 331.693 43.8062C332.077 44.0396 332.46 44.266 332.823 44.5065C333.171 44.7682 333.519 45.0299 333.867 45.2846C336.596 47.3571 338.599 49.7975 339.97 52.1317C341.335 54.4731 342.194 56.68 342.599 58.5404C342.706 59.0072 342.855 59.4316 342.898 59.8561C342.962 60.2734 343.019 60.6624 343.068 61.0303C343.118 61.391 343.182 61.7305 343.203 62.0347C343.218 62.3459 343.225 62.6218 343.239 62.8765C343.26 63.3716 343.274 63.7465 343.281 64.0153C343.289 64.27 343.281 64.4043 343.281 64.4043L343.274 64.4114Z" fill="#263238"/>
<path d="M310.675 60.3088H315.243C315.243 60.3088 315.243 56.4891 319.229 56.4183C321.297 56.383 322.37 57.734 322.81 58.7667C323.315 59.9692 323.166 61.3344 322.484 62.4521C321.709 63.7253 320.011 64.8783 316.934 64.3407V71.0181H321.453V68.5919C321.453 68.5919 327.791 66.9579 327.791 60.0117C327.791 53.0655 321.801 51.8134 319.236 51.8134C317.275 51.8134 310.597 52.2874 310.682 60.3088H310.675Z" fill="#5280E2"/>
<path d="M321.504 72.7511H316.921V77.0165H321.504V72.7511Z" fill="#5280E2"/>
<path d="M296.849 85.0379C296.849 87.0539 295.207 88.695 293.175 88.695C291.143 88.695 289.502 87.061 289.502 85.0379C289.502 83.0149 291.143 81.3809 293.175 81.3809C295.207 81.3809 296.849 83.0149 296.849 85.0379Z" fill="white"/>
<path d="M296.848 85.0379C296.848 85.0379 296.827 84.7125 296.678 84.1607C296.529 83.6161 296.152 82.8238 295.335 82.2155C294.539 81.6072 293.239 81.2677 291.974 81.7345C291.356 81.9609 290.759 82.3782 290.34 82.9653C289.907 83.5383 289.665 84.2739 289.658 85.0379C289.665 85.8018 289.907 86.5375 290.34 87.1104C290.759 87.6904 291.356 88.1149 291.974 88.3412C293.239 88.8081 294.539 88.4685 295.335 87.8602C296.152 87.2519 296.529 86.4596 296.678 85.915C296.827 85.3632 296.82 85.0379 296.848 85.0379C296.856 85.0379 296.863 85.1157 296.87 85.2713C296.87 85.4269 296.856 85.6533 296.792 85.9433C296.671 86.5092 296.316 87.358 295.463 88.03C294.639 88.702 293.246 89.0981 291.875 88.6029C291.2 88.3695 290.553 87.9168 290.099 87.2872C289.63 86.6648 289.36 85.8655 289.353 85.0379C289.353 84.2103 289.63 83.4109 290.099 82.7885C290.56 82.1589 291.2 81.7062 291.875 81.4728C293.246 80.9847 294.639 81.3808 295.456 82.0458C296.308 82.7107 296.664 83.5595 296.785 84.1324C296.848 84.4225 296.863 84.6488 296.863 84.8044C296.863 84.9601 296.856 85.0379 296.841 85.0379H296.848Z" fill="#263238"/>
<path d="M163.194 260.858C155.528 241.731 149.773 228.447 149.773 228.447L79.6519 239.057C79.6519 239.057 67.0474 271.228 68.1415 285.82C69.2357 300.413 74.3657 326.118 74.3657 326.118H159.222C159.222 326.118 170.875 279.985 163.201 260.858H163.194Z" fill="#263238"/>
<path d="M137.885 101.335C138.433 95.8179 139.264 90.2651 141.296 85.1014C143.321 79.9378 146.646 75.1419 151.343 72.1569L152.55 73.2745C153.382 70.9048 155.599 69.0728 158.092 68.6908C160.586 68.3089 163.251 69.3982 164.757 71.4141C167.45 70.6926 170.534 71.789 172.161 74.0384C173.788 76.2878 173.845 79.5487 172.303 81.8618C174.825 82.1801 177.049 84.1536 177.653 86.6081C178.257 89.0626 177.205 91.8425 175.124 93.2855C177.902 95.6764 179.01 99.8144 177.788 103.259C176.573 106.711 173.113 109.251 169.439 109.385C170.257 112.561 168.594 116.197 165.652 117.661C162.711 119.132 158.789 118.283 156.721 115.737C156.977 119.04 154.327 122.167 151.094 122.952C147.861 123.737 144.337 122.436 141.985 120.101C139.626 117.767 138.333 114.527 137.829 111.252C137.324 107.977 137.559 104.639 137.885 101.342V101.335Z" fill="#263238"/>
<path d="M152.807 76.8891C156.033 77.9289 156.694 80.5319 157.362 82.6964C158.804 87.3579 157.184 94.2617 154.562 98.3856C151.941 102.509 149.063 104.603 144.217 105.303C144.061 97.8975 143.905 90.4986 143.741 83.0926L152.807 76.8891Z" fill="#5280E2"/>
<path d="M154.626 89.6357C156.828 86.785 156.516 82.3146 153.936 79.7964C155.35 78.028 154.839 75.3047 153.403 73.5575C151.968 71.8104 149.837 70.8059 147.776 69.8581C146.646 64.6944 140.82 61.0586 135.655 62.2964C132.962 58.3565 127.235 57.7411 122.645 59.0709C121.523 59.3963 120.4 59.8136 119.235 59.8136C118.375 59.8136 117.544 59.5802 116.691 59.4599C112.023 58.8375 107.383 62.1055 105.565 66.4345C105.273 67.1277 105.032 67.8562 104.57 68.4504C103.966 69.2285 103.042 69.6883 102.261 70.2895C100.57 71.5911 99.4896 73.6565 99.4044 75.7786C99.3262 77.5824 99.9088 79.4993 99.1415 81.1404C98.7578 81.9609 98.0686 82.6258 97.7702 83.4817C96.9033 85.9645 99.6673 88.4968 99.1557 91.0716C99.0491 91.5951 98.8146 92.0831 98.6654 92.5995C98.367 93.6535 98.4665 94.8135 98.9425 95.8038C99.312 96.5678 99.9088 97.261 99.9586 98.1098C99.9941 98.7535 99.7099 99.3618 99.582 99.9913C99.2694 101.526 102.602 107.461 103.93 108.296L143.812 108.649C146.831 108.034 149.29 105.311 149.581 102.262C149.631 101.753 149.638 101.201 149.95 100.805C150.22 100.465 150.654 100.303 151.037 100.097C153.602 98.7252 153.915 95.2167 153.645 92.3236C153.61 91.9204 153.567 91.5031 153.666 91.1141C153.816 90.5411 154.249 90.0955 154.604 89.6286L154.626 89.6357Z" fill="#263238"/>
<path d="M143.201 89.6922C143.321 82.6682 138.895 74.5902 131.882 71.1524C127.463 68.9879 124.017 68.9738 121.693 68.705C116.485 68.1037 112.286 70.6714 112.286 70.6714C110.091 71.1878 102.033 78.5301 101.614 86.495C101.152 95.351 100.932 106.174 102.055 112.766C104.314 126.015 114.553 127.599 114.553 127.599C114.553 127.578 113.601 149.626 113.601 149.626L133.275 165.676L139.286 139.32L143.208 89.6922H143.201Z" fill="#FFBF9D"/>
<path d="M114.546 127.599C114.546 127.599 123.583 128.08 132.408 122.669C132.408 122.669 127.754 132.077 114.396 130.973L114.546 127.599Z" fill="#FF9A6C"/>
<path d="M141.19 102.297C141.183 101.307 142.306 98.9656 143.286 98.8029C145.901 98.3714 150.619 98.527 150.739 105.148C150.896 114.195 141.972 112.179 141.716 112.228C140.266 112.526 141.218 105.714 141.19 102.297Z" fill="#FFBF9D"/>
<path d="M144.159 108.876C144.202 108.847 144.323 108.982 144.586 109.102C144.849 109.215 145.296 109.293 145.772 109.102C146.724 108.734 147.506 107.206 147.527 105.572C147.534 104.745 147.35 103.967 147.044 103.323C146.753 102.665 146.319 102.212 145.829 102.135C145.346 102.028 145.012 102.326 144.905 102.58C144.785 102.835 144.849 103.019 144.799 103.033C144.77 103.054 144.6 102.884 144.671 102.509C144.706 102.326 144.806 102.113 145.019 101.936C145.232 101.76 145.552 101.661 145.893 101.689C146.596 101.724 147.236 102.354 147.57 103.061C147.946 103.769 148.174 104.646 148.16 105.572C148.131 107.397 147.229 109.116 145.914 109.519C145.275 109.696 144.742 109.519 144.465 109.307C144.181 109.088 144.131 108.89 144.159 108.869V108.876Z" fill="#FF9A6C"/>
<path d="M99.6601 85.1581C99.9514 81.8689 101.266 78.7565 102.857 75.8634C103.959 73.8616 105.231 71.9093 106.964 70.4097C108.414 69.1648 110.14 68.2806 111.874 67.46C116.428 65.3097 121.508 63.4847 126.425 64.5882C129.061 65.1824 131.441 66.5759 133.751 67.9764C135.52 69.0516 137.303 70.148 138.788 71.591C140.088 72.8572 141.14 74.3568 142.056 75.92C144.259 79.6407 145.808 83.7999 146.106 88.1077C146.405 92.4155 149.68 96.2211 147.144 99.7225C146.945 99.9913 142.433 100.925 142.12 101.045C141.389 101.335 140.579 100.543 140.586 99.7579C140.586 98.9727 141.133 98.2936 141.723 97.7631C140.6 97.7277 139.825 96.4757 139.897 95.3581C139.968 94.2405 140.635 93.2573 141.303 92.3519C141.389 92.2316 141.481 92.1113 141.502 91.9628C141.552 91.5808 141.119 91.3474 140.785 91.1493C139.165 90.1944 138.987 87.5418 140.458 86.3818C138.291 85.8796 136.884 83.2836 137.658 81.211C137.779 80.8856 137.95 80.5107 137.786 80.1995C137.637 79.8953 137.261 79.8034 136.934 79.7114C134.532 79.0041 132.919 76.302 133.445 73.8687C132.18 73.9323 130.901 73.996 129.672 73.6989C128.443 73.4018 127.256 72.6874 126.695 71.5627C125.892 73.0057 124.308 73.9889 122.652 74.0809C120.997 74.1728 119.32 73.3594 118.368 72.0083C116.251 72.2135 114.084 71.8739 112.13 71.0463C111.646 73.0128 110.09 74.6751 108.165 75.2975C107.788 75.4178 107.362 75.538 107.177 75.8846C107.064 76.1039 107.078 76.3727 107.092 76.6203C107.156 77.8865 106.296 78.424 105.593 79.478C104.897 80.532 103.674 82.1094 102.452 81.7557C102.587 83.906 101.429 85.4764 99.6104 86.6364L99.6743 85.151L99.6601 85.1581Z" fill="#263238"/>
<path d="M97.7769 83.4958C97.7769 83.4958 97.8622 83.1209 98.2601 82.5196C98.4519 82.2155 98.7219 81.8618 98.9706 81.4091C99.2192 80.9564 99.4111 80.3834 99.4679 79.7114C99.5319 79.0465 99.4679 78.2897 99.4111 77.4762C99.3471 76.6557 99.2761 75.7502 99.4608 74.7882C99.6313 73.8333 100.015 72.843 100.633 71.9235C100.939 71.4637 101.308 71.0322 101.742 70.6361C102.168 70.2329 102.665 69.9004 103.17 69.5609C103.667 69.2214 104.172 68.8535 104.541 68.3655C104.91 67.8703 105.145 67.2691 105.387 66.6537C105.877 65.4158 106.601 64.2062 107.561 63.1381C108.52 62.07 109.685 61.1009 111.056 60.4077C111.731 60.0399 112.477 59.7923 113.238 59.5731C114.012 59.3962 114.808 59.2618 115.625 59.283C116.03 59.283 116.442 59.3326 116.847 59.3679C117.252 59.4245 117.657 59.5094 118.055 59.5801C118.858 59.7287 119.675 59.7499 120.485 59.5589C121.295 59.3891 122.091 59.0921 122.929 58.8799C123.76 58.6464 124.627 58.505 125.501 58.4059C126.375 58.3069 127.27 58.3069 128.166 58.3564C129.061 58.4201 129.956 58.5828 130.837 58.8233C132.578 59.3396 134.276 60.2946 135.441 61.7871C135.555 61.9356 135.669 62.0842 135.782 62.2327L135.64 62.1761C138.383 61.5183 141.26 62.2327 143.477 63.6828C145.715 65.1258 147.378 67.3681 147.918 69.8368L147.847 69.7448C148.948 70.2541 150.042 70.7634 151.051 71.3929C152.053 72.0154 152.977 72.7652 153.673 73.6848C154.362 74.6114 154.781 75.7007 154.881 76.7971C154.988 77.8935 154.71 79.0253 154.035 79.8671V79.7185C155.336 81.0059 156.004 82.7177 156.16 84.3446C156.316 85.9786 155.982 87.5772 155.25 88.8504C155.087 89.1758 154.86 89.4658 154.654 89.7488C154.433 90.0247 154.213 90.2864 154.035 90.5622C153.858 90.8381 153.744 91.1423 153.723 91.4535C153.694 91.7647 153.73 92.0831 153.758 92.3943C153.865 93.6392 153.844 94.7993 153.687 95.832C153.531 96.8577 153.24 97.7631 152.813 98.4563C152.401 99.1566 151.875 99.6376 151.414 99.9347C150.945 100.246 150.533 100.373 150.305 100.536C150.071 100.692 149.986 100.819 149.978 100.812C149.978 100.812 150.049 100.677 150.284 100.508C150.511 100.324 150.923 100.189 151.378 99.871C151.833 99.5669 152.33 99.0859 152.728 98.3997C153.133 97.7136 153.41 96.8223 153.559 95.8108C153.701 94.7922 153.716 93.6463 153.595 92.4084C153.566 92.0972 153.524 91.7789 153.552 91.4394C153.574 91.0998 153.701 90.7674 153.886 90.4703C154.071 90.1732 154.298 89.9115 154.511 89.6356C154.71 89.3527 154.924 89.0768 155.087 88.7514C155.79 87.5065 156.11 85.9503 155.947 84.3587C155.79 82.7743 155.13 81.1049 153.865 79.8741L153.794 79.8034L153.858 79.7256C154.49 78.9404 154.746 77.8723 154.639 76.8184C154.54 75.7644 154.135 74.7175 153.467 73.8333C152.799 72.9491 151.897 72.2206 150.909 71.6052C149.922 70.9898 148.834 70.4875 147.733 69.9782L147.676 69.9499L147.662 69.8863C147.136 67.4883 145.516 65.3097 143.328 63.9021C141.161 62.4874 138.354 61.8012 135.697 62.4308L135.612 62.452L135.555 62.3742C135.448 62.2327 135.335 62.0912 135.228 61.9498C134.113 60.5068 132.464 59.5731 130.766 59.0708C129.906 58.8303 129.032 58.6818 128.151 58.6111C127.27 58.5615 126.396 58.5615 125.537 58.6535C124.677 58.7525 123.824 58.8869 123.007 59.1204C122.183 59.3326 121.38 59.6296 120.542 59.7994C120.123 59.8843 119.696 59.9409 119.27 59.9409C118.844 59.9409 118.424 59.8843 118.012 59.8136C117.607 59.7428 117.202 59.665 116.804 59.6013C116.407 59.566 116.009 59.5094 115.611 59.5165C114.815 59.4952 114.041 59.6296 113.287 59.7923C112.548 60.0045 111.817 60.245 111.156 60.6058C109.806 61.2778 108.662 62.2256 107.717 63.2725C106.765 64.3194 106.054 65.5078 105.564 66.7173C105.315 67.3257 105.081 67.9481 104.683 68.4716C104.285 68.995 103.759 69.3699 103.262 69.7094C102.758 70.049 102.267 70.3744 101.848 70.7634C101.429 71.1454 101.067 71.5698 100.761 72.0154C100.15 72.9067 99.7734 73.8758 99.5958 74.8095C99.4111 75.7432 99.4679 76.6415 99.5248 77.462C99.5816 78.2826 99.6385 79.0394 99.5603 79.7185C99.5035 80.3976 99.2903 80.9847 99.0274 81.4445C98.7645 81.8972 98.4874 82.2438 98.2885 82.5408C98.0895 82.8309 97.9545 83.0714 97.8764 83.2341C97.7982 83.3967 97.7698 83.4887 97.7627 83.4816L97.7769 83.4958Z" fill="#455A64"/>
<path d="M131.385 60.3511C131.385 60.3511 131.143 60.2167 130.702 60.0045C130.262 59.7994 129.587 59.5377 128.713 59.4457C127.846 59.3467 126.78 59.4316 125.729 59.9055C124.684 60.3724 123.675 61.2283 123.029 62.3813C122.844 62.7137 122.688 63.0674 122.588 63.4069C122.496 63.7464 122.482 64.1143 122.659 64.3618L122.887 64.666L122.517 64.567C121.508 64.2911 120.471 64.4892 119.711 64.9207C118.936 65.3521 118.446 66.0171 118.183 66.6042C117.913 67.2054 117.849 67.7359 117.842 68.0967C117.835 68.4574 117.863 68.6555 117.842 68.6626C117.835 68.6626 117.821 68.613 117.799 68.5211C117.778 68.4291 117.757 68.2877 117.75 68.0967C117.736 67.7288 117.771 67.17 118.027 66.5334C118.283 65.9039 118.78 65.1894 119.597 64.7155C120.4 64.2416 121.501 64.0152 122.588 64.3053L122.446 64.5104C122.19 64.1567 122.226 63.704 122.325 63.3291C122.432 62.9471 122.595 62.5935 122.794 62.2398C123.469 61.0302 124.535 60.146 125.629 59.6721C126.738 59.1911 127.853 59.1274 128.741 59.2547C129.637 59.375 130.319 59.6721 130.752 59.9126C130.972 60.0328 131.136 60.1389 131.235 60.2238C131.342 60.3016 131.392 60.3511 131.385 60.3582V60.3511Z" fill="#455A64"/>
<path d="M146.213 70.6219C146.213 70.6219 146.121 70.7563 145.9 70.9473C145.68 71.1383 145.346 71.4071 144.877 71.6688C144.408 71.9234 143.797 72.1781 143.066 72.2276C142.348 72.2771 141.488 72.1215 140.806 71.5627L141.005 71.5273C140.92 71.6476 140.835 71.7749 140.742 71.9022C140.643 72.0225 140.536 72.1427 140.437 72.263C139.776 72.9562 138.966 73.4372 138.177 73.6848C137.389 73.9465 136.635 74.0172 136.01 73.9748C135.385 73.9323 134.902 73.7838 134.575 73.6635C134.255 73.5221 134.092 73.4301 134.099 73.416C134.12 73.3594 134.802 73.7413 136.017 73.7838C136.621 73.805 137.339 73.713 138.092 73.4513C138.838 73.1967 139.605 72.7369 140.238 72.0791C140.337 71.9659 140.437 71.8527 140.529 71.7395C140.614 71.6193 140.7 71.499 140.778 71.3859L140.863 71.2585L140.977 71.3505C141.588 71.8527 142.376 72.0154 143.051 71.98C143.733 71.9517 144.33 71.7325 144.792 71.5061C145.716 71.0322 146.185 70.5795 146.213 70.6219Z" fill="#455A64"/>
<path d="M151.088 78.9829C151.088 78.9829 151.088 79.0394 151.066 79.1526C151.038 79.2587 150.981 79.4143 150.867 79.5912C150.647 79.9449 150.157 80.3834 149.411 80.5744C148.665 80.7725 147.734 80.631 146.81 80.3127C146.349 80.15 145.865 79.9873 145.368 79.7609C144.885 79.5346 144.366 79.2021 144.103 78.6292C144.082 78.5797 144.061 78.5301 144.046 78.4806L144.26 78.5443C143.393 79.2304 142.49 79.8317 141.574 80.1783C140.664 80.539 139.748 80.6027 139.023 80.4612C138.291 80.3268 137.751 80.0297 137.446 79.7609C137.289 79.6336 137.176 79.5134 137.112 79.4285C137.048 79.3436 137.012 79.2941 137.019 79.2941C137.041 79.2799 137.183 79.4497 137.503 79.6831C137.822 79.9166 138.348 80.1783 139.044 80.2773C139.741 80.3834 140.6 80.3056 141.474 79.9519C142.348 79.6053 143.215 79.0182 144.082 78.3392L144.224 78.226L144.295 78.4028C144.309 78.4382 144.324 78.4806 144.345 78.5231C144.558 78.9899 145.02 79.3012 145.475 79.5204C145.936 79.7397 146.427 79.9095 146.881 80.0722C147.784 80.3976 148.658 80.5461 149.354 80.3834C150.057 80.2278 150.533 79.8458 150.768 79.5275C151.009 79.2092 151.045 78.9758 151.073 78.9829H151.088Z" fill="#455A64"/>
<path d="M121.736 97.3599C121.679 98.2441 122.375 99.0222 123.299 99.1C124.222 99.1778 125.018 98.527 125.082 97.6499C125.139 96.7657 124.443 95.9876 123.519 95.9098C122.595 95.832 121.793 96.4828 121.736 97.367V97.3599Z" fill="#263238"/>
<path d="M105.444 96.9143C105.387 97.7985 106.083 98.5766 107.007 98.6544C107.93 98.7322 108.726 98.0814 108.79 97.2043C108.847 96.3201 108.151 95.542 107.227 95.4642C106.303 95.3864 105.501 96.0372 105.444 96.9213V96.9143Z" fill="#263238"/>
<path d="M104.776 91.3615C104.975 91.5879 106.282 90.6895 108.087 90.7532C109.892 90.7886 111.192 91.7577 111.398 91.5454C111.497 91.4535 111.299 91.0503 110.737 90.6117C110.183 90.1732 109.224 89.7417 108.094 89.7063C106.964 89.678 106.005 90.06 105.451 90.4632C104.883 90.8735 104.677 91.2554 104.776 91.3615Z" fill="#263238"/>
<path d="M122.766 92.2599C122.994 92.465 124.194 91.4394 125.999 91.312C127.804 91.1635 129.189 91.9911 129.374 91.7577C129.459 91.6516 129.225 91.2767 128.614 90.8947C128.017 90.5198 127.022 90.1803 125.892 90.2651C124.77 90.35 123.853 90.831 123.335 91.2908C122.809 91.7506 122.653 92.1609 122.759 92.2528L122.766 92.2599Z" fill="#263238"/>
<path d="M116.024 105.777C116.038 105.678 114.916 105.445 113.104 105.155C112.642 105.091 112.208 104.985 112.144 104.674C112.045 104.342 112.258 103.846 112.5 103.323C112.969 102.227 113.459 101.074 113.978 99.8639C116.038 94.9408 117.544 90.8806 117.338 90.8027C117.139 90.7249 115.306 94.6508 113.253 99.5739C112.756 100.791 112.279 101.944 111.832 103.054C111.64 103.57 111.32 104.158 111.533 104.851C111.647 105.197 111.981 105.459 112.272 105.551C112.564 105.65 112.827 105.664 113.054 105.685C114.887 105.841 116.024 105.884 116.031 105.785L116.024 105.777Z" fill="#263238"/>
<path d="M118.823 108.451C119.498 108.543 120.18 108.897 120.571 109.463C120.969 110.029 121.253 111.351 120.863 111.861C120.529 112.299 119.037 112.299 118.006 112.172C117.53 112.115 117.132 111.783 116.976 111.33L116.571 110.17C116.337 109.505 116.685 108.762 117.36 108.557C117.814 108.416 118.326 108.388 118.83 108.458L118.823 108.451Z" fill="#FF9A6C"/>
<path d="M121.942 85.6815C122.212 86.1271 123.939 85.5542 126.07 85.4056C128.202 85.2076 130 85.4905 130.191 85.0024C130.277 84.769 129.893 84.38 129.126 84.0404C128.358 83.708 127.2 83.4745 125.921 83.5736C124.642 83.6797 123.534 84.097 122.838 84.5568C122.134 85.0095 121.822 85.4622 121.942 85.6815Z" fill="#263238"/>
<path d="M105.224 88.4048C105.6 88.8009 107.035 88.3411 108.769 88.2775C110.503 88.1572 111.981 88.4685 112.307 88.0299C112.45 87.8177 112.208 87.4145 111.554 87.0467C110.908 86.6789 109.842 86.3888 108.655 86.4525C107.462 86.5162 106.439 86.9123 105.849 87.3508C105.245 87.7894 105.06 88.2138 105.224 88.4119V88.4048Z" fill="#263238"/>
<path d="M167.558 163.186L150.492 224.818L156.481 242.481C133.944 252.37 101.367 255.51 75.6816 243.124C75.6816 243.124 84.4068 217.646 84.6981 212.68C84.9965 207.721 82.8507 178.741 85.2239 169.022C87.597 159.303 94.3966 138.478 94.3966 138.478L114.39 135.317C123.556 140.219 129.425 140.947 139.28 135.267L157.902 139.313L167.558 163.186Z" fill="#455A64"/>
<path d="M94.7016 138.45C94.7016 138.45 83.9657 139.582 79.6458 148.374C75.3756 157.061 63.5242 195.491 62.8777 201.914C62.2311 208.337 67.4676 216.981 72.0291 218.169L85.8628 204.439L97.3376 205.458L112.45 135.274L94.7158 138.45H94.7016Z" fill="#455A64"/>
<g opacity="0.3">
<path d="M86.5945 162.062C83.2551 170.684 82.3101 180.205 83.8945 189.309C81.3722 188.375 78.857 187.434 76.3347 186.501C78.3952 189.33 81.1022 191.693 84.1858 193.355C82.1467 192.768 80.0578 192.174 77.9404 192.315C75.8231 192.45 73.6347 193.468 72.6826 195.357C75.1552 194.904 77.6704 194.458 80.1643 194.748C82.6582 195.038 85.1735 196.184 86.5163 198.299C84.6548 190.292 83.9372 182.023 84.3919 173.818" fill="black"/>
</g>
<g opacity="0.3">
<path d="M83.4623 214.915L139.799 220.475C135.735 220.39 132.616 223.814 129.099 225.837C122.59 229.586 114.483 228.539 107.051 227.372C100.898 226.41 94.7382 225.441 88.5851 224.479C87.0291 224.238 85.3736 223.941 84.2297 222.873C82.1763 220.949 82.7376 217.631 83.4623 214.915Z" fill="black"/>
</g>
<path d="M126.49 210.303L135.926 201.235C136.843 200.358 138.093 199.919 139.365 200.032C142.058 200.287 146.619 200.754 147.557 201.122C148.907 201.645 150.179 202.388 150.555 203.06C150.932 203.732 152.204 207.764 152.282 208.358C152.318 208.648 152.232 209.483 152.133 210.268C152.012 211.194 150.989 211.739 150.179 211.279C149.809 211.074 149.475 210.798 149.291 210.445C148.694 209.327 148.765 208.874 148.765 208.874C148.765 208.874 149.063 212.906 145.767 212.977C145.767 212.977 147.287 216.408 143.038 217.829C143.038 217.829 143.195 220.065 139.642 220.369C136.089 220.666 132.871 220.369 132.871 220.369C132.871 220.369 126.384 225.009 121.808 225.306C117.232 225.603 107.001 223.616 107.001 223.616L105.765 204.842L126.505 210.289L126.49 210.303Z" fill="#FFBF9D"/>
<path d="M139.272 204.552C139.272 204.552 139.834 204.828 140.786 205.182C141.731 205.536 143.052 206.002 144.544 206.399C145.283 206.611 146.029 206.724 146.655 206.894C147.287 207.064 147.664 207.53 147.941 207.941C148.218 208.358 148.431 208.712 148.623 208.924C148.808 209.143 148.943 209.235 148.95 209.221C148.964 209.207 148.857 209.094 148.701 208.86C148.538 208.634 148.353 208.273 148.09 207.842C147.955 207.622 147.799 207.389 147.578 207.17C147.358 206.95 147.06 206.773 146.726 206.667C146.065 206.476 145.354 206.356 144.608 206.144C143.123 205.748 141.802 205.309 140.843 204.998C139.884 204.687 139.287 204.503 139.272 204.538V204.552Z" fill="#FF9A6C"/>
<path d="M138.058 210.31C138.058 210.31 138.448 210.53 139.109 210.791C139.77 211.053 140.694 211.4 141.724 211.739C142.754 212.086 143.699 212.362 144.388 212.546C145.078 212.729 145.511 212.821 145.518 212.786C145.525 212.751 145.113 212.602 144.438 212.376C143.671 212.121 142.783 211.824 141.802 211.499C140.822 211.173 139.933 210.876 139.166 210.622C138.491 210.402 138.065 210.275 138.058 210.303V210.31Z" fill="#FF9A6C"/>
<path d="M135.72 215.658C135.713 215.736 137.361 215.905 139.322 216.436C141.29 216.959 142.804 217.638 142.832 217.568C142.846 217.539 142.484 217.327 141.873 217.058C141.255 216.783 140.388 216.457 139.393 216.188C138.398 215.92 137.482 215.771 136.814 215.693C136.146 215.622 135.727 215.622 135.727 215.651L135.72 215.658Z" fill="#FF9A6C"/>
<path d="M113.872 224.818L72.0225 218.169C72.0225 218.169 77.0529 197.274 84.3854 197.274C85.4583 197.274 122.632 209.299 122.632 209.299L113.865 224.825L113.872 224.818Z" fill="#455A64"/>
<path d="M121.197 215.722C121.197 215.722 121.588 215.396 122.178 214.83C122.824 214.201 123.606 213.437 124.465 212.595C125.354 211.718 126.149 210.904 126.704 210.303C127.258 209.702 127.585 209.306 127.556 209.285C127.528 209.263 127.165 209.61 126.576 210.176C125.929 210.805 125.147 211.569 124.288 212.411C123.4 213.288 122.611 214.102 122.05 214.703C121.495 215.304 121.169 215.7 121.197 215.722Z" fill="#FF9A6C"/>
<path d="M122.638 209.292C122.638 209.292 122.446 209.278 122.105 209.193C121.693 209.087 121.203 208.952 120.613 208.797C119.235 208.4 117.394 207.877 115.163 207.233C110.566 205.889 104.229 203.994 97.2372 201.864C93.3649 200.676 89.6986 199.551 86.4445 198.547L86.3592 198.519L86.2953 198.434C85.0163 196.715 83.1264 195.668 81.4211 195.152C79.6875 194.628 78.0675 194.565 76.7531 194.678C75.4386 194.784 74.4226 195.074 73.7405 195.279C73.0584 195.498 72.7031 195.654 72.6889 195.626C72.6747 195.597 73.0086 195.392 73.6765 195.116C74.3515 194.855 75.3675 194.515 76.7175 194.359C78.0533 194.19 79.7301 194.211 81.5419 194.72C83.3395 195.244 85.3076 196.248 86.7429 198.137L86.5937 198.024C89.8549 199.007 93.5283 200.117 97.4006 201.284C104.392 203.414 110.709 205.373 115.27 206.823C117.48 207.537 119.299 208.125 120.67 208.563C121.245 208.761 121.729 208.931 122.127 209.065C122.46 209.186 122.631 209.263 122.624 209.278L122.638 209.292Z" fill="#263238"/>
<path d="M111.547 142.496C111.895 141.336 113.864 130.634 114.659 128.144C115.789 124.628 124.955 118.354 124.955 118.354C124.955 118.354 123.52 115.058 119.612 116.77C114.993 118.8 112.705 122.216 111.54 121.516C110.375 120.823 103.121 113.466 101.138 113.7C99.1631 113.933 98.7226 115.956 99.426 116.763C100.122 117.576 100.911 118.913 100.911 118.913C100.911 118.913 96.7189 117.661 97.536 122.223C97.536 122.223 92.7613 119.26 93.2303 125.52C93.2303 125.52 90.0898 124.246 89.3864 126.446C88.6901 128.646 90.7577 131.2 91.8093 132.933C92.8537 134.673 96.2571 144.753 96.2571 144.753L96.2997 153.644L112.99 150.228L111.554 142.496H111.547Z" fill="#FFBF9D"/>
<path d="M111.547 142.496C111.547 142.496 111.604 142.673 111.682 143.006C111.76 143.38 111.867 143.868 111.994 144.498C112.264 145.842 112.641 147.759 113.124 150.206L113.153 150.341L113.018 150.369C108.897 151.232 103.198 152.435 96.3489 153.87L96.0718 153.927V153.644C96.0505 150.907 96.0292 147.915 96.0008 144.753L96.015 144.83C94.8213 141.414 93.585 137.736 92.029 134.015C91.2687 132.225 89.6843 130.669 89.1159 128.498C88.9738 127.96 88.9098 127.38 89.0022 126.8C89.0875 126.241 89.3575 125.605 89.9046 125.251C90.4374 124.897 91.0769 124.819 91.6524 124.862C92.235 124.904 92.7892 125.032 93.3434 125.237L92.9385 125.534C92.9171 124.926 92.8887 124.303 92.9811 123.659C93.0948 123.037 93.2369 122.337 93.7769 121.813C94.3026 121.261 95.1268 121.141 95.7947 121.261C96.4839 121.375 97.1021 121.615 97.6989 121.969L97.2442 122.273C97.1305 121.431 96.9884 120.413 97.5568 119.486C97.9121 118.906 98.5728 118.573 99.1839 118.489C99.8091 118.397 100.406 118.46 101.003 118.616L100.655 119.054C100.235 118.361 99.7878 117.661 99.2904 117.046C98.9707 116.727 98.8002 116.168 98.8215 115.716C98.8428 115.249 99.0062 114.796 99.2762 114.414C99.5462 114.032 99.9299 113.742 100.356 113.58C100.569 113.502 100.79 113.438 101.01 113.41C101.223 113.382 101.521 113.41 101.735 113.473C102.594 113.749 103.248 114.23 103.909 114.69C106.509 116.586 108.74 118.757 110.993 120.717C111.263 120.936 111.589 121.247 111.788 121.297C111.987 121.36 112.328 121.205 112.613 121.035C113.209 120.667 113.778 120.193 114.346 119.755C115.483 118.856 116.663 118.015 117.899 117.321C119.128 116.678 120.421 115.963 121.878 116.02C123.341 116.048 124.599 117.017 125.182 118.241L125.267 118.418L125.096 118.538C121.522 121.063 118.311 123.553 116.044 126.234C115.476 126.906 115.035 127.621 114.787 128.377C114.552 129.156 114.375 129.934 114.197 130.676C113.87 132.162 113.565 133.534 113.295 134.765C112.769 137.205 112.357 139.129 112.065 140.487C111.916 141.145 111.803 141.647 111.71 141.98C111.625 142.312 111.547 142.482 111.547 142.482C111.533 142.482 111.575 142.305 111.639 141.966C111.71 141.591 111.803 141.089 111.923 140.459C112.186 139.094 112.549 137.163 113.018 134.708C113.273 133.463 113.558 132.091 113.863 130.599C114.027 129.849 114.197 129.071 114.432 128.271C114.687 127.451 115.163 126.68 115.732 125.994C118.034 123.228 121.231 120.717 124.819 118.142L124.734 118.439C124.222 117.392 123.114 116.543 121.863 116.529C120.606 116.473 119.37 117.138 118.169 117.781C116.968 118.46 115.831 119.281 114.702 120.186C114.126 120.632 113.572 121.106 112.911 121.516C112.577 121.693 112.2 121.955 111.653 121.841C111.142 121.65 110.95 121.382 110.63 121.141C108.357 119.168 106.126 117.01 103.575 115.164C102.942 114.718 102.268 114.259 101.578 114.039C101.408 114.004 101.287 113.976 101.109 113.997C100.932 114.018 100.754 114.075 100.591 114.131C100.264 114.259 99.9725 114.478 99.7736 114.768C99.3686 115.327 99.2691 116.176 99.7594 116.671C100.299 117.336 100.747 118.029 101.18 118.757L101.557 119.387L100.832 119.196C99.8589 118.934 98.5799 118.963 98.0684 119.811C97.6421 120.462 97.7273 121.389 97.841 122.167L97.9334 122.789L97.3863 122.471C96.8747 122.174 96.2779 121.94 95.7095 121.849C95.1339 121.75 94.5584 121.849 94.2032 122.231C93.4642 123.023 93.4855 124.367 93.5353 125.484L93.5566 125.937L93.1303 125.781C92.1924 125.442 91.013 125.237 90.2527 125.732C89.8761 125.972 89.6772 126.411 89.5919 126.892C89.5138 127.366 89.5635 127.868 89.6914 128.349C89.9472 129.318 90.4588 130.224 90.9987 131.094C91.5316 131.957 92.1711 132.813 92.5619 133.789C94.125 137.559 95.34 141.223 96.5194 144.661L96.5337 144.703V144.746C96.5337 147.9 96.5408 150.9 96.5479 153.637L96.2708 153.411C103.134 152.045 108.847 150.907 112.975 150.086L112.868 150.249C112.442 147.78 112.101 145.849 111.867 144.491C111.767 143.861 111.682 143.366 111.625 142.998C111.575 142.659 111.554 142.489 111.568 142.489L111.547 142.496Z" fill="#FF9A6C"/>
<path d="M100.932 119.026C100.889 119.083 101.827 119.882 102.957 120.908C104.087 121.926 104.975 122.789 105.032 122.74C105.081 122.697 104.264 121.75 103.128 120.724C101.991 119.691 100.975 118.977 100.932 119.026Z" fill="#FF9A6C"/>
<path d="M97.2022 121.976C97.1453 122.004 97.5006 122.903 98.2324 123.829C98.9571 124.763 99.7458 125.336 99.7813 125.279C99.8311 125.223 99.1348 124.586 98.4314 123.674C97.7209 122.768 97.2732 121.941 97.2022 121.969V121.976Z" fill="#FF9A6C"/>
<path d="M93.3014 125.293C93.2445 125.336 93.6353 125.972 94.1753 126.715C94.7153 127.465 95.1985 128.031 95.2553 127.995C95.3121 127.953 94.9214 127.316 94.3814 126.574C93.8414 125.824 93.3582 125.258 93.3014 125.293Z" fill="#FF9A6C"/>
<path d="M157.901 139.32L139.953 157.146L121.544 180.177L114.219 149.485L95.5107 153.312C95.5107 153.312 96.8323 187.979 102.587 203.689C103.682 206.682 106.922 208.903 108.371 209.589C117.416 213.868 126.248 207.247 126.248 207.247C126.248 207.247 163.983 182.03 168.076 165.153C170.008 157.181 169.234 147.702 165.944 143.805C163.052 140.374 157.908 139.313 157.908 139.313L157.901 139.32Z" fill="#455A64"/>
<path d="M168.076 165.16C168.076 165.16 168.033 165.344 167.934 165.705C167.813 166.058 167.721 166.61 167.429 167.282C166.953 168.661 165.98 170.599 164.467 172.92C162.946 175.24 160.85 177.921 158.186 180.828C155.514 183.721 152.31 186.869 148.587 190.151C144.878 193.44 140.664 196.878 136.018 200.407C133.694 202.169 131.264 203.958 128.721 205.748C128.081 206.193 127.442 206.639 126.788 207.085C126.149 207.523 125.474 207.99 124.777 208.379C123.378 209.171 121.878 209.836 120.294 210.324C117.153 211.336 113.601 211.541 110.269 210.515C109.842 210.416 109.459 210.211 109.046 210.063C108.641 209.9 108.229 209.751 107.846 209.525C107.071 209.101 106.354 208.584 105.664 208.026C104.314 206.894 103.085 205.507 102.424 203.796C101.231 200.421 100.371 196.892 99.6179 193.291C98.9287 189.677 98.2964 185.999 97.8132 182.257C96.4917 172.269 95.7456 162.536 95.3193 153.326V153.177L95.4614 153.149C101.991 151.819 108.251 150.539 114.176 149.329L114.333 149.294L114.368 149.45C117.132 161.107 119.598 171.484 121.651 180.149L121.438 180.092C127.754 173.323 132.827 167.89 136.33 164.141C138.078 162.281 139.435 160.838 140.359 159.855C140.814 159.374 141.162 159.006 141.41 158.751C141.645 158.504 141.773 158.383 141.773 158.383C141.773 158.383 141.659 158.518 141.432 158.772C141.197 159.034 140.856 159.409 140.409 159.897C139.492 160.895 138.156 162.352 136.43 164.226C132.948 167.996 127.904 173.45 121.623 180.255L121.459 180.432L121.402 180.198C119.328 171.54 116.834 161.17 114.041 149.52L114.233 149.641C108.308 150.857 102.055 152.137 95.5254 153.481L95.6675 153.298C96.1009 162.5 96.854 172.226 98.1685 182.193C98.6445 185.935 99.2769 189.599 99.9661 193.206C100.719 196.793 101.572 200.315 102.751 203.654C103.377 205.281 104.563 206.632 105.878 207.736C106.545 208.28 107.249 208.789 107.995 209.2C108.357 209.412 108.769 209.553 109.16 209.716C109.558 209.858 109.942 210.063 110.354 210.162C113.608 211.166 117.082 210.975 120.173 209.985C121.729 209.504 123.207 208.853 124.593 208.075C125.289 207.686 125.921 207.247 126.582 206.795C127.229 206.349 127.875 205.903 128.507 205.465C131.051 203.682 133.481 201.907 135.804 200.146C140.451 196.63 144.672 193.214 148.381 189.938C152.111 186.678 155.322 183.551 158.001 180.672C160.672 177.786 162.776 175.126 164.31 172.828C165.831 170.522 166.826 168.605 167.323 167.239C167.628 166.575 167.728 166.03 167.863 165.676C167.977 165.323 168.04 165.139 168.04 165.139L168.076 165.16Z" fill="#263238"/>
<path d="M124.948 194.275C124.884 194.26 125.104 193.376 125.218 191.919C125.289 191.191 125.275 190.32 125.225 189.366C125.147 188.404 124.983 187.357 124.706 186.281C124.152 184.124 123.221 182.313 122.475 181.061C121.715 179.816 121.147 179.095 121.196 179.059C121.218 179.045 121.374 179.208 121.644 179.526C121.921 179.837 122.276 180.318 122.696 180.927C123.513 182.158 124.5 183.99 125.069 186.19C125.353 187.286 125.502 188.361 125.566 189.344C125.602 190.328 125.58 191.212 125.481 191.947C125.388 192.683 125.275 193.27 125.161 193.666C125.054 194.062 124.976 194.282 124.955 194.275H124.948Z" fill="#263238"/>
<path d="M122.389 110.786C122.354 110.885 121.97 110.842 121.38 110.722C120.791 110.609 119.995 110.425 119.121 110.361C118.24 110.29 117.451 110.354 116.911 110.496C116.357 110.623 116.123 110.849 116.03 110.814C115.988 110.793 115.988 110.672 116.101 110.51C116.208 110.347 116.428 110.163 116.719 110.015C117.309 109.71 118.219 109.555 119.178 109.633C120.144 109.71 120.975 109.986 121.537 110.234C122.098 110.481 122.418 110.701 122.389 110.793V110.786Z" fill="#263238"/>
<g opacity="0.3">
<path d="M150.901 224.429C150.901 224.429 142.688 223.425 138.268 222.746C135.852 222.371 132.172 221.989 131.476 221.317C130.609 220.482 130.616 219.089 130.524 217.893C128.953 197.486 136.002 175.416 157.786 162.253L163.342 163.71L162.98 177.001L150.901 224.429Z" fill="black"/>
</g>
<path d="M279.307 65.4017C282.093 65.6493 284.899 63.5484 285.425 60.811C285.951 58.0735 284.132 55.0885 281.453 54.2892C283.137 52.4854 283.499 49.5782 282.313 47.4208C281.119 45.2563 278.469 44.0042 276.032 44.4499C275.868 42.0237 274.355 39.7248 272.181 38.6142C270.007 37.5037 267.25 37.6239 265.175 38.9113C262.418 36.669 258.063 36.6902 255.327 38.9537C252.947 38.5718 250.389 39.8945 249.324 42.0519C248.265 44.2094 248.784 47.0317 250.546 48.6728" fill="#263238"/>
<path d="M254.232 44.5913L255.489 44.563C268.115 44.273 278.844 53.6737 280.158 66.1798C281.373 77.8087 282.567 90.6754 282.638 96.9285C282.78 109.873 269.827 112.186 269.827 112.186L271.291 127.713L239.716 127.472L235.602 71.1454C234.124 57.734 240.732 45.7019 254.239 44.5984L254.232 44.5913Z" fill="#FFBF9D"/>
<path d="M269.835 112.179C269.835 112.179 260.769 112.851 251.909 107.595C251.909 107.595 257.188 117.031 270.134 115.567L269.835 112.186V112.179Z" fill="#FF9A6C"/>
<path d="M276.179 80.2208C276.236 81.1969 275.455 82.0457 274.431 82.1306C273.408 82.2084 272.534 81.4869 272.478 80.5108C272.421 79.5346 273.202 78.6787 274.218 78.6009C275.241 78.5231 276.115 79.2517 276.172 80.2208H276.179Z" fill="#263238"/>
<path d="M277.502 72.5743C277.275 72.8218 275.846 71.8174 273.85 71.8669C271.853 71.8881 270.411 72.9492 270.191 72.7087C270.084 72.6026 270.304 72.164 270.93 71.683C271.548 71.2091 272.607 70.7351 273.857 70.7139C275.1 70.6927 276.159 71.1242 276.77 71.5769C277.395 72.0296 277.616 72.4611 277.502 72.5743Z" fill="#263238"/>
<path d="M258.978 80.2208C259.035 81.1969 258.253 82.0457 257.23 82.1235C256.207 82.2014 255.333 81.4799 255.276 80.5037C255.22 79.5276 256.001 78.6717 257.024 78.5938C258.047 78.516 258.921 79.2446 258.978 80.2137V80.2208Z" fill="#263238"/>
<path d="M257.877 73.4019C257.65 73.6495 256.221 72.645 254.225 72.6945C252.228 72.7157 250.786 73.7768 250.566 73.5363C250.459 73.4302 250.679 72.9916 251.312 72.5106C251.93 72.0367 252.989 71.5628 254.232 71.5415C255.475 71.5203 256.534 71.9518 257.145 72.4045C257.77 72.8572 257.991 73.2887 257.877 73.4019Z" fill="#263238"/>
<path d="M265.473 87.9805C265.458 87.8673 266.695 87.6268 268.705 87.3226C269.217 87.259 269.693 87.1458 269.771 86.7992C269.885 86.4313 269.658 85.8867 269.395 85.2996C268.883 84.0829 268.357 82.8026 267.796 81.4657C265.572 76.0049 263.952 71.5132 264.172 71.4284C264.393 71.3435 266.375 75.6937 268.599 81.1545C269.132 82.4985 269.65 83.7858 270.134 85.0096C270.34 85.5825 270.688 86.2262 270.446 86.9972C270.318 87.3792 269.949 87.6621 269.622 87.7612C269.295 87.8673 269.011 87.8814 268.755 87.9026C266.73 88.0583 265.48 88.0936 265.466 87.9875L265.473 87.9805Z" fill="#263238"/>
<path d="M258.296 69.2921C258.047 69.8014 256.321 69.2921 254.21 69.278C252.1 69.2143 250.338 69.6458 250.132 69.1295C250.04 68.8819 250.409 68.4221 251.155 67.9977C251.901 67.5733 253.038 67.2408 254.303 67.262C255.568 67.2903 256.676 67.6723 257.379 68.125C258.09 68.5777 258.41 69.0516 258.303 69.2921H258.296Z" fill="#263238"/>
<path d="M277.409 64.3689C276.997 64.8287 275.341 64.3972 273.359 64.4255C271.377 64.3902 269.707 64.8146 269.309 64.3477C269.132 64.1214 269.387 63.6616 270.112 63.216C270.823 62.7703 272.023 62.3954 273.388 62.4025C274.752 62.4025 275.938 62.7915 276.642 63.2372C277.352 63.6828 277.594 64.1426 277.416 64.3689H277.409Z" fill="#263238"/>
<path d="M278.759 60.2734C278.759 60.2734 275.143 52.2449 271.171 50.4482C266.368 48.2696 264.442 53.5111 259.881 52.351C255.319 51.198 250.736 49.1042 246.189 52.6976C241.215 56.6305 243.645 59.2548 243.468 64.9985C242.743 88.3129 238.629 94.9903 237.158 84.0546C236.995 82.8592 233.627 81.975 233.009 76.9104C232.213 70.3461 231.773 62.353 233.137 57.6491C234.288 53.6808 236.476 50.908 240.455 47.8169C246.729 42.9361 255.49 42.632 261.458 43.0847C267.426 43.5444 279.065 50.0945 278.759 60.2592V60.2734Z" fill="#263238"/>
<path d="M237.975 83.6868C237.847 81.6921 236.078 80.1571 234.089 80.3905C231.673 80.6735 229.002 82.1094 229.279 87.0963C229.769 95.9382 238.586 93.6251 238.586 93.3705C238.586 93.2007 238.217 87.3933 237.975 83.6939V83.6868Z" fill="#FFBF9D"/>
<path d="M236.469 90.1449C236.427 90.1167 236.32 90.2581 236.064 90.3925C235.816 90.5198 235.382 90.6259 234.906 90.4774C233.947 90.1874 233.073 88.7444 232.945 87.1528C232.881 86.3465 233.002 85.5754 233.258 84.9247C233.492 84.2598 233.89 83.7858 234.352 83.6797C234.814 83.5453 235.169 83.8071 235.29 84.0546C235.425 84.2951 235.375 84.472 235.425 84.4861C235.453 84.5073 235.61 84.3305 235.517 83.9627C235.467 83.7858 235.354 83.5878 235.134 83.4251C234.913 83.2624 234.594 83.1917 234.267 83.2482C233.585 83.3331 233.002 83.991 232.725 84.7054C232.412 85.4269 232.249 86.2969 232.327 87.2024C232.483 88.9778 233.492 90.5977 234.792 90.8947C235.425 91.0221 235.936 90.8099 236.192 90.5835C236.455 90.3501 236.491 90.152 236.462 90.1379L236.469 90.1449Z" fill="#FF9A6C"/>
<path d="M237.749 66.5406C238.921 67.2974 240.157 68.0755 241.557 68.1816C242.95 68.2877 244.52 67.453 244.726 66.0737C244.818 65.4583 244.648 64.7439 245.046 64.2558C245.515 63.6758 246.417 63.8314 247.163 63.8951C249.757 64.1073 252.705 61.193 253.309 58.6748C253.991 59.6439 255.441 59.9056 256.421 59.2407C257.402 58.5757 257.757 58.2009 258.517 57.2954C259.277 56.39 260.35 55.5695 261.53 55.7039C262.191 55.7817 262.816 56.1566 263.469 56.0859C264.635 55.9585 265.175 54.5792 265.324 53.4262C265.473 52.2661 265.58 50.9222 266.553 50.2714C267.455 49.6702 268.649 49.9743 269.729 50.1087C270.809 50.2431 272.187 49.9602 272.436 48.9062C272.571 48.3545 272.315 47.7815 272.003 47.3076C270.568 45.1714 267.527 44.2801 265.153 45.2987C264.216 42.3986 261.416 40.1845 258.361 39.937C255.306 39.6894 252.187 41.4153 250.78 44.1316C248.861 42.4764 246.119 41.8327 243.653 42.4481C241.195 43.0705 239.085 44.938 238.189 47.3005C236.015 46.7842 233.571 47.6754 232.242 49.465C230.914 51.2546 230.779 53.8435 231.916 55.7605C230.338 56.7083 229.01 58.3211 229.017 60.1531C229.024 61.9852 230.864 63.7677 232.626 63.2443C231.944 64.6873 232.569 66.6113 233.976 67.3752C235.383 68.1392 237.344 67.6299 238.196 66.2718" fill="#263238"/>
<path d="M265.885 47.8947C265.885 47.8947 265.892 47.9513 265.885 48.0574C265.878 48.1635 265.871 48.3262 265.842 48.5313C265.771 48.9416 265.622 49.5499 265.238 50.2502C264.855 50.9434 264.251 51.7427 263.32 52.3864C262.403 53.0372 261.146 53.5465 259.703 53.504L259.853 53.306C260.144 54.0557 260.094 54.9682 259.732 55.7534C259.391 56.5527 258.844 57.2671 258.261 57.9674C257.963 58.2999 257.707 58.696 257.288 59.0072C256.883 59.3043 256.392 59.4882 255.888 59.559C254.886 59.7075 253.749 59.4246 253.003 58.604L253.33 58.505C253.145 60.2663 252.179 62.0559 250.609 63.1594C249.778 63.7889 248.74 64.1851 247.71 64.178C246.68 64.1921 245.721 63.9163 244.818 63.6192L245.053 63.506C244.598 64.6165 243.887 65.5715 243.013 66.2859C242.154 67.0003 240.996 67.4318 239.937 67.1984C237.827 66.8023 236.399 65.0975 236.079 63.4706L236.285 63.5626C235.255 64.1497 234.139 64.2346 233.244 64.079C232.334 63.9375 231.61 63.5555 231.091 63.1806C230.572 62.7986 230.26 62.3955 230.075 62.1196C229.904 61.8296 229.826 61.674 229.841 61.6669C229.883 61.6315 230.153 62.3318 231.183 63.0533C231.695 63.3999 232.405 63.7394 233.279 63.8597C234.146 63.987 235.205 63.888 236.15 63.3221L236.313 63.2231L236.356 63.407C236.676 64.9278 238.054 66.5193 240.008 66.8589C240.967 67.0569 241.983 66.6749 242.8 66.003C243.617 65.331 244.299 64.4114 244.719 63.3645L244.783 63.2018L244.953 63.2584C245.841 63.5484 246.765 63.8102 247.717 63.796C248.669 63.796 249.6 63.4423 250.389 62.8482C251.874 61.8013 252.776 60.1319 252.961 58.4555L253.003 58.0382L253.287 58.3565C253.92 59.0638 254.936 59.3326 255.838 59.1982C256.286 59.1345 256.726 58.9789 257.075 58.7172C257.416 58.4696 257.686 58.0806 257.991 57.7411C258.574 57.0549 259.107 56.3688 259.426 55.6261C259.767 54.8904 259.817 54.0911 259.568 53.4121L259.49 53.1998H259.711C261.068 53.2706 262.283 52.8037 263.178 52.1954C264.087 51.5871 264.691 50.8302 265.089 50.1724C265.871 48.8143 265.821 47.8805 265.885 47.8947Z" fill="#455A64"/>
<path d="M201.952 126.319C201.952 126.319 168.544 138.033 158.881 142.871C151.328 146.648 146.547 160.364 158.163 166.079C166.825 170.345 213.726 162.196 213.726 162.196L201.952 126.312V126.319Z" fill="#FFBF9D"/>
<path d="M303.947 242.778L219.062 239.581L215.985 268.349L212.582 326.055L255.916 326.239C255.938 325.991 261.323 293.799 261.323 293.799L263.775 293.163L263.547 326.239H304.16C306.292 298.871 307.514 275.875 307.585 273.718C308.175 256.621 303.954 242.785 303.954 242.785L303.947 242.778Z" fill="#263238"/>
<path d="M258.26 275.868C258.246 275.91 258.701 276.144 259.546 276.519C260.399 276.879 261.656 277.424 263.34 277.665C264.179 277.778 265.131 277.785 266.118 277.566C267.099 277.346 268.143 276.887 268.968 276.052C269.792 275.217 270.296 274.078 270.602 272.911C270.907 271.73 271.056 270.506 271.255 269.261C272.009 264.274 272.463 259.726 272.705 256.43C272.826 254.782 272.897 253.445 272.925 252.525C272.954 251.599 272.946 251.089 272.904 251.089C272.861 251.089 272.783 251.592 272.676 252.511C272.563 253.565 272.421 254.859 272.257 256.394C271.902 259.677 271.376 264.197 270.623 269.169C270.239 271.631 270.012 274.128 268.548 275.649C267.078 277.141 264.96 277.382 263.397 277.219C261.784 277.049 260.52 276.575 259.638 276.292C258.765 275.988 258.274 275.825 258.26 275.868Z" fill="#455A64"/>
<path d="M266.36 252.228C266.36 252.228 266.161 252.08 265.735 252.073C265.316 252.058 264.683 252.214 264.072 252.681C263.49 253.148 262.879 253.968 262.9 255.058C262.9 256.161 263.802 257.201 264.946 257.555C266.076 257.944 267.426 257.632 268.08 256.741C268.74 255.878 268.74 254.86 268.541 254.138C268.328 253.395 267.909 252.9 267.561 252.667C267.213 252.419 266.971 252.398 266.964 252.426C266.886 252.511 267.838 252.893 268.101 254.244C268.222 254.881 268.151 255.737 267.618 256.38C267.106 257.031 266.076 257.265 265.145 256.953C264.207 256.649 263.518 255.864 263.49 255.029C263.44 254.202 263.895 253.466 264.371 253.027C265.387 252.094 266.381 252.348 266.374 252.228H266.36Z" fill="#455A64"/>
<path d="M219.055 266.616C219.055 266.658 219.417 266.701 220.092 266.729C220.76 266.771 221.733 266.75 222.927 266.644C225.314 266.439 228.597 265.717 231.922 264.161C235.247 262.591 237.89 260.518 239.567 258.821C240.406 257.972 241.045 257.243 241.436 256.699C241.834 256.161 242.04 255.857 242.004 255.829C241.919 255.758 240.995 256.904 239.255 258.495C237.528 260.087 234.899 262.053 231.652 263.588C228.398 265.109 225.208 265.88 222.87 266.198C220.533 266.524 219.062 266.503 219.055 266.616Z" fill="#455A64"/>
<path d="M305.66 238.081C303.997 234.304 304.302 233.957 304.302 233.957L299.585 192.839L295.052 152.838L291.378 123.235L270.141 118.708C270.141 118.708 267.697 125.449 257.43 125.654C245.607 125.888 238.829 115.362 238.829 115.362L204.873 122.62L217.641 209.808L219.169 233.292C219.169 233.292 216.632 237.091 216.632 241.172C216.632 245.254 216.469 247.963 216.469 247.963C247.987 256.585 279.264 264.048 308.04 255.701C308.04 255.701 307.322 241.844 305.66 238.074V238.081Z" fill="#455A64"/>
<path d="M283.626 121.7C283.626 121.7 295.868 123.058 300.209 127.649C304.551 132.24 318.434 154.946 318.434 154.946L298.27 182.405L288.926 169.715L283.626 121.7Z" fill="#455A64"/>
<path d="M292.955 135.911C293.126 135.897 295.051 150.985 297.261 169.616C299.471 188.255 301.126 203.371 300.956 203.385C300.785 203.399 298.86 188.312 296.65 169.673C294.44 151.041 292.785 135.925 292.955 135.904V135.911Z" fill="#263238"/>
<path d="M204.865 122.627L177.681 134.638L187.514 162.04L213.725 166.171L204.865 122.627Z" fill="#455A64"/>
<path d="M208.61 140.792C208.787 140.77 210.088 151.458 211.509 164.665C212.93 177.871 213.932 188.587 213.747 188.609C213.569 188.63 212.269 177.942 210.848 164.735C209.427 151.536 208.425 140.813 208.61 140.792Z" fill="#263238"/>
<g opacity="0.3">
<path d="M215.317 279.709C230.082 274.425 238.26 264.013 244.861 252.971C251.461 241.929 252.406 226.381 248.179 214.236C248.179 214.236 217.676 243.613 217.456 244.263C217.236 244.914 215.317 279.709 215.317 279.709Z" fill="black"/>
</g>
<g opacity="0.3">
<path d="M256.833 125.279C256.471 128.264 258.14 131.136 260.194 133.343C262.247 135.543 264.734 137.34 266.602 139.702C268.741 142.39 269.963 145.672 271.15 148.891C273.637 155.611 276.116 162.338 278.603 169.057C280.742 174.844 282.909 180.693 286.305 185.857C289.694 191.021 294.476 195.512 300.373 197.401L295.897 159.529L272.272 121.7L256.84 125.286L256.833 125.279Z" fill="black"/>
</g>
<path d="M281.317 125.612C281.317 125.138 281.693 107.595 280.514 105.686C279.334 103.783 278.389 101.993 278.148 100.211C278.148 100.211 278.794 99.1709 277.615 98.513C276.442 97.8623 274.581 99.4538 274.538 102.269C274.496 105.084 274.823 109.901 274.823 109.901C274.823 109.901 261.82 102.559 258.26 102.354C254.694 102.149 249.351 101.498 249.066 103.21C248.782 104.922 249.024 105.332 250.885 105.983C252.747 106.633 255.703 107.086 258.623 108.062C261.536 109.038 262.872 109.71 262.872 109.71C262.872 109.71 256.228 107.765 254.772 109.71C253.315 111.656 253.514 113.41 254.445 114.351C254.445 114.351 252.463 115.164 252.662 117.329C252.861 119.493 253.834 120.024 253.834 120.024C253.834 120.024 251.887 121.495 252.825 123.369C253.756 125.244 255.944 124.063 258.012 126.185C260.079 128.307 265.216 133.287 267.206 134.39C269.188 135.494 273.728 135.939 273.728 135.939L281.31 125.612H281.317Z" fill="#FFBF9D"/>
<path d="M281.317 125.612C281.317 125.612 281.281 125.675 281.203 125.789C281.111 125.916 280.99 126.086 280.834 126.312C280.493 126.779 280.009 127.458 279.377 128.335C278.084 130.118 276.201 132.706 273.814 135.989L273.778 136.031H273.721C272.826 135.932 271.888 135.798 270.915 135.621C269.941 135.437 268.933 135.211 267.924 134.836C267.412 134.652 266.922 134.376 266.474 134.05C266.012 133.732 265.579 133.378 265.131 133.018C264.25 132.289 263.362 131.504 262.467 130.676C261.572 129.856 260.662 128.993 259.738 128.095C259.284 127.642 258.815 127.182 258.346 126.722C257.884 126.241 257.429 125.781 256.847 125.463C256.278 125.131 255.625 124.975 254.95 124.827C254.296 124.678 253.5 124.522 253.01 123.907C252.527 123.334 252.321 122.521 252.505 121.771C252.697 121.021 253.166 120.399 253.756 119.903L253.777 120.158C253.266 119.804 253.01 119.288 252.811 118.757C252.626 118.22 252.527 117.661 252.505 117.074C252.484 116.48 252.662 115.879 253.003 115.369C253.351 114.867 253.82 114.471 254.388 114.202L254.339 114.464C253.507 113.636 253.379 112.313 253.763 111.259C253.941 110.722 254.218 110.213 254.552 109.753C254.701 109.519 254.942 109.272 255.205 109.137C255.468 108.989 255.752 108.897 256.037 108.826C257.188 108.586 258.346 108.685 259.497 108.826C260.648 108.989 261.785 109.229 262.922 109.548L262.801 109.859C261.096 109.081 259.248 108.416 257.365 107.85C255.475 107.291 253.5 106.923 251.532 106.365C250.829 106.145 250.125 105.94 249.472 105.523C249.145 105.311 248.875 104.936 248.825 104.533C248.768 104.136 248.811 103.769 248.86 103.408C248.889 103.245 248.903 103.019 249.024 102.828C249.138 102.644 249.301 102.51 249.472 102.403C249.813 102.205 250.175 102.113 250.537 102.043C251.262 101.908 251.98 101.887 252.69 101.88C254.118 101.88 255.518 101.993 256.904 102.085C257.6 102.142 258.275 102.149 258.985 102.283C259.326 102.361 259.66 102.46 259.994 102.552L260.968 102.891C263.526 103.861 265.92 105.035 268.229 106.195C270.538 107.369 272.755 108.557 274.887 109.753L274.659 109.894C274.503 107.114 274.332 104.455 274.403 101.88C274.503 100.6 274.993 99.2769 276.066 98.5342C276.336 98.3573 276.649 98.2371 276.983 98.2229C277.317 98.2017 277.651 98.3432 277.899 98.5342C278.155 98.7252 278.368 99.0081 278.418 99.3335C278.475 99.6589 278.397 99.9772 278.24 100.26L278.262 100.175C278.539 102.135 279.526 103.825 280.443 105.36C280.557 105.544 280.692 105.756 280.755 105.983C280.834 106.202 280.869 106.421 280.919 106.64C280.997 107.079 281.054 107.511 281.097 107.935C281.189 108.784 281.239 109.611 281.281 110.404C281.438 113.594 281.43 116.345 281.43 118.595C281.423 120.844 281.395 122.598 281.367 123.787C281.352 124.374 281.338 124.819 281.331 125.138C281.317 125.442 281.303 125.598 281.303 125.598C281.303 125.598 281.288 125.442 281.288 125.138C281.288 124.819 281.288 124.367 281.288 123.787C281.288 122.584 281.288 120.837 281.288 118.602C281.267 116.352 281.246 113.601 281.075 110.425C281.025 109.633 280.969 108.812 280.876 107.97C280.834 107.546 280.77 107.121 280.692 106.697C280.599 106.258 280.514 105.869 280.244 105.495C279.313 103.953 278.311 102.255 278.006 100.225V100.182L278.027 100.14C278.148 99.9206 278.212 99.6447 278.169 99.3901C278.127 99.1354 277.963 98.9162 277.743 98.7535C277.309 98.3927 276.698 98.4493 276.222 98.7676C275.256 99.4325 274.78 100.685 274.695 101.908C274.631 104.434 274.801 107.114 274.972 109.88L274.986 110.156L274.745 110.022C272.62 108.833 270.403 107.652 268.094 106.485C265.785 105.325 263.391 104.158 260.861 103.203L259.902 102.87C259.575 102.785 259.248 102.686 258.921 102.609C258.282 102.481 257.571 102.467 256.882 102.418C255.497 102.326 254.097 102.22 252.69 102.22C251.987 102.22 251.283 102.248 250.601 102.375C249.948 102.51 249.18 102.743 249.202 103.457C249.152 103.804 249.116 104.158 249.166 104.476C249.216 104.801 249.393 105.056 249.67 105.24C250.239 105.608 250.956 105.82 251.639 106.032C253.578 106.577 255.561 106.952 257.472 107.518C259.376 108.098 261.209 108.748 262.957 109.555L262.836 109.866C261.721 109.555 260.591 109.314 259.461 109.152C258.339 109.003 257.188 108.911 256.122 109.137C255.596 109.265 255.099 109.477 254.829 109.93C254.516 110.368 254.253 110.849 254.083 111.351C253.728 112.342 253.848 113.509 254.573 114.23L254.736 114.393L254.523 114.492C254.033 114.718 253.578 115.093 253.273 115.539C252.967 115.992 252.811 116.522 252.825 117.06C252.839 117.597 252.939 118.149 253.109 118.644C253.28 119.132 253.557 119.627 253.926 119.882L254.104 120.002L253.941 120.137C253.408 120.575 252.96 121.177 252.797 121.827C252.633 122.478 252.818 123.2 253.237 123.702C253.649 124.225 254.353 124.381 255.014 124.529C255.689 124.678 256.385 124.848 256.989 125.201C257.6 125.534 258.097 126.043 258.545 126.51C259.014 126.977 259.476 127.437 259.93 127.889C260.847 128.788 261.749 129.651 262.644 130.478C263.54 131.306 264.414 132.091 265.288 132.82C266.176 133.527 267.021 134.263 268.009 134.616C268.996 134.991 269.998 135.225 270.957 135.409C271.924 135.592 272.855 135.734 273.743 135.833L273.657 135.868C276.073 132.615 277.977 130.054 279.285 128.286C279.938 127.415 280.436 126.751 280.784 126.284C280.954 126.064 281.082 125.895 281.175 125.774C281.267 125.661 281.317 125.605 281.317 125.605V125.612Z" fill="#FF9A6C"/>
<path d="M323.443 166.568C322.143 164.099 319.208 158.949 317.794 155.802L308.501 159.162C308.501 159.162 282.176 123.766 281.338 123.766C280.5 123.766 269.067 134.319 269.067 134.319C269.572 134.821 293.275 188.899 302.348 194.756C311.421 200.612 318.192 204.333 323.066 195.965C327.941 187.597 329.156 177.447 323.443 166.568Z" fill="#FFBF9D"/>
<path d="M320.408 175.049C320.408 175.049 320.231 174.815 319.975 174.363C319.719 173.91 319.336 173.259 318.852 172.467C317.886 170.875 316.451 168.732 314.717 166.483C312.976 164.233 311.293 162.281 310.063 160.873C309.488 160.208 308.998 159.65 308.607 159.204C308.266 158.808 308.088 158.581 308.102 158.567C308.117 158.553 308.33 158.744 308.706 159.119C309.076 159.487 309.602 160.032 310.241 160.718C311.513 162.083 313.239 164.014 314.98 166.278C316.728 168.541 318.135 170.713 319.051 172.347C319.513 173.16 319.861 173.832 320.089 174.306C320.316 174.78 320.43 175.042 320.408 175.056V175.049Z" fill="#FF9A6C"/>
<path d="M266.865 96.2211C266.631 96.398 265.65 95.3865 264.094 94.8489C262.553 94.2688 261.153 94.4103 261.082 94.1274C261.053 94.0001 261.387 93.7737 262.005 93.6605C262.624 93.5403 263.526 93.5686 264.435 93.901C265.345 94.2335 266.055 94.7923 266.453 95.2733C266.851 95.7614 266.965 96.1504 266.858 96.2282L266.865 96.2211Z" fill="#263238"/>
<path d="M290.625 237.841C290.625 237.841 290.518 237.918 290.298 238.032C290.078 238.138 289.758 238.329 289.325 238.498C288.458 238.866 287.158 239.291 285.488 239.524C283.818 239.757 281.8 239.779 279.591 239.496C277.381 239.22 275.001 238.661 272.55 237.932C267.654 236.44 263.327 234.813 260.222 233.547C258.673 232.917 257.43 232.373 256.577 231.991C256.179 231.807 255.86 231.658 255.597 231.538C255.376 231.432 255.263 231.368 255.263 231.361C255.263 231.347 255.391 231.389 255.618 231.481C255.881 231.588 256.215 231.715 256.62 231.878C257.529 232.238 258.78 232.733 260.3 233.335C263.419 234.537 267.754 236.136 272.635 237.614C275.072 238.343 277.438 238.902 279.619 239.199C281.8 239.496 283.797 239.496 285.445 239.298C287.094 239.1 288.394 238.711 289.268 238.385C290.135 238.046 290.604 237.819 290.618 237.848L290.625 237.841Z" fill="#263238"/>
<path d="M226.338 170.352C214.472 162.394 200.361 159.551 191.11 159.544C182.449 159.544 169.696 160.887 158.15 167.36C150.981 171.378 145.261 176.874 141.14 183.693C136.266 191.771 133.623 201.758 133.289 213.394C133.239 215.142 133.886 216.79 135.108 218.049C136.337 219.308 137.985 220.008 139.754 220.008L162.47 220.022C165.674 220.022 168.431 217.646 168.886 214.491C169.895 207.396 174.136 195.463 191.132 195.18C204.092 194.975 209.42 204.305 211.111 208.33C213.868 214.88 213.165 222.647 209.221 229.098C203.168 239.015 192.048 240.528 185.959 240.543C178.954 240.564 173.255 246.223 173.248 253.155L173.234 277.488C173.234 281.039 176.133 283.932 179.707 283.939L201.839 283.953C205.406 283.953 208.312 281.067 208.319 277.509V272.395C208.319 272.275 208.397 272.168 208.518 272.126C213.534 270.379 223.254 266.156 232.015 257.491C243.198 246.435 248.875 232.168 248.882 215.071C248.897 190.603 236.633 177.242 226.338 170.338V170.352Z" fill="#5280E2"/>
<path d="M191.87 290.086H189.93C180.672 290.079 173.141 297.57 173.134 306.786C173.134 316.003 180.651 323.501 189.909 323.508H191.849C201.107 323.515 208.638 316.024 208.645 306.808C208.645 297.591 201.128 290.093 191.87 290.086Z" fill="#5280E2"/>
<g opacity="0.3">
<path d="M248.029 199.452C247.731 196.963 247.077 194.579 246.161 192.287C241.727 181.28 231.332 173.775 219.495 172.439L162.377 165.973C168.587 172.29 176.694 173.549 185.291 175.77C193.888 177.991 203.139 181.316 211.829 183.155C214.614 183.742 217.499 184.485 219.666 186.324C221.783 188.121 222.963 190.745 224.078 193.284C225.726 197.04 227.382 200.803 229.03 204.56C230.913 208.853 233.421 213.699 238.501 213.974C240.548 214.088 242.559 213.324 244.115 211.994C247.788 208.853 248.569 203.965 248.029 199.467V199.452Z" fill="black"/>
</g>
<path d="M247.212 184.223C246.771 183.452 238.089 172.884 233.776 168.789C230.991 166.143 226.792 164.318 224.156 163.356C224.156 163.356 180.693 147.731 177.681 146.21L158.163 166.094C164.956 167.975 211.096 179.031 222.479 181.521C224.468 183.834 226.472 185.73 226.472 185.73L229.783 193.468C229.783 193.468 230.167 196.283 229.925 199.304C229.683 202.324 232.149 201.15 232.149 201.15C232.149 201.15 232.035 203.025 232.192 205.734C232.192 205.762 232.192 205.79 232.192 205.812C232.355 207.835 235.275 208.082 235.893 206.151L238.139 199.177C238.139 199.177 237.847 205.529 237.726 209.058C237.705 209.702 237.819 210.225 238.018 210.657C238.878 212.531 241.677 212.178 242.153 210.176L244.782 199.141L243.929 192.379L246.132 198.554C246.132 198.554 246.743 201.857 246.615 206.491C246.565 208.344 247.198 209.136 247.965 209.412C249.258 209.879 250.622 208.853 250.736 207.488L251.574 197.26C251.574 197.26 247.652 184.994 247.212 184.223Z" fill="#FFBF9D"/>
<path d="M174.874 145.432C174.895 145.354 176.125 145.545 178.071 146.083C180.018 146.613 182.654 147.518 185.503 148.643C188.352 149.775 190.903 150.857 192.751 151.642C194.598 152.427 195.735 152.916 195.699 153.008C195.671 153.092 194.47 152.753 192.58 152.074C190.683 151.402 188.104 150.383 185.262 149.251C182.42 148.127 179.833 147.165 177.936 146.521C176.046 145.877 174.853 145.524 174.881 145.425L174.874 145.432Z" fill="#FF9A6C"/>
</svg>
