<svg width="482" height="300" viewBox="0 0 482 300" fill="none" xmlns="http://www.w3.org/2000/svg">
<g clip-path="url(#clip0_91_9522)">
<path d="M97.7267 25.7121H15.4414V174.113H97.7267V25.7121Z" fill="#E8E8E8"/>
<path d="M93.5912 30.0159H18.7307V169.692H93.5912V30.0159Z" fill="white"/>
<path d="M93.5912 31.66L18.7307 127.262V30.0159H93.5912V31.66Z" fill="#F5F5F5"/>
<path d="M95.2152 70.1937H18.7307V71.6789H95.2152V70.1937Z" fill="#E8E8E8"/>
<path d="M95.2152 103.456H18.7307V104.942H95.2152V103.456Z" fill="#E8E8E8"/>
<path d="M95.2152 136.719H18.7307V138.204H95.2152V136.719Z" fill="#E8E8E8"/>
<path d="M54.272 70.9397L54.272 173.65H58.0566L58.0566 70.9397H54.272Z" fill="#E8E8E8"/>
<path d="M34.8601 30.0159H33.1467V70.9398H34.8601V30.0159Z" fill="#E8E8E8"/>
<path d="M49.6341 30.0159H47.9207V70.9398H49.6341V30.0159Z" fill="#E8E8E8"/>
<path d="M64.4148 30.0159H62.7014V70.9398H64.4148V30.0159Z" fill="#E8E8E8"/>
<path d="M79.1956 30.0159H77.4822V70.9398H79.1956V30.0159Z" fill="#E8E8E8"/>
<path d="M15.4414 23.1975H11.9595V175.032H15.4414V23.1975Z" fill="#A3A3A3"/>
<path d="M101.209 175.446L97.7268 174.113V23.1975H101.209V175.446Z" fill="#A3A3A3"/>
<path d="M101.209 21.6639H11.9595V25.7121H101.209V21.6639Z" fill="#A3A3A3"/>
<path d="M103.569 175.95H9.49609V179.722H103.569V175.95Z" fill="#A3A3A3"/>
<path d="M97.7267 174.113L103.562 175.95H9.49609L15.4414 174.113H97.7267Z" fill="#E8E8E8"/>
<path d="M451.688 118.219C451.688 118.219 445.874 117.798 446.411 130.896C446.947 143.993 448.275 150.971 448.275 150.971C448.275 150.971 448.103 153.872 445.867 153.306C443.624 152.732 439.412 149.907 437.327 152.021C435.167 154.211 435.937 157.575 438.8 161.533C441.663 165.492 447.622 174.396 448.158 175.204C448.681 175.999 448.895 177.484 447.305 177.339C445.716 177.194 434.995 173.546 433.577 178.762C432.16 183.971 441.938 193.684 442.991 194.768C444.037 195.853 444.098 196.537 443.672 197.186C443.245 197.842 439.756 196.274 436.667 195.362C433.577 194.45 429.834 193.939 429.263 197.013C428.691 200.088 433.006 209.089 449.142 218.546L456.904 222.435L464.253 217.731C479.365 206.699 482.757 197.31 481.883 194.312C481.009 191.314 477.335 192.198 474.355 193.414C471.369 194.63 468.059 196.544 467.57 195.936C467.082 195.328 467.068 194.644 468.004 193.456C468.94 192.274 477.706 181.629 475.773 176.586C473.839 171.543 463.538 176.247 461.969 176.551C460.4 176.855 460.462 175.356 460.909 174.514C461.363 173.657 466.4 164.2 468.857 159.972C471.314 155.744 471.74 152.325 469.373 150.363C467.089 148.47 463.18 151.703 461.006 152.497C458.831 153.292 458.377 150.418 458.377 150.418C458.377 150.418 459.003 143.344 458.232 130.253C457.462 117.169 451.578 118.226 451.578 118.226" fill="#5280E2"/>
<path d="M452.143 129.949C452.143 129.949 452.156 130.039 452.177 130.225C452.191 130.419 452.211 130.688 452.239 131.027C452.287 131.745 452.356 132.788 452.445 134.122C452.624 136.809 452.851 140.698 453.12 145.506C453.65 155.122 454.276 168.407 454.909 183.08C455.549 197.759 456.134 211.044 456.615 220.66C456.856 225.454 457.056 229.343 457.193 232.045C457.262 233.378 457.31 234.421 457.345 235.139C457.359 235.485 457.372 235.747 457.379 235.948C457.379 236.127 457.379 236.224 457.379 236.224C457.379 236.224 457.365 236.134 457.345 235.948C457.331 235.754 457.31 235.485 457.283 235.146C457.235 234.428 457.166 233.385 457.076 232.051C456.898 229.364 456.67 225.475 456.402 220.667C455.872 211.051 455.246 197.766 454.606 183.087C453.966 168.414 453.381 155.129 452.9 145.513C452.659 140.719 452.459 136.83 452.322 134.129C452.253 132.795 452.205 131.752 452.17 131.034C452.156 130.688 452.143 130.419 452.136 130.225C452.136 130.046 452.136 129.949 452.136 129.949H452.143Z" fill="#E0E0E0"/>
<path d="M443.059 156.214C443.059 156.214 443.245 156.345 443.541 156.615C443.837 156.884 444.257 157.292 444.773 157.803C445.798 158.818 447.174 160.269 448.668 161.885C450.126 163.488 451.447 164.939 452.466 166.058C452.92 166.548 453.305 166.97 453.622 167.315C453.897 167.612 454.042 167.785 454.028 167.799C454.014 167.813 453.842 167.668 453.539 167.398C453.243 167.122 452.824 166.714 452.315 166.203C451.303 165.174 449.941 163.709 448.454 162.093C446.989 160.504 445.66 159.067 444.628 157.955C444.174 157.464 443.782 157.043 443.465 156.704C443.19 156.407 443.052 156.235 443.066 156.221L443.059 156.214Z" fill="#E0E0E0"/>
<path d="M454.792 167.543C454.737 167.488 457.572 164.504 461.129 160.877C464.687 157.25 467.625 154.362 467.68 154.418C467.735 154.473 464.9 157.457 461.343 161.084C457.785 164.704 454.847 167.598 454.792 167.543Z" fill="#E0E0E0"/>
<path d="M454.764 190.126C454.764 190.126 454.95 189.988 455.308 189.781C455.721 189.546 456.23 189.262 456.829 188.924C458.109 188.199 459.877 187.197 461.783 186.016C463.696 184.841 465.389 183.722 466.614 182.9C467.185 182.52 467.667 182.195 468.059 181.933C468.403 181.705 468.596 181.587 468.609 181.608C468.623 181.622 468.451 181.774 468.128 182.03C467.804 182.285 467.329 182.644 466.731 183.08C465.54 183.943 463.854 185.097 461.941 186.278C460.029 187.459 458.239 188.44 456.932 189.117C456.278 189.456 455.742 189.718 455.37 189.891C454.998 190.064 454.785 190.154 454.778 190.133L454.764 190.126Z" fill="#E0E0E0"/>
<path d="M441.903 182.223C441.903 182.223 442.103 182.299 442.44 182.479C442.777 182.658 443.259 182.928 443.851 183.266C445.034 183.943 446.651 184.89 448.434 185.953C450.216 187.017 451.819 187.998 452.975 188.717C453.553 189.076 454.014 189.373 454.338 189.58C454.654 189.787 454.826 189.912 454.813 189.933C454.799 189.953 454.613 189.857 454.276 189.677C453.939 189.497 453.457 189.228 452.865 188.889C451.682 188.212 450.065 187.266 448.275 186.202C446.493 185.138 444.89 184.157 443.734 183.439C443.156 183.08 442.695 182.783 442.371 182.575C442.048 182.368 441.883 182.237 441.897 182.223H441.903Z" fill="#E0E0E0"/>
<path d="M439.35 202.16C439.35 202.16 439.605 202.264 440.032 202.492C440.507 202.754 441.119 203.093 441.841 203.493C443.362 204.35 445.447 205.552 447.746 206.892C450.044 208.232 452.115 209.462 453.608 210.367C454.31 210.802 454.902 211.161 455.37 211.451C455.783 211.714 456.003 211.866 455.996 211.887C455.989 211.907 455.742 211.783 455.315 211.555C454.84 211.293 454.235 210.954 453.505 210.553C451.984 209.697 449.899 208.495 447.601 207.155C445.303 205.814 443.232 204.585 441.738 203.68C441.036 203.245 440.445 202.885 439.977 202.595C439.564 202.333 439.344 202.181 439.35 202.16Z" fill="#E0E0E0"/>
<path d="M455.659 211.534C455.659 211.534 455.893 211.355 456.333 211.078C456.829 210.774 457.462 210.388 458.219 209.925C459.808 208.951 462.003 207.597 464.391 206.035C466.779 204.481 468.898 203.01 470.426 201.946C471.155 201.435 471.768 201.013 472.243 200.682C472.669 200.385 472.917 200.226 472.931 200.246C472.945 200.26 472.724 200.454 472.311 200.778C471.905 201.103 471.3 201.566 470.55 202.119C469.05 203.231 466.944 204.73 464.549 206.291C462.162 207.852 459.946 209.179 458.322 210.111C457.51 210.574 456.849 210.94 456.388 211.182C455.927 211.424 455.666 211.555 455.659 211.534Z" fill="#E0E0E0"/>
<path d="M467.322 224.984H445.846L452.858 278.246H460.317L467.322 224.984Z" fill="#364D58"/>
<path d="M446.961 231.533C446.961 231.533 446.982 231.609 447.078 231.72C447.167 231.83 447.339 231.982 447.594 232.093C448.103 232.314 448.998 232.335 449.865 231.817C450.732 231.333 451.489 230.394 452.652 229.979C453.801 229.537 455.232 229.62 456.601 230.055C457.985 230.483 459.189 231.188 460.276 231.844C461.37 232.494 462.368 233.081 463.269 233.454C464.164 233.848 464.935 234.027 465.478 234.096C465.747 234.131 465.96 234.145 466.104 234.138C466.249 234.138 466.325 234.138 466.325 234.117C466.338 234.048 465.107 234.055 463.379 233.226C462.512 232.825 461.535 232.231 460.455 231.568C459.375 230.898 458.143 230.166 456.718 229.723C455.308 229.268 453.787 229.185 452.548 229.675C451.929 229.91 451.413 230.283 450.98 230.649C450.539 231.015 450.147 231.354 449.748 231.602C448.963 232.114 448.138 232.134 447.656 231.969C447.16 231.796 447.002 231.506 446.975 231.533H446.961Z" fill="#F5F5F5"/>
<path d="M447.745 241.343C447.745 241.343 447.917 241.122 448.255 240.77C448.599 240.431 449.156 239.982 449.968 239.678C450.773 239.367 451.812 239.181 452.954 239.229C454.104 239.27 455.356 239.519 456.691 239.74C458.019 239.968 459.34 240.065 460.517 239.899C461.694 239.747 462.719 239.409 463.531 239.036C464.343 238.663 464.948 238.255 465.341 237.958C465.74 237.654 465.926 237.454 465.912 237.44C465.87 237.385 465.045 238.124 463.428 238.808C462.623 239.139 461.618 239.45 460.476 239.574C459.333 239.72 458.067 239.609 456.746 239.388C455.425 239.174 454.152 238.925 452.961 238.897C451.771 238.87 450.704 239.091 449.872 239.443C449.032 239.789 448.468 240.293 448.151 240.673C448 240.873 447.883 241.032 447.828 241.149C447.766 241.267 447.739 241.329 447.745 241.336V241.343Z" fill="#F5F5F5"/>
<path d="M464.893 246.593C464.893 246.593 464.701 246.441 464.302 246.282C463.902 246.123 463.29 245.958 462.519 245.902C461.749 245.84 460.827 245.889 459.829 246.054C458.824 246.22 457.751 246.496 456.629 246.738C455.501 246.98 454.413 247.139 453.429 247.097C452.445 247.063 451.571 246.849 450.89 246.545C449.507 245.937 449.018 245.053 448.963 245.108C448.95 245.115 449.046 245.336 449.328 245.667C449.603 245.999 450.085 246.42 450.787 246.773C451.482 247.118 452.39 247.367 453.416 247.422C454.441 247.477 455.562 247.318 456.698 247.077C457.84 246.835 458.907 246.545 459.884 246.372C460.861 246.192 461.756 246.116 462.506 246.144C464.013 246.192 464.873 246.655 464.893 246.586V246.593Z" fill="#F5F5F5"/>
<path d="M449.645 253.978C449.652 254.033 450.409 253.501 451.73 253.764C452.377 253.881 453.099 254.213 453.911 254.579C454.723 254.959 455.693 255.284 456.739 255.36C458.852 255.56 460.723 254.876 461.879 254.164C462.471 253.812 462.877 253.432 463.159 253.177C463.421 252.9 463.552 252.734 463.538 252.721C463.49 252.672 462.925 253.308 461.756 253.95C460.606 254.586 458.797 255.208 456.774 255.007C454.744 254.89 453.182 253.674 451.771 253.515C451.083 253.411 450.512 253.515 450.154 253.653C449.789 253.798 449.638 253.957 449.645 253.971V253.978Z" fill="#F5F5F5"/>
<path d="M450.842 264.202C450.842 264.243 451.565 264.237 452.631 263.843C453.712 263.484 455.046 262.648 456.608 262.026C457.393 261.729 458.177 261.542 458.893 261.549C459.609 261.549 460.242 261.729 460.73 261.971C461.714 262.461 462.003 263.166 462.058 263.117C462.072 263.117 462.031 262.938 461.852 262.661C461.68 262.392 461.35 262.04 460.847 261.75C460.345 261.459 459.671 261.245 458.9 261.225C458.129 261.204 457.297 261.39 456.492 261.701C454.874 262.351 453.581 263.2 452.549 263.615C451.53 264.057 450.842 264.147 450.849 264.202H450.842Z" fill="#F5F5F5"/>
<path d="M451.895 268.962C451.881 269.003 452.397 269.19 453.257 269.404C454.111 269.618 455.315 269.846 456.657 269.977C457.998 270.108 459.223 270.122 460.104 270.074C460.985 270.032 461.528 269.95 461.522 269.908C461.522 269.804 459.347 269.894 456.691 269.625C454.035 269.369 451.922 268.851 451.895 268.955V268.962Z" fill="#F5F5F5"/>
<path d="M455.136 31.8189H388.829V75.5889H455.136V31.8189Z" fill="#A3A3A3"/>
<path d="M452.796 33.6081H391.134V73.627H452.796V33.6081Z" fill="white"/>
<path d="M432.022 48.1912H411.908V59.2028H432.022V48.1912Z" fill="#E0E0E0"/>
<path d="M473.77 278.958C473.77 279.055 367.703 279.138 236.899 279.138C106.094 279.138 0.00683594 279.055 0.00683594 278.958C0.00683594 278.861 106.046 278.778 236.899 278.778C367.751 278.778 473.77 278.861 473.77 278.958Z" fill="#333333"/>
<path d="M178.457 0H320.457V135.773C320.457 141.955 315.454 146.978 309.296 146.978H178.457V0Z" fill="white"/>
<path d="M308.731 43.7424C308.731 44.0394 283.065 44.2812 251.411 44.2812C219.758 44.2812 194.091 44.0394 194.091 43.7424C194.091 43.4453 219.751 43.2035 251.411 43.2035C283.072 43.2035 308.731 43.4453 308.731 43.7424Z" fill="#455A64"/>
<path d="M252.092 53.697C252.092 53.9941 239.41 54.2358 223.776 54.2358C208.142 54.2358 195.453 53.9941 195.453 53.697C195.453 53.4 208.129 53.1582 223.776 53.1582C239.424 53.1582 252.092 53.4 252.092 53.697Z" fill="#455A64"/>
<path d="M274.745 52.7782C274.745 53.0753 271.387 53.3171 267.245 53.3171C263.102 53.3171 259.744 53.0753 259.744 52.7782C259.744 52.4812 263.102 52.2394 267.245 52.2394C271.387 52.2394 274.745 52.4812 274.745 52.7782Z" fill="#455A64"/>
<path d="M311.794 52.1634C311.794 52.4605 305.146 52.7022 296.944 52.7022C288.742 52.7022 282.094 52.4605 282.094 52.1634C282.094 51.8664 288.742 51.6246 296.944 51.6246C305.146 51.6246 311.794 51.8664 311.794 52.1634Z" fill="#455A64"/>
<path d="M247.365 63.2302C247.365 63.5273 235.44 63.7691 220.728 63.7691C206.016 63.7691 194.091 63.5273 194.091 63.2302C194.091 62.9332 206.016 62.6914 220.728 62.6914C235.44 62.6914 247.365 62.9332 247.365 63.2302Z" fill="#455A64"/>
<path d="M311.794 62.9539C311.794 63.251 298.768 63.4928 282.707 63.4928C266.646 63.4928 253.62 63.251 253.62 62.9539C253.62 62.6569 266.639 62.4151 282.707 62.4151C298.774 62.4151 311.794 62.6569 311.794 62.9539Z" fill="#455A64"/>
<path d="M311.794 72.5424C311.794 72.8395 305.993 73.0813 298.843 73.0813C291.694 73.0813 285.893 72.8395 285.893 72.5424C285.893 72.2454 291.687 72.0036 298.843 72.0036C306 72.0036 311.794 72.2454 311.794 72.5424Z" fill="#455A64"/>
<path d="M258.217 33.0693C258.217 33.3663 244.165 33.6081 226.838 33.6081C209.512 33.6081 195.453 33.3663 195.453 33.0693C195.453 32.7722 209.498 32.5305 226.838 32.5305C244.179 32.5305 258.217 32.7722 258.217 33.0693Z" fill="#5280E2"/>
<path d="M345.511 82.3244H70.5872C65.05 82.3244 60.5613 86.8307 60.5613 92.3895V268.084C60.5613 273.643 65.05 278.15 70.5872 278.15H345.511C351.049 278.15 355.537 273.643 355.537 268.084V92.3895C355.537 86.8307 351.049 82.3244 345.511 82.3244Z" fill="#333333"/>
<path d="M48.6431 263.67H368.226V268.513C368.226 275.296 362.742 280.809 355.978 280.809H60.8848C54.1274 280.809 48.6362 275.303 48.6362 268.513V263.67H48.6431Z" fill="#333333"/>
<path d="M347.204 90.1029H68.8945V255.477H347.204V90.1029Z" fill="#455A64"/>
<path d="M179.386 263.67C179.386 263.67 179.482 263.67 179.695 263.663C179.923 263.663 180.232 263.663 180.631 263.656C181.478 263.656 182.703 263.642 184.265 263.636C187.457 263.622 192.054 263.601 197.752 263.58C209.23 263.553 225.118 263.518 242.837 263.484H243.168L243.002 263.774C242.438 264.748 241.826 265.798 241.213 266.855C240.573 267.96 239.933 269.058 239.321 270.108L239.266 270.205H239.156C214.631 270.157 193.692 270.122 183.356 270.102H183.308L183.281 270.06C182.008 267.981 181.03 266.385 180.356 265.287C180.04 264.768 179.792 264.361 179.62 264.078C179.455 263.808 179.386 263.677 179.386 263.677C179.386 263.677 179.482 263.822 179.661 264.098C179.847 264.382 180.101 264.789 180.439 265.307C181.127 266.378 182.125 267.939 183.418 269.963L183.343 269.922C193.678 269.901 214.624 269.86 239.142 269.818L238.977 269.915C239.589 268.865 240.229 267.767 240.869 266.661C241.482 265.604 242.094 264.561 242.658 263.58L242.824 263.87C225.173 263.829 209.353 263.801 197.917 263.774C192.199 263.753 187.574 263.732 184.368 263.718C182.778 263.712 181.54 263.705 180.679 263.698C180.267 263.698 179.95 263.691 179.709 263.691C179.489 263.691 179.372 263.684 179.372 263.684L179.386 263.67Z" fill="#455A64"/>
<path d="M355.537 263.664C355.537 263.761 289.498 263.844 208.06 263.844C126.621 263.844 60.5681 263.761 60.5681 263.664C60.5681 263.567 126.593 263.484 208.06 263.484C289.526 263.484 355.537 263.567 355.537 263.664Z" fill="#455A64"/>
<path d="M280.257 57.0751C284.806 57.0751 288.494 60.7778 288.494 65.3441V82.3174H263.853V66.6567C263.853 61.365 268.126 57.0682 273.404 57.0682H280.25L280.257 57.0751Z" fill="#333333"/>
<path d="M280.257 57.0751C280.257 57.1718 257.012 57.234 228.339 57.2063C199.658 57.1787 176.413 57.082 176.413 56.9784C176.413 56.8817 199.658 56.8195 228.339 56.8471C257.006 56.8748 280.257 56.9715 280.257 57.0751Z" fill="#333333"/>
<path d="M280.037 57.0544L269.763 56.9853L254.838 57.0751H145.193C135.883 57.0751 128.334 64.6533 128.334 74V255.871H270.334V66.3527C270.747 57.0751 280.044 57.0544 280.044 57.0544H280.037Z" fill="white"/>
<path d="M280.037 57.0543L194.414 57.2408L151.606 57.2753H146.253C145.358 57.2615 144.478 57.3168 143.597 57.3582C142.723 57.4826 141.849 57.5793 141.003 57.8349C137.576 58.6846 134.5 60.7501 132.263 63.4788C131.149 64.8536 130.282 66.4148 129.649 68.0589C129.511 68.4803 129.318 68.881 129.222 69.3093L128.892 70.5942C128.761 71.4647 128.589 72.3351 128.582 73.2262C128.506 76.7839 128.568 80.3831 128.548 83.9615L128.665 255.871L128.321 255.525L270.321 255.615L270.073 255.864L270.142 153.623L270.224 102.503L270.273 76.9428L270.286 70.5528V67.3612C270.293 66.8293 270.28 66.2974 270.362 65.7654C270.431 65.2335 270.452 64.7016 270.61 64.1904C271.078 62.1179 272.261 60.1698 274.05 58.9886C274.917 58.3737 275.888 57.9109 276.906 57.6069C277.918 57.2961 278.97 57.0957 280.03 57.0612L280.037 57.0543ZM280.037 57.0543C278.977 57.0888 277.925 57.2961 276.913 57.6138C275.901 57.9247 274.931 58.3945 274.071 59.0093C272.296 60.1975 271.126 62.1387 270.665 64.2042C270.507 64.7154 270.486 65.2473 270.424 65.7724C270.341 66.2974 270.362 66.8293 270.362 67.3681V70.5666L270.383 76.9566L270.431 102.517L270.513 153.637L270.582 255.878V256.126H270.335L128.334 256.216H127.99V255.871L128.107 83.9615C128.128 80.3762 128.073 76.8047 128.155 73.2055C128.162 72.2936 128.334 71.4025 128.472 70.5044L128.809 69.185C128.912 68.7429 129.105 68.3284 129.249 67.9001C129.903 66.2145 130.791 64.6118 131.94 63.2025C134.238 60.4116 137.39 58.2977 140.906 57.4342C141.773 57.1717 142.675 57.075 143.569 56.9507C144.471 56.9023 145.372 56.8539 146.26 56.8678H151.613L194.421 56.9023L280.044 57.0474L280.037 57.0543Z" fill="#333333"/>
<path d="M149.728 89.799H174.507L174.548 98.1302H173.365C172.973 95.1459 171.865 93.1356 170.027 92.0786C168.995 91.4984 167.454 91.1806 165.403 91.1253V112.893C165.403 114.413 165.665 115.421 166.195 115.919C166.724 116.416 167.825 116.665 169.498 116.665V117.715H154.827V116.665C156.437 116.665 157.504 116.409 158.033 115.905C158.563 115.401 158.825 114.392 158.825 112.886V91.1184C156.815 91.1737 155.274 91.4915 154.201 92.0717C152.233 93.1494 151.118 95.1666 150.863 98.1233H149.68L149.721 89.7921L149.728 89.799Z" fill="#5280E2"/>
<path d="M250.847 91.678C250.847 91.975 237.181 92.2168 220.322 92.2168C203.463 92.2168 189.79 91.975 189.79 91.678C189.79 91.3809 203.456 91.1391 220.322 91.1391C237.188 91.1391 250.847 91.3809 250.847 91.678Z" fill="#5280E2"/>
<path d="M214.624 101.474C214.624 101.771 209.34 102.013 202.823 102.013C196.307 102.013 191.022 101.771 191.022 101.474C191.022 101.177 196.307 100.935 202.823 100.935C209.34 100.935 214.624 101.177 214.624 101.474Z" fill="#455A64"/>
<path d="M184.87 131.345C184.87 131.642 174.83 131.883 162.458 131.883C150.086 131.883 140.039 131.642 140.039 131.345C140.039 131.048 150.072 130.806 162.458 130.806C174.844 130.806 184.87 131.048 184.87 131.345Z" fill="#455A64"/>
<path d="M235.64 131.345C235.64 131.642 225.6 131.883 213.228 131.883C200.855 131.883 190.809 131.642 190.809 131.345C190.809 131.048 200.841 130.806 213.228 130.806C225.614 130.806 235.64 131.048 235.64 131.345Z" fill="#5280E2"/>
<path d="M184.87 139.323C184.87 139.621 174.83 139.862 162.458 139.862C150.086 139.862 140.039 139.621 140.039 139.323C140.039 139.026 150.072 138.785 162.458 138.785C174.844 138.785 184.87 139.026 184.87 139.323Z" fill="#455A64"/>
<path d="M184.87 147.302C184.87 147.599 174.83 147.841 162.458 147.841C150.086 147.841 140.039 147.599 140.039 147.302C140.039 147.005 150.072 146.764 162.458 146.764C174.844 146.764 184.87 147.005 184.87 147.302Z" fill="#5280E2"/>
<path d="M214.624 117.722C214.624 118.019 209.34 118.261 202.823 118.261C196.307 118.261 191.022 118.019 191.022 117.722C191.022 117.425 196.307 117.183 202.823 117.183C209.34 117.183 214.624 117.425 214.624 117.722Z" fill="#455A64"/>
<path d="M255.568 131.345C255.568 131.642 252.044 131.883 247.702 131.883C243.36 131.883 239.83 131.642 239.83 131.345C239.83 131.048 243.353 130.806 247.702 130.806C252.051 130.806 255.568 131.048 255.568 131.345Z" fill="#455A64"/>
<path d="M259.779 101.474C259.779 101.771 250.709 102.013 239.527 102.013C228.346 102.013 219.276 101.771 219.276 101.474C219.276 101.177 228.346 100.935 239.527 100.935C250.709 100.935 259.779 101.177 259.779 101.474Z" fill="#455A64"/>
<path d="M257.948 109.252C257.948 109.549 242.961 109.791 224.485 109.791C206.009 109.791 191.015 109.549 191.015 109.252C191.015 108.955 205.996 108.713 224.485 108.713C242.975 108.713 257.948 108.955 257.948 109.252Z" fill="#455A64"/>
<path d="M255.567 139.323C255.567 139.621 241.069 139.862 223.191 139.862C205.314 139.862 190.809 139.621 190.809 139.323C190.809 139.026 205.3 138.785 223.191 138.785C241.083 138.785 255.567 139.026 255.567 139.323Z" fill="#455A64"/>
<path d="M255.568 162.417C255.568 162.714 241.963 162.956 225.187 162.956C208.411 162.956 194.8 162.714 194.8 162.417C194.8 162.12 208.404 161.879 225.187 161.879C241.97 161.879 255.568 162.12 255.568 162.417Z" fill="#5280E2"/>
<path d="M255.568 170.182C255.568 170.479 241.963 170.721 225.187 170.721C208.411 170.721 194.8 170.479 194.8 170.182C194.8 169.885 208.404 169.643 225.187 169.643C241.97 169.643 255.568 169.885 255.568 170.182Z" fill="#455A64"/>
<path d="M255.568 177.947C255.568 178.244 241.963 178.486 225.187 178.486C208.411 178.486 194.8 178.244 194.8 177.947C194.8 177.65 208.404 177.408 225.187 177.408C241.97 177.408 255.568 177.65 255.568 177.947Z" fill="#455A64"/>
<path d="M255.568 185.712C255.568 186.009 241.963 186.25 225.187 186.25C208.411 186.25 194.8 186.009 194.8 185.712C194.8 185.415 208.404 185.173 225.187 185.173C241.97 185.173 255.568 185.415 255.568 185.712Z" fill="#455A64"/>
<path d="M229.784 193.476C229.784 193.628 227.823 193.76 224.657 193.856C221.492 193.953 217.122 194.015 212.292 194.015C207.461 194.015 203.085 193.953 199.919 193.856C196.754 193.76 194.8 193.621 194.8 193.476C194.8 193.331 196.754 193.193 199.919 193.096C203.085 193 207.461 192.938 212.292 192.938C217.122 192.938 221.492 193 224.657 193.096C227.823 193.193 229.784 193.331 229.784 193.476Z" fill="#455A64"/>
<path d="M244.558 147.717C244.558 148.014 232.839 148.256 218.388 148.256C203.938 148.256 192.219 148.014 192.219 147.717C192.219 147.42 203.938 147.178 218.388 147.178C232.839 147.178 244.558 147.42 244.558 147.717Z" fill="#455A64"/>
<path d="M183.81 163.295L187.038 223.23L128.658 230.566L128.616 162.79L183.81 163.295Z" fill="#E0E0E0"/>
<path d="M108.233 159.144L107.824 222.725L187.039 223.238L187.448 159.657L108.233 159.144Z" fill="#F5F5F5"/>
<path d="M110.932 163.168L110.574 218.743L184.222 219.221L184.58 163.646L110.932 163.168Z" fill="#5280E2"/>
<g opacity="0.2">
<path d="M110.574 218.733L136.523 184.358L152.315 206.07L163.201 194.589L184.223 219.209L110.574 218.733Z" fill="#333333"/>
</g>
<g opacity="0.2">
<path d="M159.245 180.268C159.224 183.48 156.609 186.071 153.409 186.05C150.21 186.029 147.629 183.404 147.65 180.192C147.67 176.98 150.285 174.389 153.485 174.41C156.685 174.431 159.265 177.056 159.245 180.268Z" fill="#333333"/>
</g>
<path d="M194.662 238.234C194.662 238.911 194.112 239.464 193.437 239.464C192.763 239.464 192.212 238.911 192.212 238.234C192.212 237.557 192.763 237.005 193.437 237.005C194.112 237.005 194.662 237.557 194.662 238.234Z" fill="#333333"/>
<path d="M201.936 238.234C201.936 238.911 201.385 239.464 200.711 239.464C200.036 239.464 199.486 238.911 199.486 238.234C199.486 237.557 200.036 237.005 200.711 237.005C201.385 237.005 201.936 237.557 201.936 238.234Z" fill="#333333"/>
<path d="M209.202 238.234C209.202 238.911 208.652 239.464 207.977 239.464C207.303 239.464 206.752 238.911 206.752 238.234C206.752 237.557 207.303 237.005 207.977 237.005C208.652 237.005 209.202 237.557 209.202 238.234Z" fill="#333333"/>
<path d="M235.977 209.655C235.977 209.952 225.937 210.194 213.565 210.194C201.192 210.194 191.146 209.952 191.146 209.655C191.146 209.358 201.179 209.116 213.565 209.116C225.951 209.116 235.977 209.358 235.977 209.655Z" fill="#5280E2"/>
<path d="M255.905 217.634C255.905 217.931 241.406 218.173 223.529 218.173C205.651 218.173 191.146 217.931 191.146 217.634C191.146 217.337 205.638 217.095 223.529 217.095C241.42 217.095 255.905 217.337 255.905 217.634Z" fill="#455A64"/>
<path d="M398.396 230.931L398.15 269.229L445.863 269.539L446.109 231.241L398.396 230.931Z" fill="#F5F5F5"/>
<path d="M400.032 233.36L399.816 266.836L444.179 267.124L444.394 233.648L400.032 233.36Z" fill="#5280E2"/>
<path opacity="0.2" d="M399.797 266.82L415.425 246.116L424.941 259.194L431.499 252.279L444.16 267.11L399.797 266.82Z" fill="#333333"/>
<g opacity="0.2">
<path d="M429.118 243.657C429.104 245.591 427.528 247.153 425.602 247.139C423.675 247.125 422.12 245.543 422.134 243.609C422.147 241.675 423.723 240.113 425.65 240.127C427.577 240.141 429.132 241.723 429.118 243.657Z" fill="#333333"/>
</g>
<path d="M391.401 226.933L391.155 265.231L438.868 265.541L439.114 227.243L391.401 226.933Z" fill="#F5F5F5"/>
<path d="M393.03 229.355L392.814 262.831L437.177 263.119L437.392 229.643L393.03 229.355Z" fill="#5280E2"/>
<path opacity="0.2" d="M392.799 262.827L408.426 242.117L417.943 255.194L424.501 248.279L437.162 263.111L392.799 262.827Z" fill="#333333"/>
<g opacity="0.2">
<path d="M422.12 239.657C422.106 241.592 420.53 243.153 418.604 243.139C416.677 243.125 415.122 241.543 415.136 239.609C415.149 237.675 416.725 236.113 418.652 236.127C420.579 236.141 422.134 237.723 422.12 239.657Z" fill="#333333"/>
</g>
<path d="M385.168 223.63L384.921 261.928L432.635 262.238L432.881 223.94L385.168 223.63Z" fill="#F5F5F5"/>
<path d="M386.797 226.052L386.581 259.528L430.943 259.816L431.159 226.34L386.797 226.052Z" fill="#5280E2"/>
<path opacity="0.2" d="M386.572 259.518L402.199 238.815L411.716 251.892L418.267 244.977L430.935 259.808L386.572 259.518Z" fill="#333333"/>
<g opacity="0.2">
<path d="M415.886 236.348C415.872 238.283 414.296 239.844 412.369 239.83C410.443 239.816 408.887 238.234 408.901 236.3C408.915 234.366 410.491 232.804 412.418 232.818C414.344 232.832 415.899 234.414 415.886 236.348Z" fill="#333333"/>
</g>
<path d="M378.166 227.746L377.919 266.044L425.632 266.354L425.879 228.056L378.166 227.746Z" fill="#F5F5F5"/>
<path d="M379.801 230.161L379.586 263.637L423.948 263.925L424.163 230.449L379.801 230.161Z" fill="#455A64"/>
<path opacity="0.2" d="M379.573 263.636L395.201 242.925L404.717 256.002L411.268 249.087L423.937 263.919L379.573 263.636Z" fill="#333333"/>
<g opacity="0.2">
<path d="M408.887 240.466C408.874 242.4 407.298 243.961 405.371 243.947C403.444 243.934 401.889 242.352 401.903 240.417C401.917 238.483 403.492 236.922 405.419 236.936C407.346 236.949 408.901 238.531 408.887 240.466Z" fill="#333333"/>
</g>
<path d="M453.416 241.979H425.87V278.958H453.416V241.979Z" fill="#333333"/>
<path d="M373.112 241.979V278.958H428.21V241.979H373.112ZM406.52 250.731H394.808C393.412 250.731 392.276 249.591 392.276 248.189C392.276 246.787 393.412 245.647 394.808 245.647H406.52C407.917 245.647 409.053 246.787 409.053 248.189C409.053 249.591 407.917 250.731 406.52 250.731Z" fill="#5280E2"/>
<path d="M337.385 275.089L286.148 271.939C285.824 271.2 285.611 270.772 285.611 270.772L271.725 271.048L267.204 270.772C267.204 270.772 267.135 270.91 267.025 271.145L220.412 272.077C211.115 272.077 201.351 277.77 201.351 285.044C201.234 291.966 204.571 299.482 212.897 299.309L276.404 299.095L339.91 299.309C348.237 299.482 350.439 294.439 350.452 288.456C351.423 277.321 344.473 275.179 337.378 275.089H337.385Z" fill="#455A64"/>
<path d="M218.732 299.316C218.732 299.316 218.836 299.302 219.035 299.295C219.255 299.295 219.551 299.288 219.93 299.282C220.735 299.275 221.898 299.261 223.391 299.247C226.412 299.233 230.775 299.212 236.169 299.192C247.007 299.178 262.022 299.157 278.812 299.136L278.633 299.33C278.544 297.934 278.454 296.435 278.358 294.929C278.165 291.841 277.98 288.809 277.801 285.928L277.959 286.094C262.359 284.353 248.576 282.813 238.674 281.707C233.747 281.141 229.784 280.685 227.031 280.367C225.676 280.201 224.63 280.077 223.893 279.987C223.549 279.939 223.281 279.904 223.081 279.883C222.896 279.856 222.806 279.842 222.806 279.835C222.806 279.835 222.902 279.835 223.081 279.849C223.281 279.87 223.549 279.89 223.893 279.925C224.63 280.001 225.682 280.105 227.038 280.243C229.791 280.533 233.754 280.954 238.688 281.472C248.59 282.55 262.38 284.049 277.986 285.742L278.138 285.755V285.907C278.33 288.795 278.516 291.828 278.709 294.909C278.805 296.415 278.895 297.914 278.984 299.309L278.998 299.503H278.805C262.008 299.482 246.994 299.461 236.163 299.447C230.761 299.427 226.405 299.406 223.384 299.392C221.891 299.378 220.728 299.364 219.923 299.358C219.538 299.351 219.242 299.344 219.028 299.344C218.829 299.344 218.726 299.323 218.726 299.323L218.732 299.316Z" fill="#333333"/>
<path d="M231.827 281.023C231.786 281.072 231.153 280.554 230.032 279.87C228.917 279.186 227.286 278.371 225.366 277.811C223.446 277.258 221.636 277.079 220.322 277.065C219.015 277.051 218.196 277.148 218.189 277.086C218.189 277.058 218.389 277.017 218.753 276.954C219.118 276.885 219.655 276.837 220.322 276.809C221.65 276.754 223.508 276.899 225.462 277.466C227.417 278.032 229.068 278.903 230.162 279.656C230.713 280.029 231.139 280.36 231.415 280.609C231.69 280.858 231.841 281.003 231.821 281.023H231.827Z" fill="#333333"/>
<path d="M333.408 278.288C333.428 278.384 323.327 280.837 310.837 283.766C298.348 286.695 288.205 288.988 288.184 288.892C288.164 288.795 298.265 286.343 310.755 283.414C323.237 280.485 333.38 278.191 333.408 278.288Z" fill="#333333"/>
<path d="M324.861 277.3C324.896 277.41 322.907 277.811 320.905 279.207C318.881 280.574 317.78 282.281 317.684 282.205C317.65 282.184 317.87 281.728 318.372 281.079C318.868 280.429 319.666 279.614 320.698 278.909C321.73 278.205 322.783 277.763 323.568 277.535C324.352 277.307 324.854 277.265 324.861 277.307V277.3Z" fill="#333333"/>
<path d="M305.793 218.898L322.019 247.256C324.022 250.759 324.146 255.035 322.35 258.648C320.265 262.841 315.943 265.439 311.278 265.307L286.361 264.603L285.707 255.505L307.651 251.284L292.857 225.572L305.8 218.898H305.793Z" fill="#FFBE9D"/>
<path d="M245.308 267.435L268.222 273.528L268.717 266.627L247.599 254.316L263.02 225.579L250.076 218.905L233.85 247.263C229.921 254.586 233.589 263.698 241.489 266.219L245.308 267.435Z" fill="#FFBE9D"/>
<path d="M298.905 237.108L314.567 228.825C314.567 228.825 311.959 223.285 307.858 217.593C303.006 210.857 295.485 206.146 286.939 204.357L268.924 204.571C266.357 204.847 264.252 205.338 262.497 206.056L262.511 205.987C252.732 208.149 241.888 229.558 241.888 229.558L256.139 237.088L256.455 239.34C256.868 242.303 258.162 245.087 260.171 247.36L256.022 274.765L302.277 275.725L296.387 256.099L298.905 237.108Z" fill="#5280E2"/>
<path d="M260.584 247.512C260.584 247.512 260.316 247.353 259.896 246.987C259.476 246.621 258.905 246.041 258.32 245.218C257.157 243.595 256.118 240.846 256.393 237.744C256.614 236.217 257.047 234.829 257.453 233.578C257.866 232.328 258.286 231.223 258.657 230.297C259.022 229.371 259.338 228.632 259.572 228.128C259.8 227.623 259.944 227.347 259.965 227.361C259.985 227.368 259.889 227.665 259.696 228.183C259.483 228.77 259.215 229.509 258.891 230.387C258.554 231.319 258.162 232.431 257.77 233.682C257.384 234.925 256.964 236.314 256.751 237.792C256.614 239.257 256.806 240.714 257.143 241.951C257.474 243.201 258.01 244.251 258.54 245.08C259.634 246.717 260.653 247.45 260.591 247.512H260.584Z" fill="#333333"/>
<path d="M253.655 281.383L251.04 250.821H307.39L303.653 281.763L253.655 281.383Z" fill="#333333"/>
<path d="M282.803 267.117C282.803 269.107 281.2 270.716 279.218 270.716C277.236 270.716 275.633 269.107 275.633 267.117C275.633 265.128 277.236 263.518 279.218 263.518C281.2 263.518 282.803 265.128 282.803 267.117Z" fill="white"/>
<path d="M278.227 287.358L287.792 288.698V299.136L278.998 298.909L278.227 287.358Z" fill="#FFBE9D"/>
<path d="M287.792 288.698H292.093C292.933 288.698 293.751 288.919 294.474 289.341L296.745 290.653C297.488 291.082 299.889 292.291 300.708 292.553C303.323 293.396 307.72 294.529 308.649 295.247C311.292 297.299 310.493 299.717 309.035 299.972C307.755 300.193 287.785 299.136 287.785 299.136V288.698H287.792Z" fill="#5280E2"/>
<path d="M294.859 298.273C294.77 298.294 294.439 297.092 294.398 295.558C294.35 294.024 294.605 292.809 294.701 292.822C294.804 292.836 294.708 294.052 294.756 295.551C294.797 297.043 294.962 298.252 294.859 298.273Z" fill="#333333"/>
<path d="M296.903 298.218C296.807 298.218 296.731 297.099 296.745 295.724C296.759 294.349 296.848 293.23 296.944 293.237C297.041 293.237 297.116 294.356 297.103 295.731C297.089 297.105 296.999 298.218 296.903 298.218Z" fill="#333333"/>
<path d="M299.312 298.625C299.215 298.632 299.043 297.492 298.933 296.069C298.823 294.653 298.816 293.493 298.912 293.486C299.009 293.479 299.181 294.619 299.291 296.042C299.401 297.458 299.408 298.618 299.312 298.625Z" fill="#333333"/>
<path d="M293.001 295.496C293.001 295.496 292.671 295.448 292.121 295.22C291.57 294.985 290.793 294.584 289.974 293.886C289.767 293.714 289.561 293.52 289.361 293.306C289.162 293.092 288.941 292.85 288.811 292.525C288.68 292.201 288.68 291.779 288.928 291.455C289.052 291.289 289.258 291.185 289.464 291.158C289.671 291.13 289.864 291.164 290.042 291.227C291.439 291.703 292.637 293.078 292.857 294.771C293.07 296.484 292.155 298.073 290.944 298.874C290.641 299.074 290.325 299.254 289.96 299.316C289.781 299.351 289.588 299.351 289.396 299.288C289.203 299.226 289.045 299.081 288.962 298.902C288.797 298.522 288.941 298.169 289.086 297.907C289.237 297.631 289.451 297.43 289.637 297.237C290.414 296.484 291.199 296.069 291.749 295.848C292.306 295.627 292.637 295.579 292.637 295.593C292.644 295.62 292.334 295.717 291.804 295.973C291.281 296.228 290.538 296.663 289.815 297.416C289.637 297.61 289.451 297.803 289.327 298.038C289.203 298.266 289.12 298.556 289.224 298.763C289.327 298.985 289.602 299.06 289.898 298.991C290.187 298.936 290.476 298.77 290.758 298.584C291.859 297.838 292.692 296.352 292.499 294.798C292.306 293.251 291.192 291.966 289.946 291.524C289.643 291.42 289.334 291.434 289.175 291.634C289.01 291.835 288.99 292.152 289.086 292.401C289.299 292.919 289.774 293.32 290.139 293.672C291.715 295.068 293.043 295.406 293.001 295.475V295.496Z" fill="#333333"/>
<path d="M309.041 299.972C309.041 299.972 309.323 299.8 309.564 299.316C309.805 298.839 309.757 297.983 309.282 297.14C308.814 296.29 307.844 295.558 306.626 295.13C305.408 294.688 303.956 294.48 302.497 294.018C299.559 293.14 297.075 291.848 295.389 290.764C294.543 290.225 293.896 289.741 293.455 289.396C293.022 289.044 292.788 288.836 292.802 288.816C292.815 288.795 293.077 288.968 293.538 289.279C293.999 289.589 294.673 290.038 295.527 290.543C297.233 291.558 299.703 292.795 302.6 293.665C304.039 294.114 305.477 294.335 306.743 294.805C308.002 295.268 309.027 296.069 309.509 297.002C309.991 297.914 310.005 298.853 309.695 299.364C309.55 299.62 309.372 299.772 309.255 299.855C309.131 299.938 309.055 299.965 309.048 299.959L309.041 299.972Z" fill="#333333"/>
<path d="M302.525 211.866C302.525 211.866 302.525 211.914 302.525 212.011C302.518 212.128 302.504 212.267 302.49 212.439C302.456 212.84 302.401 213.4 302.339 214.111C302.188 215.596 301.981 217.717 301.713 220.384L301.699 220.543L301.555 220.467C299.249 219.251 296.435 217.759 293.249 216.08L293.449 216.025C292.079 218.346 290.558 220.922 288.934 223.665L288.838 223.831L288.687 223.713C286.313 221.883 283.746 219.914 281.09 217.862H281.31C280.257 218.691 279.136 219.575 278 220.467C276.466 221.669 274.959 222.857 273.486 224.01L273.321 224.142L273.218 223.955C271.718 221.171 270.28 218.498 268.917 215.976L269.13 216.052C265.821 217.531 262.758 218.905 260.013 220.128L259.848 220.204L259.82 220.024C259.29 216.888 258.829 214.159 258.444 211.887L258.582 211.963C256.359 212.812 254.597 213.489 253.366 213.959C252.774 214.18 252.313 214.353 251.976 214.477C251.831 214.526 251.714 214.567 251.618 214.602C251.535 214.629 251.494 214.643 251.494 214.636C251.494 214.629 251.528 214.608 251.611 214.574C251.707 214.532 251.817 214.484 251.962 214.422C252.292 214.284 252.746 214.097 253.331 213.855C254.556 213.365 256.311 212.653 258.513 211.769L258.63 211.721L258.65 211.845C259.056 214.118 259.545 216.84 260.102 219.969L259.903 219.866C262.635 218.622 265.69 217.24 269 215.741L269.137 215.679L269.213 215.817C270.575 218.339 272.027 221.012 273.527 223.789L273.259 223.734C274.732 222.574 276.239 221.392 277.766 220.183C278.902 219.292 280.023 218.408 281.076 217.579L281.186 217.496L281.296 217.579C283.952 219.631 286.512 221.613 288.879 223.444L288.632 223.492C290.263 220.757 291.797 218.187 293.18 215.873L293.256 215.748L293.38 215.817C296.552 217.524 299.353 219.037 301.651 220.273L301.493 220.356C301.802 217.696 302.05 215.576 302.222 214.097C302.311 213.393 302.38 212.833 302.428 212.432C302.456 212.26 302.477 212.122 302.49 212.004C302.504 211.907 302.518 211.859 302.518 211.859L302.525 211.866Z" fill="#F5F5F5"/>
<path d="M309.213 219.555C309.213 219.555 309.206 219.624 309.172 219.755C309.138 219.907 309.09 220.1 309.028 220.342C308.89 220.874 308.69 221.634 308.436 222.601C307.906 224.591 307.135 227.444 306.179 231.008L306.144 231.147L306.014 231.084C303.254 229.751 299.965 228.169 296.304 226.408L296.497 226.359C294.02 229.91 291.26 233.855 288.322 238.068L288.205 238.241L288.061 238.089C285.563 235.547 282.92 232.86 280.202 230.096C279.652 229.53 279.101 228.97 278.551 228.418L278.771 228.445C275.09 230.767 271.532 233.005 268.181 235.112L268.029 235.209L267.94 235.05C265.896 231.423 263.976 228.024 262.229 224.929L262.408 224.998C258.224 226.442 254.542 227.72 251.521 228.763L251.418 228.798L251.384 228.694C250.352 225.689 249.533 223.313 248.969 221.662C248.7 220.86 248.494 220.239 248.342 219.79C248.28 219.589 248.225 219.43 248.191 219.306C248.157 219.195 248.143 219.14 248.15 219.14C248.15 219.14 248.177 219.189 248.218 219.299C248.267 219.423 248.329 219.575 248.397 219.776C248.556 220.218 248.783 220.833 249.079 221.627C249.67 223.271 250.517 225.641 251.59 228.625L251.453 228.556C254.467 227.492 258.134 226.193 262.311 224.715L262.428 224.674L262.49 224.784C264.252 227.879 266.178 231.264 268.236 234.884L267.995 234.822C271.346 232.708 274.897 230.463 278.578 228.141L278.702 228.066L278.805 228.169C279.349 228.722 279.899 229.288 280.457 229.848C283.175 232.618 285.81 235.305 288.308 237.847L288.04 237.868C290.992 233.668 293.765 229.73 296.256 226.186L296.332 226.083L296.449 226.138C300.096 227.92 303.371 229.53 306.124 230.877L305.959 230.953C306.956 227.402 307.761 224.556 308.319 222.574C308.594 221.613 308.814 220.86 308.966 220.328C309.041 220.087 309.096 219.9 309.145 219.748C309.186 219.617 309.206 219.555 309.213 219.555Z" fill="#F5F5F5"/>
<path d="M302.27 171.363C299.518 171.674 296.655 170.762 294.577 168.925C297.082 170.196 300.426 168.455 301.307 165.775C302.188 163.101 301.465 158.121 299.277 156.352C297.192 154.673 294.309 154.031 291.728 154.722C289.148 155.413 286.416 159.357 285.57 161.899L285.618 161.975C285.219 161.816 284.82 161.671 284.42 161.533C281.565 160.573 278.51 160.103 275.516 160.449C272.523 160.794 269.591 161.989 267.376 164.048L284.875 192.281C288.054 191.998 290.868 189.85 292.533 187.114C294.199 184.385 294.839 181.132 294.997 177.933C295.038 177.132 295.031 176.317 294.997 175.508C296.875 175.812 298.747 176.116 300.626 176.413C299.621 175.059 298.341 173.906 296.882 173.056C298.781 173.781 301.135 173.042 302.277 171.35L302.27 171.363Z" fill="#333333"/>
<path d="M280.154 215.182C284.902 215.078 288.707 211.217 288.762 206.45L289.168 171.322C289.196 169.871 288.116 168.642 286.677 168.49L271.897 164.739C267.162 164.234 264.018 170.085 263.715 174.852C263.385 180.151 263.185 186.63 263.811 190.582C265.07 198.533 271.14 199.542 271.14 199.542C271.14 199.521 271.14 202.616 271.16 206.388C271.181 211.327 275.234 215.285 280.147 215.175L280.154 215.182Z" fill="#FFBE9D"/>
<path d="M266.791 179.999C266.77 180.537 267.21 181 267.768 181.028C268.325 181.056 268.793 180.648 268.814 180.109C268.834 179.57 268.394 179.107 267.837 179.08C267.279 179.052 266.804 179.46 266.791 179.999Z" fill="#333333"/>
<path d="M265.126 178.23C265.249 178.361 266.02 177.795 267.114 177.795C268.208 177.781 269.007 178.348 269.124 178.209C269.179 178.147 269.055 177.912 268.704 177.657C268.36 177.401 267.775 177.152 267.094 177.159C266.412 177.159 265.841 177.415 265.511 177.671C265.174 177.926 265.064 178.168 265.126 178.23Z" fill="#333333"/>
<path d="M277.188 179.999C277.168 180.537 277.608 181 278.165 181.028C278.723 181.056 279.191 180.648 279.211 180.109C279.232 179.57 278.792 179.107 278.234 179.08C277.677 179.052 277.209 179.46 277.188 179.999Z" fill="#333333"/>
<path d="M275.86 178.43C275.984 178.562 276.755 177.995 277.849 177.995C278.943 177.981 279.741 178.548 279.858 178.41C279.913 178.348 279.789 178.113 279.438 177.857C279.094 177.601 278.509 177.353 277.828 177.36C277.147 177.36 276.576 177.615 276.246 177.871C275.908 178.127 275.798 178.368 275.86 178.43Z" fill="#333333"/>
<path d="M271.897 186.568C271.897 186.506 271.222 186.389 270.121 186.244C269.839 186.216 269.578 186.161 269.53 185.967C269.461 185.767 269.578 185.463 269.715 185.138C269.977 184.461 270.252 183.75 270.541 183.004C271.69 179.964 272.516 177.47 272.392 177.422C272.268 177.374 271.243 179.798 270.094 182.838C269.819 183.584 269.557 184.302 269.302 184.986C269.199 185.304 269.013 185.663 269.158 186.085C269.234 186.292 269.44 186.444 269.619 186.492C269.798 186.548 269.956 186.548 270.094 186.561C271.202 186.624 271.89 186.624 271.89 186.561L271.897 186.568Z" fill="#333333"/>
<path d="M271.146 199.549C271.146 199.549 276.473 199.894 281.75 196.709C281.75 196.709 279.177 202.167 271.257 201.428L271.146 199.549Z" fill="#EB996E"/>
<path d="M272.358 189.214C272.75 188.689 273.438 188.406 274.126 188.482C274.601 188.53 275.083 188.765 275.365 189.152C275.654 189.539 275.716 190.091 275.454 190.458C275.158 190.872 274.546 190.969 274.023 190.824C273.5 190.672 273.053 190.333 272.626 189.988C272.509 189.891 272.385 189.794 272.316 189.663C272.241 189.532 272.227 189.366 272.316 189.256" fill="#EB996E"/>
<path d="M275.117 187.328C274.938 187.321 274.938 188.509 273.92 189.352C272.908 190.202 271.642 190.064 271.635 190.23C271.621 190.306 271.917 190.458 272.447 190.478C272.97 190.499 273.734 190.326 274.353 189.808C274.973 189.29 275.241 188.599 275.282 188.109C275.33 187.611 275.193 187.314 275.117 187.321V187.328Z" fill="#333333"/>
<path d="M275.372 176.51C275.482 176.807 276.569 176.669 277.849 176.821C279.136 176.952 280.168 177.325 280.34 177.063C280.415 176.931 280.237 176.655 279.817 176.365C279.404 176.075 278.743 175.805 277.973 175.716C277.202 175.633 276.5 175.757 276.032 175.944C275.564 176.137 275.323 176.365 275.372 176.51Z" fill="#333333"/>
<path d="M265.277 176.206C265.469 176.455 266.22 176.199 267.128 176.185C268.029 176.144 268.8 176.351 268.979 176.096C269.055 175.971 268.938 175.722 268.6 175.481C268.27 175.246 267.72 175.052 267.093 175.073C266.474 175.094 265.931 175.322 265.621 175.577C265.304 175.833 265.194 176.089 265.284 176.213L265.277 176.206Z" fill="#333333"/>
<path d="M288.295 181.201C288.893 180.786 289.733 180.938 290.366 181.304C291.818 182.147 292.547 184.081 292.004 185.677C291.467 187.273 289.719 188.364 288.054 188.143" fill="#FFBE9D"/>
<path d="M288.852 185.781C288.872 185.725 289.161 185.85 289.54 185.67C289.918 185.518 290.256 184.959 290.221 184.309C290.201 183.653 289.774 183.176 289.375 183.031C288.976 182.866 288.687 182.948 288.673 182.886C288.645 182.845 288.941 182.638 289.464 182.755C289.719 182.817 290.008 182.962 290.235 183.239C290.462 183.508 290.607 183.888 290.627 184.282C290.682 185.083 290.18 185.808 289.636 185.933C289.1 186.078 288.804 185.801 288.845 185.767L288.852 185.781Z" fill="#EB996E"/>
<path d="M291.012 187.39C291.012 187.39 291.15 187.466 291.377 187.646C291.639 187.86 291.962 188.13 292.347 188.44C293.221 189.186 294.384 190.181 295.767 191.356L295.884 191.452L295.788 191.57C294.515 193.103 293.097 195.024 291.508 197.027C291.15 197.483 290.785 197.925 290.434 198.34L290.139 198.685L290.118 198.229C289.973 194.996 289.863 192.129 289.801 190.071C289.781 189.09 289.76 188.281 289.746 187.646C289.746 187.079 289.746 186.762 289.767 186.762C289.788 186.762 289.829 187.073 289.87 187.639C289.911 188.268 289.967 189.083 290.035 190.057C290.159 192.109 290.317 194.975 290.469 198.209L290.159 198.098C290.496 197.683 290.861 197.241 291.219 196.792C292.808 194.796 294.24 192.882 295.547 191.363L295.568 191.577C294.226 190.361 293.091 189.338 292.23 188.565C291.866 188.226 291.563 187.943 291.315 187.708C291.109 187.508 290.999 187.39 291.012 187.383V187.39Z" fill="#455A64"/>
<path d="M275 161.264C273.06 161.347 271.112 161.43 269.227 161.899C267.341 162.369 265.518 163.26 264.238 164.718C262.958 166.182 262.304 168.275 262.862 170.141C263.412 172.006 265.325 173.47 267.245 173.208C268.704 173.014 270.101 171.93 271.511 172.358C272.839 172.766 273.576 174.396 274.945 174.652C276.294 174.9 277.498 173.685 278.867 173.567C280.374 173.436 281.688 174.679 282.356 176.04C283.03 177.401 283.285 178.942 283.959 180.309C284.393 181.18 285.06 182.016 285.996 182.258C286.856 182.479 287.792 182.147 288.466 181.56C289.134 180.973 289.574 180.164 289.912 179.335C291.336 175.819 291.026 171.647 289.1 168.386C287.173 165.125 283.67 162.846 279.92 162.417" fill="#333333"/>
<path d="M294.295 169.705C294.233 169.726 294.047 169.063 293.565 168.089C293.084 167.115 292.244 165.851 291.019 164.739C289.788 163.626 288.453 162.915 287.441 162.535C286.43 162.148 285.755 162.031 285.769 161.968C285.769 161.941 285.941 161.955 286.251 161.996C286.56 162.031 287.001 162.127 287.531 162.3C288.59 162.632 289.994 163.329 291.267 164.476C292.533 165.63 293.373 166.963 293.806 167.985C294.026 168.497 294.171 168.925 294.233 169.229C294.302 169.533 294.329 169.699 294.309 169.705H294.295Z" fill="#5280E2"/>
<path d="M300.35 158.065C300.316 158.127 299.655 157.692 298.444 157.471C297.247 157.243 295.478 157.333 293.799 158.176C292.12 159.019 290.937 160.317 290.207 161.312C289.471 162.314 289.127 163.011 289.079 162.984C289.058 162.977 289.12 162.79 289.265 162.466C289.409 162.148 289.65 161.692 290.001 161.16C290.689 160.11 291.879 158.735 293.634 157.851C295.396 156.967 297.261 156.919 298.485 157.222C299.105 157.368 299.586 157.575 299.889 157.747C300.199 157.92 300.35 158.045 300.336 158.065H300.35Z" fill="#455A64"/>
<path d="M292.74 167.405C292.781 167.405 292.843 168.027 292.753 169.042C292.664 170.051 292.375 171.439 291.762 172.863C291.15 174.286 290.338 175.453 289.671 176.213C289.003 176.973 288.508 177.36 288.48 177.325C288.384 177.249 290.249 175.529 291.432 172.724C292.65 169.933 292.616 167.391 292.74 167.412V167.405Z" fill="#455A64"/>
<path d="M292.967 167.571C292.967 167.571 293.056 167.723 293.16 168.027C293.27 168.324 293.38 168.773 293.469 169.339C293.655 170.458 293.683 172.068 293.256 173.767C292.822 175.467 292.045 176.869 291.35 177.767C291.006 178.216 290.696 178.562 290.455 178.776C290.221 178.99 290.084 179.101 290.07 179.087C290.022 179.045 290.517 178.548 291.143 177.622C291.77 176.703 292.492 175.329 292.912 173.685C293.325 172.034 293.345 170.479 293.221 169.374C293.104 168.262 292.905 167.592 292.967 167.578V167.571Z" fill="#455A64"/>
<path d="M313.789 169.381C311.787 170.016 310.92 172.876 312.234 174.52C313.541 176.165 316.514 175.944 317.567 174.12C318.62 172.296 317.34 169.595 315.269 169.27" fill="white"/>
<path d="M323.093 155.813C320.801 156.539 319.803 159.82 321.31 161.706C322.817 163.592 326.224 163.336 327.428 161.25C328.639 159.164 327.166 156.062 324.792 155.682" fill="white"/>
<path d="M342.958 95.982C336.731 95.457 330.435 96.8524 326.168 101.426C321.902 106.006 319.865 112.589 320.801 118.793C314.181 121.556 310.569 130.005 313.142 136.726C315.716 143.448 324.035 147.296 330.793 144.892C333.827 152.622 341.128 158.501 349.296 159.806C357.471 161.112 366.224 157.796 371.502 151.399C377.998 152.871 385.285 152.774 390.741 148.947C396.198 145.12 398.669 136.685 394.505 131.469C401.985 129.638 405.791 120.264 403.568 112.859C401.352 105.46 394.712 100.148 387.617 97.1356C382.931 95.1461 377.082 94.1099 373.084 97.2669C369.885 92.3207 364.221 89.0807 358.352 88.8251C352.482 88.5764 346.564 91.319 342.952 95.9751" fill="white"/>
<path d="M342.959 95.9818C342.959 95.9818 343.082 95.816 343.337 95.4982C343.585 95.1735 343.991 94.7245 344.548 94.158C345.67 93.0527 347.5 91.4984 350.301 90.2825C351.691 89.6815 353.322 89.1634 355.159 88.9009C356.996 88.6522 359.047 88.6384 361.18 89.0874C363.313 89.5088 365.522 90.3723 367.621 91.7056C369.706 93.0527 371.681 94.8765 373.201 97.2045L373.022 97.1769C374.633 95.9196 376.731 95.2011 378.913 95.1459C381.094 95.063 383.344 95.4775 385.546 96.2097C387.748 96.9489 389.923 97.9575 392.042 99.201C394.161 100.444 396.226 101.937 398.07 103.767C399.928 105.57 401.545 107.739 402.722 110.192C403.286 111.428 403.754 112.734 404.05 114.095C404.297 115.463 404.442 116.879 404.325 118.295C404.146 121.12 403.279 123.987 401.634 126.44C400.802 127.649 399.832 128.802 398.614 129.68C397.409 130.571 396.033 131.241 394.554 131.628L394.65 131.351C395.545 132.498 396.178 133.852 396.501 135.296C396.825 136.74 396.838 138.253 396.611 139.731C396.143 142.695 394.671 145.52 392.496 147.696C390.294 149.872 387.356 151.219 384.308 151.896C381.239 152.573 378.032 152.58 374.88 152.173C373.731 152.034 372.596 151.806 371.481 151.565L371.66 151.503C365.949 158.383 356.597 161.471 348.408 159.799C344.307 158.97 340.55 157.029 337.495 154.425C334.44 151.82 332.072 148.525 330.655 144.947L330.861 145.043C326.946 146.397 322.666 145.707 319.308 143.828C315.915 141.969 313.376 138.778 312.551 135.227C311.711 131.676 312.392 128.029 313.947 125.093C315.509 122.143 317.973 119.849 320.767 118.668L320.691 118.799C320.271 115.926 320.498 113.121 321.118 110.592C321.771 108.071 322.81 105.812 324.083 103.912C324.71 102.952 325.425 102.109 326.141 101.322C326.884 100.562 327.641 99.871 328.446 99.3115C330.029 98.1509 331.68 97.4255 333.194 96.9143C336.249 95.9265 338.761 95.8367 340.426 95.8298C342.098 95.8436 342.972 95.9679 342.972 95.9679C342.972 95.9679 342.752 95.9679 342.325 95.9403C341.899 95.9127 341.259 95.8989 340.426 95.8989C338.768 95.9334 336.263 96.037 333.235 97.0456C331.735 97.5568 330.104 98.2891 328.542 99.4427C327.751 99.9954 327.008 100.693 326.272 101.446C325.57 102.227 324.861 103.07 324.249 104.023C322.989 105.909 321.971 108.147 321.331 110.648C320.725 113.148 320.505 115.919 320.932 118.758L320.946 118.855L320.856 118.896C318.124 120.064 315.709 122.316 314.181 125.217C312.661 128.105 312 131.69 312.826 135.158C313.638 138.619 316.122 141.734 319.452 143.551C322.748 145.382 326.932 146.052 330.744 144.726L330.896 144.67L330.951 144.815C332.348 148.339 334.687 151.585 337.701 154.155C340.715 156.725 344.424 158.639 348.457 159.447C356.514 161.091 365.742 158.038 371.364 151.268L371.433 151.185L371.543 151.205C372.651 151.44 373.773 151.668 374.915 151.806C378.039 152.207 381.204 152.193 384.225 151.53C387.218 150.867 390.108 149.541 392.242 147.427C394.361 145.313 395.799 142.543 396.253 139.662C396.728 136.795 396.129 133.762 394.375 131.559L394.21 131.351L394.471 131.282C395.902 130.909 397.237 130.26 398.407 129.396C399.591 128.54 400.54 127.421 401.359 126.239C402.963 123.849 403.823 121.038 404.002 118.261C404.112 116.872 403.974 115.483 403.733 114.143C403.451 112.81 402.99 111.525 402.44 110.309C401.284 107.891 399.694 105.75 397.857 103.968C396.04 102.158 393.996 100.679 391.898 99.4358C389.799 98.1993 387.638 97.1907 385.457 96.4515C383.282 95.7261 381.06 95.3117 378.92 95.3877C376.78 95.436 374.736 96.1337 373.167 97.3496L373.064 97.4325L372.995 97.3219C371.502 95.0215 369.554 93.2116 367.504 91.8783C365.432 90.5589 363.251 89.6884 361.139 89.267C359.026 88.8111 356.996 88.8249 355.18 89.0529C353.356 89.3016 351.739 89.8059 350.349 90.3931C347.562 91.5813 345.732 93.108 344.596 94.1925C344.032 94.7452 343.619 95.1873 343.365 95.5051C343.103 95.816 342.959 95.9679 342.959 95.9679V95.9818Z" fill="#333333"/>
<path d="M385.512 117.514C385.512 117.812 373.311 118.053 358.262 118.053C343.213 118.053 331.006 117.812 331.006 117.514C331.006 117.217 343.206 116.976 358.262 116.976C373.318 116.976 385.512 117.217 385.512 117.514Z" fill="#455A64"/>
<path d="M385.512 123.455C385.512 123.753 373.311 123.994 358.262 123.994C343.213 123.994 331.006 123.753 331.006 123.455C331.006 123.158 343.206 122.917 358.262 122.917C373.318 122.917 385.512 123.158 385.512 123.455Z" fill="#455A64"/>
<path d="M385.512 129.39C385.512 129.687 373.311 129.928 358.262 129.928C343.213 129.928 331.006 129.687 331.006 129.39C331.006 129.092 343.206 128.851 358.262 128.851C373.318 128.851 385.512 129.092 385.512 129.39Z" fill="#455A64"/>
<path d="M385.512 135.324C385.512 135.621 373.311 135.862 358.262 135.862C343.213 135.862 331.006 135.621 331.006 135.324C331.006 135.027 343.206 134.785 358.262 134.785C373.318 134.785 385.512 135.027 385.512 135.324Z" fill="#455A64"/>
</g>
<defs>
<clipPath id="clip0_91_9522">
<rect width="482" height="300" fill="white"/>
</clipPath>
</defs>
</svg>
