<svg width="484" height="362" viewBox="0 0 484 362" fill="none" xmlns="http://www.w3.org/2000/svg">
<g clip-path="url(#clip0_68_4589)">
<path d="M87.9331 303.06C108.862 288.994 113.613 262.893 112.78 239.432C112.638 235.517 113.093 231.384 111.152 227.951C109.212 224.519 104.697 222.17 101.052 223.818C98.0235 225.184 96.7077 228.57 95.0229 231.365C92.7701 235.089 89.4192 238.166 85.4721 240.142C82.8785 241.435 79.6696 242.227 77.1139 240.87C73.6022 239.004 73.1857 234.342 73.2141 230.446C73.2614 223.181 73.3088 215.925 73.3561 208.669C73.3845 204.772 73.3939 200.794 72.135 197.097C70.8761 193.401 68.0932 189.969 64.2407 188.931C60.3882 187.893 55.627 190.033 54.813 193.847C54.4722 195.431 54.813 197.079 54.6994 198.7C54.5858 200.32 53.8001 202.105 52.2099 202.56C50.5913 203.015 48.9727 201.914 47.7611 200.776C43.5773 196.843 40.7471 191.772 38.0967 186.737C35.4463 181.702 32.8717 176.54 29.076 172.252C25.2802 167.964 20.0363 164.559 14.2339 164.25C8.43146 163.931 2.25041 167.382 0.783243 172.853C-0.683927 178.343 2.64797 183.915 6.2733 188.367C11.6498 194.967 18.0107 200.794 25.1004 205.628C26.3783 206.502 27.7602 207.44 28.2524 208.887C29.1327 211.482 26.577 214.068 23.9077 214.914C20.8882 215.879 17.6131 215.579 14.4516 215.934C11.2901 216.289 7.87299 217.627 6.68032 220.504C5.02384 224.483 8.48825 228.661 11.8864 231.393C18.7111 236.864 26.5013 241.189 34.8121 244.12C37.7938 245.167 40.9269 246.087 43.3312 248.099C45.7354 250.111 47.1837 253.616 45.7354 256.356C44.2872 259.106 40.5577 259.98 37.4341 259.424C34.3104 258.869 31.5181 257.239 28.5459 256.156C22.9801 254.135 15.7957 254.508 12.2272 259.133C9.8797 262.174 9.68092 266.407 10.8641 270.031C12.0473 273.654 14.4516 276.777 17.0073 279.663C25.9239 289.732 37.3489 297.834 50.26 302.141C63.1711 306.447 75.1356 307.612 87.971 303.097" fill="#5280E2"/>
<path d="M88.2542 320.458C87.3739 311.163 85.2536 300.184 81.6377 288.348C78.0502 276.504 72.9956 263.84 67.2311 250.766C65.7828 247.507 64.344 244.275 62.9242 241.098C61.5044 237.93 60.094 234.789 58.5227 231.793C55.399 225.794 51.9252 220.259 48.4513 215.097C44.9774 209.934 41.4941 205.164 38.2 200.721C34.8965 196.287 31.7255 192.2 28.6776 188.604C22.6007 181.375 16.9971 176.122 12.9931 172.662C10.9959 170.923 9.39617 169.631 8.30763 168.766C7.77755 168.356 7.37053 168.028 7.05817 167.792C6.7742 167.573 6.62275 167.473 6.61328 167.482C6.61328 167.491 6.73633 167.619 7.01084 167.855C7.31374 168.11 7.71129 168.456 8.21297 168.884C9.27312 169.785 10.8349 171.115 12.8038 172.881C16.7415 176.404 22.2694 181.694 28.2706 188.94C31.2807 192.555 34.4138 196.642 37.6983 201.085C40.9734 205.537 44.4379 210.317 47.8833 215.479C51.3288 220.632 54.7838 226.158 57.879 232.13C59.4408 235.107 60.8323 238.221 62.2521 241.398C63.6625 244.576 65.1013 247.799 66.5495 251.058C72.3046 264.122 77.3687 276.75 80.9846 288.549C84.6194 300.338 86.787 311.254 87.7336 320.513" fill="#333333"/>
<path d="M58.3145 231.775C58.3618 231.775 58.5038 231.193 58.712 230.109C58.9203 229.035 59.1759 227.469 59.4598 225.53C60.0373 221.652 60.6336 216.271 61.2678 210.335C61.902 204.399 62.5835 199.037 63.2177 195.177C63.5301 193.247 63.7952 191.69 63.9939 190.607C64.1833 189.532 64.2685 188.922 64.2211 188.913C64.1738 188.904 63.9939 189.487 63.71 190.543C63.426 191.599 63.0758 193.156 62.6971 195.077C61.9304 198.928 61.1637 204.299 60.52 210.244C59.9047 216.107 59.3463 221.406 58.9203 225.457C58.712 227.287 58.5417 228.826 58.3997 230.064C58.2861 231.156 58.2388 231.757 58.2956 231.766L58.3145 231.775Z" fill="#333333"/>
<path d="M6.23505 222.416C6.23505 222.461 6.97338 222.552 8.30806 222.652C9.64273 222.771 11.5832 222.926 13.9591 223.19C18.7299 223.681 25.2897 224.592 32.4836 225.894C39.6776 227.214 46.1428 228.67 50.781 229.854C53.1096 230.427 54.9743 230.946 56.2711 231.292C57.5679 231.647 58.2873 231.82 58.3063 231.775C58.3252 231.729 57.6247 231.465 56.3563 231.028C55.0879 230.6 53.2326 230.009 50.923 229.362C46.3037 228.051 39.8386 226.504 32.6256 225.183C25.4127 223.872 18.8056 223.044 14.0065 222.68C11.6116 222.48 9.66166 222.398 8.31752 222.37C6.97338 222.352 6.22559 222.37 6.22559 222.416H6.23505Z" fill="#333333"/>
<path d="M80.9951 287.428C80.9951 287.428 81.1371 287.228 81.3548 286.818C81.5914 286.327 81.8849 285.726 82.2446 285.007C83.0113 283.432 84.0525 281.119 85.3115 278.251C87.8199 272.516 91.0383 264.486 94.4554 255.573C97.8726 246.66 101.006 238.612 103.391 232.831C104.555 230.018 105.521 227.714 106.24 225.994C106.543 225.247 106.799 224.637 107.007 224.127C107.177 223.699 107.253 223.472 107.225 223.454C107.196 223.454 107.083 223.654 106.865 224.064C106.628 224.555 106.335 225.147 105.975 225.875C105.209 227.45 104.167 229.763 102.908 232.631C100.4 238.366 97.1816 246.396 93.7644 255.309C90.3473 264.222 87.2141 272.261 84.8287 278.042C83.655 280.846 82.6989 283.158 81.9795 284.879C81.6766 285.626 81.421 286.245 81.2128 286.745C81.0424 287.173 80.9667 287.41 80.9951 287.419V287.428Z" fill="#333333"/>
<path d="M11.8008 265.979C11.8008 265.979 12.028 266.097 12.4918 266.252C13.0313 266.425 13.6939 266.644 14.4985 266.899C16.3538 267.481 18.8622 268.255 21.9102 269.211C28.1671 271.159 36.7715 273.954 46.2846 277.05C55.7977 280.145 64.4399 282.867 70.7442 284.688C73.8963 285.598 76.452 286.318 78.2316 286.782C79.0551 286.991 79.7272 287.164 80.2857 287.301C80.7589 287.41 81.005 287.456 81.0145 287.437C81.0145 287.41 80.7873 287.319 80.3235 287.164C79.784 286.991 79.1214 286.782 78.3168 286.518C76.4615 285.935 73.953 285.161 70.9051 284.205C64.6482 282.257 56.0343 279.462 46.5307 276.367C37.0176 273.271 28.3754 270.549 22.0806 268.728C18.9285 267.809 16.3728 267.099 14.5932 266.634C13.7697 266.425 13.0976 266.252 12.5391 266.116C12.0658 266.006 11.8197 265.961 11.8102 265.979H11.8008Z" fill="#333333"/>
<path d="M484 361.765C484 361.892 375.648 362.001 242.008 362.001C108.368 362.001 0 361.892 0 361.765C0 361.638 108.335 361.529 242.008 361.529C375.682 361.529 484 361.638 484 361.765Z" fill="#A3A3A3"/>
<path d="M82.0723 351.293L82.0723 138.22C82.0723 132.444 86.9376 127.748 92.9415 127.748L419.772 127.748C425.767 127.748 430.642 132.435 430.642 138.22V351.293C430.642 357.068 425.767 361.765 419.772 361.765H92.9415C86.947 361.765 82.0723 357.068 82.0723 351.293Z" fill="#333333"/>
<path d="M105.928 135.128L105.928 354.384H397.027V135.128L105.928 135.128Z" fill="white"/>
<path opacity="0.1" d="M422.226 246.839C423.403 242.013 420.298 237.182 415.289 236.047C410.28 234.913 405.265 237.905 404.087 242.731C402.91 247.556 406.016 252.388 411.024 253.522C416.033 254.657 421.048 251.665 422.226 246.839Z" fill="white"/>
<path opacity="0.1" d="M92.1133 210.616V278.887C92.1133 279.498 92.6273 279.993 93.2614 279.993H94.8141C95.4482 279.993 95.9622 279.498 95.9622 278.887V210.616C95.9622 210.005 95.4482 209.51 94.8141 209.51H93.2614C92.6273 209.51 92.1133 210.005 92.1133 210.616Z" fill="white"/>
<path d="M192.365 250.881C192.628 263.392 182.324 273.746 169.337 274C156.35 274.254 145.603 264.326 145.34 251.814C145.076 239.303 155.381 228.949 168.368 228.695C181.354 228.441 192.101 238.369 192.365 250.881Z" fill="#5280E2"/>
<path opacity="0.3" d="M192.365 250.881C192.628 263.392 182.324 273.746 169.337 274C156.35 274.254 145.603 264.326 145.34 251.814C145.076 239.303 155.381 228.949 168.368 228.695C181.354 228.441 192.101 238.369 192.365 250.881Z" fill="white"/>
<path d="M160.736 245.64C161.63 245.568 162.439 246.52 162.543 247.753C162.646 248.995 162.016 250.056 161.122 250.128C160.228 250.201 159.418 249.249 159.315 248.016C159.211 246.773 159.842 245.713 160.736 245.64Z" fill="#333333"/>
<path d="M175.69 245.341C174.796 245.305 174.033 246.284 173.977 247.526C173.92 248.768 174.607 249.802 175.501 249.838C176.395 249.874 177.158 248.895 177.214 247.653C177.271 246.411 176.584 245.377 175.69 245.341Z" fill="#333333"/>
<path d="M178.259 255.831C178.259 256.093 173.873 256.311 168.472 256.311C163.07 256.311 158.685 256.093 158.685 255.831C158.685 255.568 163.07 255.351 168.472 255.351C173.873 255.351 178.259 255.568 178.259 255.831Z" fill="#333333"/>
<path d="M162.533 243.038C162.477 243.31 161.357 243.301 160.049 243.5C158.741 243.691 157.677 244.026 157.536 243.791C157.395 243.573 158.374 242.775 159.889 242.548C161.404 242.313 162.589 242.784 162.524 243.038H162.533Z" fill="#333333"/>
<path d="M179.933 244.135C179.754 244.353 178.738 243.836 177.43 243.464C176.131 243.065 174.992 242.947 174.973 242.666C174.936 242.412 176.216 242.086 177.731 242.539C179.246 242.983 180.112 243.945 179.933 244.135Z" fill="#333333"/>
<path d="M363.469 248.985C363.742 261.951 353.061 272.685 339.603 272.948C326.146 273.211 315.004 262.921 314.731 249.955C314.449 236.99 325.139 226.256 338.596 225.993C352.054 225.721 363.196 236.02 363.469 248.985Z" fill="#5280E2"/>
<path opacity="0.3" d="M363.469 248.985C363.742 261.951 353.061 272.685 339.603 272.948C326.146 273.211 315.004 262.921 314.731 249.955C314.449 236.99 325.139 226.256 338.596 225.993C352.054 225.721 363.196 236.02 363.469 248.985Z" fill="#333333"/>
<path d="M330.691 243.545C331.613 243.473 332.451 244.452 332.564 245.739C332.677 247.027 332.018 248.124 331.086 248.196C330.164 248.269 329.327 247.29 329.214 246.002C329.101 244.715 329.76 243.618 330.691 243.545Z" fill="#333333"/>
<path d="M346.191 243.237C345.269 243.201 344.469 244.216 344.412 245.504C344.356 246.791 345.062 247.861 345.993 247.907C346.916 247.943 347.715 246.927 347.772 245.64C347.828 244.352 347.123 243.283 346.191 243.246V243.237Z" fill="#333333"/>
<path d="M348.844 254.117C348.741 254.244 347.734 253.555 345.993 252.693C344.252 251.85 341.683 250.916 338.737 250.962C335.792 251.016 333.232 251.986 331.463 252.784C329.694 253.609 328.649 254.244 328.555 254.117C328.489 254.026 329.393 253.192 331.134 252.177C332.865 251.198 335.538 250.055 338.728 249.992C341.918 249.937 344.638 251.061 346.351 252.086C348.073 253.138 348.929 254.026 348.863 254.108L348.844 254.117Z" fill="#333333"/>
<path d="M332.554 240.853C332.639 240.953 332.479 241.243 332.075 241.587C331.67 241.923 331.002 242.303 330.164 242.449C329.327 242.594 328.536 242.449 328.047 242.222C327.548 241.995 327.322 241.741 327.379 241.633C327.51 241.379 328.649 241.741 329.985 241.497C331.322 241.27 332.366 240.626 332.545 240.853H332.554Z" fill="#333333"/>
<path d="M350.586 241.986C350.623 242.104 350.36 242.331 349.823 242.503C349.296 242.657 348.459 242.711 347.631 242.43C346.803 242.158 346.191 241.669 345.843 241.279C345.485 240.88 345.353 240.572 345.447 240.481C345.654 240.273 346.643 241.079 347.96 241.524C349.268 241.986 350.491 241.732 350.586 242.004V241.986Z" fill="#333333"/>
<path d="M292.39 314.655L298.036 311.953L303.542 314.908L302.629 308.897L307.24 304.772L301.029 303.748L298.375 298.244L295.448 303.621L289.19 304.355L293.604 308.698L292.39 314.655Z" fill="#5280E2"/>
<path d="M269.353 314.655L274.999 311.953L280.505 314.908L279.592 308.897L284.203 304.772L277.992 303.748L275.338 298.244L272.411 303.621L266.153 304.355L270.567 308.698L269.353 314.655Z" fill="#5280E2"/>
<path d="M246.316 314.655L251.962 311.953L257.467 314.908L256.555 308.897L261.166 304.772L254.955 303.748L252.301 298.244L249.374 303.621L243.116 304.355L247.53 308.698L246.316 314.655Z" fill="#5280E2"/>
<path d="M223.279 314.655L228.925 311.953L234.43 314.908L233.517 308.897L238.129 304.772L231.918 303.748L229.264 298.244L226.337 303.621L220.079 304.355L224.493 308.698L223.279 314.655Z" fill="#5280E2"/>
<path d="M200.242 314.655L205.888 311.953L211.393 314.908L210.48 308.897L215.092 304.772L208.881 303.748L206.227 298.244L203.3 303.621L197.042 304.355L201.456 308.698L200.242 314.655Z" fill="#5280E2"/>
<path d="M307.504 181.059C307.504 181.195 282.227 181.304 251.059 181.304C219.891 181.304 194.614 181.195 194.614 181.059C194.614 180.923 219.882 180.814 251.059 180.814C282.237 180.814 307.504 180.923 307.504 181.059Z" fill="#333333"/>
<path d="M279.752 174.523C279.752 174.659 267.264 174.768 251.878 174.768C236.491 174.768 223.994 174.659 223.994 174.523C223.994 174.386 236.473 174.277 251.878 174.277C267.283 174.277 279.752 174.386 279.752 174.523Z" fill="#333333"/>
<path d="M287.976 243.419C288.343 260.5 274.265 274.635 256.536 274.989C238.806 275.342 224.135 261.779 223.768 244.697C223.401 227.616 237.479 213.481 255.209 213.127C272.938 212.774 287.609 226.337 287.976 243.419Z" fill="#5280E2"/>
<path d="M244.792 236.265C246.006 236.165 247.116 237.462 247.257 239.157C247.398 240.853 246.533 242.303 245.319 242.394C244.105 242.494 242.994 241.197 242.853 239.502C242.712 237.806 243.578 236.356 244.792 236.265Z" fill="#333333"/>
<path d="M265.212 235.857C263.988 235.812 262.944 237.145 262.869 238.84C262.793 240.535 263.725 241.95 264.948 241.995C266.172 242.04 267.216 240.708 267.291 239.012C267.367 237.317 266.435 235.902 265.212 235.857Z" fill="#333333"/>
<path d="M268.713 246.012C268.76 246.057 268.506 246.375 267.988 246.919C267.489 247.481 266.661 248.188 265.579 249.004C264.459 249.756 263.076 250.663 261.335 251.243C259.613 251.86 257.58 252.232 255.444 252.132C253.308 252.059 251.341 251.497 249.656 250.844C247.953 250.21 246.551 249.385 245.393 248.696C243.116 247.227 241.911 246.094 241.977 246.012C242.081 245.885 243.436 246.828 245.76 248.115C246.937 248.723 248.339 249.457 249.986 250.019C251.623 250.6 253.496 251.098 255.491 251.171C257.486 251.261 259.377 250.944 261.024 250.409C262.69 249.911 264.036 249.104 265.174 248.451C266.266 247.726 267.151 247.118 267.725 246.647C268.318 246.202 268.666 245.967 268.713 246.012Z" fill="#333333"/>
<path d="M246.25 229.302C246.194 229.574 244.66 229.474 242.834 229.765C241.008 230.027 239.578 230.571 239.437 230.327C239.296 230.109 240.651 229.103 242.683 228.803C244.716 228.495 246.325 229.048 246.25 229.293V229.302Z" fill="#333333"/>
<path d="M272.1 230.753C271.922 230.97 270.567 230.191 268.741 229.665C266.925 229.112 265.344 229.03 265.325 228.749C265.287 228.495 267.009 228.133 269.033 228.749C271.056 229.339 272.279 230.572 272.1 230.762V230.753Z" fill="#333333"/>
<path d="M242.495 243.781C242.618 243.763 242.825 244.081 242.853 244.661C242.89 245.241 242.693 246.066 242.156 246.801C241.62 247.535 240.867 247.979 240.293 248.143C239.71 248.306 239.333 248.224 239.305 248.106C239.258 247.834 240.491 247.444 241.338 246.248C242.232 245.087 242.213 243.836 242.495 243.781Z" fill="#333333"/>
<path d="M271.423 246.628C271.452 246.746 271.188 246.937 270.68 246.982C270.181 247.027 269.466 246.873 268.854 246.429C268.233 245.985 267.876 245.368 267.781 244.906C267.678 244.434 267.781 244.135 267.913 244.117C268.196 244.099 268.515 245.015 269.457 245.649C270.369 246.329 271.367 246.356 271.433 246.628H271.423Z" fill="#333333"/>
<path d="M295.138 243.782C295.138 243.782 295.11 243.573 295.082 243.156C295.054 242.73 295.016 242.122 294.959 241.334C294.931 240.935 294.903 240.481 294.875 239.992C294.818 239.502 294.715 238.967 294.621 238.387C294.527 237.807 294.423 237.181 294.31 236.519C294.225 235.848 293.971 235.168 293.793 234.425C293.087 231.46 291.647 227.951 289.379 224.225C287.083 220.526 283.78 216.654 279.272 213.372C278.707 212.964 278.133 212.556 277.559 212.139C276.957 211.759 276.317 211.414 275.696 211.033C275.056 210.68 274.444 210.253 273.757 209.954C273.08 209.637 272.393 209.32 271.696 209.002C271.348 208.839 271 208.685 270.652 208.522C270.285 208.395 269.918 208.268 269.551 208.132C268.817 207.869 268.073 207.615 267.32 207.352C266.558 207.107 265.768 206.953 264.987 206.745C264.196 206.572 263.415 206.3 262.587 206.219C260.949 205.992 259.284 205.666 257.571 205.657C256.715 205.63 255.849 205.548 254.983 205.557C254.117 205.602 253.242 205.648 252.358 205.684C251.915 205.711 251.473 205.711 251.031 205.766L249.704 205.965C248.819 206.11 247.925 206.21 247.031 206.382C245.281 206.844 243.465 207.18 241.742 207.878C239.964 208.431 238.289 209.274 236.567 210.072C235.729 210.507 234.929 211.015 234.101 211.496C233.696 211.749 233.263 211.958 232.878 212.239L231.711 213.082C230.101 214.152 228.69 215.485 227.212 216.763C226.544 217.47 225.876 218.187 225.199 218.903L224.69 219.438L224.239 220.018L223.335 221.188L222.422 222.366L221.623 223.627L220.823 224.896L220.427 225.531L220.089 226.202C219.646 227.099 219.195 227.997 218.743 228.894C218.385 229.837 218.028 230.78 217.67 231.723C216.381 235.558 215.684 239.629 215.628 243.773C215.684 247.916 216.381 251.987 217.67 255.831C218.028 256.774 218.385 257.717 218.743 258.66C219.195 259.557 219.646 260.464 220.089 261.353L220.427 262.024L220.832 262.658L221.632 263.927L222.432 265.188L223.345 266.366L224.248 267.536L224.7 268.116L225.208 268.651C225.886 269.367 226.554 270.084 227.222 270.791C228.699 272.078 230.111 273.411 231.72 274.472L232.887 275.315C233.273 275.596 233.706 275.814 234.11 276.059C234.939 276.53 235.738 277.038 236.576 277.482C238.298 278.28 239.973 279.123 241.752 279.676C243.474 280.374 245.29 280.71 247.041 281.172C247.925 281.353 248.829 281.453 249.713 281.589L251.04 281.789C251.482 281.843 251.925 281.843 252.367 281.87C253.252 281.916 254.127 281.961 254.993 281.997C255.858 282.006 256.724 281.934 257.58 281.897C259.303 281.897 260.959 281.562 262.596 281.335C263.424 281.254 264.206 280.982 264.996 280.809C265.777 280.601 266.577 280.447 267.33 280.202C268.083 279.939 268.826 279.676 269.56 279.422C269.927 279.295 270.294 279.168 270.661 279.032C271.009 278.869 271.358 278.715 271.706 278.552C272.402 278.235 273.089 277.917 273.767 277.6C274.454 277.301 275.065 276.875 275.705 276.521C276.336 276.149 276.966 275.796 277.569 275.415C278.152 274.998 278.717 274.59 279.281 274.182C283.789 270.9 287.092 267.028 289.388 263.329C291.666 259.612 293.106 256.103 293.802 253.129C293.981 252.386 294.244 251.706 294.32 251.035C294.432 250.364 294.536 249.747 294.63 249.167C294.724 248.587 294.828 248.052 294.884 247.562C294.912 247.073 294.941 246.619 294.969 246.221C295.025 245.432 295.063 244.824 295.091 244.398C295.119 243.99 295.148 243.773 295.148 243.773C295.148 243.773 295.148 243.981 295.148 244.398C295.129 244.824 295.11 245.432 295.072 246.23C295.054 246.638 295.035 247.082 295.016 247.58C294.969 248.079 294.865 248.614 294.79 249.194C294.705 249.775 294.602 250.409 294.508 251.08C294.432 251.76 294.178 252.44 294.009 253.193C293.331 256.185 291.91 259.721 289.642 263.483C287.356 267.228 284.043 271.144 279.517 274.472C278.952 274.88 278.369 275.297 277.785 275.723C277.183 276.113 276.543 276.467 275.903 276.847C275.254 277.201 274.642 277.636 273.955 277.944C273.268 278.262 272.581 278.588 271.875 278.915C271.527 279.078 271.169 279.241 270.821 279.404C270.454 279.531 270.087 279.667 269.711 279.794C268.967 280.057 268.214 280.32 267.452 280.592C266.69 280.837 265.881 281 265.09 281.208C264.29 281.39 263.5 281.662 262.662 281.743C261.006 281.979 259.331 282.305 257.59 282.324C256.724 282.351 255.858 282.441 254.974 282.423C254.099 282.378 253.214 282.342 252.32 282.296C251.878 282.269 251.426 282.269 250.984 282.215L249.647 282.015C248.753 281.87 247.85 281.78 246.946 281.598C245.177 281.136 243.342 280.791 241.592 280.093C239.794 279.54 238.091 278.688 236.35 277.881C235.503 277.437 234.684 276.929 233.847 276.448C233.433 276.195 233 275.977 232.605 275.696L231.419 274.844C229.791 273.765 228.361 272.423 226.864 271.117C226.187 270.401 225.509 269.676 224.822 268.95L224.305 268.406L223.843 267.817L222.921 266.629L221.999 265.442L221.19 264.172L220.38 262.894L219.976 262.25L219.637 261.57C219.185 260.664 218.733 259.757 218.272 258.841C217.915 257.889 217.548 256.937 217.181 255.976C215.873 252.096 215.167 247.97 215.11 243.773C215.167 239.575 215.873 235.449 217.181 231.569C217.548 230.608 217.905 229.656 218.272 228.704C218.733 227.788 219.185 226.882 219.637 225.975L219.985 225.295L220.39 224.651L221.199 223.373L222.008 222.103L222.931 220.916L223.853 219.728L224.314 219.139L224.832 218.595C225.519 217.869 226.196 217.153 226.874 216.428C228.37 215.131 229.8 213.78 231.428 212.701L232.614 211.849C233.009 211.568 233.442 211.351 233.856 211.097C234.694 210.616 235.513 210.099 236.36 209.664C238.1 208.857 239.794 208.005 241.592 207.452C243.342 206.754 245.177 206.409 246.946 205.947C247.84 205.766 248.753 205.666 249.647 205.53L250.984 205.33C251.426 205.276 251.878 205.276 252.32 205.249C253.214 205.203 254.099 205.167 254.974 205.122C255.849 205.113 256.724 205.194 257.59 205.222C259.331 205.24 261.006 205.566 262.662 205.802C263.5 205.883 264.29 206.164 265.09 206.337C265.881 206.545 266.681 206.708 267.452 206.953C268.214 207.225 268.958 207.488 269.711 207.751C270.087 207.887 270.454 208.014 270.821 208.141C271.179 208.304 271.527 208.467 271.875 208.631C272.572 208.957 273.268 209.283 273.955 209.601C274.651 209.909 275.263 210.335 275.903 210.698C276.533 211.079 277.173 211.432 277.785 211.822C278.369 212.239 278.943 212.656 279.517 213.073C284.043 216.401 287.365 220.317 289.642 224.062C291.91 227.824 293.331 231.36 294.009 234.352C294.178 235.096 294.432 235.785 294.508 236.465C294.611 237.136 294.705 237.761 294.79 238.351C294.875 238.931 294.969 239.466 295.016 239.965C295.035 240.463 295.054 240.907 295.072 241.315C295.101 242.104 295.129 242.721 295.148 243.147C295.157 243.555 295.148 243.773 295.148 243.773L295.138 243.782Z" fill="#5280E2"/>
<path d="M397.027 135.128H105.928V149.118H397.027V135.128Z" fill="#5280E2"/>
<path d="M115.32 141.737C115.32 142.78 114.436 143.632 113.354 143.632C112.271 143.632 111.387 142.78 111.387 141.737C111.387 140.695 112.271 139.842 113.354 139.842C114.436 139.842 115.32 140.695 115.32 141.737Z" fill="white"/>
<path d="M121.851 141.737C121.851 142.78 120.966 143.632 119.884 143.632C118.802 143.632 117.917 142.78 117.917 141.737C117.917 140.695 118.802 139.842 119.884 139.842C120.966 139.842 121.851 140.695 121.851 141.737Z" fill="white"/>
<path d="M128.382 141.737C128.382 142.78 127.497 143.632 126.415 143.632C125.333 143.632 124.448 142.78 124.448 141.737C124.448 140.695 125.333 139.842 126.415 139.842C127.497 139.842 128.382 140.695 128.382 141.737Z" fill="white"/>
<path d="M364.946 192.093C364.946 192.23 314.439 192.339 252.141 192.339C189.842 192.339 139.326 192.23 139.326 192.093C139.326 191.957 189.824 191.848 252.141 191.848C314.458 191.848 364.946 191.957 364.946 192.093Z" fill="#5280E2"/>
<path d="M364.946 197.479C364.946 197.615 314.439 197.724 252.141 197.724C189.842 197.724 139.326 197.615 139.326 197.479C139.326 197.343 189.824 197.234 252.141 197.234C314.458 197.234 364.946 197.343 364.946 197.479Z" fill="#5280E2"/>
<path d="M216.889 129.226C216.889 129.226 214.904 124.883 214.527 123.931C213.52 121.329 206.999 103.894 208.561 101.255C215.779 89.0517 221.378 80.3659 235.616 80.3659L260.771 80.2027C260.771 80.2027 284.608 75.5244 301.397 127.748L216.88 129.226H216.889Z" fill="#455A64"/>
<path d="M163.823 133.605L196.75 126.769L235.466 107.149L235.616 80.375C229.81 78.8337 218.687 82.7142 198.68 92.5333L168.952 107.321C158.769 112.389 156.247 125.327 163.823 133.605Z" fill="#455A64"/>
<path d="M237.95 185.429C237.471 183.924 237.8 182.954 240.077 183.689C245.103 185.311 249.591 184.786 250.692 183.843C251.793 182.9 250.777 181.105 249.149 181.259C247.832 181.386 245.554 180.95 243.86 180.552C242.458 180.225 241.122 179.69 239.917 178.947C238.873 178.303 237.96 177.696 237.16 177.143C237.16 177.143 232.53 173.915 231.071 171.322L215.177 177.886L217.736 185.556C217.736 185.556 218.565 190.071 223.11 191.495C227.655 192.918 234.883 192.383 234.883 192.383C236.21 191.549 241.319 198.676 242.872 201.187C244.397 203.671 246.269 204.016 246.862 202.474C247.267 201.423 242.731 193.616 241.141 191.159C240.275 189.818 238.534 187.215 237.96 185.402" fill="#FFBE9D"/>
<path d="M227.175 192.42C227.166 192.474 226.78 192.456 226.243 192.202C225.707 191.948 225.039 191.413 224.587 190.634C224.135 189.854 224.013 189.029 224.069 188.449C224.126 187.868 224.314 187.551 224.371 187.569C224.512 187.587 224.173 188.974 225.029 190.398C225.839 191.839 227.241 192.293 227.184 192.42H227.175Z" fill="#EB996E"/>
<path d="M232.21 192.601C232.191 192.656 231.834 192.619 231.326 192.356C230.817 192.102 230.196 191.568 229.773 190.824C229.349 190.072 229.236 189.283 229.283 188.73C229.33 188.177 229.5 187.868 229.556 187.886C229.697 187.905 229.415 189.228 230.206 190.597C230.958 191.985 232.267 192.474 232.201 192.601H232.21Z" fill="#EB996E"/>
<path d="M162.891 132.562C162.891 132.562 213.342 188.431 213.285 187.506C213.229 186.581 235.899 170.252 235.899 170.252L186.427 113.486L162.882 132.562H162.891Z" fill="#455A64"/>
<path d="M193.494 121.583C193.494 121.583 193.626 121.683 193.852 121.909C194.106 122.181 194.416 122.517 194.793 122.916C195.64 123.858 196.788 125.137 198.181 126.687C201.023 129.888 204.928 134.321 209.219 139.244C213.511 144.168 217.369 148.646 220.154 151.901C221.5 153.497 222.601 154.803 223.42 155.773C223.768 156.199 224.06 156.553 224.286 156.843C224.483 157.087 224.577 157.223 224.559 157.233C224.549 157.242 224.427 157.133 224.201 156.906C223.947 156.634 223.636 156.299 223.26 155.9C222.413 154.957 221.265 153.678 219.872 152.128C217.03 148.928 213.125 144.494 208.824 139.562C204.533 134.639 200.675 130.16 197.889 126.905C196.543 125.309 195.442 124.004 194.623 123.033C194.275 122.607 193.984 122.254 193.758 121.964C193.56 121.719 193.466 121.583 193.485 121.574L193.494 121.583Z" fill="#333333"/>
<path d="M282.745 128.02C282.641 127.993 283.3 126.687 283.347 124.439C283.366 123.323 283.206 121.982 282.698 120.604C282.189 119.216 281.295 117.829 280.053 116.605C278.83 115.363 277.512 114.293 276.458 113.169C275.386 112.054 274.614 110.866 274.2 109.778C273.776 108.69 273.71 107.729 273.786 107.085C273.87 106.442 274.03 106.115 274.049 106.124C274.162 106.124 273.607 107.566 274.529 109.66C274.971 110.685 275.743 111.809 276.797 112.879C277.851 113.958 279.169 115.019 280.42 116.288C281.691 117.539 282.641 119.017 283.14 120.477C283.648 121.927 283.78 123.323 283.714 124.475C283.648 125.626 283.403 126.533 283.187 127.14C282.97 127.748 282.782 128.056 282.754 128.047L282.745 128.02Z" fill="#333333"/>
<path d="M214.697 85.0355C214.697 85.0355 214.942 84.9086 215.431 84.7C215.92 84.5006 216.654 84.2286 217.614 83.9294C218.584 83.6483 219.788 83.3582 221.228 83.2222C222.658 83.1043 224.343 83.1224 226.093 83.6574C227.844 84.1651 229.613 85.2168 231.072 86.74C232.54 88.2722 233.546 90.3576 234.064 92.6151C234.572 94.8727 234.836 97.3207 234.544 99.8412C234.243 102.344 233.387 104.928 231.758 107.122C230.121 109.325 227.919 110.948 225.726 112.281C223.515 113.622 221.294 114.719 219.186 115.789C214.979 117.92 211.187 119.833 207.978 121.456C204.816 123.033 202.237 124.321 200.402 125.237C199.537 125.654 198.85 125.989 198.332 126.243C197.852 126.47 197.607 126.578 197.598 126.56C197.589 126.542 197.824 126.406 198.285 126.152C198.784 125.88 199.461 125.518 200.308 125.064C202.124 124.112 204.675 122.78 207.808 121.148C210.999 119.507 214.772 117.557 218.96 115.39C221.059 114.311 223.289 113.205 225.463 111.873C227.637 110.558 229.773 108.962 231.354 106.841C232.925 104.719 233.763 102.217 234.064 99.7777C234.356 97.3297 234.102 94.918 233.622 92.7058C233.123 90.4936 232.173 88.4898 230.77 87.0029C229.378 85.516 227.684 84.4824 225.99 83.9747C224.305 83.4398 222.658 83.3854 221.256 83.4851C219.845 83.5939 218.64 83.8568 217.671 84.1016C216.711 84.3646 215.967 84.6094 215.469 84.7816C214.97 84.9539 214.706 85.0446 214.697 85.0264V85.0355Z" fill="#333333"/>
<path d="M199.038 126.705C198.878 126.751 198.454 123.505 196.224 120.232C194.031 116.923 191.133 115.227 191.236 115.109C191.264 115.064 192.017 115.418 193.09 116.215C194.163 117.013 195.509 118.301 196.638 119.969C197.767 121.646 198.435 123.36 198.746 124.629C199.066 125.899 199.085 126.705 199.028 126.715L199.038 126.705Z" fill="#333333"/>
<path d="M273.202 120.64C273.202 120.64 272.845 120.785 272.129 120.921C271.414 121.057 270.332 121.184 268.949 121.057C267.575 120.93 265.881 120.513 264.168 119.543C262.465 118.582 260.78 116.977 259.754 114.765C258.738 112.58 258.305 109.796 259.143 107.049C259.576 105.68 260.423 104.338 261.806 103.495C262.483 103.078 263.368 102.851 264.206 103.023C265.062 103.168 265.796 103.722 266.304 104.365C268.215 107.067 268.534 110.73 267.424 114.039C266.85 115.689 265.909 117.267 264.573 118.536C263.246 119.815 261.524 120.739 259.67 121.211C255.962 122.163 251.84 121.302 249.186 118.863C246.542 116.415 245.507 112.806 246.043 109.651C246.288 108.064 246.984 106.587 247.963 105.381C248.471 104.791 249.092 104.275 249.845 103.994C250.588 103.694 251.445 103.722 252.16 104.021C253.581 104.628 254.456 105.979 254.616 107.312C254.776 108.663 254.371 109.932 253.854 111.02C252.753 113.187 251.294 114.873 249.845 116.17C248.396 117.457 246.956 118.364 245.733 118.971C244.5 119.588 243.493 119.951 242.796 120.15C242.448 120.259 242.175 120.313 241.997 120.368C241.818 120.413 241.724 120.431 241.724 120.422C241.724 120.422 241.808 120.377 241.987 120.322C242.166 120.259 242.429 120.186 242.768 120.069C243.446 119.833 244.443 119.452 245.648 118.817C246.852 118.183 248.245 117.267 249.657 115.98C251.059 114.692 252.48 113.006 253.534 110.884C254.033 109.823 254.4 108.617 254.23 107.366C254.08 106.151 253.252 104.918 252 104.392C251.379 104.139 250.654 104.12 250.005 104.383C249.356 104.628 248.782 105.1 248.311 105.653C247.398 106.786 246.739 108.2 246.504 109.715C245.996 112.734 247.022 116.197 249.534 118.509C252.047 120.821 256 121.646 259.557 120.739C261.335 120.286 262.973 119.416 264.234 118.192C265.504 116.977 266.417 115.463 266.972 113.885C267.509 112.289 267.706 110.621 267.528 109.016C267.443 108.219 267.273 107.43 267.01 106.686C266.765 105.934 266.417 105.227 265.947 104.628C265.476 104.03 264.846 103.567 264.121 103.44C263.406 103.295 262.653 103.477 262.041 103.848C260.79 104.601 259.952 105.879 259.547 107.158C258.719 109.796 259.114 112.489 260.084 114.62C261.062 116.768 262.672 118.346 264.319 119.307C265.975 120.277 267.622 120.712 268.977 120.866C271.715 121.157 273.202 120.549 273.212 120.64H273.202Z" fill="#FAFAFA"/>
<path d="M277.004 66.2404C275.941 64.9892 275.16 63.5023 274.755 61.9338C274.624 61.417 274.529 60.8639 274.699 60.3562C274.868 59.8485 275.367 59.4042 275.913 59.4586C276.477 59.513 276.863 60.0207 277.164 60.4831C278.049 61.8341 278.905 63.2212 279.489 64.7263C279.649 65.1434 279.79 65.5695 279.762 66.0137C279.733 66.458 279.517 66.9113 279.103 67.1108C278.661 67.3375 278.096 67.2105 277.691 66.9295C277.287 66.6484 276.995 66.2313 276.722 65.8324" fill="#EB996E"/>
<path d="M279.423 65.2249C278.595 63.5475 277.767 61.8793 276.938 60.202C276.694 59.7033 276.44 59.1865 276.421 58.6425C276.402 58.0895 276.684 57.4911 277.221 57.3007C277.691 57.1375 278.228 57.3188 278.595 57.6452C278.962 57.9625 279.197 58.4068 279.432 58.8329C279.827 59.5673 280.213 60.3017 280.609 61.0361C280.929 61.6345 281.248 62.242 281.38 62.9038C281.512 63.5657 281.427 64.3001 280.994 64.8259C280.561 65.3518 279.724 65.5966 279.122 65.2521" fill="#EB996E"/>
<path d="M268.366 80.7651C268.366 80.7651 264.902 76.4403 264.592 74.1555C264.281 71.8708 267.18 67.8271 273.4 66.9204C276.741 66.4308 278.698 65.5332 279.79 64.8079C280.581 64.2821 280.882 63.321 280.515 62.4687C279.696 60.5557 278.228 57.0107 278.341 56.5392C278.633 55.3152 279.461 55.3424 281.606 58.3707C283.761 61.3989 286.236 64.4815 285.756 65.8778C285.276 67.274 277.691 71.5988 277.691 71.5988L279.762 74.8174L268.347 80.7651H268.366Z" fill="#FFBE9D"/>
<path d="M288.937 125.219L265.062 80.1577L280.43 71.8618L312.727 121.193C312.727 121.193 314.431 124.348 316.812 128.038H289.737" fill="#455A64"/>
<path d="M280.185 71.8525C280.185 71.8525 280.1 71.925 279.922 72.0338C279.705 72.1608 279.442 72.3149 279.112 72.5053C278.35 72.9314 277.315 73.5117 276.016 74.237C273.287 75.733 269.476 77.8274 264.912 80.3297L264.996 80.0577C267.321 84.6182 270.332 89.8949 273.381 95.6341C277.908 104.111 281.822 111.881 284.58 117.539C285.963 120.368 287.045 122.671 287.789 124.257C288.137 125.028 288.419 125.635 288.626 126.098C288.815 126.524 288.899 126.751 288.89 126.751C288.871 126.751 288.749 126.542 288.542 126.134C288.306 125.681 288.005 125.082 287.619 124.33C286.801 122.707 285.662 120.449 284.269 117.675C281.437 112.054 277.475 104.32 272.948 95.8426C269.909 90.1125 266.916 84.8267 264.629 80.2391L264.535 80.0577L264.714 79.9671C269.316 77.5282 273.155 75.4791 275.903 74.0194C277.221 73.3303 278.284 72.7864 279.056 72.3874C279.395 72.2152 279.667 72.0792 279.893 71.9704C280.082 71.8797 280.185 71.8344 280.194 71.8434L280.185 71.8525Z" fill="#333333"/>
<path d="M216.889 129.226C216.776 129.289 215.44 127.077 214.329 124.13C213.219 121.175 212.777 118.663 212.908 118.636C213.049 118.609 213.699 121.048 214.809 123.967C215.901 126.887 217.021 129.162 216.889 129.226Z" fill="#333333"/>
<path d="M269.466 62.7858C273.221 64.2092 277.879 62.9853 280.364 59.9117C282.848 56.8472 282.952 52.196 280.599 49.0228C285.991 47.7081 289.351 41.7151 288.259 36.4656C287.168 31.216 282.293 27.1089 276.863 25.9756C274.783 25.5404 272.581 25.495 270.558 26.1297C268.535 26.7644 266.718 28.1425 265.853 30.0192" fill="#333333"/>
<path d="M268.713 51.0449C268.732 51.0993 268.007 51.2262 266.868 51.7974C265.758 52.3596 264.196 53.5201 263.264 55.5329C262.812 56.5302 262.511 57.727 262.587 59.0054C262.662 60.2747 263.038 61.6437 263.866 62.8405C264.262 63.448 264.779 64.001 265.372 64.4906C265.956 64.9802 266.643 65.3973 267.386 65.6965C268.863 66.3311 270.614 66.4853 272.289 66.1317C273.955 65.7509 275.46 64.8805 276.505 63.6837C277.041 63.1034 277.465 62.4416 277.775 61.7525C278.095 61.0725 278.302 60.3563 278.387 59.64C278.594 58.2166 278.312 56.8294 277.813 55.6507C277.305 54.463 276.496 53.5201 275.639 52.8129C273.889 51.3894 271.969 50.9996 270.708 50.9543C269.428 50.9089 268.722 51.1084 268.713 51.0449C268.713 51.0268 268.882 50.9815 269.221 50.9089C269.55 50.8273 270.059 50.7639 270.717 50.7639C272.007 50.7457 274.011 51.0902 275.865 52.55C276.778 53.2753 277.644 54.2545 278.199 55.4966C278.745 56.7297 279.055 58.1894 278.848 59.7035C278.763 60.456 278.547 61.2176 278.218 61.9429C277.898 62.6773 277.446 63.3754 276.881 64.001C275.771 65.2704 274.18 66.2042 272.402 66.6122C270.623 66.993 268.76 66.8207 267.198 66.1407C266.407 65.8143 265.683 65.3791 265.071 64.8533C264.44 64.3365 263.904 63.7472 263.49 63.0944C262.624 61.8251 262.238 60.3744 262.182 59.0326C262.125 57.6816 262.464 56.4395 262.954 55.4059C263.97 53.3206 265.626 52.1692 266.793 51.6433C267.386 51.3713 267.875 51.2172 268.205 51.1537C268.543 51.0812 268.713 51.0449 268.722 51.0631L268.713 51.0449Z" fill="#5280E2"/>
<path d="M272.788 36.7556C276.684 36.5471 280.269 33.7002 281.229 30.0554C282.189 26.4107 280.458 22.2582 277.136 20.2817C278.736 15.9388 277.164 10.6983 273.4 7.85144C269.635 5.00454 263.97 4.78694 259.98 7.31651C256.931 2.16671 250.4 -0.852454 244.321 0.0904677C238.242 1.03339 233.019 5.8568 231.786 11.6685C226.318 9.49249 219.524 10.8887 215.449 15.0412C211.384 19.1846 210.311 25.8032 212.871 30.944C206.923 31.4426 201.973 37.1002 202.481 42.8393C202.989 48.5784 208.852 53.3474 214.809 52.8669C213.595 56.6749 215.12 61.1447 218.442 63.5201C221.764 65.8956 226.648 65.9953 230.073 63.7649C232.256 67.1649 236.576 69.1867 240.698 68.7243C244.82 68.2619 248.556 65.3606 249.883 61.5708" fill="#333333"/>
<path d="M261.467 79.2869C261.664 74.8715 261.909 70.8731 261.909 70.8731C261.909 70.8731 272.148 69.631 272.59 59.558C273.032 49.4851 271.988 26.2928 271.988 26.2928L253.138 17.5708L232.858 33.3104L236.039 79.5679C236.5 86.2319 242.41 91.3182 249.336 91.0099C255.924 90.7198 261.184 85.6244 261.467 79.2778V79.2869Z" fill="#FFBE9D"/>
<path d="M270.64 46.306C270.687 47.0027 270.104 47.618 269.353 47.6814C268.592 47.7447 267.944 47.2199 267.897 46.5232C267.85 45.8264 268.433 45.2021 269.184 45.1478C269.945 45.0844 270.593 45.6092 270.64 46.306Z" fill="#333333"/>
<path d="M254.642 46.306C254.689 47.0027 254.106 47.618 253.355 47.6814C252.594 47.7447 251.946 47.2199 251.899 46.5232C251.852 45.8264 252.435 45.2021 253.186 45.1478C253.947 45.0844 254.595 45.6092 254.642 46.306Z" fill="#333333"/>
<path d="M271.489 43.5466C271.329 43.7189 270.351 42.921 268.949 42.8757C267.546 42.8032 266.502 43.5103 266.351 43.329C266.276 43.2474 266.445 42.9392 266.897 42.6218C267.339 42.3045 268.102 42.0053 268.977 42.0416C269.852 42.0778 270.586 42.4405 271 42.7941C271.424 43.1568 271.565 43.4741 271.489 43.5466Z" fill="#333333"/>
<path d="M255.952 43.5466C255.783 43.7189 254.814 42.921 253.411 42.8757C252.009 42.8032 250.965 43.5103 250.814 43.329C250.739 43.2474 250.908 42.9392 251.369 42.6218C251.812 42.3045 252.574 42.0053 253.449 42.0416C254.324 42.0778 255.058 42.4405 255.472 42.7941C255.896 43.1568 256.037 43.4741 255.962 43.5466H255.952Z" fill="#333333"/>
<path d="M261.213 53.7009C261.213 53.6193 262.078 53.4924 263.499 53.3655C263.857 53.3383 264.196 53.2839 264.262 53.03C264.346 52.7671 264.205 52.3591 264.036 51.9239C263.716 51.0172 263.377 50.0652 263.019 49.0679C261.608 45.0061 260.601 41.6605 260.761 41.6061C260.921 41.5517 262.191 44.8066 263.593 48.8685C263.932 49.8748 264.252 50.8268 264.563 51.7426C264.694 52.1687 264.92 52.6492 264.723 53.2023C264.619 53.4743 264.356 53.6647 264.12 53.7191C263.885 53.7825 263.688 53.7825 263.509 53.7825C262.088 53.8097 261.203 53.7825 261.194 53.6919L261.213 53.7009Z" fill="#333333"/>
<path d="M261.909 70.8732C261.909 70.8732 255.058 71.0636 248.349 66.5938C248.349 66.5938 251.539 73.9286 261.731 73.3393L261.909 70.8641V70.8732Z" fill="#EB996E"/>
<path d="M247.36 18.1332C244.019 22.5849 244.095 29.1491 247.548 33.5282C249.073 35.4594 251.369 37.0188 253.882 36.9372C256.394 36.8466 258.822 34.5527 258.286 32.1864C257.307 35.1511 259.923 38.6599 263.142 38.7143C266.36 38.7687 269.108 35.3506 268.242 32.3586C268.496 33.4376 268.769 34.5346 269.409 35.4503C270.049 36.366 271.16 37.0551 272.298 36.91C273.87 36.7106 274.792 35.0786 275.15 33.5917C276.232 29.1309 274.519 24.235 271.122 21.0345C267.725 17.834 262.803 16.3108 258.06 16.6191C253.317 16.9273 248.79 18.9855 245.233 22.0228" fill="#333333"/>
<path d="M248.688 21.687C249.911 24.5611 250.824 27.6165 250.795 30.7264C250.767 33.8362 249.694 37.0186 247.408 39.2127C245.121 41.4068 241.517 42.4132 238.515 41.2708C239.23 43.9907 238.976 47.0734 237.216 49.3128C235.456 51.5523 232.021 52.6221 229.462 51.2712C227.156 50.0563 226.149 47.3544 225.839 44.8339C225.067 38.7412 227.307 32.3583 231.758 27.9611C236.209 23.5638 242.768 21.2428 249.111 21.8321" fill="#333333"/>
<path d="M235.757 45.6862C234.364 44.8612 232.464 45.5412 231.353 46.7017C229.612 48.5331 229.311 51.4888 230.647 53.6104C231.984 55.732 234.844 56.8472 237.338 56.2035" fill="#FFBE9D"/>
<path d="M235.437 53.1932C235.437 53.2476 234.976 53.3111 234.251 53.1207C233.564 52.9393 232.51 52.4044 232.106 51.2711C231.908 50.7271 231.946 50.1287 232.162 49.6663C232.379 49.2039 232.717 48.8775 233.028 48.678C233.668 48.2701 234.167 48.2791 234.167 48.3335C234.185 48.406 233.752 48.5239 233.244 48.95C232.736 49.349 232.228 50.2012 232.576 51.126C232.896 52.0417 233.752 52.5585 234.374 52.8124C235.004 53.0753 235.446 53.1388 235.437 53.2113V53.1932Z" fill="#EB996E"/>
<path d="M256.809 39.3397C256.677 39.7296 255.152 39.5845 253.327 39.6661C251.51 39.7205 249.995 39.9744 249.835 39.5936C249.666 39.24 251.153 38.288 253.27 38.2155C255.388 38.1339 256.95 38.9771 256.809 39.3397Z" fill="#333333"/>
<path d="M271.461 39.0589C271.301 39.1949 270.99 39.1042 270.623 39.0135C270.247 38.9229 269.899 38.8775 269.344 38.9319C268.798 38.9863 268.196 39.077 267.734 39.0679C267.273 39.0679 266.953 38.9682 266.897 38.7778C266.84 38.5874 267.047 38.3335 267.433 38.0887C267.829 37.844 268.403 37.572 269.212 37.4904C270.021 37.3816 270.906 37.7533 271.235 38.1703C271.593 38.5874 271.612 38.9319 271.461 39.0498V39.0589Z" fill="#333333"/>
<path d="M258.785 56.2853C259.575 55.8319 260.563 55.6234 261.429 55.9226C262.295 56.2309 262.944 57.1375 262.737 57.9988C262.624 58.4703 262.285 58.8692 261.89 59.1593C261.278 59.6036 260.469 59.8303 259.707 59.6761C258.954 59.522 258.276 58.969 258.088 58.2527C257.891 57.5364 258.248 56.6932 258.935 56.3668" fill="#EB996E"/>
<path d="M263.913 57.355C263.942 57.4094 263.584 57.6361 262.907 57.7812C262.238 57.9262 261.241 57.9262 260.253 57.5273C259.265 57.1284 258.568 56.4484 258.201 55.8862C257.834 55.3241 257.75 54.9161 257.806 54.898C257.872 54.8708 258.069 55.2153 258.484 55.6868C258.898 56.1492 259.556 56.7294 260.441 57.083C261.326 57.4366 262.22 57.491 262.85 57.4366C263.49 57.3913 263.876 57.2825 263.904 57.346L263.913 57.355Z" fill="#333333"/>
<path d="M242.693 62.1602C242.636 62.1602 242.674 61.4621 242.344 60.2653C242.024 59.0957 241.196 57.3731 239.361 56.0494C238.458 55.4056 237.31 54.8526 236.002 54.635C234.694 54.4265 233.225 54.4718 231.833 54.9886C231.127 55.2243 230.449 55.587 229.828 56.0312C229.198 56.4755 228.633 57.0195 228.163 57.6542C227.193 58.9053 226.647 60.5101 226.629 62.1602C226.647 63.8103 227.193 65.4151 228.163 66.6663C228.633 67.301 229.207 67.845 229.828 68.2892C230.449 68.7425 231.127 69.0961 231.833 69.3319C233.225 69.8487 234.694 69.894 236.002 69.6855C237.31 69.4679 238.458 68.9239 239.361 68.2711C241.196 66.9474 242.015 65.2247 242.344 64.0551C242.674 62.8584 242.636 62.1512 242.693 62.1602C242.711 62.1602 242.721 62.3325 242.721 62.668C242.721 62.9944 242.683 63.493 242.533 64.1095C242.26 65.3245 241.46 67.1287 239.578 68.5522C238.646 69.2412 237.46 69.8396 236.077 70.0844C234.712 70.3201 233.16 70.2929 231.673 69.758C230.929 69.5132 230.205 69.1415 229.546 68.67C228.878 68.2076 228.266 67.6274 227.767 66.9564C226.732 65.6327 226.139 63.9282 226.13 62.1693C226.149 60.4104 226.732 58.7059 227.767 57.3822C228.266 56.7112 228.878 56.131 229.546 55.6686C230.205 55.1971 230.929 54.8254 231.673 54.5806C233.16 54.0457 234.703 54.0185 236.077 54.2542C237.451 54.499 238.646 55.0974 239.578 55.7864C241.46 57.2099 242.26 59.0141 242.533 60.2291C242.674 60.8456 242.721 61.3352 242.721 61.6706C242.721 62.0061 242.721 62.1784 242.693 62.1784V62.1602Z" fill="#5280E2"/>
<path d="M271.452 17.0903C271.452 17.0903 271.546 17.0903 271.716 17.1538C271.876 17.2173 272.12 17.3261 272.374 17.5618C272.873 17.997 273.438 18.958 273.212 20.2092C273.005 21.4695 271.687 22.6753 269.956 22.9927C268.196 23.3463 266.22 22.7116 264.441 21.7233L262.503 20.6444L264.639 21.3153C265.373 21.542 265.9 22.2039 266.079 22.902C266.276 23.6092 266.192 24.398 265.777 25.0689C265.354 25.7398 264.639 26.175 263.867 26.3745C263.095 26.574 262.258 26.5377 261.486 26.3201C259.576 25.7489 258.334 24.2529 257.393 22.9111L256.028 20.989L257.76 22.6119C258.748 23.5367 258.964 24.9148 258.691 26.039C258.428 27.1905 257.6 28.1515 256.602 28.5958C254.588 29.5206 252.433 28.9403 251.247 27.9702C250.005 26.991 249.478 25.8305 249.224 25.0598C249.092 24.67 249.036 24.3526 248.998 24.1441C248.97 23.9356 248.961 23.8177 248.98 23.8177C249.017 23.8177 249.083 24.2529 249.384 25.0054C249.685 25.7398 250.25 26.8459 251.445 27.7345C252.584 28.623 254.607 29.1035 256.414 28.2422C257.308 27.8251 258.014 26.9819 258.249 25.9484C258.484 24.9329 258.268 23.7271 257.43 22.9564L257.797 22.6572C258.729 23.9718 259.933 25.3681 261.637 25.8668C263.011 26.2748 264.676 25.9302 265.373 24.8332C266.06 23.7633 265.646 22.1041 264.507 21.7415L264.695 21.3335C266.427 22.3127 268.29 22.9201 269.909 22.6209C271.518 22.358 272.741 21.2791 272.967 20.1548C273.212 19.0215 272.732 18.1058 272.299 17.6706C271.847 17.2082 271.462 17.1447 271.49 17.0994L271.452 17.0903Z" fill="#455A64"/>
<path d="M246.382 33.2832C246.382 33.2832 246.344 33.3467 246.259 33.4555C246.175 33.5643 246.024 33.7184 245.817 33.9088C245.403 34.2715 244.725 34.7702 243.718 35.1147C242.721 35.4501 241.356 35.6224 239.916 35.1781C238.495 34.743 237.009 33.7003 236.18 32.0683L236.576 32.0139C236.237 34.1174 234.449 36.2389 231.861 36.8192C229.301 37.3813 226.215 36.0757 225.01 33.4918C223.947 31.1707 224.643 28.4326 226.328 26.8641L226.657 27.2086C225.509 28.1334 224.06 28.5777 222.695 28.5868C221.331 28.614 220.022 28.2422 218.978 27.6076C217.933 26.9729 217.152 26.0572 216.757 25.0871C216.343 24.126 216.23 23.1468 216.296 22.2855C216.428 20.5447 217.209 19.2935 217.839 18.5954C218.498 17.8973 218.987 17.6797 218.987 17.6797C219.015 17.716 218.564 17.988 217.962 18.6951C217.378 19.4023 216.672 20.6263 216.597 22.2946C216.559 23.1196 216.691 24.0444 217.096 24.942C217.491 25.8396 218.225 26.6737 219.204 27.254C220.192 27.8342 221.415 28.1606 222.695 28.1334C223.965 28.1153 225.302 27.6892 226.346 26.8369L226.676 27.1814C225.142 28.614 224.502 31.1617 225.481 33.2742C226.563 35.6315 229.433 36.8645 231.767 36.3477C234.138 35.84 235.842 33.8726 236.171 31.9323L236.284 31.2977L236.566 31.8779C237.31 33.4102 238.693 34.4166 240.029 34.8518C241.385 35.3051 242.683 35.1691 243.652 34.879C244.641 34.5888 245.318 34.1355 245.751 33.8C246.184 33.4646 246.372 33.247 246.4 33.2651L246.382 33.2832Z" fill="#455A64"/>
<path d="M227.711 49.4127C227.711 49.4127 227.466 49.6394 226.901 49.8751C226.337 50.1108 225.443 50.3556 224.295 50.2649C223.175 50.1833 221.763 49.7119 220.7 48.5786C219.655 47.4724 218.959 45.7407 219.288 43.9274L219.721 44.1088C218.846 45.2149 217.651 46.2303 216.183 46.8922C215.091 47.3818 213.905 47.6356 212.757 47.5994C211.609 47.5631 210.517 47.2639 209.605 46.7653C207.732 45.8042 206.678 43.9999 206.603 42.4768C206.48 40.9355 207.054 39.7387 207.572 39.0768C207.845 38.7413 208.089 38.5147 208.278 38.3878C208.466 38.2608 208.56 38.1974 208.579 38.2064C208.616 38.2427 208.212 38.5147 207.741 39.1856C207.29 39.8565 206.81 41.008 206.97 42.4496C207.083 43.873 208.071 45.4959 209.84 46.3845C211.562 47.3092 213.924 47.4271 215.994 46.4661C217.368 45.8495 218.516 44.8885 219.354 43.8458L219.966 43.0842L219.787 44.0271C219.476 45.6682 220.088 47.282 221.039 48.3247C221.998 49.3946 223.288 49.866 224.351 49.9839C225.433 50.1108 226.299 49.9204 226.864 49.7391C227.428 49.5487 227.72 49.3855 227.739 49.4218L227.711 49.4127Z" fill="#455A64"/>
<path d="M281.003 29.7748C281.05 29.7567 281.285 30.3913 281.21 31.4521C281.144 32.4948 280.674 33.9817 279.497 35.1694C278.312 36.3571 276.797 36.8739 275.714 36.9918C274.623 37.1096 273.955 36.9192 273.964 36.8648C273.964 36.7832 274.632 36.8558 275.658 36.6563C276.665 36.4659 278.048 35.931 279.14 34.843C280.222 33.7459 280.711 32.395 280.871 31.4158C281.031 30.4276 280.928 29.7929 281.013 29.7839L281.003 29.7748Z" fill="#455A64"/>
<path d="M286.763 39.2674C286.763 39.2674 286.913 39.4941 286.998 39.9565C287.073 40.4189 287.111 41.1261 286.801 41.9421C286.509 42.7309 285.775 43.701 284.523 43.9639C283.921 44.0908 283.253 44.0546 282.622 43.8098C281.992 43.5741 281.399 43.0845 281.126 42.4045L281.596 42.2503C281.672 42.5314 281.728 42.8306 281.709 43.1389C281.662 44.653 280.608 45.9223 279.347 46.3666C278.717 46.5932 278.039 46.5932 277.475 46.4391C276.901 46.285 276.43 46.0039 276.063 45.6866C275.31 45.0519 275.009 44.2994 274.924 43.7826C274.84 43.2658 274.924 42.9757 274.953 42.9757C275 42.9757 274.981 43.2658 275.122 43.7372C275.254 44.2087 275.593 44.8796 276.298 45.4146C276.976 45.9586 278.105 46.3484 279.187 45.9314C280.251 45.5324 281.182 44.39 281.211 43.1117C281.22 42.8487 281.173 42.5949 281.117 42.3591L281.587 42.205C282.039 43.3021 283.422 43.7191 284.438 43.5106C285.492 43.3293 286.179 42.5133 286.49 41.797C286.81 41.0626 286.838 40.3917 286.819 39.9474C286.791 39.4941 286.735 39.2493 286.772 39.2402L286.763 39.2674Z" fill="#455A64"/>
<path d="M258.069 52.7313C258.135 52.7313 258.173 52.9398 258.088 53.2481C258.004 53.5563 257.778 53.9553 257.392 54.2635C257.006 54.5718 256.554 54.7168 256.225 54.735C255.896 54.7531 255.698 54.6806 255.707 54.6171C255.707 54.4811 256.432 54.4176 257.072 53.8827C257.731 53.375 257.928 52.7041 258.069 52.7313Z" fill="#333333"/>
<path d="M450.422 312.769C448.069 316.005 443.505 314.927 441.388 312.959C439.27 310.983 438.376 308.127 437.558 305.398C435.694 299.169 433.822 292.632 435.205 286.285C435.619 284.39 436.353 282.495 437.737 281.09C439.12 279.685 441.247 278.842 443.195 279.34C445.5 279.93 446.931 282.096 447.966 284.164C451.006 290.238 452.615 296.975 452.643 303.72C452.652 306.866 452.267 310.176 450.422 312.769Z" fill="#5280E2"/>
<g opacity="0.2">
<path d="M450.422 312.769C448.069 316.005 443.505 314.927 441.388 312.959C439.27 310.983 438.376 308.127 437.558 305.398C435.694 299.169 433.822 292.632 435.205 286.285C435.619 284.39 436.353 282.495 437.737 281.09C439.12 279.685 441.247 278.842 443.195 279.34C445.5 279.93 446.931 282.096 447.966 284.164C451.006 290.238 452.615 296.975 452.643 303.72C452.652 306.866 452.267 310.176 450.422 312.769Z" fill="#333333"/>
</g>
<path d="M441.613 329.143C437.774 327.23 433.247 326.985 428.984 327.665C426.697 328.027 424.307 328.689 422.745 330.348C421.183 332.008 420.891 334.927 422.679 336.351C423.742 337.203 425.229 337.33 426.613 337.312C429.953 337.275 433.661 336.704 436.324 338.644C437.849 339.75 438.856 341.582 440.682 342.126C442.46 342.661 444.474 341.645 445.415 340.095C446.356 338.545 446.394 336.613 445.952 334.864C445.952 334.864 445.49 331.065 441.613 329.134V329.143Z" fill="#5280E2"/>
<path d="M456.868 317.411C454.318 314.491 453.838 310.239 454.967 306.585C456.106 302.931 458.666 299.822 461.621 297.283C465.084 294.309 469.159 291.988 473.535 290.51C475.257 289.93 477.073 289.468 478.889 289.631C480.705 289.794 482.541 290.692 483.387 292.251C484.639 294.554 483.435 297.346 482.136 299.631C479.849 303.648 477.224 307.492 474.306 311.119C471.963 314.029 469.272 316.903 465.696 318.227C462.119 319.541 458.402 319.387 456.511 317.003" fill="#5280E2"/>
<path d="M450.572 361.538C450.572 361.538 450.459 361.021 450.356 360.069C450.252 358.999 450.111 357.657 449.951 356.061C449.753 354.375 449.499 352.371 449.019 350.177C448.53 347.992 447.777 345.635 446.798 343.241C445.791 340.857 444.559 338.69 443.119 336.958C441.688 335.217 440.032 333.957 438.47 333.232C436.917 332.488 435.515 332.189 434.555 332.053C433.586 331.953 433.04 331.881 433.04 331.845C433.04 331.799 433.586 331.799 434.583 331.817C435.572 331.881 437.03 332.126 438.668 332.842C440.314 333.549 442.074 334.828 443.571 336.596C445.076 338.364 446.356 340.576 447.382 343.006C448.37 345.445 449.123 347.829 449.584 350.059C450.045 352.281 450.261 354.312 450.393 356.016C450.525 357.721 450.572 359.099 450.6 360.051C450.619 361.003 450.61 361.529 450.572 361.538Z" fill="#333333"/>
<path d="M450.29 358.455C450.29 358.455 450.252 358.219 450.252 357.775C450.252 357.267 450.252 356.614 450.252 355.826C450.252 354.13 450.252 351.682 450.158 348.663C449.998 342.616 449.462 334.274 448.417 325.099C447.363 315.924 445.97 307.673 444.7 301.744C444.399 300.257 444.098 298.924 443.815 297.754C443.542 296.585 443.317 295.569 443.091 294.753C442.902 293.983 442.743 293.357 442.62 292.858C442.517 292.423 442.479 292.188 442.498 292.188C442.517 292.188 442.601 292.405 442.743 292.822C442.893 293.312 443.091 293.928 443.326 294.69C443.589 295.497 443.853 296.503 444.154 297.673C444.474 298.833 444.803 300.166 445.133 301.653C446.516 307.564 447.984 315.833 449.038 325.027C450.083 334.22 450.553 342.588 450.6 348.645C450.638 351.673 450.572 354.13 450.487 355.817C450.44 356.605 450.393 357.249 450.365 357.766C450.327 358.21 450.299 358.446 450.28 358.446L450.29 358.455Z" fill="#333333"/>
<path d="M450.253 342.307C450.253 342.307 450.215 341.582 450.271 340.267C450.347 338.962 450.535 337.067 450.921 334.755C451.325 332.443 451.89 329.696 452.784 326.722C453.631 323.73 454.798 320.502 456.275 317.211C459.164 310.602 463.098 305.189 466.524 301.843C467.323 300.955 468.217 300.311 468.933 299.686C469.3 299.386 469.629 299.087 469.958 298.842C470.297 298.616 470.608 298.416 470.89 298.226C472.019 297.482 472.65 297.093 472.669 297.129C472.772 297.265 470.147 298.752 466.834 302.143C463.54 305.533 459.72 310.901 456.849 317.456C455.381 320.711 454.214 323.911 453.339 326.876C452.426 329.832 451.815 332.543 451.354 334.837C450.921 337.13 450.667 338.998 450.516 340.295C450.394 341.591 450.3 342.317 450.253 342.307Z" fill="#333333"/>
</g>
<defs>
<clipPath id="clip0_68_4589">
<rect width="484" height="362" fill="white"/>
</clipPath>
</defs>
</svg>
