<svg width="490" height="328" viewBox="0 0 490 328" fill="none" xmlns="http://www.w3.org/2000/svg">
<g clip-path="url(#clip0_88_10794)" filter="url(#filter0_d_88_10794)">
<g opacity="0.3">
<path d="M486 291.034H4V292.034H486V291.034Z" fill="#3F54D1"/>
<path d="M378.466 298.165H346.538V299.165H378.466V298.165Z" fill="#3F54D1"/>
<path d="M295.128 306.198H252.683V307.198H295.128V306.198Z" fill="#3F54D1"/>
<path d="M422.607 306.976H379.439V307.976H422.607V306.976Z" fill="#3F54D1"/>
<path d="M97.3924 297.927H55.7572V298.927H97.3924V297.927Z" fill="#3F54D1"/>
<path d="M112.084 297.927H105.982V298.927H112.084V297.927Z" fill="#3F54D1"/>
<path d="M222.23 301.934H131.923V302.934H222.23V301.934Z" fill="#3F54D1"/>
</g>
<path d="M323.142 166.243H421.055V3.09235H323.142V166.243Z" fill="#A3A3A3"/>
<path d="M412.852 158.163V11.1725L331.345 11.1725V158.163H412.852Z" fill="white"/>
<path d="M126.708 9.70078H55.7572V90.92H126.708V9.70078Z" fill="#B9B9B9"/>
<path d="M130.949 9.70078H58.1576V90.92H130.949V9.70078Z" fill="#B9B9B9"/>
<path d="M124.847 84.5205V16.1003L64.25 16.1003V84.5205H124.847Z" fill="white"/>
<path d="M226.231 57.1087H155.281V138.328H226.231V57.1087Z" fill="#B9B9B9"/>
<path d="M230.473 57.1087H157.681V138.328H230.473V57.1087Z" fill="#B9B9B9"/>
<path d="M224.38 131.938V63.5178L163.783 63.5178V131.938H224.38Z" fill="white"/>
<path d="M185.666 208.559C185.184 208.559 184.692 208.578 184.201 208.606C173.847 209.299 165.47 217.598 164.805 227.795C164.651 230.122 164.901 232.381 165.48 234.499C167.861 243.225 168.757 252.283 168.757 261.322V287.651C168.757 289.56 170.329 291.107 172.266 291.107H257.127V208.549H185.656L185.666 208.559Z" fill="#546B76"/>
<path d="M278.036 229.144C278.036 217.294 267.876 207.78 255.672 208.606C245.318 209.299 236.941 217.598 236.276 227.795C236.122 230.122 236.372 232.382 236.951 234.499C239.332 243.225 240.228 252.283 240.228 261.322V287.651C240.228 289.56 241.8 291.107 243.737 291.107H270.536C272.474 291.107 274.045 289.56 274.045 287.651V259.774C274.045 251.295 274.981 242.816 277.284 234.651C277.776 232.904 278.036 231.052 278.036 229.153V229.144Z" fill="#455A64"/>
<path d="M243 241H152V291H243V241Z" fill="#364D58"/>
<path d="M161.807 170H91.4928C82.759 170 76.8208 176.979 78.2378 185.581L89.2082 252.321H191.161L180.19 185.581C178.773 176.979 170.55 170 161.807 170Z" fill="#546B76"/>
<path d="M182.485 170H110.647C102.328 170 96.6791 176.637 98.0287 184.831L109.124 252.321H211.077L199.981 184.831C198.632 176.637 190.804 170 182.485 170Z" fill="#364D58"/>
<path d="M166.474 236H242.06C244.79 236 247 238.081 247 240.651V252.349C247 254.919 244.79 257 242.06 257H166.474C165.654 257 165 256.375 165 255.612V237.388C165 236.616 165.664 236 166.474 236Z" fill="#455A64"/>
<path d="M81.6889 208.559C81.2069 208.559 80.7153 208.578 80.2236 208.606C69.8703 209.299 61.4931 217.598 60.8279 227.795C60.6737 230.122 60.9243 232.381 61.5027 234.499C63.8838 243.225 64.7803 252.283 64.7803 261.322V287.651C64.7803 289.56 66.3517 291.107 68.2893 291.107H153.15V208.549H81.6793L81.6889 208.559Z" fill="#546B76"/>
<path d="M174.059 229.144C174.059 217.294 163.899 207.78 151.695 208.606C141.341 209.299 132.964 217.598 132.299 227.795C132.145 230.122 132.395 232.382 132.974 234.499C135.355 243.225 136.251 252.283 136.251 261.322V287.651C136.251 289.56 137.823 291.107 139.76 291.107H166.559C168.497 291.107 170.068 289.56 170.068 287.651V259.774C170.068 251.295 171.003 242.816 173.307 234.651C173.799 232.904 174.059 231.052 174.059 229.153V229.144Z" fill="#455A64"/>
<path d="M451.405 252.399H409.915V255.751H451.405V252.399Z" fill="#555555"/>
<path d="M331.657 291.034H339.321V213.869H331.657V291.034Z" fill="#555555"/>
<path d="M305.128 255.751H409.915V252.399H305.128V255.751Z" fill="#393939"/>
<path d="M451.405 270.753H409.915V274.105H451.405V270.753Z" fill="#555555"/>
<path d="M305.128 274.095H409.915V270.744H305.128V274.095Z" fill="#393939"/>
<path d="M451.405 215.702H409.915V219.053H451.405V215.702Z" fill="#555555"/>
<path d="M305.128 219.053H409.915V215.702H305.128V219.053Z" fill="#393939"/>
<path d="M451.405 234.055H409.915V237.407H451.405V234.055Z" fill="#555555"/>
<path d="M305.128 237.398H409.915V234.046H305.128V237.398Z" fill="#393939"/>
<path d="M436.444 291.034H444.108V213.869H436.444V291.034Z" fill="#555555"/>
<path d="M402.251 291.034H409.915V213.869H402.251V291.034Z" fill="#393939"/>
<path d="M305.128 291.034H312.792V213.869H305.128V291.034Z" fill="#393939"/>
<path d="M370.494 212.958H374.591V167.961H370.494V212.958Z" fill="#7C7C7C"/>
<path opacity="0.1" d="M371.024 212.92H372.181V167.924H371.024V212.92Z" fill="#E8E8E8"/>
<path d="M357.364 215.702H387.711C387.711 213.622 385.995 211.932 383.884 211.932H361.181C359.07 211.932 357.354 213.622 357.354 215.702H357.364Z" fill="#7C7C7C"/>
<path d="M365.703 214.591H367.235C367.464 214.591 367.65 214.408 367.65 214.183V211.04C367.65 210.814 367.464 210.632 367.235 210.632H365.703C365.474 210.632 365.288 210.814 365.288 211.04V214.183C365.288 214.408 365.474 214.591 365.703 214.591Z" fill="#7C7C7C"/>
<path d="M354.192 178.653H390.892L387.393 149.817C386.978 146.437 384.076 143.901 380.625 143.901H364.478C361.027 143.901 358.116 146.446 357.711 149.817L354.212 178.653H354.192Z" fill="#5280E2"/>
<path d="M289.064 82.1183L288.727 83.2387L288.419 84.1976C288.206 84.8338 287.975 85.4225 287.744 86.0302C287.281 87.2265 286.76 88.3849 286.23 89.5243C285.141 91.803 283.965 94.0154 282.606 96.1327C281.94 97.1961 281.237 98.2406 280.533 99.2755C279.791 100.291 279.048 101.307 278.258 102.285C276.725 104.279 274.98 106.121 273.216 107.925L272.84 108.305C272.3 108.856 271.655 109.283 270.989 109.577C268.994 110.441 266.7 110.869 264.608 110.745C262.506 110.65 260.655 110.119 259.074 109.464C257.474 108.808 256.144 107.992 254.929 107.128C253.734 106.264 252.654 105.362 251.69 104.412C249.752 102.523 248.143 100.529 246.716 98.478C246.003 97.4525 245.347 96.3986 244.72 95.3351C244.094 94.2432 243.554 93.2178 242.976 91.9834C242.079 90.075 242.918 87.8247 244.855 86.9417C246.311 86.277 247.969 86.5809 249.078 87.5873L249.328 87.8152L251.68 89.9421C252.481 90.6637 253.3 91.3473 254.119 92.0214C255.749 93.3507 257.407 94.5945 259.036 95.5725C260.636 96.579 262.285 97.2816 263.451 97.5C264.029 97.6139 264.473 97.5854 264.675 97.4905C264.887 97.386 264.897 97.3196 264.993 97.2056L262.776 98.8577C264 97.2246 265.186 95.5725 266.285 93.8634C267.394 92.1639 268.406 90.3883 269.389 88.6128C270.353 86.8277 271.259 85.0047 272.079 83.1722C272.503 82.2607 272.879 81.3302 273.264 80.4282L274.238 77.9405L274.508 77.2569C276.041 73.3545 280.494 71.408 284.456 72.9177C288.216 74.342 290.173 78.3963 289.064 82.1373V82.1183Z" fill="#333333"/>
<path d="M245.733 92.0404L239.216 89.7996L237.847 81.0169C237.847 81.0169 248.769 83.8653 248.721 89.0495L245.733 92.0404Z" fill="#FFBF9D"/>
<path d="M284.119 46.2371C279.858 44.7654 273.997 39.7521 276.301 33.2576C278.046 28.3392 284.553 27.9025 287.107 29.3837C289.662 30.8649 289.768 27.8265 293.036 26.6681C296.304 25.5098 298.608 28.4342 300.266 29.9629C301.924 31.4915 303.852 30.3332 306.32 30.4376C308.788 30.5421 310.533 33.7133 309.154 36.0301C306.744 40.0939 310.735 42.705 307.708 45.8383C303.264 50.4528 306.705 54.9629 300.478 59.5489C296.67 62.3594 285.854 57.2037 284.109 46.2276L284.119 46.2371Z" fill="#333333"/>
<path d="M284.042 50.5288C283.888 50.6142 283.714 50.6807 283.521 50.6902C282.856 50.7472 282.268 50.2629 282.21 49.6078C281.632 43.0278 285.999 39.5812 286.182 39.4388C286.683 39.021 287.464 39.1254 287.879 39.6476C288.293 40.1699 288.197 40.9105 287.676 41.3187C287.532 41.4327 284.158 44.1577 284.62 49.4084C284.659 49.8736 284.418 50.3104 284.032 50.5383L284.042 50.5288Z" fill="#333333"/>
<path d="M277.111 72.6139C277.111 72.6139 268.56 94.1673 276.677 134.312H315.439C315.709 128.453 311.969 99.8642 317.705 72.2531C317.705 72.2531 311.063 70.9428 304.729 70.6389C299.774 70.4016 292.602 70.2497 288.255 70.6389C282.519 71.1517 277.111 72.6234 277.111 72.6234V72.6139Z" fill="white"/>
<path d="M303.1 52.3613C302.059 57.5835 301.028 67.1543 304.729 70.6389C304.729 70.6389 298.521 75.5953 291.995 80.6086C286.934 76.07 288.255 70.6389 288.255 70.6389C294.164 69.2527 294.01 64.9325 292.988 60.8687L303.1 52.3613Z" fill="#FFBF9D"/>
<path opacity="0.2" d="M298.974 55.8364L292.988 60.8687C293.238 61.8277 293.431 62.8057 293.499 63.7457C295.446 65.5497 298.859 60.9827 299.1 58.6564C299.215 57.498 299.167 56.3776 298.974 55.8364Z" fill="black"/>
<path d="M303.033 43.55C303.303 50.6332 303.823 54.7635 300.574 58.7229C295.697 64.6856 286.548 62.3214 284.138 55.4566C281.969 49.2849 281.902 38.7456 288.611 35.261C295.224 31.8334 302.763 36.4669 303.033 43.5405V43.55Z" fill="#FFBF9D"/>
<path d="M302.84 50.1015C300.864 53.909 298.589 41.8884 299.167 39.885C292.188 41.784 281.468 41.1573 282.287 36.3529C283.213 30.9408 289.652 30.7225 296.738 31.3966C308.47 32.5075 304.99 45.9807 302.84 50.111V50.1015Z" fill="#333333"/>
<path d="M299.379 50.7756C299.206 50.7756 299.022 50.7567 298.849 50.6712C298.232 50.4053 297.952 49.7027 298.222 49.1045C300.902 43.0563 306.407 42.0783 306.648 42.0403C307.284 41.9074 307.93 42.3632 308.046 43.0183C308.152 43.664 307.718 44.2811 307.062 44.3951C306.879 44.4236 302.599 45.2306 300.449 50.054C300.256 50.4908 299.832 50.7472 299.389 50.7661L299.379 50.7756Z" fill="#333333"/>
<path d="M306.619 48.5633C306.204 50.4338 305.047 51.953 303.794 52.8076C301.924 54.0989 300.43 52.5132 300.488 50.2819C300.536 48.2785 301.567 45.1927 303.669 44.8034C305.741 44.4141 307.081 46.427 306.609 48.5538L306.619 48.5633Z" fill="#FFBF9D"/>
<path d="M272.744 313.784C271.847 314.002 270.951 314.088 270.565 313.765C270.43 313.651 270.295 313.433 270.411 313.043C270.478 312.825 270.623 312.654 270.845 312.531C271.934 311.932 274.71 312.721 274.826 312.749C274.894 312.768 274.942 312.825 274.951 312.901C274.951 312.967 274.913 313.034 274.855 313.072C274.431 313.271 273.592 313.585 272.753 313.784H272.744ZM271.317 312.711C271.201 312.739 271.095 312.777 271.009 312.825C270.864 312.901 270.777 313.005 270.739 313.129C270.671 313.357 270.739 313.452 270.797 313.499C271.23 313.869 273.004 313.452 274.257 312.948C273.534 312.777 272.136 312.502 271.327 312.701L271.317 312.711Z" fill="#333333"/>
<path d="M274.816 313.081C274.816 313.081 274.768 313.081 274.749 313.081C273.814 312.91 271.789 311.818 271.732 311.011C271.722 310.821 271.799 310.556 272.243 310.404C272.57 310.29 272.908 310.309 273.226 310.461C274.286 310.964 274.922 312.787 274.942 312.863C274.961 312.92 274.942 312.986 274.913 313.024C274.884 313.053 274.855 313.072 274.826 313.081H274.816ZM272.445 310.689C272.445 310.689 272.377 310.708 272.349 310.717C272.059 310.821 272.069 310.945 272.069 310.983C272.108 311.467 273.515 312.369 274.508 312.673C274.286 312.151 273.775 311.097 273.081 310.765C272.869 310.66 272.667 310.641 272.455 310.689H272.445Z" fill="#333333"/>
<path d="M285.353 315.341L278.094 316.395L278.325 300.007L285.584 298.953L285.353 315.341Z" fill="#FFBF9D"/>
<path d="M277.005 312.151H286.529C286.828 312.151 287.059 312.35 287.107 312.635L288.033 318.949C288.129 319.604 287.57 320.221 286.895 320.212C284.061 320.164 279.964 320.003 276.388 320.003C272.214 320.003 268.464 320.231 263.567 320.231C260.607 320.231 260.058 317.458 261.282 317.012C266.767 314.99 269.688 314.648 275.231 312.701C275.829 312.493 276.388 312.151 277.014 312.151H277.005Z" fill="#333333"/>
<path opacity="0.2" d="M278.325 300.016L278.2 308.457L285.469 307.403L285.594 298.962L278.325 300.016Z" fill="black"/>
<path d="M281.584 312.664C281.526 309.635 282.49 304.764 274.826 307.745C270.257 309.521 276.455 314.705 276.455 314.705L281.584 312.664Z" fill="#333333"/>
<path d="M276.677 134.302C276.677 134.302 272.802 191.822 273.91 212.265C274.961 231.644 275.559 286.629 275.703 301.042C275.723 302.903 277.39 304.318 279.26 304.071L284.399 303.387C285.806 303.197 286.915 302.105 287.098 300.719C290.414 275.273 294.357 236.002 295.215 214.971C296.198 190.977 302.175 134.302 302.175 134.302H276.687H276.677Z" fill="#5280E2"/>
<path d="M325.07 312.853C324.221 313.224 323.354 313.471 322.92 313.214C322.766 313.129 322.592 312.929 322.641 312.531C322.669 312.303 322.775 312.113 322.978 311.951C323.942 311.173 326.815 311.458 326.94 311.467C327.007 311.467 327.065 311.524 327.085 311.591C327.104 311.657 327.075 311.733 327.017 311.771C326.631 312.037 325.86 312.493 325.079 312.844L325.07 312.853ZM323.47 312.046C323.364 312.094 323.267 312.151 323.18 312.217C323.055 312.322 322.988 312.436 322.968 312.569C322.939 312.806 323.026 312.882 323.084 312.92C323.576 313.205 325.243 312.483 326.39 311.771C325.648 311.733 324.231 311.705 323.46 312.046H323.47Z" fill="#333333"/>
<path d="M326.978 311.8C326.978 311.8 326.93 311.819 326.911 311.819C325.957 311.819 323.768 311.097 323.566 310.309C323.518 310.119 323.547 309.853 323.961 309.625C324.27 309.454 324.597 309.416 324.944 309.511C326.082 309.825 327.027 311.505 327.065 311.572C327.094 311.629 327.094 311.686 327.065 311.743C327.046 311.771 327.017 311.8 326.988 311.809L326.978 311.8ZM324.212 309.863C324.212 309.863 324.154 309.891 324.115 309.91C323.845 310.062 323.874 310.176 323.884 310.214C324.009 310.689 325.561 311.325 326.583 311.448C326.275 310.973 325.581 310.024 324.829 309.815C324.607 309.749 324.395 309.768 324.202 309.853L324.212 309.863Z" fill="#333333"/>
<path d="M338.18 312.208L331.336 314.496L326.795 298.659L333.63 296.37L338.18 312.208Z" fill="#FFBF9D"/>
<path opacity="0.2" d="M294.665 154.849C292.67 162.72 293.2 195.43 295.263 213.869C295.755 203.074 297.143 186.429 298.55 171.152L294.665 154.849Z" fill="black"/>
<path d="M328.704 310.66L338.074 308.989C338.363 308.941 338.652 309.093 338.759 309.359L341.217 315.341C341.467 315.958 341.082 316.661 340.407 316.765C337.602 317.221 333.534 317.772 330.015 318.398C325.908 319.13 325.87 319.367 321.05 320.221C318.139 320.744 316.914 318.142 318.004 317.496C322.901 314.572 322.101 314.363 327.075 311.505C327.615 311.192 328.077 310.765 328.694 310.651L328.704 310.66Z" fill="#333333"/>
<path opacity="0.2" d="M326.795 298.659L329.138 306.824L335.982 304.536L333.64 296.37L326.795 298.659Z" fill="black"/>
<path d="M290.433 134.312C290.433 134.312 295.427 191.832 299.273 212.274C302.975 231.938 319.72 287.977 324.655 300.719C325.253 302.257 326.969 303.064 328.559 302.551L333.505 300.966C335.009 300.482 335.915 298.972 335.616 297.443C330.7 272.443 322.872 235.916 320.925 214.99C318.698 190.996 315.43 134.321 315.43 134.321H290.424L290.433 134.312Z" fill="#5280E2"/>
<path d="M292.4 46.5694C292.458 47.1391 292.197 47.6328 291.812 47.6708C291.436 47.7088 291.079 47.272 291.021 46.7023C290.963 46.1327 291.224 45.6389 291.609 45.6009C291.985 45.563 292.342 45.9997 292.4 46.5694Z" fill="#333333"/>
<path d="M285.825 47.2056C285.883 47.7753 285.623 48.269 285.237 48.307C284.861 48.345 284.505 47.9082 284.447 47.3385C284.389 46.7688 284.649 46.2751 285.035 46.2371C285.42 46.1991 285.767 46.6359 285.825 47.2056Z" fill="#333333"/>
<path d="M287.946 47.291C287.946 47.291 286.953 50.7282 285.661 52.4657C286.789 53.3108 288.496 52.7126 288.496 52.7126L287.956 47.3005L287.946 47.291Z" fill="#FF9A6C"/>
<path d="M290.337 54.1179C290.24 54.1179 290.154 54.0609 290.154 53.9659C290.154 53.871 290.212 53.795 290.308 53.7855C292.863 53.5387 293.875 51.6682 293.884 51.6492C293.933 51.5637 294.029 51.5352 294.116 51.5732C294.203 51.6207 294.231 51.7156 294.193 51.8011C294.145 51.8866 293.084 53.852 290.346 54.1179H290.337Z" fill="#333333"/>
<path d="M294.174 44.2907C294.068 44.3001 293.961 44.2622 293.884 44.1862C292.843 43.0753 291.6 43.2747 291.58 43.2747C291.407 43.3127 291.214 43.1797 291.185 42.9993C291.156 42.8189 291.282 42.6385 291.465 42.6101C291.532 42.6006 293.094 42.3537 294.386 43.7304C294.511 43.8634 294.501 44.0818 294.366 44.2052C294.309 44.2527 294.241 44.2907 294.164 44.2907H294.174Z" fill="#333333"/>
<path d="M282.644 45.2022C282.596 45.2022 282.538 45.2022 282.49 45.1737C282.316 45.0977 282.239 44.8983 282.316 44.7274C283.088 43.0183 284.649 42.7525 284.717 42.743C284.9 42.705 285.083 42.8379 285.112 43.0183C285.141 43.1987 285.016 43.3792 284.832 43.4076C284.784 43.4076 283.57 43.6355 282.953 45.0028C282.895 45.1262 282.779 45.2022 282.654 45.2022H282.644Z" fill="#333333"/>
<path d="M305.713 69.4616C309.501 69.4996 318.601 69.661 319.488 72.9842C320.375 76.3074 319.411 81.691 318.206 84.8528C319.97 89.6762 319.411 96.7973 317.724 99.0192C319.575 104.403 318.37 108.353 317.242 110.252C318.129 112.388 318.929 118.484 317.56 121.484C318.688 125.757 319.97 132.925 317.965 134.312C315.237 136.201 307.978 137.151 302.85 135.964C297.721 134.777 299.726 124.57 300.131 122.196C297.885 119.272 300.295 110.489 300.295 110.489C299.167 108.039 300.854 98.8577 300.854 98.8577C299.485 96.6454 301.259 84.6154 301.259 84.6154C299.813 82.1657 299.177 69.3856 305.722 69.4616H305.713Z" fill="#333333"/>
<path d="M277.978 71.6359C280.947 70.3446 290.896 67.9899 288.968 70.582C286.172 74.3325 287.888 78.2823 286.23 82.9253C287.686 87.3594 287.223 94.604 285.835 97.1961C287.358 102.171 286.365 106.387 285.44 108.543C286.172 110.479 286.828 116.395 285.71 119.708C286.635 123.734 287.406 131.843 285.748 133.675C283.492 136.173 279.762 137.274 275.858 135.66C273.496 134.691 272.445 126.944 273.611 124.276C271.317 119.357 273.187 112.046 273.187 112.046C270.97 108.248 272.686 100.282 272.686 100.282C270.488 93.2178 273.187 85.4035 273.187 85.4035C271.992 83.2671 273.255 73.6963 277.988 71.6359H277.978Z" fill="#333333"/>
<path d="M284.485 72.5094C284.119 72.1201 283.232 71.5884 283.203 70.0218C283.174 68.759 284.341 67.3537 285.661 67.5151C287.32 67.705 287.888 68.0089 288.881 68.4931C290.404 69.2242 290.954 69.8983 291.021 70.9997C291.089 72.1106 288.332 75.9656 286.818 75.0541C285.305 74.1331 285.372 73.4684 284.485 72.5189V72.5094Z" fill="#333333"/>
<path opacity="0.2" d="M313.772 86.0871C314.524 82.8874 316.432 83.1722 318.331 84.4825C318.283 84.6059 318.245 84.7294 318.196 84.8528C319.97 89.6762 319.401 96.7974 317.714 99.0192C317.821 99.323 317.917 99.6268 318.004 99.9212C315.642 97.6899 312.364 92.1259 313.772 86.0871Z" fill="black"/>
<path d="M314.099 93.9014L307.689 96.7784L307.062 117.183L289.643 128.235L309.145 135.119L314.437 154.849L320.847 151.963L324.443 119.803L314.099 93.9014Z" fill="#5280E2"/>
<path opacity="0.3" d="M314.099 93.9014L307.689 96.7784L307.062 117.183L289.643 128.235L309.145 135.119L314.437 154.849L320.847 151.963L324.443 119.803L314.099 93.9014Z" fill="black"/>
<path d="M354.221 136.97L347.801 139.857L327.114 138.717L335.77 132.954L354.221 136.97Z" fill="#5280E2"/>
<path opacity="0.3" d="M354.221 136.97L347.801 139.857L327.114 138.717L335.77 132.954L354.221 136.97Z" fill="black"/>
<path d="M314.1 93.9014L330.16 106.795L350.047 101.08L342.557 120.107L354.221 136.97L333.534 135.831L320.848 151.963L315.565 132.242L296.063 125.348L313.473 114.296L314.1 93.9014Z" fill="#5280E2"/>
<path d="M324.193 134.445L324.048 140.892L331.77 140.464C331.77 140.464 332.811 136.429 328.376 133.618L324.193 134.445Z" fill="#FFBF9D"/>
<path d="M326.525 147.348L331.866 144.31L331.77 140.464L324.048 140.892L326.525 147.348Z" fill="#FFBF9D"/>
<path d="M319.768 72.7563C320.394 73.326 320.867 73.7628 321.387 74.266C321.898 74.7502 322.39 75.2535 322.881 75.7472C323.865 76.7442 324.809 77.7696 325.745 78.8046C327.605 80.8934 329.388 83.0868 331.056 85.4225C332.724 87.7677 334.315 90.2364 335.693 93.0184C337.043 95.8289 338.344 98.8577 338.739 102.846C338.797 103.33 338.826 103.843 338.826 104.384V105.172L338.787 105.723L338.624 107.887C338.45 109.293 338.277 110.707 338.036 112.075C337.602 114.828 336.975 117.496 336.281 120.117C334.835 125.367 333.119 130.381 330.786 135.347C329.89 137.255 327.586 138.081 325.648 137.198C324.135 136.505 323.296 134.986 323.421 133.438V133.296C323.855 128.273 324.385 123.165 324.684 118.208C324.877 115.73 324.954 113.261 325.002 110.859C325.041 109.653 324.993 108.476 324.983 107.299L324.906 105.58L324.887 105.162L324.848 104.982C324.829 104.868 324.809 104.745 324.761 104.583C324.482 103.415 323.662 101.611 322.602 99.8452C321.493 98.0602 320.182 96.2087 318.727 94.3857C317.271 92.5626 315.709 90.7491 314.09 88.9641C313.28 88.0716 312.441 87.198 311.612 86.315L310.359 85.0142L309.173 83.7989L308.981 83.5995C306.021 80.5801 306.108 75.7757 309.173 72.8608C312.123 70.0598 316.77 70.0503 319.748 72.7373L319.768 72.7563Z" fill="#333333"/>
<path d="M308.624 71.6739C309.607 71.5315 309.829 69.3192 309.058 67.838C308.441 66.6511 306.166 66.8125 304.141 67.3252C301.606 67.9709 300.854 68.4172 299.524 69.1388C297.49 70.2497 298.232 71.5979 298.695 72.6519C299.167 73.7058 300.064 76.127 301.992 74.8452C303.92 73.5634 307.255 71.8638 308.614 71.6644L308.624 71.6739Z" fill="#333333"/>
<path d="M332.936 310.233C332.791 307.204 333.601 302.314 326.024 305.514C321.513 307.422 327.865 312.426 327.865 312.426L332.936 310.233Z" fill="#333333"/>
<path d="M238.156 74.19H248.509C249.058 74.19 249.646 74.6363 249.801 75.1775L255.218 94.1483C255.373 94.6895 255.045 95.1357 254.495 95.1357H244.142C243.593 95.1357 243.004 94.6895 242.85 94.1483L237.433 75.1775C237.278 74.6363 237.606 74.19 238.156 74.19Z" fill="#A3A3A3"/>
<path d="M243.795 86.9701L241.626 79.5356L237.847 81.0169L239.216 89.7996L243.795 86.9701Z" fill="#FFBF9D"/>
<path opacity="0.3" d="M249.338 74.8547H249.348C249.54 74.8547 249.743 75.0066 249.801 75.1965L255.209 94.1293C255.267 94.3192 255.151 94.4711 254.958 94.4711H254.948C254.756 94.4711 254.553 94.3192 254.495 94.1293L249.087 75.1965C249.029 75.0066 249.145 74.8547 249.338 74.8547Z" fill="black"/>
<path d="M211.607 3.71902H97.7875C93.6188 3.71902 90.2394 7.04756 90.2394 11.1535V29.6116C90.2394 33.7175 93.6188 37.0461 97.7875 37.0461H211.607C215.776 37.0461 219.155 33.7175 219.155 29.6116V11.1535C219.155 7.04756 215.776 3.71902 211.607 3.71902Z" fill="#5280E2"/>
<path d="M139.297 15.3503L140.955 18.664L144.667 19.1957L141.977 21.7688L142.613 25.4053L139.297 23.6963L135.981 25.4053L136.617 21.7688L133.928 19.1957L137.639 18.664L139.297 15.3503Z" fill="white"/>
<path d="M154.355 15.3503L156.013 18.664L159.725 19.1957L157.035 21.7688L157.671 25.4053L154.355 23.6963L151.039 25.4053L151.675 21.7688L148.986 19.1957L152.697 18.664L154.355 15.3503Z" fill="white"/>
<path d="M169.413 15.3503L171.071 18.664L174.782 19.1957L172.093 21.7688L172.729 25.4053L169.413 23.6963L166.097 25.4053L166.733 21.7688L164.043 19.1957L167.755 18.664L169.413 15.3503Z" fill="white"/>
<path d="M184.47 15.3503L186.129 18.664L189.84 19.1957L187.15 21.7688L187.787 25.4053L184.47 23.6963L181.154 25.4053L181.791 21.7688L179.101 19.1957L182.812 18.664L184.47 15.3503Z" fill="white"/>
<path opacity="0.3" d="M199.528 17.4961L200.319 19.0817C200.463 19.3666 200.733 19.5565 201.042 19.604L202.815 19.8603L201.533 21.0947C201.302 21.313 201.205 21.6264 201.254 21.9397L201.552 23.6868L199.962 22.8607C199.817 22.7847 199.663 22.7563 199.509 22.7563C199.355 22.7563 199.2 22.7942 199.056 22.8607L197.465 23.6868L197.764 21.9397C197.822 21.6359 197.716 21.313 197.484 21.0947L196.202 19.8603L197.976 19.604C198.294 19.5565 198.564 19.3666 198.699 19.0817L199.489 17.4961M199.489 15.3503L197.831 18.664L194.12 19.1957L196.8 21.7688L196.164 25.4053L199.48 23.6868L202.796 25.4053L202.16 21.7688L204.84 19.1957L201.128 18.664L199.47 15.3503H199.489Z" fill="white"/>
<path opacity="0.2" d="M113.751 31.7859C120.146 31.7859 125.329 26.6804 125.329 20.3825C125.329 14.0846 120.146 8.97919 113.751 8.97919C107.357 8.97919 102.174 14.0846 102.174 20.3825C102.174 26.6804 107.357 31.7859 113.751 31.7859Z" fill="white"/>
<path d="M123.126 20.4094C123.126 22.0331 122.711 23.5617 121.969 24.891C120.359 27.8249 117.197 29.8189 113.563 29.8189C109.929 29.8189 106.776 27.8249 105.157 24.891C104.424 23.5617 104 22.0331 104 20.4094C104 15.2062 108.28 11 113.553 11C118.826 11 123.106 15.2157 123.106 20.4094H123.126Z" fill="white"/>
<path d="M211.607 83.8274H97.7875C93.6188 83.8274 90.2394 87.1559 90.2394 91.2619V109.72C90.2394 113.826 93.6188 117.154 97.7875 117.154H211.607C215.776 117.154 219.155 113.826 219.155 109.72V91.2619C219.155 87.1559 215.776 83.8274 211.607 83.8274Z" fill="#5280E2"/>
<path d="M139.297 95.4681L140.955 98.7723L144.667 99.304L141.977 101.887L142.613 105.523L139.297 103.805L135.981 105.523L136.617 101.887L133.928 99.304L137.639 98.7723L139.297 95.4681Z" fill="white"/>
<path d="M154.355 95.4681L156.013 98.7723L159.725 99.304L157.035 101.887L157.671 105.523L154.355 103.805L151.039 105.523L151.675 101.887L148.986 99.304L152.697 98.7723L154.355 95.4681Z" fill="white"/>
<path d="M169.413 95.4681L171.071 98.7723L174.782 99.304L172.093 101.887L172.729 105.523L169.413 103.805L166.097 105.523L166.733 101.887L164.043 99.304L167.755 98.7723L169.413 95.4681Z" fill="white"/>
<path d="M184.47 95.4681L186.129 98.7723L189.84 99.304L187.15 101.887L187.787 105.523L184.47 103.805L181.154 105.523L181.791 101.887L179.101 99.304L182.812 98.7723L184.47 95.4681Z" fill="white"/>
<path d="M199.528 95.4681L201.186 98.7723L204.898 99.304L202.208 101.887L202.844 105.523L199.528 103.805L196.212 105.523L196.848 101.887L194.159 99.304L197.87 98.7723L199.528 95.4681Z" fill="white"/>
<path opacity="0.2" d="M121.932 108.56C126.454 104.107 126.454 96.8863 121.932 92.433C117.411 87.9797 110.08 87.9797 105.559 92.433C101.038 96.8863 101.038 104.107 105.559 108.56C110.08 113.013 117.411 113.013 121.932 108.56Z" fill="white"/>
<path d="M123.126 100.409C123.126 102.033 122.711 103.562 121.969 104.891C120.359 107.825 117.197 109.819 113.563 109.819C109.928 109.819 106.776 107.825 105.157 104.891C104.424 103.562 104 102.033 104 100.409C104 95.2062 108.28 91 113.553 91C118.826 91 123.106 95.2157 123.106 100.409H123.126Z" fill="white"/>
<path d="M112.979 96.9333L111.133 96.0208C110.138 95.5333 109.321 96.0292 109.321 97.1208V103.304C109.321 103.779 109.717 104.167 110.2 104.167H113.292C113.521 104.167 113.708 103.979 113.708 103.75V98.0875C113.708 97.65 113.379 97.1292 112.979 96.9333ZM112.238 100.729H110.792C110.621 100.729 110.479 100.588 110.479 100.417C110.479 100.246 110.621 100.104 110.792 100.104H112.238C112.408 100.104 112.55 100.246 112.55 100.417C112.55 100.588 112.413 100.729 112.238 100.729ZM112.238 99.0625H110.792C110.621 99.0625 110.479 98.9208 110.479 98.75C110.479 98.5792 110.621 98.4375 110.792 98.4375H112.238C112.408 98.4375 112.55 98.5792 112.55 98.75C112.55 98.9208 112.413 99.0625 112.238 99.0625Z" fill="#5280E2"/>
<path d="M117.666 102.517V103.125C117.666 103.7 117.2 104.167 116.625 104.167H114.737C114.512 104.167 114.333 103.988 114.333 103.763V102.863C114.779 102.917 115.25 102.788 115.587 102.517C115.871 102.746 116.233 102.883 116.629 102.883C117.016 102.883 117.379 102.746 117.666 102.517Z" fill="#5280E2"/>
<path d="M117.666 101.271V101.275C117.633 101.821 117.187 102.258 116.629 102.258C116.05 102.258 115.587 101.788 115.587 101.217C115.587 101.854 115 102.367 114.333 102.238V100C114.333 99.7334 114.579 99.5334 114.841 99.5917L115.587 99.7584L115.787 99.8042L116.637 99.9959C116.841 100.038 117.029 100.108 117.191 100.213C117.191 100.217 117.196 100.217 117.196 100.217C117.237 100.246 117.279 100.279 117.316 100.317C117.508 100.508 117.633 100.788 117.662 101.196C117.662 101.221 117.666 101.246 117.666 101.271Z" fill="#5280E2"/>
<path d="M211.607 43.778H97.7875C93.6188 43.778 90.2394 47.1065 90.2394 51.2124V69.6705C90.2394 73.7765 93.6188 77.105 97.7875 77.105H211.607C215.776 77.105 219.155 73.7765 219.155 69.6705V51.2124C219.155 47.1065 215.776 43.778 211.607 43.778Z" fill="#5280E2"/>
<path d="M215.656 63.2899L207.558 77.105H227.802L215.656 63.2899Z" fill="#5280E2"/>
<path d="M139.297 55.4092L140.955 58.7229L144.667 59.2546L141.977 61.8277L142.613 65.4643L139.297 63.7457L135.981 65.4643L136.617 61.8277L133.928 59.2546L137.639 58.7229L139.297 55.4092Z" fill="white"/>
<path d="M154.355 55.4092L156.013 58.7229L159.725 59.2546L157.035 61.8277L157.671 65.4643L154.355 63.7457L151.039 65.4643L151.675 61.8277L148.986 59.2546L152.697 58.7229L154.355 55.4092Z" fill="white"/>
<path opacity="0.3" d="M169.413 57.555L170.203 59.1407C170.348 59.4255 170.618 59.6154 170.926 59.6629L172.7 59.9192L171.418 61.1536C171.186 61.372 171.09 61.6853 171.138 61.9986L171.437 63.7362L169.846 62.9101C169.702 62.8342 169.548 62.8057 169.393 62.8057C169.239 62.8057 169.085 62.8437 168.94 62.9101L167.35 63.7362L167.649 61.9986C167.706 61.6948 167.6 61.372 167.369 61.1536L166.087 59.9192L167.861 59.6629C168.179 59.6154 168.449 59.4255 168.584 59.1407L169.374 57.555M169.374 55.4092L167.716 58.7229L164.005 59.2546L166.685 61.8277L166.048 65.4643L169.364 63.7457L172.681 65.4643L172.044 61.8277L174.724 59.2546L171.013 58.7229L169.355 55.4092H169.374Z" fill="white"/>
<path opacity="0.3" d="M184.47 57.555L185.261 59.1407C185.405 59.4255 185.675 59.6154 185.984 59.6629L187.758 59.9192L186.476 61.1536C186.244 61.372 186.148 61.6853 186.196 61.9986L186.495 63.7362L184.904 62.9101C184.76 62.8342 184.605 62.8057 184.451 62.8057C184.297 62.8057 184.143 62.8437 183.998 62.9101L182.407 63.7362L182.706 61.9986C182.764 61.6948 182.658 61.372 182.427 61.1536L181.145 59.9192L182.918 59.6629C183.236 59.6154 183.506 59.4255 183.641 59.1407L184.432 57.555M184.432 55.4092L182.774 58.7229L179.062 59.2546L181.742 61.8277L181.106 65.4643L184.422 63.7457L187.738 65.4643L187.102 61.8277L189.782 59.2546L186.071 58.7229L184.413 55.4092H184.432Z" fill="white"/>
<path opacity="0.3" d="M199.528 57.555L200.319 59.1407C200.463 59.4255 200.733 59.6154 201.042 59.6629L202.815 59.9192L201.533 61.1536C201.302 61.372 201.205 61.6853 201.254 61.9986L201.552 63.7362L199.962 62.9101C199.817 62.8342 199.663 62.8057 199.509 62.8057C199.355 62.8057 199.2 62.8437 199.056 62.9101L197.465 63.7362L197.764 61.9986C197.822 61.6948 197.716 61.372 197.484 61.1536L196.202 59.9192L197.976 59.6629C198.294 59.6154 198.564 59.4255 198.699 59.1407L199.489 57.555M199.489 55.4092L197.831 58.7229L194.12 59.2546L196.8 61.8277L196.164 65.4643L199.48 63.7457L202.796 65.4643L202.16 61.8277L204.84 59.2546L201.128 58.7229L199.47 55.4092H199.489Z" fill="white"/>
<path opacity="0.2" d="M113.751 71.8448C120.146 71.8448 125.329 66.7394 125.329 60.4415C125.329 54.1436 120.146 49.0381 113.751 49.0381C107.357 49.0381 102.174 54.1436 102.174 60.4415C102.174 66.7394 107.357 71.8448 113.751 71.8448Z" fill="white"/>
<path d="M123.314 60.4415C123.314 62.0651 122.9 63.5938 122.157 64.9231C120.548 67.857 117.386 69.8509 113.751 69.8509C110.117 69.8509 106.965 67.857 105.345 64.9231C104.613 63.5938 104.188 62.0651 104.188 60.4415C104.188 55.2383 108.469 51.032 113.742 51.032C119.015 51.032 123.295 55.2478 123.295 60.4415H123.314Z" fill="white"/>
<path d="M113.479 56.9334L111.634 56.0209C110.638 55.5334 109.821 56.0292 109.821 57.1209V63.3042C109.821 63.7792 110.217 64.1667 110.7 64.1667H113.792C114.021 64.1667 114.209 63.9792 114.209 63.75V58.0875C114.209 57.65 113.879 57.1292 113.479 56.9334ZM112.738 60.7292H111.292C111.121 60.7292 110.979 60.5875 110.979 60.4167C110.979 60.2459 111.121 60.1042 111.292 60.1042H112.738C112.909 60.1042 113.05 60.2459 113.05 60.4167C113.05 60.5875 112.913 60.7292 112.738 60.7292ZM112.738 59.0625H111.292C111.121 59.0625 110.979 58.9209 110.979 58.75C110.979 58.5792 111.121 58.4375 111.292 58.4375H112.738C112.909 58.4375 113.05 58.5792 113.05 58.75C113.05 58.9209 112.913 59.0625 112.738 59.0625Z" fill="#5280E2"/>
<path d="M118.167 62.5167V63.1251C118.167 63.7001 117.7 64.1667 117.125 64.1667H115.237C115.012 64.1667 114.833 63.9876 114.833 63.7626V62.8626C115.279 62.9167 115.75 62.7876 116.087 62.5167C116.371 62.7459 116.733 62.8834 117.129 62.8834C117.517 62.8834 117.879 62.7459 118.167 62.5167Z" fill="#5280E2"/>
<path d="M118.167 61.2709V61.2751C118.133 61.8209 117.687 62.2584 117.129 62.2584C116.55 62.2584 116.087 61.7875 116.087 61.2167C116.087 61.8542 115.5 62.3667 114.833 62.2376V60C114.833 59.7334 115.079 59.5334 115.342 59.5917L116.087 59.7584L116.287 59.8042L117.137 59.9959C117.342 60.0375 117.529 60.1084 117.692 60.2125C117.692 60.2167 117.696 60.2167 117.696 60.2167C117.737 60.2459 117.779 60.2792 117.817 60.3167C118.008 60.5084 118.133 60.7875 118.162 61.1959C118.162 61.2209 118.167 61.2459 118.167 61.2709Z" fill="#5280E2"/>
<path d="M112.98 16.9333L111.134 16.0208C110.138 15.5333 109.321 16.0291 109.321 17.1208V23.3041C109.321 23.7791 109.717 24.1666 110.2 24.1666H113.292C113.521 24.1666 113.709 23.9791 113.709 23.75V18.0875C113.709 17.65 113.38 17.1291 112.98 16.9333ZM112.238 20.7291H110.792C110.621 20.7291 110.48 20.5875 110.48 20.4166C110.48 20.2458 110.621 20.1041 110.792 20.1041H112.238C112.409 20.1041 112.55 20.2458 112.55 20.4166C112.55 20.5875 112.413 20.7291 112.238 20.7291ZM112.238 19.0625H110.792C110.621 19.0625 110.48 18.9208 110.48 18.75C110.48 18.5791 110.621 18.4375 110.792 18.4375H112.238C112.409 18.4375 112.55 18.5791 112.55 18.75C112.55 18.9208 112.413 19.0625 112.238 19.0625Z" fill="#5280E2"/>
<path d="M117.667 22.5167V23.125C117.667 23.7 117.2 24.1667 116.625 24.1667H114.738C114.513 24.1667 114.333 23.9875 114.333 23.7625V22.8625C114.779 22.9167 115.25 22.7875 115.588 22.5167C115.871 22.7458 116.233 22.8833 116.629 22.8833C117.017 22.8833 117.379 22.7458 117.667 22.5167Z" fill="#5280E2"/>
<path d="M117.667 21.2708V21.275C117.633 21.8208 117.188 22.2583 116.629 22.2583C116.05 22.2583 115.588 21.7875 115.588 21.2167C115.588 21.8542 115 22.3667 114.333 22.2375V20C114.333 19.7333 114.579 19.5333 114.842 19.5917L115.588 19.7583L115.788 19.8042L116.638 19.9958C116.842 20.0375 117.029 20.1083 117.192 20.2125C117.192 20.2167 117.196 20.2167 117.196 20.2167C117.238 20.2458 117.279 20.2792 117.317 20.3167C117.508 20.5083 117.633 20.7875 117.663 21.1958C117.663 21.2208 117.667 21.2458 117.667 21.2708Z" fill="#5280E2"/>
</g>
<defs>
<filter id="filter0_d_88_10794" x="0" y="0" width="490" height="328" filterUnits="userSpaceOnUse" color-interpolation-filters="sRGB">
<feFlood flood-opacity="0" result="BackgroundImageFix"/>
<feColorMatrix in="SourceAlpha" type="matrix" values="0 0 0 0 0 0 0 0 0 0 0 0 0 0 0 0 0 0 127 0" result="hardAlpha"/>
<feOffset dy="4"/>
<feGaussianBlur stdDeviation="2"/>
<feComposite in2="hardAlpha" operator="out"/>
<feColorMatrix type="matrix" values="0 0 0 0 0 0 0 0 0 0 0 0 0 0 0 0 0 0 0.25 0"/>
<feBlend mode="normal" in2="BackgroundImageFix" result="effect1_dropShadow_88_10794"/>
<feBlend mode="normal" in="SourceGraphic" in2="effect1_dropShadow_88_10794" result="shape"/>
</filter>
<clipPath id="clip0_88_10794">
<rect width="482" height="320" fill="white" transform="translate(4)"/>
</clipPath>
</defs>
</svg>
