<svg width="310" height="60" viewBox="0 0 310 60" fill="none" xmlns="http://www.w3.org/2000/svg">
<path d="M51.4286 60L44.5714 38.4906L64 23.7736H40L32 0L24 23.7736H0L18 36C21.5851 32.6511 28 27 40 28C30 33 18 42 13.7128 53.5353L11.4286 60L32 45.283L51.4286 60Z" fill="#5280E2"/>
<path d="M80.7331 60C90.4753 60 97.5564 52.7956 97.5564 44V43.9116C97.5564 35.116 90.5655 28 80.8233 28C71.0811 28 64 35.2044 64 44V44.0884C64 52.884 70.9909 60 80.7331 60ZM80.8233 53.7238C75.2306 53.7238 71.2615 49.3039 71.2615 44V43.9116C71.2615 38.6077 75.1404 34.2762 80.7331 34.2762C86.3258 34.2762 90.2949 38.6961 90.2949 44V44.0884C90.2949 49.3923 86.416 53.7238 80.8233 53.7238Z" fill="#5280E2"/>
<path d="M109.704 59.4696H116.65V34.8066H126.257V28.5304H100.097V34.8066H109.704V59.4696Z" fill="#5280E2"/>
<path d="M133.379 37.7238C136.04 35.6022 138.836 34.0994 142.084 34.0994C145.196 34.0552 147.045 35.2928 147.045 37.3702V37.4144C147.045 39.5359 145.331 41.0387 142.084 41.0387H136.085V46.6961H141.903C145.692 46.6519 147.902 47.9337 147.902 50.1878V50.232C147.902 52.7072 145.376 53.9006 141.948 53.9006C138.34 53.9006 135.409 52.442 132.702 50.3646L128.598 55.2265C131.8 58.0111 135.995 60 141.768 60C150.157 60 154.938 56.0663 154.938 50.8066V50.7624C154.938 46.3867 152.367 44.5304 148.714 43.558C151.961 42.2762 154.081 40.4199 154.081 36.3978V36.3536C154.081 31.2265 149.796 28 142.219 28C136.581 28 132.747 29.9889 129.184 33.1271L133.379 37.7238Z" fill="#5280E2"/>
<path d="M160.845 59.4696H173.113C181.367 59.4696 185.832 55.3149 185.832 48.7293V48.6851C185.832 41.7901 180.961 38.2541 173.384 38.2541H167.791V28.5304H160.845V59.4696ZM190.432 59.4696H197.378V28.5304H190.432V59.4696ZM167.791 53.326V44.3094H173.293C176.902 44.3094 178.796 45.9448 178.796 48.7735V48.8177C178.796 51.8232 176.676 53.326 173.248 53.326H167.791Z" fill="#5280E2"/>
<path d="M204.935 59.4696H219.954C227.08 59.4696 231.771 56.6409 231.771 50.9834V50.895C231.771 46.7845 229.516 44.663 225.862 43.2928C228.117 42.1436 230.012 40.0663 230.012 36.6188V36.5304C230.012 34.453 229.29 32.6851 227.847 31.2707C225.998 29.4586 223.246 28.5304 219.593 28.5304H204.935V59.4696ZM223.111 37.768C223.111 40.0663 221.172 41.0387 218.105 41.0387H211.7V34.4972H218.556C221.487 34.4972 223.111 35.6022 223.111 37.6796V37.768ZM224.87 50.1437C224.87 52.442 223.021 53.5028 219.954 53.5028H211.7V46.6961H219.728C223.337 46.6961 224.87 47.9779 224.87 50.0553V50.1437Z" fill="#5280E2"/>
<path d="M236.492 59.4696H243.799V52.3978H236.492V59.4696Z" fill="#333333"/>
<path d="M250.39 59.4696H257.336V49.5691H262.793L269.558 59.4696H277.677L269.964 48.4199C273.978 46.9613 276.73 43.8232 276.73 38.8287V38.7403C276.73 35.779 275.828 33.4365 274.024 31.6685C271.904 29.5912 268.837 28.5304 264.823 28.5304H250.39V59.4696ZM257.336 43.558V34.674H264.236C267.664 34.674 269.694 36.1326 269.694 39.0939V39.1823C269.694 41.8343 267.799 43.558 264.372 43.558H257.336Z" fill="#333333"/>
<path d="M296.153 59.9558C304.633 59.9558 310 55.3591 310 45.989V28.5304H303.054V46.2541C303.054 51.2044 300.528 53.6796 296.244 53.6796C291.959 53.6796 289.433 51.116 289.433 46.0331V28.5304H282.487V46.2099C282.487 55.3591 287.674 59.9558 296.153 59.9558Z" fill="#333333"/>
<path d="M68 9.98131H72.5505C74.7415 9.98131 76.1882 9.04206 76.1882 7.28972V7.26168C76.1882 5.91589 75.4016 5.28505 74.2359 4.8785C74.9663 4.5 75.6404 3.88318 75.6404 2.69159V2.66355C75.6404 2.01869 75.4157 1.47196 74.9803 1.03738C74.4045 0.462617 73.5477 0.168224 72.4101 0.168224H68V9.98131ZM73.9129 2.97196C73.9129 3.86916 73.1826 4.30374 72.059 4.30374H69.6994V1.69626H72.1854C73.309 1.69626 73.9129 2.15888 73.9129 2.94392V2.97196ZM74.4606 7.10748C74.4606 8.00467 73.7443 8.45327 72.5646 8.45327H69.6994V5.76168H72.4382C73.8005 5.76168 74.4606 6.23832 74.4606 7.07944V7.10748Z" fill="#333333"/>
<path d="M78.1359 9.98131H81.8297C84.2314 9.98131 85.7482 8.74766 85.7482 6.6729V6.64486C85.7482 4.57009 84.2314 3.43458 81.942 3.43458H79.8634V0.168224H78.1359V9.98131ZM87.3634 9.98131H89.1049V0.168224H87.3634V9.98131ZM79.8634 8.41121V4.99065H81.8999C83.2061 4.99065 83.9926 5.57944 83.9926 6.68692V6.70093C83.9926 7.80841 83.164 8.41121 81.8718 8.41121H79.8634Z" fill="#333333"/>
<path d="M96.1967 10.1495C98.0225 10.1495 99.1883 9.49065 100.185 8.41121L99.0759 7.28972C98.2332 8.07477 97.4467 8.5514 96.2529 8.5514C94.3709 8.5514 93.0085 6.99533 93.0085 5.07477V5.04673C93.0085 3.12617 94.3849 1.59813 96.2388 1.59813C97.3765 1.59813 98.2051 2.07477 99.0057 2.80374L100.115 1.52804C99.1742 0.63084 98.0787 0 96.2529 0C93.2894 0 91.1967 2.28505 91.1967 5.07477V5.1028C91.1967 7.92056 93.3316 10.1495 96.1967 10.1495Z" fill="#333333"/>
<path d="M102.015 9.98131H115.175V0.168224H113.433V8.41121H109.459V0.168224H107.731V8.41121H103.742V0.168224H102.015V9.98131Z" fill="#333333"/>
<path d="M126.273 9.98131V0.168224H124.616L119.433 7.07944V0.168224H117.706V9.98131H119.208L124.545 2.88785V9.98131H126.273Z" fill="#333333"/>
<path d="M128.802 9.98131H136.161V8.43925H130.529V5.81776H135.459V4.26168H130.529V1.71028H136.091V0.168224H128.802V9.98131Z" fill="#333333"/>
<path d="M145.413 9.98131L151.003 0.168224H149.079L146.41 5.06075L143.489 0.168224H141.522L145.455 6.6028L143.489 9.98131H145.413Z" fill="#333333"/>
<path d="M158.053 9.98131H159.795V0.168224H158.053V4.9486C157.379 5.15888 156.635 5.25701 155.947 5.25701C154.486 5.25701 153.798 4.66822 153.798 3.25234V0.168224H152.07V3.46262C152.07 5.81776 153.503 6.8271 155.764 6.8271C156.48 6.8271 157.337 6.71495 158.053 6.53271V9.98131Z" fill="#333333"/>
<path d="M162.323 9.98131H169.682V8.43925H164.05V5.81776H168.98V4.26168H164.05V1.71028H169.612V0.168224H162.323V9.98131Z" fill="#333333"/>
<path d="M171.732 9.98131H176.044C178.263 9.98131 179.723 8.88785 179.723 6.98131V6.96729C179.723 5.1028 178.333 4.12149 176.156 4.12149H173.431V1.71028H178.867V0.168224H171.732V9.98131ZM173.431 8.43925V5.63551H176.114C177.251 5.63551 177.982 6.07009 177.982 7.00935V7.02336C177.982 7.96262 177.209 8.43925 176.086 8.43925H173.431Z" fill="#333333"/>
<path d="M181.648 9.98131H183.376V5.84579H188.067V9.98131H189.794V0.168224H188.067V4.24766H183.376V0.168224H181.648V9.98131Z" fill="#333333"/>
<path d="M192.319 9.98131H196.013C198.414 9.98131 199.931 8.74766 199.931 6.6729V6.64486C199.931 4.57009 198.414 3.43458 196.125 3.43458H194.046V0.168224H192.319V9.98131ZM201.546 9.98131H203.288V0.168224H201.546V9.98131ZM194.046 8.41121V4.99065H196.083C197.389 4.99065 198.176 5.57944 198.176 6.68692V6.70093C198.176 7.80841 197.347 8.41121 196.055 8.41121H194.046Z" fill="#333333"/>
<path d="M205.815 9.98131H213.175V8.43925H207.543V5.81776H212.472V4.26168H207.543V1.71028H213.104V0.168224H205.815V9.98131Z" fill="#333333"/>
<path d="M219.941 2.74766C220.769 2.06075 221.696 1.54206 222.834 1.54206C224.014 1.54206 224.73 2.04673 224.73 2.87383V2.88785C224.73 3.78505 223.957 4.30374 222.764 4.30374H220.966V5.76168H222.735C224.14 5.74766 224.983 6.23832 224.983 7.13551V7.14953C224.983 8.06075 224.07 8.60748 222.778 8.60748C221.542 8.60748 220.587 8.11682 219.744 7.44392L218.719 8.69159C219.688 9.53271 220.98 10.1495 222.735 10.1495C225.249 10.1495 226.738 8.91589 226.738 7.2757V7.26168C226.738 5.92991 225.91 5.24299 224.688 4.9486C225.825 4.57009 226.485 3.86916 226.485 2.64953V2.63551C226.485 1.03738 225.109 0 222.876 0C221.106 0 219.898 0.672897 218.887 1.57009L219.941 2.74766Z" fill="#333333"/>
<path d="M227.864 9.98131H229.634L230.645 7.61215H235.294L236.291 9.98131H238.117L233.791 0.0981304H232.19L227.864 9.98131ZM231.277 6.08411L232.962 2.15888L234.662 6.08411H231.277Z" fill="#333333"/>
<path d="M239.803 9.98131H244.353C246.544 9.98131 247.991 9.04206 247.991 7.28972V7.26168C247.991 5.91589 247.204 5.28505 246.039 4.8785C246.769 4.5 247.443 3.88318 247.443 2.69159V2.66355C247.443 2.01869 247.218 1.47196 246.783 1.03738C246.207 0.462617 245.35 0.168224 244.213 0.168224H239.803V9.98131ZM245.716 2.97196C245.716 3.86916 244.985 4.30374 243.862 4.30374H241.502V1.69626H243.988C245.112 1.69626 245.716 2.15888 245.716 2.94392V2.97196ZM246.263 7.10748C246.263 8.00467 245.547 8.45327 244.367 8.45327H241.502V5.76168H244.241C245.603 5.76168 246.263 6.23832 246.263 7.07944V7.10748Z" fill="#333333"/>
<path d="M249.939 9.98131H257.298V8.43925H251.666V5.81776H256.596V4.26168H251.666V1.71028H257.228V0.168224H249.939V9.98131Z" fill="#333333"/>
<path d="M258.547 8.41121V12H260.176V9.98131H267.845V12H269.474V8.41121H268.491L264.923 0.0981304H263.098L259.516 8.41121H258.547ZM263.982 2.01869L266.665 8.46729H261.3L263.982 2.01869Z" fill="#333333"/>
<path d="M271.198 9.98131H278.557V8.43925H272.925V5.81776H277.855V4.26168H272.925V1.71028H278.487V0.168224H271.198V9.98131Z" fill="#333333"/>
<path d="M280.607 9.98131H282.334V5.84579H287.025V9.98131H288.753V0.168224H287.025V4.24766H282.334V0.168224H280.607V9.98131Z" fill="#333333"/>
<path d="M299.845 9.98131V0.168224H298.188L293.005 7.07944V0.168224H291.278V9.98131H292.78L298.117 2.88785V9.98131H299.845Z" fill="#333333"/>
<path d="M310 0.168224H305.913C303.511 0.168224 301.966 1.26168 301.966 3.3785V3.39252C301.966 4.97664 302.978 5.95794 304.368 6.33645L301.643 9.98131H303.722L306.222 6.56075H308.272V9.98131H310V0.168224ZM308.272 1.73832V5.03271H305.787C304.537 5.03271 303.722 4.44392 303.722 3.3785V3.36449C303.722 2.31308 304.466 1.73832 305.758 1.73832H308.272Z" fill="#333333"/>
</svg>
