<svg width="305" height="418" viewBox="0 0 305 418" fill="none" xmlns="http://www.w3.org/2000/svg">
<rect x="0.5" y="0.5" width="304" height="417" rx="9.5" fill="#E5ECFB" stroke="#E5ECFB"/>
<path opacity="0.3" d="M304.998 20.5629L304.998 21.5447C293.357 51.9916 290.698 94.0189 304.998 153.18L304.998 154.519C290.191 94.0529 292.984 51.3436 304.998 20.5622M304.998 14.1548L304.998 14.9778C290.368 47.549 286.526 94.4729 304.998 163.75L304.998 164.989C286.012 94.4905 290.013 46.9918 304.998 14.1541L304.998 14.1548ZM304.998 8.64481L304.998 9.40054C287.481 43.5571 282.29 94.6414 304.998 173.476L304.998 174.632C281.762 94.614 287.131 43.0189 304.998 8.64481ZM304.998 3.73776L304.998 4.43933C284.659 39.79 277.974 94.514 304.998 182.561L304.998 183.647C277.44 94.4553 284.315 39.2661 304.998 3.73776ZM304.57 0.000640888L304.982 0.00064087C281.9 36.2469 273.589 94.1789 304.998 191.154L304.998 192.181C273.245 94.6819 281.461 36.4331 304.57 0.000640888ZM301.87 0.000641006L302.283 0.000640988C278.566 37.2437 270.461 97.398 304.998 199.262L304.998 200.29C270.101 97.8899 278.127 37.4332 301.87 0.000641006ZM299.17 0.000641124L299.583 0.000641106C275.27 38.1791 267.377 100.45 304.999 207.034L304.999 208.012C267.034 100.925 274.839 38.3607 299.171 0.000641124L299.17 0.000641124ZM296.471 0.000641242L296.883 0.000641224C272.003 39.0701 264.31 103.359 304.999 214.558L304.999 215.492C263.982 103.823 271.577 39.2459 296.471 0.000641242ZM293.771 0.00064136L294.183 0.000641342C268.762 39.9187 261.262 106.143 304.999 221.85L304.999 222.778C260.927 106.597 268.339 40.0951 293.771 4.90843e-07L293.771 0.00064136ZM291.071 0.000641478L291.483 0.00064146C265.557 40.713 258.3 108.815 304.999 228.842L304.999 229.738C257.977 109.262 265.138 40.8848 291.071 6.08856e-07L291.071 0.000641478ZM288.371 0.000641596L288.783 0.000641578C262.366 41.4851 255.315 111.392 304.999 235.712L304.999 236.575C255.007 111.832 261.951 41.6536 288.371 0.000641596ZM285.671 0.000641714L286.084 0.000641696C259.197 42.22 252.376 113.884 304.998 242.376L304.998 243.239C252.06 114.317 258.783 42.3905 285.67 0.00128258L285.671 0.000641714ZM282.971 0.000641832L283.383 0.000641814C256.047 42.9274 249.457 116.297 304.998 248.886L304.998 249.719C249.155 116.726 255.637 43.094 282.97 0.0012827L282.971 0.000641832ZM280.271 0.00064195L280.683 0.000641932C252.908 43.614 246.536 118.638 304.998 255.285L304.998 256.117C246.227 119.062 252.499 43.7825 280.27 0.00128282L280.271 0.00064195ZM277.571 0.000642068L277.983 0.00064205C250.096 43.793 243.765 119.235 303.003 256.951C303.682 258.529 304.34 260.102 304.999 261.674L304.999 262.506C304.245 260.7 303.485 258.892 302.705 257.078C243.486 119.405 249.735 43.8857 277.571 0.000642068ZM274.871 0.000642186L275.284 0.000642168C247.396 43.793 241.065 119.235 300.303 256.951C301.929 260.729 303.487 264.486 305 268.226L305 269.083C303.396 265.102 301.737 261.102 300.005 257.078C240.787 119.405 247.036 43.8857 274.871 0.000642186ZM272.172 0.000642304L272.584 0.000642286C244.696 43.793 238.365 119.235 297.603 256.951C300.216 263.025 302.673 269.048 305 275.022L305 275.906C302.587 269.685 300.028 263.408 297.306 257.078C238.087 119.405 244.336 43.8857 272.172 0.000642304ZM304.998 283C301.822 274.469 298.365 265.823 294.604 257.079C235.385 119.407 241.634 43.887 269.47 0.00192416L269.882 0.00192414C241.995 43.7942 235.663 119.236 294.902 256.952C298.548 265.428 301.902 273.81 304.998 282.087L304.998 283Z" fill="#5280E2"/>
<path opacity="0.23" d="M-29.9988 319.591L-29.9988 320.671C-27.3012 325.292 -27.1082 330.52 -29.9988 336.754L-29.9988 337.923C-26.4732 330.994 -26.5846 325.258 -29.6095 320.209C-29.7347 320.002 -29.8645 319.796 -29.9988 319.59M-29.9988 314.326L-29.9988 315.07C-28.0568 316.798 -26.495 318.597 -25.3581 320.494C-21.5016 326.929 -22.5168 334.536 -29.9988 344.415L-29.9988 345.237C-21.969 334.873 -20.8413 326.933 -24.87 320.208C-26.1091 318.141 -27.8364 316.192 -29.9988 314.325L-29.9988 314.326ZM-29.9988 310.789L-29.9988 311.46C-25.7669 314.277 -22.5697 317.241 -20.6196 320.495C-16.0604 328.102 -18.3033 337.342 -29.9988 350.046L-29.9988 350.774C-17.7715 337.628 -15.4127 328.084 -20.1316 320.21C-22.1735 316.803 -25.5406 313.716 -29.9988 310.791L-29.9988 310.789ZM-29.9988 307.954L-29.9988 308.592C-23.3793 312.265 -18.5042 316.118 -15.8812 320.494C-10.7627 329.034 -14.2195 339.633 -29.9988 354.882L-29.9988 355.574C-13.6854 339.898 -10.1184 329.01 -15.3931 320.208C-18.1057 315.681 -23.1542 311.72 -29.9988 307.953L-29.9988 307.954ZM-29.9988 305.506L-29.9988 306.13C-20.9538 310.555 -14.3561 315.131 -11.1428 320.495C-5.54653 329.833 -10.1919 341.629 -29.9988 359.275L-29.9988 359.946C-9.66019 341.884 -4.90226 329.808 -10.6547 320.21C-13.9599 314.694 -20.731 310.02 -29.9988 305.508L-29.9988 305.506ZM-29.9988 303.306L-29.9988 303.919C-18.5169 309.045 -10.1552 314.234 -6.40326 320.494C-0.385496 330.535 -6.21606 343.42 -29.9988 363.362L-29.9988 364.024C-5.67745 343.67 0.258772 330.511 -5.91517 320.209C-9.76126 313.792 -18.2964 308.513 -29.9988 303.306ZM-29.9988 301.268L-29.9988 301.877C-16.081 307.685 -5.91517 313.403 -1.66484 320.494C4.73419 331.171 -2.26317 345.063 -29.9988 367.237L-29.9988 367.895C-1.72111 345.313 5.38076 331.151 -1.17676 320.208C-5.52471 312.954 -15.8651 307.153 -29.9988 301.268ZM-29.9988 299.345L-29.9988 299.951C-13.6567 306.441 -1.64532 312.619 3.07357 320.494C9.82288 331.755 1.67019 346.592 -29.9988 370.952L-29.9988 371.605C2.21684 346.842 10.4717 331.737 3.5628 320.208C-1.25715 312.166 -13.4431 305.91 -29.9988 299.345ZM-29.9988 297.501L-29.9988 298.104C-11.2485 305.29 2.64865 311.877 7.81313 320.495C14.8874 332.299 5.59667 348.03 -29.9988 374.541L-29.9988 375.191C6.14217 348.28 15.5375 332.284 8.30121 320.209C3.03108 311.417 -11.0395 304.761 -29.9988 297.501ZM-29.9988 295.709L-29.9988 296.311C-8.86318 304.216 6.961 311.166 12.5515 320.494C19.9302 332.805 9.50362 349.389 -29.9988 378.018L-29.9988 378.672C10.064 349.64 20.5836 332.796 13.0396 320.208C7.33998 310.698 -8.65532 303.686 -29.9988 295.709ZM-29.9988 293.952L-29.9988 294.552C-6.50201 303.208 11.2894 310.481 17.29 320.494C24.9546 333.283 13.4025 350.684 -29.9988 381.411L-29.9988 382.062C13.9595 350.941 25.6115 333.277 17.778 320.208C11.665 310.007 -6.29874 302.68 -29.9988 293.952ZM-29.9988 292.215L-29.9988 292.814C-4.17071 302.258 15.6316 309.819 22.0295 320.494C29.9652 333.737 17.3037 351.922 -29.9988 384.732L-29.9988 385.385C17.8688 352.182 30.6244 333.737 22.5176 320.208C16.0026 309.338 -3.96743 301.731 -29.9988 292.215ZM-29.9988 290.483L-29.9988 291.082L-28.4691 291.641C-1.07798 301.643 20.1071 309.38 26.7679 320.494C34.9631 334.168 21.19 353.115 -29.9988 387.988L-29.9988 388.64C21.7539 353.378 35.6235 334.17 27.256 320.208C20.4918 308.921 -0.7771 301.154 -28.2739 291.113L-29.9988 290.483ZM-29.9988 288.748L-29.9988 289.347L-23.7307 291.641C3.66043 301.643 24.8466 309.38 31.5063 320.494C39.9484 334.581 25.0774 354.264 -29.9988 391.189L-29.9988 391.844C25.6505 354.528 40.6122 334.589 31.9944 320.208C25.2302 308.921 3.96131 301.154 -23.5355 291.113L-29.9988 288.748ZM-29.9988 287L-29.9988 287.601C-26.2389 288.993 -22.5593 290.338 -18.9923 291.641C8.39769 301.643 29.5839 309.38 36.2448 320.494C44.9257 334.978 28.9718 355.372 -30 394.348L-30 395C29.5391 355.642 45.5907 334.991 36.7328 320.209C29.9686 308.922 8.69972 301.156 -18.7971 291.114C-22.4261 289.789 -26.1723 288.419 -30 287.001L-29.9988 287Z" fill="#5280E2"/>
<path opacity="0.3" d="M-29.9992 70.5253L-29.9992 72.062C-22.4614 101.741 -12.1142 133.275 1.94021 166.011C103.875 403.433 36.1709 479.451 -29.9993 513.325L-29.9993 513.744C36.3603 479.865 104.448 403.827 2.2809 165.866C-11.9951 132.615 -22.4359 100.609 -29.9992 70.5261M-29.9992 57.6691L-29.9992 59.3339C-22.2809 92.6655 -11.0532 128.553 5.02963 166.012C108.552 407.131 37.1106 481.782 -29.9993 514.879L-29.9993 515.299C37.294 482.194 109.124 407.522 5.37032 165.866C-10.9581 127.834 -22.2757 91.4268 -29.9992 57.6691ZM-29.9992 43.3706L-29.9992 45.2443C-22.2937 82.4694 -10.255 123.216 8.11979 166.012C113.233 410.838 37.9642 484.033 -29.9993 516.372L-29.9993 516.786C38.1409 484.438 113.804 411.227 8.46047 165.866C-10.2003 122.402 -22.3161 81.0607 -29.9992 43.3714L-29.9992 43.3706ZM-29.9992 27.1167L-29.9992 29.2114C-22.57 70.6481 -9.8424 116.981 11.2092 166.012C117.92 414.557 38.7264 486.215 -29.9993 517.816L-29.9993 518.225C38.8979 486.614 118.489 414.944 11.5499 165.866C-9.83268 116.063 -22.6284 69.0418 -29.9992 27.1167ZM-29.9992 7.73322L-29.9992 10.2697C-23.2378 56.3204 -10.0221 109.366 14.2986 166.012C122.612 418.291 39.3951 488.329 -29.9993 519.214L-29.9993 519.62C39.5605 488.724 123.181 418.677 14.6393 165.866C-10.1037 108.235 -23.3547 54.3246 -29.9992 7.73248L-29.9992 7.73322ZM-29.9992 -17.9065L-29.9992 -14.2489C-24.6118 37.0515 -11.3759 99.0175 17.3888 166.012C127.315 422.046 39.9649 490.377 -29.9993 520.571L-29.9993 520.974C40.1229 490.767 127.884 422.432 17.7287 165.866C-11.6986 97.3251 -24.8642 34.0552 -29.9992 -17.9072L-29.9992 -17.9065ZM-27.3171 -150L-27.693 -150C-28.283 -146.132 -29.1381 -140.342 -29.9992 -132.835L-29.9992 -129.483C-29.0153 -138.651 -27.991 -145.585 -27.3171 -150ZM-24.2277 -150L-24.6036 -150C-26.1116 -140.118 -29.347 -117.739 -29.9992 -86.0434L-29.9992 -63.2847C-28.8154 -5.09524 -18.2039 75.9158 20.4782 166.012C132.028 425.827 40.4291 492.359 -29.9993 521.888L-29.9993 522.29C40.5818 492.744 132.596 426.212 20.8189 165.866C-46.9528 8.0163 -28.5144 -121.927 -24.2277 -150ZM-21.1383 -150L-21.5142 -150C-25.8181 -121.801 -44.2041 8.16311 23.5669 166.012C136.757 429.647 40.7825 494.271 -30 523.165L-30 523.566C40.9285 494.654 137.325 430.03 23.9075 165.866C-43.8627 8.01629 -25.4242 -121.927 -21.1383 -150ZM-4.2626 524L-3.26674 524C67.7561 495.301 165.707 431.368 51.7153 165.866C-16.0564 8.01631 2.38273 -121.927 6.66869 -150L6.2928 -150C1.98888 -121.801 -16.3971 8.16311 51.3746 166.012C165.673 432.23 66.6921 495.515 -4.2626 524ZM-7.35202 524L-6.35615 524C64.6667 495.301 162.618 431.368 48.6259 165.866C-19.1458 8.01631 -0.707429 -121.927 3.57927 -150L3.20338 -150C-1.10053 -121.801 -19.4865 8.16311 48.2852 166.012C162.584 432.23 63.6027 495.515 -7.35202 524ZM-10.4414 524L-9.44557 524C61.5773 495.301 159.528 431.368 45.5365 165.866C-22.2353 8.01631 -3.79685 -121.927 0.489098 -150L0.11322 -150C-4.1907 -121.801 -22.5767 8.16311 45.195 166.012C159.494 432.23 60.5125 495.515 -10.4422 524L-10.4414 524ZM-13.5316 524L-12.5357 524C58.4871 495.301 156.437 431.368 42.4463 165.866C-25.3254 8.01631 -6.88626 -121.927 -2.60031 -150L-2.9762 -150C-7.28011 -121.801 -25.6661 8.16311 42.1049 166.012C156.403 432.23 57.4231 495.515 -13.5324 524L-13.5316 524ZM-16.621 524L-15.6252 524C55.3977 495.301 153.348 431.368 39.3569 165.866C-28.4148 8.01631 -9.97643 -121.927 -5.68973 -150L-6.06561 -150C-10.3695 -121.801 -28.7555 8.16311 39.0154 166.012C153.314 432.23 54.333 495.515 -16.6218 524L-16.621 524ZM-19.7104 524L-18.7146 524C52.3083 495.301 150.258 431.368 36.2667 165.866C-31.5042 8.01631 -13.0658 -121.927 -8.77914 -150L-9.15503 -150C-13.4589 -121.801 -31.8449 8.16311 35.9268 166.012C150.225 432.23 51.2443 495.515 -19.7104 524ZM-22.7998 524L-21.804 524C49.2189 495.301 147.17 431.368 33.178 165.866C-34.5944 8.01631 -16.1553 -121.927 -11.8693 -150L-12.2452 -150C-16.5491 -121.801 -34.9351 8.16311 32.8366 166.012C147.135 432.23 48.1541 495.515 -22.8006 524L-22.7998 524ZM-25.8893 524L-24.8934 524C46.1295 495.301 144.08 431.368 30.0886 165.866C-37.6838 8.01631 -19.2447 -121.927 -14.9587 -150L-15.3346 -150C-19.6385 -121.801 -38.0245 8.16311 29.7472 166.012C144.046 432.23 45.0647 495.515 -25.89 524L-25.8893 524ZM-28.9787 524L-27.9828 524C43.04 495.301 140.991 431.368 26.9992 165.866C-40.7732 8.01631 -22.3348 -121.927 -18.0481 -150L-18.424 -150C-22.7279 -121.801 -41.1139 8.16311 26.6578 166.012C140.956 432.23 41.9753 495.515 -28.9794 524L-28.9787 524ZM9.75885 -150C5.47215 -121.927 -12.9662 8.01631 54.8055 165.866C168.797 431.368 70.8463 495.301 -0.175826 524L-1.17169 524C69.783 495.515 168.764 432.23 54.4655 166.012C-13.3069 8.16311 5.07905 -121.801 9.38297 -150L9.75885 -150Z" fill="#5280E2"/>
</svg>
