<svg width="1280" height="330" viewBox="0 0 1280 330" fill="none" xmlns="http://www.w3.org/2000/svg">
<g clip-path="url(#clip0_88_6795)">
<rect width="1280" height="330" rx="10" fill="#E5ECFB"/>
<path opacity="0.3" d="M701.198 463.998L698.28 463.998C641.917 449.693 582.029 430.056 519.861 403.384C68.9692 209.93 -75.3964 338.42 -139.726 463.999L-140.523 463.999C-76.1827 338.061 68.2211 208.843 520.137 402.737C583.283 429.83 644.066 449.645 701.197 463.998M725.614 463.998L722.452 463.998C659.152 449.351 590.997 428.042 519.858 397.52C61.9463 201.055 -79.8236 336.637 -142.679 463.999L-143.475 463.999C-80.6058 336.289 61.2039 199.969 520.135 396.874C592.363 427.862 661.504 449.341 725.614 463.998ZM752.768 463.998L749.21 463.998C678.515 449.375 601.134 426.528 519.858 391.656C54.9062 192.17 -84.0974 335.017 -145.513 463.999L-146.3 463.999C-84.8683 334.682 54.1682 191.088 520.135 391.009C602.68 426.424 681.19 449.417 752.767 463.998L752.768 463.998ZM783.636 463.998L779.658 463.998C700.965 449.899 612.973 425.745 519.858 385.793C47.845 183.276 -88.2418 333.57 -148.255 463.999L-149.033 463.999C-88.9997 333.245 47.1097 182.196 520.135 385.146C614.717 425.726 704.016 450.01 783.636 463.998ZM820.447 463.998L815.63 463.998C728.175 451.167 627.436 426.086 519.859 379.93C40.7538 174.371 -92.2567 332.301 -150.911 463.999L-151.683 463.999C-93.0062 331.987 40.0199 173.291 520.137 379.283C629.584 426.241 731.965 451.388 820.449 463.998L820.447 463.998ZM869.14 463.998L862.194 463.998C764.769 453.774 647.088 428.655 519.858 374.065C33.6213 165.445 -96.1465 331.22 -153.488 463.999L-154.254 463.999C-96.886 330.92 32.8889 164.367 520.137 373.42C650.303 429.267 770.459 454.253 869.141 463.998L869.14 463.998ZM1120 458.908L1120 459.622C1112.65 460.741 1101.66 462.364 1087.4 463.998L1081.04 463.998C1098.45 462.131 1111.61 460.187 1120 458.908ZM1120 453.045L1120 453.759C1101.23 456.621 1058.73 462.761 998.539 463.998L955.318 463.998C844.81 461.752 690.961 441.613 519.859 368.202C26.4404 156.501 -99.9111 330.339 -155.989 463.999L-156.752 463.999C-100.641 330.049 25.7095 155.423 520.137 367.555C819.91 496.173 1066.69 461.181 1120 453.045ZM1120 447.182L1120 447.895C1066.45 456.063 819.631 490.957 519.859 362.34C19.1871 147.528 -103.541 329.668 -158.414 464L-159.176 464C-104.269 329.391 18.459 146.449 520.135 361.694C819.91 490.309 1066.69 455.316 1120 447.182ZM-160 415.155L-160 413.265C-105.498 278.477 15.9175 92.5855 520.137 308.92C819.91 437.538 1066.69 402.544 1120 394.41L1120 395.123C1066.45 403.291 819.631 438.184 519.859 309.566C14.2819 92.6494 -105.903 280.497 -160 415.155ZM-160 421.018L-160 419.128C-105.498 284.341 15.9175 98.4486 520.137 314.783C819.91 443.401 1066.69 408.408 1120 400.273L1120 400.986C1066.45 409.154 819.631 444.047 519.859 315.43C14.2819 98.5125 -105.903 286.36 -160 421.018ZM-160 426.882L-160 424.992C-105.498 290.204 15.9175 104.312 520.137 320.646C819.91 449.264 1066.69 414.271 1120 406.137L1120 406.851C1066.45 415.019 819.631 449.912 519.859 321.294C14.2819 104.377 -105.903 292.224 -160 426.883L-160 426.882ZM-160 432.746L-160 430.856C-105.498 296.068 15.9175 110.178 520.137 326.511C819.91 455.128 1066.69 420.134 1120 412.001L1120 412.714C1066.45 420.882 819.631 455.775 519.859 327.159C14.2819 110.242 -105.903 298.088 -160 432.748L-160 432.746ZM-160 438.609L-160 436.719C-105.498 301.931 15.9175 116.041 520.137 332.374C819.91 460.992 1066.69 425.999 1120 417.864L1120 418.577C1066.45 426.745 819.631 461.638 519.859 333.022C14.2819 116.105 -105.903 303.952 -160 438.611L-160 438.609ZM-160 444.472L-160 442.582C-105.498 307.795 15.9175 121.904 520.137 338.238C819.91 466.855 1066.69 431.862 1120 423.727L1120 424.44C1066.45 432.608 819.631 467.501 519.859 338.884C14.2819 121.966 -105.903 309.814 -160 444.472ZM-160 450.335L-160 448.446C-105.498 313.658 15.9175 127.766 520.137 344.1C819.91 472.719 1066.69 437.725 1120 429.591L1120 430.305C1066.45 438.473 819.631 473.366 519.859 344.748C14.2819 127.831 -105.903 315.678 -160 450.337L-160 450.335ZM-160 456.199L-160 454.309C-105.498 319.521 15.9175 133.629 520.137 349.963C819.91 478.582 1066.69 443.588 1120 435.454L1120 436.168C1066.45 444.336 819.631 479.229 519.859 350.611C14.2819 133.694 -105.903 321.541 -160 456.2L-160 456.199ZM-160 462.062L-160 460.172C-105.498 325.384 15.9175 139.492 520.137 355.826C819.91 484.446 1066.69 449.453 1120 441.318L1120 442.031C1066.45 450.199 819.631 485.092 519.859 356.474C14.2819 139.557 -105.903 327.405 -160 462.063L-160 462.062ZM1120 388.545C1066.69 396.681 819.91 431.673 520.137 303.055C15.9175 86.7209 -105.498 272.613 -160 407.399L-160 409.289C-105.903 274.631 14.2819 86.7835 519.859 303.7C819.631 432.32 1066.45 397.427 1120 389.259L1120 388.545Z" fill="#5280E2"/>
</g>
<defs>
<clipPath id="clip0_88_6795">
<rect width="1280" height="330" fill="white"/>
</clipPath>
</defs>
</svg>
