<svg width="1920" height="1515" viewBox="0 0 1920 1515" fill="none" xmlns="http://www.w3.org/2000/svg">
<g clip-path="url(#clip0_68_5271)">
<path opacity="0.3" d="M1862.24 0.00550349H1859.48C1773.95 32.6431 1655.88 40.0966 1489.69 0.00550349H1485.93C1655.79 41.5184 1775.77 33.6887 1862.24 0.00550349M1880.24 0.00550349H1877.92C1786.43 41.0212 1654.61 51.7934 1460 0.00550349H1456.52C1654.56 53.2335 1787.99 42.0173 1880.24 0.00550349H1880.24ZM1895.72 0.00550349H1893.59C1797.64 49.1168 1654.13 63.6681 1432.67 0.00550349H1429.43C1654.21 65.1485 1799.15 50.0965 1895.72 0.00550349ZM1909.5 0.00550349H1907.53C1808.22 57.0272 1654.49 75.7684 1407.15 0.00550349H1404.1C1654.66 77.2672 1809.69 57.9921 1909.5 0.00550349ZM1920 1.20527V0.0495314C1818.18 64.7633 1655.43 88.0632 1383.01 0.00550349H1380.13C1654.02 89.0282 1817.65 65.9924 1920 1.20527ZM1920 8.7744V7.61867C1815.38 74.11 1646.39 96.8321 1360.24 0.00550349H1357.35C1645.01 97.8429 1814.84 75.3392 1920 8.7744ZM1920 16.3435V15.1878C1812.75 83.3504 1637.82 105.478 1338.4 0.003669H1335.66C1636.48 106.439 1812.24 84.5575 1920 16.3417V16.3435ZM1920 23.9127V22.7569C1810.24 92.5101 1629.65 114.078 1317.27 0.003669H1314.64C1628.34 114.997 1809.75 93.7025 1920 23.9127ZM1920 31.4818V30.3261C1807.86 101.594 1621.82 122.622 1296.78 0.003669H1294.17C1620.55 123.561 1807.37 102.781 1920 31.4818H1920ZM1920 39.051V37.8952C1805.63 110.582 1614.32 130.926 1277.14 0.003669H1274.62C1613.06 131.833 1805.15 111.756 1920 39.051H1920ZM1920 46.6201V45.4644C1803.46 119.529 1607.08 139.295 1257.84 0.0018345H1255.42C1605.84 140.159 1802.99 120.69 1920 46.6201ZM1920 54.1892V53.0335C1801.4 128.413 1600.08 147.536 1239.12 0.00550349H1236.7C1598.86 148.422 1800.92 129.572 1920 54.1929L1920 54.1892ZM1920 61.7602V60.6045C1799.41 137.244 1593.3 155.718 1220.83 0.00550349H1218.49C1592.09 156.565 1798.94 138.393 1920 61.762L1920 61.7602ZM1920 69.3293V68.1736C1797.48 146.043 1586.72 163.909 1202.86 0.00550349H1200.52C1585.53 164.775 1797.01 147.189 1920 69.333L1920 69.3293ZM1920 76.8985V75.7428C1796.98 153.927 1585.05 171.678 1198.18 5.59889C1193.74 3.69468 1189.33 1.85101 1184.91 0.0018345H1182.57C1187.65 2.11701 1192.72 4.24686 1197.82 6.43358C1584.57 172.457 1796.72 154.938 1920 76.8985ZM1920 84.4676V83.3119C1796.98 161.496 1585.05 179.247 1198.18 13.168C1187.56 8.61113 1177.01 4.24319 1166.5 0H1164.1C1175.28 4.49819 1186.52 9.14864 1197.82 14.0027C1584.57 180.027 1796.72 162.507 1920 84.4676ZM1920 92.0368V90.881C1796.98 169.065 1585.05 186.816 1198.18 20.7372C1181.11 13.412 1164.19 6.52531 1147.41 0H1144.93C1162.4 6.76379 1180.04 13.9385 1197.82 21.5719C1584.57 187.596 1796.72 170.076 1920 92.0368ZM1125 0.00550349C1148.97 8.91016 1173.25 18.6018 1197.82 29.1465C1584.56 195.17 1796.71 177.651 1919.99 99.6114V98.4557C1796.97 176.64 1585.04 194.391 1198.17 28.3118C1174.36 18.09 1150.82 8.68451 1127.57 0.00550349H1125Z" fill="#5280E2"/>
<path opacity="0.23" d="M-68.9972 1125.76L-68.9972 1128.37C-62.4681 1139.54 -62.0011 1152.17 -68.9972 1167.24L-68.9972 1170.06C-60.4641 1153.32 -60.7337 1139.46 -68.055 1127.26C-68.3579 1126.76 -68.672 1126.26 -68.9972 1125.76M-68.9972 1113.04L-68.9972 1114.84C-64.297 1119.01 -60.5169 1123.36 -57.7652 1127.94C-48.4315 1143.5 -50.8886 1161.88 -68.9972 1185.75L-68.9972 1187.74C-49.5627 1162.69 -46.8333 1143.5 -56.5839 1127.25C-59.583 1122.26 -63.7634 1117.55 -68.9972 1113.03L-68.9972 1113.04ZM-68.9972 1104.49L-68.9972 1106.11C-58.7546 1112.92 -51.0165 1120.08 -46.2968 1127.95C-35.2621 1146.33 -40.6905 1168.66 -68.9972 1199.36L-68.9972 1201.12C-39.4036 1169.35 -33.6944 1146.29 -45.1155 1127.26C-50.0575 1119.02 -58.2071 1111.56 -68.9972 1104.49L-68.9972 1104.49ZM-68.9972 1097.64L-68.9972 1099.18C-52.976 1108.06 -41.1769 1117.37 -34.8285 1127.94C-22.4401 1148.58 -30.8065 1174.2 -68.9972 1211.05L-68.9972 1212.72C-29.514 1174.84 -20.8808 1148.52 -33.6472 1127.25C-40.2124 1116.31 -52.4312 1106.74 -68.9972 1097.64L-68.9972 1097.64ZM-68.9972 1091.72L-68.9972 1093.23C-47.1057 1103.92 -31.1373 1114.98 -23.3602 1127.95C-9.81553 1150.51 -21.0587 1179.02 -68.9972 1221.66L-68.9972 1223.29C-19.7718 1179.64 -8.25621 1150.45 -22.1789 1127.26C-30.1783 1113.93 -46.5664 1102.63 -68.9972 1091.73L-68.9972 1091.72ZM-68.9972 1086.41L-68.9972 1087.89C-41.2075 1100.28 -20.9698 1112.81 -11.889 1127.94C2.67568 1152.21 -11.436 1183.35 -68.9972 1231.54L-68.9972 1233.14C-10.1324 1183.95 4.235 1152.15 -10.7077 1127.26C-20.0164 1111.75 -40.6738 1098.99 -68.9972 1086.41ZM-68.9972 1081.48L-68.9972 1082.95C-35.3121 1096.99 -10.7077 1110.81 -0.420711 1127.94C15.0668 1153.75 -1.86884 1187.32 -68.9972 1240.91L-68.9972 1242.5C-0.556906 1187.92 16.6317 1153.7 0.760586 1127.25C-9.76271 1109.72 -34.7896 1095.7 -68.9972 1081.48ZM-68.9972 1076.83L-68.9972 1078.3C-29.4445 1093.98 -0.373454 1108.91 11.0476 1127.94C27.3829 1155.16 7.65105 1191.01 -68.9972 1249.88L-68.9972 1251.46C8.97409 1191.62 28.9533 1155.11 12.2317 1127.25C0.56603 1107.82 -28.9275 1092.7 -68.9972 1076.83ZM-68.9972 1072.38L-68.9972 1073.83C-23.6159 1091.2 10.0192 1107.12 22.5187 1127.95C39.6406 1156.47 17.1543 1194.49 -68.9972 1258.56L-68.9972 1260.13C18.4745 1195.09 41.2138 1156.44 23.7 1127.26C10.9448 1106.01 -23.11 1089.92 -68.9972 1072.38ZM-68.9972 1068.05L-68.9972 1069.5C-17.8428 1088.61 20.4563 1105.4 33.9871 1127.94C51.8455 1157.7 26.6102 1197.77 -68.9972 1266.96L-68.9972 1268.54C27.9666 1198.38 53.4271 1157.67 35.1684 1127.25C21.3736 1104.27 -17.3397 1087.32 -68.9972 1068.05ZM-68.9972 1063.8L-68.9972 1065.25C-12.1281 1086.17 30.9324 1103.75 45.4554 1127.94C64.006 1158.85 36.0467 1200.9 -68.9972 1275.16L-68.9972 1276.73C37.3948 1201.52 65.5959 1158.84 46.6367 1127.25C31.8413 1102.6 -11.6361 1084.89 -68.9972 1063.8ZM-68.9972 1059.6L-68.9972 1061.05C-6.48564 1083.87 41.4418 1102.15 56.9265 1127.94C76.1331 1159.95 45.4888 1203.9 -68.9972 1283.19L-68.9972 1284.76C46.8563 1204.52 77.7285 1159.95 58.1078 1127.25C42.3396 1100.98 -5.99365 1082.6 -68.9972 1059.6ZM-68.9972 1055.42L-68.9972 1056.87L-65.2949 1058.22C0.999655 1082.39 52.2736 1101.08 68.3949 1127.94C88.2296 1160.99 54.8947 1206.78 -68.9972 1291.05L-68.9972 1292.63C56.2594 1207.41 89.8278 1160.99 69.5761 1127.25C53.2047 1099.98 1.72788 1081.21 -64.8223 1056.94L-68.9972 1055.42ZM-68.9972 1051.22L-68.9972 1052.67L-53.8265 1058.22C12.468 1082.39 63.7447 1101.08 79.8632 1127.94C100.295 1161.99 64.3034 1209.55 -68.9972 1298.79L-68.9972 1300.37C65.6904 1210.19 101.902 1162.01 81.0445 1127.25C64.6731 1099.98 13.1962 1081.21 -53.354 1056.94L-68.9972 1051.22ZM-68.9972 1047L-68.9972 1048.45C-59.897 1051.82 -50.9914 1055.07 -42.3582 1058.22C23.9335 1082.39 75.2103 1101.08 91.3315 1127.94C112.342 1162.95 73.7287 1212.23 -69 1306.42L-69 1308C75.1018 1212.88 113.951 1162.98 92.5128 1127.26C76.1414 1099.98 24.6645 1081.21 -41.8857 1056.94C-50.669 1053.74 -59.7358 1050.43 -69 1047L-68.9972 1047Z" fill="#5280E2"/>
<path opacity="0.3" d="M-19.9982 417.645L-19.9982 421.364C-1.73126 493.182 23.3438 569.493 57.4025 648.709C304.427 1223.24 140.356 1407.2 -19.9982 1489.17L-19.9982 1490.18C140.815 1408.2 305.816 1224.2 58.2281 648.357C23.6323 567.895 -1.66958 490.444 -19.9982 417.647M-19.9982 386.535L-19.9982 390.563C-1.29397 471.222 25.9149 558.065 64.8893 648.712C315.761 1232.19 142.633 1412.84 -19.9982 1492.93L-19.9982 1493.94C143.077 1413.83 317.147 1233.14 65.7149 648.359C26.1454 556.325 -1.28128 468.224 -19.9982 386.535ZM-19.9982 351.934L-19.9982 356.468C-1.32482 446.548 27.8492 545.149 72.3779 648.712C327.105 1241.16 144.701 1418.28 -19.9982 1496.54L-19.9982 1497.54C145.13 1419.27 328.488 1242.1 73.2034 648.359C27.9817 543.179 -1.37924 443.139 -19.9982 351.936L-19.9982 351.934ZM-19.9982 312.601L-19.9982 317.67C-1.99438 417.942 28.8491 530.063 79.8646 648.712C338.463 1250.16 146.549 1423.56 -19.9982 1500.03L-19.9982 1501.03C146.964 1424.53 339.842 1251.1 80.6902 648.359C28.8726 527.841 -2.13592 414.055 -19.9982 312.601ZM-19.9982 265.696L-19.9982 271.834C-3.61294 383.271 28.4136 511.634 87.3514 648.711C349.834 1259.2 148.169 1428.68 -19.9982 1503.42L-19.9982 1504.4C148.57 1429.64 351.213 1260.13 88.177 648.357C28.2158 508.898 -3.89599 378.441 -19.9982 265.694L-19.9982 265.696ZM-19.9982 203.651L-19.9982 212.501C-6.94259 336.642 25.1328 486.593 94.8399 648.712C361.231 1268.28 149.55 1433.64 -19.9982 1506.7L-19.9982 1507.68C149.933 1434.58 362.609 1269.22 95.6637 648.357C24.3508 482.497 -7.5541 329.392 -19.9982 203.649L-19.9982 203.651ZM-13.4985 -116L-14.4094 -116C-15.8392 -106.64 -17.9114 -92.6296 -19.9981 -74.4621L-19.9981 -66.3506C-17.6138 -88.5358 -15.1316 -105.315 -13.4985 -116ZM-6.01172 -116L-6.92261 -116C-10.5771 -92.0877 -18.4177 -37.9313 -19.9981 38.7674L-19.9981 93.8408C-17.1294 234.652 8.58616 430.689 102.327 648.711C372.652 1277.43 150.675 1438.43 -19.9982 1509.89L-19.9982 1510.86C151.045 1439.36 374.029 1278.37 103.152 648.357C-61.0828 266.381 -16.3999 -48.0671 -6.01172 -116ZM1.47507 -116L0.564148 -116C-9.86579 -47.7608 -54.4216 266.736 109.812 648.711C384.111 1286.68 151.531 1443.06 -20 1512.98L-20 1513.95C151.885 1443.99 385.488 1287.6 110.637 648.359C-53.5942 266.381 -8.91132 -48.0671 1.47507 -116ZM42.3709 1515L44.7842 1515C216.898 1445.55 454.268 1290.84 178.025 648.357C13.7903 266.381 58.4749 -48.0671 68.8613 -116L67.9504 -116C57.5205 -47.7608 12.9646 266.736 177.2 648.711C454.186 1292.93 214.32 1446.07 42.3709 1515ZM34.8841 1515L37.2975 1515C209.411 1445.55 446.781 1290.84 170.539 648.357C6.30351 266.381 50.9864 -48.0671 61.3745 -116L60.4637 -116C50.0337 -47.7608 5.47789 266.736 169.713 648.711C446.699 1292.93 206.833 1446.07 34.8841 1515ZM27.3974 1515L29.8107 1515C201.925 1445.55 439.294 1290.84 163.052 648.357C-1.18324 266.381 43.4996 -48.0671 53.886 -116L52.9751 -116C42.5451 -47.7608 -2.0107 266.736 162.224 648.711C439.211 1292.93 199.344 1446.07 27.3956 1515L27.3974 1515ZM19.9088 1515L22.3221 1515C194.436 1445.55 431.804 1290.84 155.563 648.357C-8.67183 266.381 36.0128 -48.0671 46.3992 -116L45.4883 -116C35.0584 -47.7608 -9.49745 266.736 154.736 648.711C431.722 1292.93 191.857 1446.07 19.907 1515L19.9088 1515ZM12.422 1515L14.8353 1515C186.949 1445.55 424.317 1290.84 148.077 648.357C-16.1586 266.381 28.5243 -48.0671 38.9124 -116L38.0016 -116C27.5716 -47.7608 -16.9842 266.736 147.249 648.711C424.236 1292.93 184.369 1446.07 12.4202 1515L12.422 1515ZM4.93526 1515L7.34859 1515C179.462 1445.55 416.83 1290.84 140.588 648.357C-23.6454 266.381 21.0375 -48.0671 31.4257 -116L30.5148 -116C20.0849 -47.7608 -24.471 266.736 139.764 648.711C416.751 1292.93 176.884 1446.07 4.93526 1515ZM-2.55149 1515L-0.138163 1515C171.976 1445.55 409.346 1290.84 133.103 648.357C-31.1339 266.381 13.5507 -48.0671 23.9371 -116L23.0262 -116C12.5963 -47.7608 -31.9596 266.736 132.276 648.711C409.262 1292.93 169.395 1446.07 -2.55332 1515L-2.55149 1515ZM-10.0382 1515L-7.62492 1515C164.489 1445.55 401.859 1290.84 125.616 648.357C-38.6207 266.381 6.06402 -48.0671 16.4504 -116L15.5395 -116C5.10956 -47.7608 -39.4463 266.736 124.789 648.711C401.775 1292.93 161.909 1446.07 -10.0401 1515L-10.0382 1515ZM-17.525 1515L-15.1117 1515C157.002 1445.55 394.372 1290.84 118.129 648.357C-46.1075 266.381 -1.42456 -48.0671 8.96362 -116L8.05273 -116C-2.3772 -47.7608 -46.9331 266.736 117.302 648.711C394.289 1292.93 154.422 1446.07 -17.5268 1515L-17.525 1515ZM76.3499 -116C65.9617 -48.0671 21.2789 266.381 185.514 648.357C461.756 1290.84 224.387 1445.55 52.2746 1515L49.8613 1515C221.81 1446.07 461.677 1292.93 184.69 648.711C20.4532 266.736 65.0091 -47.7608 75.439 -116L76.3499 -116Z" fill="#5280E2"/>
<path opacity="0.3" d="M2023 487.645L2023 491.364C2004.73 563.182 1979.66 639.493 1945.6 718.709C1698.57 1293.24 1862.64 1477.2 2023 1559.17L2023 1560.18C1862.19 1478.2 1697.18 1294.2 1944.77 718.357C1979.37 637.895 2004.67 560.444 2023 487.647M2023 456.535L2023 460.563C2004.29 541.222 1977.09 628.065 1938.11 718.712C1687.24 1302.19 1860.37 1482.84 2023 1562.93L2023 1563.94C1859.92 1483.83 1685.85 1303.14 1937.29 718.359C1976.85 626.325 2004.28 538.224 2023 456.535ZM2023 421.934L2023 426.468C2004.32 516.548 1975.15 615.149 1930.62 718.712C1675.89 1311.16 1858.3 1488.28 2023 1566.54L2023 1567.54C1857.87 1489.27 1674.51 1312.1 1929.8 718.359C1975.02 613.179 2004.38 513.139 2023 421.936L2023 421.934ZM2023 382.601L2023 387.67C2004.99 487.942 1974.15 600.063 1923.14 718.712C1664.54 1320.16 1856.45 1493.56 2023 1570.03L2023 1571.03C1856.04 1494.53 1663.16 1321.1 1922.31 718.359C1974.13 597.841 2005.14 484.055 2023 382.601ZM2023 335.696L2023 341.834C2006.61 453.271 1974.59 581.634 1915.65 718.711C1653.17 1329.2 1854.83 1498.68 2023 1573.42L2023 1574.4C1854.43 1499.64 1651.79 1330.13 1914.82 718.357C1974.78 578.898 2006.9 448.441 2023 335.694L2023 335.696ZM2023 273.651L2023 282.501C2009.94 406.642 1977.87 556.593 1908.16 718.712C1641.77 1338.28 1853.45 1503.64 2023 1576.7L2023 1577.68C1853.07 1504.58 1640.39 1339.22 1907.34 718.357C1978.65 552.497 2010.55 399.392 2023 273.649L2023 273.651ZM2016.5 -46L2017.41 -46C2018.84 -36.6399 2020.91 -22.6296 2023 -4.46207L2023 3.64944C2020.61 -18.5358 2018.13 -35.3152 2016.5 -46ZM2009.01 -46L2009.92 -46C2013.58 -22.0877 2021.42 32.0687 2023 108.767L2023 163.841C2020.13 304.652 1994.41 500.689 1900.67 718.711C1630.35 1347.43 1852.33 1508.43 2023 1579.89L2023 1580.86C1851.95 1509.36 1628.97 1348.37 1899.85 718.357C2064.08 336.381 2019.4 21.9329 2009.01 -46ZM2001.52 -46L2002.44 -46C2012.87 22.2392 2057.42 336.736 1893.19 718.711C1618.89 1356.68 1851.47 1513.06 2023 1582.98L2023 1583.95C1851.11 1513.99 1617.51 1357.6 1892.36 718.359C2056.59 336.381 2011.91 21.9329 2001.52 -46ZM1960.63 1585L1958.22 1585C1786.1 1515.55 1548.73 1360.84 1824.97 718.357C1989.21 336.381 1944.53 21.9329 1934.14 -46L1935.05 -46C1945.48 22.2392 1990.04 336.736 1825.8 718.711C1548.81 1362.93 1788.68 1516.07 1960.63 1585ZM1968.12 1585L1965.7 1585C1793.59 1515.55 1556.22 1360.84 1832.46 718.357C1996.7 336.381 1952.01 21.9329 1941.63 -46L1942.54 -46C1952.97 22.2392 1997.52 336.736 1833.29 718.711C1556.3 1362.93 1796.17 1516.07 1968.12 1585ZM1975.6 1585L1973.19 1585C1801.08 1515.55 1563.71 1360.84 1839.95 718.357C2004.18 336.381 1959.5 21.9329 1949.11 -46L1950.02 -46C1960.45 22.2392 2005.01 336.736 1840.78 718.711C1563.79 1362.93 1803.66 1516.07 1975.6 1585L1975.6 1585ZM1983.09 1585L1980.68 1585C1808.56 1515.55 1571.2 1360.84 1847.44 718.357C2011.67 336.381 1966.99 21.9329 1956.6 -46L1957.51 -46C1967.94 22.2392 2012.5 336.736 1848.26 718.711C1571.28 1362.93 1811.14 1516.07 1983.09 1585L1983.09 1585ZM1990.58 1585L1988.16 1585C1816.05 1515.55 1578.68 1360.84 1854.92 718.357C2019.16 336.381 1974.48 21.9329 1964.09 -46L1965 -46C1975.43 22.2392 2019.98 336.736 1855.75 718.711C1578.76 1362.93 1818.63 1516.07 1990.58 1585L1990.58 1585ZM1998.06 1585L1995.65 1585C1823.54 1515.55 1586.17 1360.84 1862.41 718.357C2026.65 336.381 1981.96 21.9329 1971.57 -46L1972.49 -46C1982.92 22.2392 2027.47 336.736 1863.24 718.711C1586.25 1362.93 1826.12 1516.07 1998.06 1585ZM2005.55 1585L2003.14 1585C1831.02 1515.55 1593.65 1360.84 1869.9 718.357C2034.13 336.381 1989.45 21.9329 1979.06 -46L1979.97 -46C1990.4 22.2392 2034.96 336.736 1870.72 718.711C1593.74 1362.93 1833.6 1516.07 2005.55 1585L2005.55 1585ZM2013.04 1585L2010.62 1585C1838.51 1515.55 1601.14 1360.84 1877.38 718.357C2041.62 336.381 1996.94 21.9329 1986.55 -46L1987.46 -46C1997.89 22.2392 2042.45 336.736 1878.21 718.711C1601.22 1362.93 1841.09 1516.07 2013.04 1585L2013.04 1585ZM2020.53 1585L2018.11 1585C1846 1515.55 1608.63 1360.84 1884.87 718.357C2049.11 336.381 2004.42 21.9329 1994.04 -46L1994.95 -46C2005.38 22.2392 2049.93 336.736 1885.7 718.711C1608.71 1362.93 1848.58 1516.07 2020.53 1585L2020.53 1585ZM1926.65 -46C1937.04 21.9329 1981.72 336.381 1817.49 718.357C1541.24 1360.84 1778.61 1515.55 1950.73 1585L1953.14 1585C1781.19 1516.07 1541.32 1362.93 1818.31 718.711C1982.55 336.736 1937.99 22.2392 1927.56 -46L1926.65 -46Z" fill="#5280E2"/>
</g>
<defs>
<clipPath id="clip0_68_5271">
<rect width="1920" height="1515" fill="white"/>
</clipPath>
</defs>
</svg>
