<svg width="32" height="48" viewBox="0 0 32 48" fill="none" xmlns="http://www.w3.org/2000/svg">
<path fill-rule="evenodd" clip-rule="evenodd" d="M21.6601 22.6695C21.1301 22.6695 20.4501 22.4995 19.6001 21.9995L16.6101 20.2295C16.3001 20.0495 15.7001 20.0495 15.4001 20.2295L12.4001 21.9995C10.6301 23.0495 9.59008 22.6295 9.12008 22.2895C8.66008 21.9495 7.94012 21.0795 8.41008 19.0795L9.12008 16.0095C9.20008 15.6895 9.04008 15.1395 8.80008 14.8995L6.32012 12.4195C5.08012 11.1795 5.18012 10.1195 5.35012 9.59951C5.52012 9.07951 6.06012 8.15951 7.78012 7.86952L10.9701 7.33952C11.2701 7.28952 11.7001 6.96952 11.8301 6.69952L13.6001 3.16952C14.4001 1.55952 15.4501 1.31952 16.0001 1.31952C16.5501 1.31952 17.6001 1.55952 18.4001 3.16952L20.1601 6.68952C20.3001 6.95952 20.7301 7.27952 21.0301 7.32952L24.2201 7.85952C25.9501 8.14951 26.4901 9.06951 26.6501 9.58951C26.8101 10.1095 26.9101 11.1695 25.6801 12.4095L23.2001 14.8995C22.9601 15.1395 22.8101 15.6795 22.8801 16.0095L23.5901 19.0795C24.0501 21.0795 23.3401 21.9495 22.8801 22.2895C22.6301 22.4695 22.2301 22.6695 21.6601 22.6695ZM17.3701 18.9395C16.9801 18.7095 16.4901 18.5895 16.0001 18.5895C15.5101 18.5895 15.0201 18.7095 14.6401 18.9395L11.6501 20.7095C10.7701 21.2195 10.2301 21.2295 10.0201 21.0795C9.81008 20.9295 9.65008 20.4095 9.88008 19.4195L10.5901 16.3495C10.7801 15.5195 10.4701 14.4395 9.87008 13.8395L7.39012 11.3595C6.90012 10.8795 6.67012 10.3895 6.78012 10.0595C6.89012 9.72951 7.35012 9.45951 8.03008 9.34951L11.2101 8.81951C11.9801 8.68951 12.8201 8.06951 13.1701 7.36952L14.9401 3.84952C15.2501 3.20952 15.6501 2.82952 16.0001 2.82952C16.3501 2.82952 16.7501 3.20952 17.0701 3.84952L18.8301 7.36952C19.1801 8.06951 20.0202 8.68951 20.7902 8.81951L23.9801 9.34951C24.6601 9.45951 25.1201 9.72951 25.2301 10.0595C25.3301 10.3895 25.1101 10.8695 24.6201 11.3595L22.1401 13.8395C21.5401 14.4495 21.2301 15.5195 21.4201 16.3495L22.1301 19.4195C22.3501 20.3995 22.2002 20.9295 21.9902 21.0795C21.7802 21.2295 21.2302 21.2295 20.3602 20.7095L17.3701 18.9395Z" fill="#5280E2"/>
<path fill-rule="evenodd" clip-rule="evenodd" d="M21.6601 46.6695C21.1301 46.6695 20.4501 46.4995 19.6001 45.9995L16.6101 44.2295C16.3001 44.0495 15.7001 44.0495 15.4001 44.2295L12.4001 45.9995C10.6301 47.0495 9.59008 46.6295 9.12008 46.2895C8.66008 45.9495 7.94012 45.0795 8.41008 43.0795L9.12008 40.0095C9.20008 39.6895 9.04008 39.1395 8.80008 38.8995L6.32012 36.4195C5.08012 35.1795 5.18012 34.1195 5.35012 33.5995C5.52012 33.0795 6.06012 32.1595 7.78012 31.8695L10.9701 31.3395C11.2701 31.2895 11.7001 30.9695 11.8301 30.6995L13.6001 27.1695C14.4001 25.5595 15.4501 25.3195 16.0001 25.3195C16.5501 25.3195 17.6001 25.5595 18.4001 27.1695L20.1601 30.6895C20.3001 30.9595 20.7301 31.2795 21.0301 31.3295L24.2201 31.8595C25.9501 32.1495 26.4901 33.0695 26.6501 33.5895C26.8101 34.1095 26.9101 35.1695 25.6801 36.4095L23.2001 38.8995C22.9601 39.1395 22.8101 39.6795 22.8801 40.0095L23.5901 43.0795C24.0501 45.0795 23.3401 45.9495 22.8801 46.2895C22.6301 46.4695 22.2301 46.6695 21.6601 46.6695Z" fill="#5280E2"/>
</svg>
