<svg width="20" height="20" viewBox="0 0 20 20" fill="none" xmlns="http://www.w3.org/2000/svg">
<path d="M14.7171 18.8917C14.2754 18.8917 13.7088 18.75 13.0004 18.3333L10.5088 16.8583C10.2504 16.7083 9.75042 16.7083 9.50042 16.8583L7.00042 18.3333C5.52542 19.2083 4.65876 18.8583 4.26709 18.575C3.88376 18.2917 3.28376 17.5667 3.67542 15.9L4.26709 13.3417C4.33376 13.075 4.20042 12.6167 4.00042 12.4167L1.93376 10.35C0.900424 9.31667 0.983757 8.43334 1.12542 8.00001C1.26709 7.56667 1.71709 6.80001 3.15042 6.55834L5.80876 6.11667C6.05876 6.07501 6.41709 5.80834 6.52542 5.58334L8.00042 2.64167C8.66709 1.30001 9.54209 1.10001 10.0004 1.10001C10.4588 1.10001 11.3338 1.30001 12.0004 2.64167L13.4671 5.57501C13.5838 5.80001 13.9421 6.06667 14.1921 6.10834L16.8504 6.55001C18.2921 6.79167 18.7421 7.55834 18.8754 7.99167C19.0088 8.42501 19.0921 9.30834 18.0671 10.3417L16.0004 12.4167C15.8004 12.6167 15.6754 13.0667 15.7338 13.3417L16.3254 15.9C16.7088 17.5667 16.1171 18.2917 15.7338 18.575C15.5254 18.725 15.1921 18.8917 14.7171 18.8917ZM10.0004 15.4917C10.4088 15.4917 10.8171 15.5917 11.1421 15.7833L13.6338 17.2583C14.3588 17.6917 14.8171 17.6917 14.9921 17.5667C15.1671 17.4417 15.2921 17 15.1088 16.1833L14.5171 13.625C14.3588 12.9333 14.6171 12.0417 15.1171 11.5333L17.1838 9.46667C17.5921 9.05834 17.7754 8.65834 17.6921 8.38334C17.6004 8.10834 17.2171 7.88334 16.6504 7.79167L13.9921 7.35001C13.3504 7.24167 12.6504 6.72501 12.3588 6.14167L10.8921 3.20834C10.6254 2.67501 10.2921 2.35834 10.0004 2.35834C9.70876 2.35834 9.37542 2.67501 9.11709 3.20834L7.64209 6.14167C7.35042 6.72501 6.65042 7.24167 6.00876 7.35001L3.35876 7.79167C2.79209 7.88334 2.40876 8.10834 2.31709 8.38334C2.22542 8.65834 2.41709 9.06667 2.82542 9.46667L4.89209 11.5333C5.39209 12.0333 5.65042 12.9333 5.49209 13.625L4.90042 16.1833C4.70876 17.0083 4.84209 17.4417 5.01709 17.5667C5.19209 17.6917 5.64209 17.6833 6.37542 17.2583L8.86709 15.7833C9.18376 15.5917 9.59209 15.4917 10.0004 15.4917Z" fill="#5280E2"/>
</svg>
