<svg width="260" height="50" viewBox="0 0 260 50" fill="none" xmlns="http://www.w3.org/2000/svg">
<path d="M43.1336 50L37.3825 32.0755L53.6774 19.8113H33.5484L26.8387 0L20.129 19.8113H0L15.0968 30C18.1037 27.2092 23.4839 22.5 33.5484 23.3333C25.1613 27.5 15.0968 35 11.501 44.6128L9.58525 50L26.8387 37.7358L43.1336 50Z" fill="white"/>
<path d="M67.7119 50.0002C75.8828 50.0002 81.8218 43.9965 81.8218 36.6668V36.5932C81.8218 29.2635 75.9585 23.3335 67.7876 23.3335C59.6167 23.3335 53.6777 29.3372 53.6777 36.6668V36.7405C53.6777 44.0701 59.5411 50.0002 67.7119 50.0002ZM67.7876 44.77C63.0969 44.77 59.7681 41.0867 59.7681 36.6668V36.5932C59.7681 32.1733 63.0213 28.5637 67.7119 28.5637C72.4026 28.5637 75.7315 32.2469 75.7315 36.6668V36.7405C75.7315 41.1604 72.4783 44.77 67.7876 44.77Z" fill="white"/>
<path d="M92.0103 49.5582H97.8358V29.0057H105.893V23.7755H83.9529V29.0057H92.0103V49.5582Z" fill="white"/>
<path d="M111.866 31.4366C114.098 29.6687 116.444 28.4164 119.167 28.4164C121.777 28.3795 123.328 29.4108 123.328 31.142V31.1788C123.328 32.9468 121.891 34.1991 119.167 34.1991H114.136V38.9136H119.016C122.194 38.8768 124.047 39.9449 124.047 41.8234V41.8602C124.047 43.9228 121.929 44.9173 119.054 44.9173C116.028 44.9173 113.569 43.7018 111.299 41.9707L107.857 46.0223C110.542 48.3427 114.06 50.0002 118.902 50.0002C125.939 50.0002 129.948 46.7221 129.948 42.339V42.3022C129.948 38.6558 127.792 37.1088 124.728 36.2985C127.452 35.2304 129.23 33.6834 129.23 30.3317V30.2948C129.23 26.0223 125.636 23.3335 119.281 23.3335C114.552 23.3335 111.337 24.991 108.348 27.6061L111.866 31.4366Z" fill="white"/>
<path d="M134.903 49.5582H145.192C152.114 49.5582 155.859 46.0959 155.859 40.6079V40.5711C155.859 34.8252 151.774 31.8786 145.419 31.8786H140.728V23.7755H134.903V49.5582ZM159.718 49.5582H165.543V23.7755H159.718V49.5582ZM140.728 44.4385V36.9247H145.343C148.369 36.9247 149.958 38.2875 149.958 40.6447V40.6816C149.958 43.1862 148.18 44.4385 145.305 44.4385H140.728Z" fill="white"/>
<path d="M171.881 49.5582H184.478C190.455 49.5582 194.389 47.2009 194.389 42.4863V42.4127C194.389 38.9873 192.497 37.2193 189.433 36.0775C191.325 35.1199 192.913 33.3887 192.913 30.5158V30.4421C192.913 28.711 192.308 27.2377 191.098 26.0591C189.547 24.549 187.239 23.7755 184.175 23.7755H171.881V49.5582ZM187.126 31.4735C187.126 33.3887 185.499 34.1991 182.927 34.1991H177.555V28.7479H183.305C185.764 28.7479 187.126 29.6687 187.126 31.3998V31.4735ZM188.601 41.7865C188.601 43.7018 187.05 44.5858 184.478 44.5858H177.555V38.9136H184.289C187.315 38.9136 188.601 39.9817 188.601 41.7129V41.7865Z" fill="white"/>
<path d="M198.349 49.5582H204.477V43.665H198.349V49.5582Z" fill="white"/>
<path d="M210.005 49.5582H215.83V41.3077H220.407L226.082 49.5582H232.891L226.422 40.3501C229.789 39.1346 232.096 36.5195 232.096 32.3574V32.2838C232.096 29.816 231.34 27.8639 229.827 26.3906C228.049 24.6595 225.476 23.7755 222.11 23.7755H210.005V49.5582ZM215.83 36.2985V28.8952H221.618C224.493 28.8952 226.195 30.1107 226.195 32.5784V32.6521C226.195 34.862 224.606 36.2985 221.731 36.2985H215.83Z" fill="white"/>
<path d="M248.387 49.9633C255.499 49.9633 260 46.1328 260 38.3243V23.7755H254.175V38.5453C254.175 42.6705 252.056 44.7331 248.463 44.7331C244.869 44.7331 242.751 42.5968 242.751 38.3611V23.7755H236.925V38.5084C236.925 46.1328 241.275 49.9633 248.387 49.9633Z" fill="white"/>
</svg>
